<svg width="80" height="80" viewBox="0 0 80 80" fill="none" xmlns="http://www.w3.org/2000/svg">
<g clip-path="url(#clip0_883_877)">
<path d="M10.0007 0.453125C9.01636 0.765625 7.81323 1.35938 7.57886 1.64062C7.50073 1.75 6.96948 1.92188 6.40698 2.03125C-0.108642 3.25 -1.76489 12.8438 2.03198 27.4219C4.67261 37.625 9.59448 47.1562 13.5945 49.8281C14.1101 50.1562 14.7351 50.4844 14.9695 50.5469L15.4226 50.6406L15.5164 52.8906C15.7664 58.2188 16.8757 62.5781 18.8757 66.0156C19.3757 66.8594 20.1101 67.7656 21.1726 68.8281C22.5164 70.1875 22.9382 70.5156 24.2195 71.1406C28.9695 73.5156 35.6882 73.5312 40.8132 71.2031L41.9851 70.6719L43.3757 71.125C45.0476 71.6875 47.6257 72.25 49.7664 72.5156C52.0632 72.7969 56.9851 72.75 59.7195 72.4375C60.9851 72.2812 62.0789 72.2031 62.157 72.25C62.2351 72.2969 62.3445 72.6406 62.407 73C62.6101 74.2344 63.657 76.1406 64.7507 77.2188C66.4695 78.9531 68.6101 79.8594 71.0164 79.8594C73.6414 79.8594 75.4851 79.0781 77.3601 77.2031C78.7195 75.8281 79.3757 74.6562 79.782 72.8594C80.7195 68.6406 78.2039 64.0781 74.1726 62.6562C68.8914 60.7969 63.4539 63.875 62.3445 69.3438L62.0789 70.7031L60.7664 70.8906C55.1101 71.7031 48.8132 71.375 44.4695 70.0156L43.5632 69.7344L44.3914 69.125C49.5007 65.3906 52.9539 59.4375 53.2351 53.8906C53.6101 46.5781 48.5164 43.1406 40.3132 45.1719C35.3914 46.3906 31.3757 50.2656 30.532 54.6094C29.9382 57.6719 30.8757 61.2969 33.0164 64.1562C34.5007 66.1094 37.2195 68.3594 39.5164 69.5312C39.8914 69.7188 40.1414 69.9219 40.0632 70C39.782 70.2812 37.032 71.0938 35.5476 71.3438C32.532 71.8281 27.8914 71.3281 25.532 70.25C20.3445 67.875 17.3914 61.9062 16.9382 52.875L16.8289 50.8281L17.8289 50.3594C19.0164 49.7969 20.0476 48.9844 21.1101 47.7188C27.3914 40.3594 33.1101 21.875 32.2195 11.8438C31.6882 5.875 29.6726 2.75 25.8601 2C25.3445 1.90625 24.8601 1.73438 24.7976 1.60938C24.6257 1.32812 23.3914 0.71875 22.3601 0.40625C21.2664 0.09375 19.8132 0.078125 19.2039 0.40625C18.6726 0.671875 18.1414 1.6875 18.1257 2.42188C18.1257 4.5 19.5164 5.54688 21.7664 5.17188C23.0945 4.95312 23.8914 4.54688 24.5007 3.8125C24.9382 3.28125 25.0164 3.25 25.5789 3.35938C27.907 3.78125 29.532 5.625 30.3289 8.70312C31.7195 14.1562 30.407 24.0156 27.0476 33.4062C25.3601 38.0938 24.9382 38.7969 22.8914 40.4531C19.8757 42.875 16.6882 43.5469 13.4226 42.4219C11.5007 41.7656 8.76636 39.9062 7.50073 38.375C6.59448 37.2812 4.20386 30.4844 3.04761 25.75C0.922608 16.9531 0.860108 10.1406 2.84448 6.39062C3.73511 4.70312 5.25073 3.5625 6.89136 3.34375C7.53198 3.26562 7.59448 3.28125 7.86011 3.71875C8.25073 4.39062 9.01636 4.8125 10.3445 5.09375C12.8914 5.625 14.2507 4.71875 14.2351 2.48438C14.2351 1.4375 13.9382 0.8125 13.282 0.40625C12.7039 0.078125 11.1101 0.09375 10.0007 0.453125ZM12.7039 1.67188C12.8601 1.76562 12.8445 3.09375 12.657 3.4375C12.4382 3.84375 11.8445 3.9375 10.7039 3.73438C8.95386 3.4375 8.37573 2.625 9.53198 2.10938C10.7664 1.54688 12.1414 1.35938 12.7039 1.67188ZM22.7039 2.03125C23.1882 2.21875 23.5945 2.4375 23.5945 2.51562C23.5945 3.14062 22.7351 3.625 21.282 3.82812C20.2507 3.96875 19.7507 3.6875 19.5945 2.875C19.3289 1.42188 20.3289 1.14062 22.7039 2.03125ZM11.3601 43.1094C13.5476 44.2188 16.3914 44.625 18.5945 44.1562C19.7664 43.9062 21.657 43.1094 22.5164 42.4844C22.782 42.2969 23.0164 42.1875 23.0632 42.2188C23.157 42.3281 21.532 44.8906 20.5164 46.2188C19.0476 48.1562 17.3601 49.375 16.1726 49.375C14.5632 49.3594 12.0164 46.875 9.82886 43.1719C9.40698 42.4531 9.06323 41.8281 9.06323 41.7969C9.06323 41.75 9.43823 41.9531 9.89136 42.25C10.3289 42.5312 11.0007 42.9219 11.3601 43.1094ZM46.7664 46.1719C50.0476 46.8594 51.8757 49.3906 51.8757 53.25C51.8757 58.6719 48.2039 64.8906 42.9226 68.4062L41.8601 69.125L40.6726 68.5312C37.0007 66.7188 34.3601 64.2188 32.8914 61.2031C31.4226 58.125 31.3757 55.3438 32.7507 52.5C33.5007 50.9688 35.6257 48.8281 37.3445 47.8594C40.157 46.2812 44.032 45.5938 46.7664 46.1719ZM72.532 63.6562C76.657 64.5312 79.2664 68.4688 78.4226 72.5312C77.9695 74.7344 76.4226 76.7031 74.3445 77.7344C70.157 79.7969 65.0164 77.4219 63.8289 72.8906C62.7351 68.6562 65.5007 64.375 69.8445 63.5938C70.907 63.4062 71.3914 63.4219 72.532 63.6562Z" fill="#094A54"/>
<path d="M69.5781 64.921C67.7344 65.421 66.2031 66.671 65.375 68.3585C64.9688 69.2179 64.9219 69.4366 64.9219 70.9366C64.9219 72.5304 64.9375 72.6398 65.5 73.7804C66.4219 75.6241 67.8125 76.7023 69.8594 77.1241C72.6875 77.7179 75.4219 76.3273 76.75 73.6398C77.2344 72.6554 77.2656 72.4835 77.2656 71.0148C77.2656 69.5773 77.2188 69.3585 76.7656 68.4054C75.9062 66.5929 74.5 65.421 72.5469 64.921C71.4531 64.6398 70.6562 64.6398 69.5781 64.921ZM73.2344 66.6398C76.0469 68.0148 76.8125 71.7804 74.7656 74.1866C73.9531 75.1241 72.4375 75.8273 71.2031 75.8429C68.4375 75.8585 66.25 73.7491 66.25 71.0773C66.25 69.7023 66.5938 68.7648 67.4531 67.8116C68.9688 66.1241 71.2344 65.671 73.2344 66.6398Z" fill="#094A54"/>
<path d="M70.1103 69.6866C69.5165 70.1554 69.2978 70.9366 69.5947 71.6085C70.2665 73.2491 72.6415 72.796 72.6572 71.046C72.6572 70.2804 72.454 69.9054 71.8759 69.6085C71.2509 69.2804 70.5947 69.3116 70.1103 69.6866ZM71.2509 71.0148C71.2509 71.1398 71.1884 71.2491 71.1103 71.2491C70.9072 71.2491 70.7665 70.9991 70.8915 70.8741C71.0634 70.7023 71.2509 70.7804 71.2509 71.0148Z" fill="#094A54"/>
</g>
<defs>
<clipPath id="clip0_883_877">
<rect width="80" height="80" fill="white"/>
</clipPath>
</defs>
</svg>
