<svg width="22" height="22" viewBox="0 0 22 22" fill="none" xmlns="http://www.w3.org/2000/svg">
<path d="M18.6374 3.31955C17.644 2.3165 16.461 1.52118 15.1572 0.979943C13.8534 0.438706 12.4549 0.162374 11.0432 0.167051C5.1282 0.167051 0.30737 4.98788 0.30737 10.9029C0.30737 12.7987 0.805703 14.6404 1.73737 16.2654L0.220703 21.8337L5.9082 20.3387C7.47904 21.1946 9.24487 21.6496 11.0432 21.6496C16.9582 21.6496 21.779 16.8287 21.779 10.9137C21.779 8.04288 20.6632 5.34538 18.6374 3.31955ZM11.0432 19.8295C9.43987 19.8295 7.86904 19.3962 6.4932 18.5837L6.1682 18.3887L2.7882 19.2771L3.68737 15.9837L3.4707 15.6479C2.57971 14.2255 2.1067 12.5813 2.1057 10.9029C2.1057 5.98455 6.11404 1.97622 11.0324 1.97622C13.4157 1.97622 15.6582 2.90788 17.3374 4.59788C18.169 5.4254 18.8279 6.40981 19.2761 7.49399C19.7243 8.57817 19.9527 9.74056 19.9482 10.9137C19.9699 15.8321 15.9615 19.8295 11.0432 19.8295ZM15.9399 13.1562C15.669 13.0262 14.3474 12.3762 14.109 12.2787C13.8599 12.1921 13.6865 12.1487 13.5024 12.4087C13.3182 12.6796 12.809 13.2862 12.6574 13.4596C12.5057 13.6437 12.3432 13.6654 12.0724 13.5246C11.8015 13.3946 10.9349 13.1021 9.91654 12.1921C9.11487 11.4771 8.58404 10.5996 8.42154 10.3287C8.26987 10.0579 8.39987 9.91705 8.5407 9.77622C8.65987 9.65705 8.81154 9.46205 8.94154 9.31038C9.07154 9.15872 9.1257 9.03955 9.21237 8.86622C9.29904 8.68205 9.2557 8.53039 9.1907 8.40038C9.1257 8.27038 8.58403 6.94872 8.36737 6.40705C8.1507 5.88705 7.9232 5.95205 7.7607 5.94122H7.2407C7.05654 5.94122 6.77487 6.00622 6.5257 6.27705C6.28737 6.54788 5.59404 7.19788 5.59404 8.51955C5.59404 9.84122 6.5582 11.1196 6.6882 11.2929C6.8182 11.4771 8.58404 14.1854 11.2707 15.3446C11.9099 15.6262 12.4082 15.7887 12.7982 15.9079C13.4374 16.1137 14.0224 16.0812 14.4882 16.0162C15.0082 15.9404 16.0807 15.3662 16.2974 14.7379C16.5249 14.1096 16.5249 13.5787 16.449 13.4596C16.3732 13.3404 16.2107 13.2862 15.9399 13.1562Z" fill="white"/>
</svg>
