<svg width="22" height="22" viewBox="0 0 22 22" fill="none" xmlns="http://www.w3.org/2000/svg">
<path d="M11.0001 5.79236C8.11828 5.79236 5.7925 8.11814 5.7925 11C5.7925 13.8818 8.11828 16.2076 11.0001 16.2076C13.882 16.2076 16.2077 13.8818 16.2077 11C16.2077 8.11814 13.882 5.79236 11.0001 5.79236ZM11.0001 14.3845C9.13645 14.3845 7.61555 12.8636 7.61555 11C7.61555 9.1363 9.13645 7.6154 11.0001 7.6154C12.8638 7.6154 14.3847 9.1363 14.3847 11C14.3847 12.8636 12.8638 14.3845 11.0001 14.3845ZM16.421 4.3654C15.7482 4.3654 15.2048 4.90876 15.2048 5.58161C15.2048 6.25447 15.7482 6.79782 16.421 6.79782C17.0939 6.79782 17.6372 6.257 17.6372 5.58161C17.6374 5.42184 17.6061 5.2636 17.5451 5.11595C17.484 4.96831 17.3944 4.83415 17.2815 4.72118C17.1685 4.6082 17.0343 4.51862 16.8867 4.45757C16.739 4.39652 16.5808 4.3652 16.421 4.3654ZM21.1513 11C21.1513 9.59841 21.164 8.20954 21.0853 6.81052C21.0066 5.18552 20.6359 3.74333 19.4476 2.55505C18.2568 1.36423 16.8171 0.996068 15.1921 0.917357C13.7905 0.838646 12.4017 0.851341 11.0027 0.851341C9.6011 0.851341 8.21223 0.838646 6.81321 0.917357C5.18821 0.996068 3.74602 1.36677 2.55774 2.55505C1.36692 3.74587 0.998753 5.18552 0.920042 6.81052C0.841331 8.21208 0.854027 9.60095 0.854027 11C0.854027 12.399 0.841331 13.7904 0.920042 15.1894C0.998753 16.8144 1.36946 18.2566 2.55774 19.4449C3.74856 20.6357 5.18821 21.0039 6.81321 21.0826C8.21477 21.1613 9.60363 21.1486 11.0027 21.1486C12.4042 21.1486 13.7931 21.1613 15.1921 21.0826C16.8171 21.0039 18.2593 20.6332 19.4476 19.4449C20.6384 18.2541 21.0066 16.8144 21.0853 15.1894C21.1665 13.7904 21.1513 12.4015 21.1513 11ZM18.9169 16.9871C18.7316 17.4492 18.5081 17.7945 18.1501 18.15C17.7921 18.508 17.4493 18.7314 16.9872 18.9168C15.6517 19.4474 12.4804 19.3281 11.0001 19.3281C9.51985 19.3281 6.34602 19.4474 5.01047 18.9193C4.54836 18.734 4.20305 18.5105 3.84758 18.1525C3.48957 17.7945 3.26614 17.4517 3.08078 16.9896C2.55266 15.6515 2.672 12.4802 2.672 11C2.672 9.5197 2.55266 6.34587 3.08078 5.01032C3.26614 4.54822 3.48957 4.2029 3.84758 3.84743C4.20559 3.49197 4.54836 3.26599 5.01047 3.08064C6.34602 2.55251 9.51985 2.67185 11.0001 2.67185C12.4804 2.67185 15.6542 2.55251 16.9898 3.08064C17.4519 3.26599 17.7972 3.48943 18.1527 3.84743C18.5107 4.20544 18.7341 4.54822 18.9195 5.01032C19.4476 6.34587 19.3282 9.5197 19.3282 11C19.3282 12.4802 19.4476 15.6515 18.9169 16.9871Z" fill="white"/>
</svg>
