<svg width="22" height="20" viewBox="0 0 22 20" fill="none" xmlns="http://www.w3.org/2000/svg">
<path d="M20.1818 0.247083C19.921 0.266427 19.6651 0.327604 19.4238 0.42827H19.4205C19.1889 0.520083 18.088 0.983208 16.4143 1.68521L10.4164 4.21127C6.11257 6.02315 1.88188 7.80739 1.88188 7.80739L1.93226 7.7879C1.93226 7.7879 1.64057 7.88377 1.33588 8.09258C1.14722 8.21182 0.985145 8.36864 0.859756 8.55327C0.710256 8.77264 0.590006 9.10821 0.634694 9.45515C0.707819 10.0418 1.08807 10.3936 1.36107 10.5878C1.63732 10.7844 1.90057 10.8762 1.90057 10.8762H1.90707L5.87451 12.2128C6.05244 12.784 7.08351 16.1737 7.33132 16.9545C7.47757 17.4209 7.61976 17.7126 7.79769 17.9352C7.88274 18.049 7.98538 18.144 8.10563 18.2204C8.16809 18.2579 8.23532 18.2869 8.30551 18.3065L8.26488 18.2968C8.27707 18.3 8.28682 18.3098 8.29576 18.313C8.32826 18.322 8.35019 18.3252 8.39163 18.3317C9.01969 18.5218 9.52426 18.1318 9.52426 18.1318L9.55269 18.1091L11.8951 15.9763L15.8211 18.9882L15.9105 19.0264C16.7287 19.3855 17.5574 19.1856 17.9954 18.833C18.4366 18.478 18.608 18.0238 18.608 18.0238L18.6364 17.9506L21.6703 2.40833C21.7564 2.02483 21.7784 1.66571 21.6833 1.31715C21.5858 0.964131 21.3593 0.660563 21.0488 0.466458C20.7883 0.30802 20.4863 0.231584 20.1818 0.247083ZM20.0998 1.91271C20.0965 1.9639 20.1063 1.95821 20.0835 2.05652V2.06546L17.0781 17.4461C17.0651 17.468 17.0431 17.516 16.983 17.5639C16.9196 17.6143 16.8693 17.646 16.6052 17.5411L11.8033 13.8597L8.90269 16.5036L9.51207 12.6117L17.3576 5.29921C17.6809 4.99858 17.5729 4.93521 17.5729 4.93521C17.5956 4.56633 17.0846 4.82715 17.0846 4.82715L7.19157 10.9558L7.18832 10.9396L2.44657 9.34302V9.33977L2.43438 9.33733L2.45876 9.32758L2.48476 9.31458L2.50994 9.30565C2.50994 9.30565 6.74388 7.5214 11.0477 5.70952C13.2024 4.80196 15.3734 3.8879 17.0431 3.18265C18.0334 2.76583 19.0246 2.35146 20.0169 1.93952C20.0835 1.91352 20.0518 1.91271 20.0998 1.91271Z" fill="white"/>
</svg>
