<svg width="24" height="24" viewBox="0 0 24 24" fill="none" xmlns="http://www.w3.org/2000/svg">
<path d="M12 0C5.46218 0 0.141846 5.384 0.141846 12C0.141846 18.616 5.46218 24 12 24C18.5377 24 23.8581 18.616 23.8581 12C23.8581 5.384 18.5377 0 12 0ZM12 2C17.4695 2 21.8817 6.465 21.8817 12C21.8835 14.3938 21.035 16.7085 19.4909 18.522C17.9469 20.3355 15.8101 21.5269 13.4704 21.879V14.916H16.2847L16.7264 12.023H13.4704V10.443C13.4704 9.243 13.8607 8.176 14.9704 8.176H16.7541V5.652C16.4408 5.609 15.7778 5.516 14.5247 5.516C11.9081 5.516 10.3744 6.914 10.3744 10.1V12.023H7.68459V14.916H10.3744V21.854C8.06677 21.4696 5.96935 20.2675 4.4569 18.4623C2.94446 16.6572 2.11552 14.3667 2.1182 12C2.1182 6.465 6.5304 2 12 2Z" fill="white"/>
</svg>
