<svg width="90" height="90" viewBox="0 0 90 90" fill="none" xmlns="http://www.w3.org/2000/svg">
<path opacity="0.884" fill-rule="evenodd" clip-rule="evenodd" d="M39.7593 8.31704C43.1877 8.28409 46.6154 8.31706 50.0425 8.41592C52.0052 9.21265 52.4996 10.564 51.5256 12.4699C51.1396 12.9432 50.6452 13.2398 50.0425 13.3598C49.188 13.4584 48.3311 13.4914 47.4717 13.4586C47.4717 14.1178 47.4717 14.7771 47.4717 15.4362C53.6758 15.9982 59.1799 18.2393 63.9841 22.1598C64.9462 21.1315 65.968 20.1757 67.0493 19.2924C69.6494 18.6623 70.8689 19.6841 70.7078 22.3576C69.8331 23.6287 68.8113 24.7822 67.6426 25.8183C71.6406 30.5914 73.8817 36.0955 74.3662 42.3307C75.0253 42.3307 75.6846 42.3307 76.3438 42.3307C76.1956 40.9921 76.4262 39.7397 77.0359 38.5734C78.8527 37.3159 80.3028 37.6455 81.3865 39.5622C81.5184 43.1217 81.5184 46.6813 81.3865 50.2409C80.3028 52.1575 78.8527 52.4872 77.0359 51.2296C76.4262 50.0633 76.1956 48.8109 76.3438 47.4723C75.6846 47.4723 75.0253 47.4723 74.3662 47.4723C73.8044 53.6761 71.5633 59.1803 67.6426 63.9848C68.5325 64.8747 69.4224 65.7646 70.3123 66.6544C71.3962 69.3257 70.5063 70.677 67.6426 70.7084C67.2026 70.5975 66.8071 70.3997 66.4561 70.1151C65.6291 69.2551 64.7722 68.4313 63.8853 67.6432C59.1269 71.5698 53.6558 73.811 47.4717 74.3669C47.4717 75.026 47.4717 75.6853 47.4717 76.3444C48.7041 76.2335 49.8906 76.3982 51.0313 76.8388C52.3497 78.2231 52.3497 79.6073 51.0313 80.9916C50.7174 81.1621 50.3878 81.294 50.0425 81.3871C46.6148 81.519 43.187 81.519 39.7593 81.3871C38.254 80.9159 37.6277 79.8941 37.8806 78.3219C38.1114 77.3001 38.7375 76.674 39.7593 76.4433C40.6138 76.3446 41.4706 76.3116 42.3301 76.3444C42.3301 75.6853 42.3301 75.026 42.3301 74.3669C36.1232 73.8042 30.6191 71.5629 25.8176 67.6432C24.7816 68.8119 23.6281 69.8337 22.3569 70.7084C19.6835 70.8696 18.6617 69.65 19.2918 67.05C20.2111 65.9657 21.1669 64.911 22.1592 63.8859C18.2326 59.1275 15.9914 53.6565 15.4356 47.4723C14.7764 47.4723 14.1172 47.4723 13.458 47.4723C13.569 48.7047 13.4042 49.8912 12.9636 51.0319C11.5794 52.3503 10.1951 52.3503 8.8108 51.0319C8.64025 50.718 8.50841 50.3884 8.41529 50.0431C8.28345 46.6154 8.28345 43.1876 8.41529 39.7599C8.8866 38.2546 9.90833 37.6283 11.4805 37.8812C12.5022 38.112 13.1284 38.7381 13.3591 39.7599C13.4578 40.6144 13.4908 41.4713 13.458 42.3307C14.1172 42.3307 14.7764 42.3307 15.4356 42.3307C15.9916 36.1464 18.2328 30.6751 22.1592 25.9171C21.1669 24.892 20.2111 23.8374 19.2918 22.7531C18.6657 20.1492 19.6875 18.9299 22.3569 19.0946C22.6205 19.2265 22.8843 19.3582 23.148 19.4901C24.0408 20.416 24.9635 21.3059 25.9165 22.1598C30.6745 18.2334 36.1457 15.9923 42.3301 15.4362C42.3301 14.7771 42.3301 14.1178 42.3301 13.4586C40.9869 13.6233 39.7346 13.3926 38.5728 12.7665C37.3018 10.8141 37.6973 9.33096 39.7593 8.31704ZM39.957 9.89907C43.2536 9.86612 46.5496 9.89909 49.8447 9.99795C50.6357 10.5912 50.6357 11.1845 49.8447 11.7777C48.5281 11.8765 47.2097 11.9095 45.8897 11.8766C45.8897 13.5246 45.8897 15.1726 45.8897 16.8205C52.8544 17.2069 58.9187 19.7116 64.083 24.3351C65.3657 23.1515 66.618 21.932 67.8403 20.6767C68.8621 20.5119 69.2905 20.9403 69.1257 21.9621C67.8704 23.1844 66.6509 24.4368 65.4673 25.7194C70.0908 30.8835 72.5955 36.948 72.9819 43.9127C74.6298 43.9127 76.2779 43.9127 77.9258 43.9127C77.893 42.5927 77.9258 41.2743 78.0247 39.9577C78.6179 39.1666 79.2112 39.1666 79.8045 39.9577C79.9364 43.2536 79.9364 46.5494 79.8045 49.8454C79.2112 50.6364 78.6179 50.6364 78.0247 49.8454C77.9258 48.5287 77.893 47.2103 77.9258 45.8903C76.2779 45.8903 74.6298 45.8903 72.9819 45.8903C72.5414 52.8324 70.0364 58.897 65.4673 64.0836C66.6509 65.3663 67.8704 66.6187 69.1257 67.841C69.2905 68.8628 68.8621 69.2911 67.8403 69.1264C66.618 67.871 65.3657 66.6515 64.083 65.4679C58.8963 70.037 52.8318 72.542 45.8897 72.9826C45.8897 74.6305 45.8897 76.2785 45.8897 77.9264C47.2097 77.8936 48.5281 77.9264 49.8447 78.0253C50.6357 78.6186 50.6357 79.2118 49.8447 79.8051C46.5488 79.937 43.253 79.937 39.957 79.8051C39.166 79.2118 39.166 78.6186 39.957 78.0253C41.2737 77.9264 42.5921 77.8936 43.9121 77.9264C43.9121 76.2785 43.9121 74.6305 43.9121 72.9826C36.9245 72.6511 30.8602 70.1462 25.7188 65.4679C24.4361 66.6515 23.1837 67.871 21.9614 69.1264C20.9017 69.3524 20.4731 68.9239 20.676 67.841C21.9314 66.6187 23.1509 65.3663 24.3345 64.0836C19.711 58.9193 17.2062 52.855 16.8198 45.8903C15.1719 45.8903 13.5239 45.8903 11.876 45.8903C11.9089 47.2103 11.8759 48.5287 11.7771 49.8454C11.1838 50.6364 10.5906 50.6364 9.99732 49.8454C9.86548 46.5494 9.86548 43.2536 9.99732 39.9577C10.5906 39.1666 11.1838 39.1666 11.7771 39.9577C11.8759 41.2743 11.9089 42.5927 11.876 43.9127C13.5239 43.9127 15.1719 43.9127 16.8198 43.9127C17.2614 36.969 19.7664 30.9045 24.3345 25.7194C23.1509 24.4368 21.9314 23.1844 20.676 21.9621C20.5113 20.9403 20.9396 20.5119 21.9614 20.6767C23.1837 21.932 24.4361 23.1515 25.7188 24.3351C30.9039 19.767 36.9684 17.262 43.9121 16.8205C43.9121 15.1726 43.9121 13.5246 43.9121 11.8766C42.5921 11.9095 41.2737 11.8765 39.957 11.7777C39.182 11.1528 39.182 10.5265 39.957 9.89907Z" fill="#094A54"/>
<path opacity="0.886" fill-rule="evenodd" clip-rule="evenodd" d="M43.7148 24.3346C46.7084 23.9354 48.4223 25.2208 48.8564 28.1908C48.4644 31.0869 46.8165 32.3395 43.9125 31.9482C41.8359 31.19 40.88 29.7068 41.0451 27.4987C41.4107 25.9811 42.3006 24.9263 43.7148 24.3346ZM44.7035 25.7189C44.0571 25.8623 43.4968 26.1919 43.0226 26.7077C42.2393 28.0649 42.4701 29.2184 43.7148 30.1684C44.9181 30.7148 45.9399 30.484 46.78 29.4762C47.6428 27.3795 46.9506 26.1269 44.7035 25.7189Z" fill="#094A54"/>
<path opacity="0.9" fill-rule="evenodd" clip-rule="evenodd" d="M28.2898 25.1256C31.9468 24.6108 34.0563 26.1598 34.6179 29.7728C34.3084 32.752 32.6603 34.367 29.674 34.6178C26.16 33.967 24.6768 31.8575 25.2246 28.2897C25.504 27.6646 25.8337 27.0713 26.2133 26.5099C26.8675 25.9702 27.5597 25.5088 28.2898 25.1256ZM29.2785 26.5099C26.7746 27.4965 26.0824 29.2102 27.2021 31.6515C29.041 33.5262 30.8208 33.4603 32.5415 31.4537C33.5081 28.4924 32.4204 26.8445 29.2785 26.5099Z" fill="#094A54"/>
<path opacity="0.895" fill-rule="evenodd" clip-rule="evenodd" d="M58.5464 25.1255C62.1617 24.6929 64.2712 26.2421 64.8745 29.7728C64.5975 32.6536 63.0154 34.2687 60.1284 34.6177C57.188 34.3798 55.5399 32.7978 55.1846 29.8716C55.339 27.5791 56.4597 25.997 58.5464 25.1255ZM59.5352 26.5098C59.092 26.7315 58.6304 26.9621 58.1509 27.202C56.2659 29.0421 56.3317 30.8218 58.3486 32.5413C60.9762 33.4984 62.6241 32.6085 63.2925 29.8716C62.9727 27.706 61.7201 26.5854 59.5352 26.5098Z" fill="#094A54"/>
<path opacity="0.906" fill-rule="evenodd" clip-rule="evenodd" d="M37.98 35.4082C40.1764 35.7301 41.0005 36.9825 40.4519 39.1655C40.1553 39.7258 39.7267 40.1543 39.1665 40.4509C37.0379 41.0033 35.7853 40.2122 35.4092 38.0779C35.6425 36.5595 36.4994 35.6696 37.98 35.4082ZM37.7822 36.9902C37.446 37.3284 37.1824 37.7239 36.9912 38.1768C37.3885 39.1515 38.0148 39.3492 38.8699 38.77C39.3225 37.6996 38.96 37.1063 37.7822 36.9902Z" fill="#094A54"/>
<path opacity="0.904" fill-rule="evenodd" clip-rule="evenodd" d="M50.6358 35.6072C53.369 35.275 54.5225 36.4615 54.0965 39.1668C53.3022 40.4795 52.1487 40.9078 50.6358 40.4522C49.2978 39.6199 48.8695 38.4664 49.3504 36.9915C49.6854 36.4263 50.114 35.965 50.6358 35.6072ZM51.4269 36.9915C50.3133 37.8458 50.4122 38.571 51.7235 39.1668C53.2169 38.203 53.1181 37.4778 51.4269 36.9915Z" fill="#094A54"/>
<path opacity="0.888" fill-rule="evenodd" clip-rule="evenodd" d="M27.4987 40.947C30.2503 40.8649 31.7663 42.1831 32.0471 44.902C31.8545 47.3358 30.5362 48.6542 28.092 48.8571C24.6202 48.1108 23.5326 46.0674 24.8291 42.7268C25.5267 41.804 26.4166 41.2108 27.4987 40.947ZM27.6965 42.529C25.9137 43.2623 25.4194 44.5148 26.2133 46.2863C27.5982 47.6577 28.9164 47.5919 30.1684 46.0886C30.7969 43.9131 29.9728 42.7266 27.6965 42.529Z" fill="#094A54"/>
<path opacity="0.892" fill-rule="evenodd" clip-rule="evenodd" d="M60.9193 40.9453C64.9224 41.2253 66.2738 43.2689 64.9732 47.0757C62.863 49.3722 60.6877 49.4381 58.4473 47.2734C57.047 44.2522 57.8709 42.1427 60.9193 40.9453ZM61.117 42.5273C59.4828 43.226 58.9884 44.4125 59.6339 46.0869C60.8775 47.5879 62.196 47.6537 63.5889 46.2847C64.4624 43.9482 63.6384 42.6958 61.117 42.5273Z" fill="#094A54"/>
<path opacity="0.882" fill-rule="evenodd" clip-rule="evenodd" d="M44.1104 41.7363C47.4814 41.8431 48.6349 43.491 47.5711 46.6802C46.3233 48.126 44.8402 48.4226 43.1217 47.5701C41.6555 46.3252 41.3589 44.8421 42.2318 43.1206C42.7319 42.4512 43.3582 41.9898 44.1104 41.7363ZM44.3082 43.3184C43.9176 43.545 43.621 43.8746 43.4183 44.3071C43.1492 45.2512 43.4458 45.9433 44.3082 46.3835C45.2523 46.6527 45.9444 46.3561 46.3846 45.4937C46.6136 43.9096 45.9215 43.1845 44.3082 43.3184Z" fill="#094A54"/>
<path opacity="0.903" fill-rule="evenodd" clip-rule="evenodd" d="M36.9908 49.2518C39.724 48.9195 40.8775 50.1061 40.4515 52.8113C39.6571 54.124 38.5036 54.5524 36.9908 54.0967C35.6528 53.2644 35.2245 52.1109 35.7054 50.636C36.0404 50.0709 36.469 49.6095 36.9908 49.2518ZM37.7818 50.636C37.385 50.8376 37.1213 51.167 36.9908 51.6248C37.3549 52.6502 37.9812 52.9138 38.8695 52.4158C39.3221 51.3454 38.9597 50.7521 37.7818 50.636Z" fill="#094A54"/>
<path opacity="0.905" fill-rule="evenodd" clip-rule="evenodd" d="M50.6357 49.2518C53.3689 48.9195 54.5224 50.1061 54.0964 52.8113C53.1061 54.2741 51.8207 54.6368 50.2402 53.899C48.6936 52.2303 48.8255 50.6813 50.6357 49.2518ZM51.4268 50.636C50.3193 51.505 50.4182 52.2299 51.7234 52.8113C53.1737 51.9638 53.0748 51.2388 51.4268 50.636Z" fill="#094A54"/>
<path opacity="0.899" fill-rule="evenodd" clip-rule="evenodd" d="M28.2895 55.3815C31.9466 54.8667 34.056 56.4157 34.6176 60.0287C34.0667 63.6691 31.9572 65.1851 28.2895 64.577C25.1466 62.9932 24.3226 60.5871 25.8176 57.359C26.4978 56.5132 27.3219 55.8541 28.2895 55.3815ZM29.2783 56.7657C28.4958 57.0452 27.8036 57.5065 27.2019 58.15C26.1773 59.8187 26.4081 61.3018 27.894 62.5995C30.6517 63.8574 32.3656 63.0003 33.0356 60.0287C32.6709 57.9171 31.4184 56.8294 29.2783 56.7657Z" fill="#094A54"/>
<path opacity="0.896" fill-rule="evenodd" clip-rule="evenodd" d="M58.5464 55.3814C62.1617 54.9487 64.2712 56.4979 64.8745 60.0286C64.5955 62.9115 63.0134 64.5265 60.1284 64.8736C57.0988 64.6125 55.4509 62.9647 55.1846 59.9297C55.3995 57.7111 56.5202 56.195 58.5464 55.3814ZM59.3374 56.7657C56.3489 58.3374 56.0195 60.348 58.3486 62.7972C61.046 63.6888 62.6939 62.7331 63.2925 59.9297C62.8475 57.7699 61.5291 56.7152 59.3374 56.7657Z" fill="#094A54"/>
<path opacity="0.89" fill-rule="evenodd" clip-rule="evenodd" d="M43.912 57.7558C47.1722 57.5558 48.7873 59.072 48.757 62.3041C47.8794 65.1656 46.0007 66.1213 43.121 65.1715C41.078 63.8234 40.5178 62.0108 41.4401 59.7333C42.011 58.7315 42.8351 58.0724 43.912 57.7558ZM44.1098 59.3378C42.2839 60.5245 42.0862 61.9418 43.5165 63.5895C45.5532 64.4497 46.8056 63.7904 47.2738 61.612C46.912 59.8996 45.8571 59.1416 44.1098 59.3378Z" fill="#094A54"/>
</svg>
