<svg width="90" height="90" viewBox="0 0 90 90" fill="none" xmlns="http://www.w3.org/2000/svg">
<path opacity="0.854" fill-rule="evenodd" clip-rule="evenodd" d="M71.0046 13.656C71.2127 13.6264 71.4104 13.6594 71.5979 13.7549C73.1886 15.2794 74.7046 16.8614 76.1462 18.501C74.548 21.1372 73.1307 23.8727 71.8945 26.7078C71.4332 27.3669 70.9716 28.0262 70.5103 28.6853C62.699 36.4966 54.8877 44.3078 47.0764 52.1191C45.4823 53.2461 43.7684 54.1688 41.9348 54.8877C35.7386 61.0839 29.5422 67.2803 23.346 73.4765C21.4744 74.4398 19.6946 74.2751 18.0066 72.9822C16.9219 73.968 15.8671 74.9898 14.8425 76.0473C14.3986 76.0088 14.036 75.778 13.7549 75.3552C13.623 75.2233 13.623 75.0916 13.7549 74.9597C14.8125 73.9351 15.8343 72.8803 16.8201 71.7956C15.5764 70.1001 15.4117 68.3203 16.3257 66.4563C22.5219 60.2601 28.7183 54.0636 34.9146 47.8674C35.6334 46.0338 36.5561 44.3199 37.6831 42.7258C45.5602 34.8487 53.4376 26.9714 61.3147 19.0942C64.671 17.4798 67.9009 15.6671 71.0046 13.656ZM70.8069 15.6335C72.044 16.5402 73.1645 17.5951 74.1687 18.7976C73.6085 19.7864 73.048 20.7751 72.4878 21.7639C71.0046 20.2807 69.5215 18.7976 68.0383 17.3144C69.0067 16.7987 69.9295 16.2385 70.8069 15.6335ZM66.4563 18.0066C68.2622 19.7134 70.042 21.4602 71.7957 23.2471C71.2321 24.605 70.5399 25.8904 69.7192 27.1033C61.6386 35.5135 53.3658 43.7203 44.9011 51.7236C43.8884 52.2465 42.8666 52.7409 41.8359 53.2068C40.0892 51.46 38.3422 49.7131 36.5955 47.9663C37.1428 46.7066 37.7691 45.4871 38.4741 44.3078C46.6208 35.8317 54.9593 27.5589 63.49 19.4897C64.497 18.9863 65.4857 18.4919 66.4563 18.0066ZM35.4089 49.4494C37.1053 50.8484 38.7203 52.3643 40.2539 53.9978C40.3858 54.1297 40.3858 54.2614 40.2539 54.3933C34.5849 60.0623 28.9161 65.7311 23.2471 71.4001C21.632 69.7851 20.0172 68.1702 18.4021 66.5552C24.1109 60.8794 29.7799 55.1774 35.4089 49.4494ZM17.2156 68.0383C18.8486 69.3413 20.3648 70.7914 21.7639 72.3889C19.7431 72.5797 18.3258 71.7229 17.5122 69.8181C17.285 69.246 17.1861 68.6527 17.2156 68.0383Z" fill="#094A54"/>
<path opacity="0.864" fill-rule="evenodd" clip-rule="evenodd" d="M57.5574 27.6965C59.0995 29.1397 60.6156 30.6229 62.1057 32.146C60.2901 33.9946 58.4445 35.8072 56.5686 37.5842C55.0524 36.2 53.6023 34.7498 52.218 33.2336C54.002 31.3839 55.7817 29.5382 57.5574 27.6965ZM57.5574 29.8718C56.5429 30.9854 55.4881 32.073 54.3933 33.1348C55.1513 33.8928 55.9095 34.6509 56.6675 35.4089C57.7551 34.3213 58.8428 33.2336 59.9304 32.146C59.1653 31.3477 58.3743 30.5897 57.5574 29.8718Z" fill="#094A54"/>
<path opacity="0.807" fill-rule="evenodd" clip-rule="evenodd" d="M51.2292 35.6067C52.3343 36.3813 53.3231 37.3042 54.1956 38.3752C51.6906 41.0119 49.1198 43.5827 46.4832 46.0876C45.4944 45.2308 44.5715 44.3079 43.7146 43.3191C46.2237 40.7441 48.7286 38.1733 51.2292 35.6067ZM51.427 37.782C49.7202 39.5879 47.9734 41.3677 46.1865 43.1213C46.0876 43.5499 46.2524 43.7146 46.6809 43.6157C48.4607 41.8359 50.2405 40.0562 52.0203 38.2764C51.8476 38.0697 51.6499 37.905 51.427 37.782Z" fill="#094A54"/>
<path opacity="0.847" fill-rule="evenodd" clip-rule="evenodd" d="M33.2337 55.3821C33.8562 55.5747 34.2187 55.9702 34.3213 56.5686C32.4427 58.4473 30.564 60.3259 28.6854 62.2046C28.2414 62.166 27.8789 61.9352 27.5977 61.5125C27.4658 61.3805 27.4658 61.2488 27.5977 61.1169C29.5163 59.2314 31.395 57.3197 33.2337 55.3821Z" fill="#094A54"/>
</svg>
