<svg width="160" height="160" viewBox="0 0 160 160" fill="none" xmlns="http://www.w3.org/2000/svg">
<path opacity="0.905" fill-rule="evenodd" clip-rule="evenodd" d="M120.469 3.90625C127.09 3.99166 133.653 4.66875 140.156 5.9375C142.654 6.97125 144.008 8.84625 144.219 11.5625C143.874 15.3974 141.791 17.3245 137.969 17.3438C134.211 16.9482 130.461 16.4795 126.719 15.9375C121.601 15.064 117.018 16.2098 112.969 19.375C103.907 27.9568 97.3963 38.2172 93.4376 50.1562C92.4591 53.4344 91.7819 56.7678 91.4063 60.1562C95.2422 61.8047 98.0547 64.5131 99.8438 68.2812C103.258 68.5266 106.591 68.0578 109.844 66.875C121.429 63.0897 131.481 56.8916 140 48.2812C142.95 45.0078 144.46 41.1538 144.531 36.7188C144.082 31.8013 143.457 26.9056 142.656 22.0312C143.311 17.6763 145.811 15.7492 150.156 16.25C152.396 16.8229 153.802 18.2292 154.375 20.4688C155.373 25.8982 156.05 31.3669 156.406 36.875C156.242 44.3531 153.689 50.8638 148.75 56.4062C137.214 68.0884 123.412 75.8487 107.344 79.6875C104.66 80.2053 101.952 80.5178 99.2188 80.625C96.9513 84.6759 93.5138 87.0197 88.9063 87.6562C88.6704 89.25 88.0976 90.7081 87.1876 92.0312C84.4747 94.6919 81.8185 97.4003 79.2188 100.156C84.2235 105.213 89.1713 110.317 94.0626 115.469C96.0922 119.656 95.8838 123.718 93.4376 127.656C84.8438 136.25 76.2501 144.844 67.6563 153.438C61.0938 157.812 54.5313 157.812 47.9688 153.438C44.7916 150.26 41.6147 147.083 38.4375 143.906C33.9763 137.061 34.0804 130.29 38.75 123.594C51.8316 110.616 64.8004 97.5434 77.6563 84.375C77.1354 84.0625 76.7188 83.6459 76.4063 83.125C75.8472 82.9625 75.3263 83.0666 74.8438 83.4375C61.9272 96.3541 49.0104 109.271 36.0938 122.188C30.0752 125.9 23.9294 126.108 17.6563 122.812C13.9675 119.437 10.3737 115.947 6.87505 112.344C2.43564 105.607 2.53981 98.94 7.18755 92.3438C15.573 83.9584 23.9584 75.5728 32.3438 67.1875C36.7494 64.2116 41.2285 64.1075 45.7813 66.875C50.6251 71.7188 55.4688 76.5625 60.3126 81.4062C63.0729 78.6459 65.8335 75.8853 68.5938 73.125C70.1029 72.5362 71.561 71.8591 72.9688 71.0938C73.9254 67.0944 76.1129 63.9694 79.5313 61.7188C79.7847 54.5669 81.2951 47.6919 84.0626 41.0938C88.3413 30.81 94.2266 21.5912 101.719 13.4375C105.267 9.78781 109.433 7.07947 114.219 5.3125C116.313 4.69678 118.396 4.22803 120.469 3.90625ZM120.469 6.71875C126.889 6.76534 133.243 7.44241 139.531 8.75C142.031 10.625 142.031 12.5 139.531 14.375C138.958 14.4271 138.385 14.4792 137.813 14.5312C134.115 14.0625 130.417 13.5938 126.719 13.125C120.9 12.2357 115.692 13.5898 111.094 17.1875C100.578 27.0106 93.4422 38.9378 89.6876 52.9688C89.2054 55.1319 88.8929 57.3194 88.7501 59.5312C86.7372 59.7875 84.706 59.9956 82.6563 60.1562C82.8719 54.085 84.1738 48.2519 86.5626 42.6562C91.2641 30.6696 98.3997 20.4092 107.969 11.875C111.747 9.14194 115.913 7.42319 120.469 6.71875ZM147.656 18.9062C149.508 18.711 150.81 19.4402 151.563 21.0938C152.488 26.27 153.165 31.4784 153.594 36.7188C153.514 42.8122 151.586 48.2287 147.813 52.9688C137.869 63.5456 125.942 71.0978 112.031 75.625C108.263 76.8056 104.409 77.4828 100.469 77.6562C100.94 75.5669 101.044 73.4837 100.781 71.4062C108.288 70.6925 115.371 68.5569 122.031 65C129.717 61.1294 136.54 56.0772 142.5 49.8438C146.383 45.3606 147.945 40.1525 147.188 34.2188C146.775 30.1327 146.202 26.0702 145.469 22.0312C145.72 20.6375 146.449 19.5958 147.656 18.9062ZM84.5313 62.6562C92.5197 62.1566 97.1029 65.8544 98.2813 73.75C97.4072 80.4575 93.6051 84.2597 86.8751 85.1562C80.2247 84.2872 76.4226 80.5372 75.4688 73.9062C75.9704 68.0953 78.9913 64.3453 84.5313 62.6562ZM37.9688 67.6562C40.2591 67.5 42.3422 68.0728 44.2188 69.375C49.3319 74.5925 54.5401 79.6966 59.8438 84.6875C60.4029 84.85 60.9238 84.7459 61.4063 84.375C64.4272 81.3541 67.4479 78.3334 70.4688 75.3125C71.2097 75.0828 71.9391 74.8225 72.6563 74.5312C72.9822 76.4603 73.5032 78.3353 74.2188 80.1562C60.9504 93.2684 47.721 106.446 34.5313 119.688C29.1193 123.217 23.7026 123.217 18.2813 119.688C15.3125 116.719 12.3438 113.75 9.37505 110.781C5.3903 105.096 5.49445 99.4706 9.68755 93.9062C17.7605 85.8334 25.8334 77.7603 33.9063 69.6875C35.1244 68.6778 36.4785 68.0006 37.9688 67.6562ZM79.8438 86.0938C81.6738 87.1503 83.6529 87.6712 85.7813 87.6562C85.7938 88.5703 85.5335 89.4034 85.0001 90.1562C81.6519 93.3475 78.4747 96.6809 75.4688 100.156C80.4547 105.611 85.611 110.924 90.9376 116.094C93.0804 119.252 93.1844 122.481 91.2501 125.781C82.7604 134.271 74.271 142.76 65.7813 151.25C60.2857 154.869 54.8688 154.765 49.5313 150.938C46.2407 147.751 43.0635 144.47 40 141.094C37.0532 135.683 37.3657 130.474 40.9375 125.469C54.0891 112.474 67.0579 99.3487 79.8438 86.0938Z" fill="#094A54"/>
<path opacity="0.913" fill-rule="evenodd" clip-rule="evenodd" d="M84.8438 67.0312C91.431 66.5859 94.2954 69.6068 93.4375 76.0937C90.9422 80.7415 87.3485 81.8353 82.6563 79.3749C79.0685 75.8174 78.9644 72.1715 82.3438 68.4374C83.156 67.8765 83.9894 67.4078 84.8438 67.0312ZM86.7188 69.5312C85.6482 69.8328 84.6585 70.3537 83.75 71.0937C82.2663 73.3393 82.5269 75.3706 84.5313 77.1874C88.0432 78.6084 90.2307 77.4624 91.0938 73.7499C90.7013 71.2218 89.2429 69.8156 86.7188 69.5312Z" fill="#094A54"/>
<path opacity="0.907" fill-rule="evenodd" clip-rule="evenodd" d="M38.2813 73.9064C38.9147 73.8558 39.5397 73.908 40.1563 74.0626C45.1041 79.0105 50.0522 83.9586 55 88.9064C55.2084 89.5314 55.2084 90.1564 55 90.7814C47.0313 98.7501 39.0625 106.719 31.0938 114.688C27.8001 116.951 24.5709 116.847 21.4063 114.375C18.7403 111.814 16.1883 109.157 13.75 106.406C12.4295 104.069 12.3253 101.673 13.4375 99.2189C21.6688 90.7273 29.95 82.2898 38.2813 73.9064ZM38.9063 77.3439C31.2 85.1023 23.5438 92.9148 15.9375 100.781C15.3003 102.184 15.4045 103.538 16.25 104.844C19.0197 107.718 21.8843 110.479 24.8438 113.125C26.1181 113.644 27.3681 113.54 28.5938 112.813C36.3697 105.037 44.0781 97.3283 51.7188 89.6876C47.5775 85.3892 43.3066 81.2745 38.9063 77.3439Z" fill="#094A54"/>
<path opacity="0.912" fill-rule="evenodd" clip-rule="evenodd" d="M69.8438 105.156C70.3747 105.106 70.8957 105.158 71.4063 105.312C76.3541 110.26 81.3022 115.208 86.2501 120.156C86.4585 120.781 86.4585 121.406 86.2501 122.031C78.4985 130.095 70.6338 138.064 62.6563 145.937C59.2413 148.307 55.9079 148.202 52.6563 145.625C50.0944 143.168 47.6466 140.615 45.3126 137.969C43.8691 135.269 43.8691 132.56 45.3126 129.844C53.5526 121.656 61.7297 113.426 69.8438 105.156ZM70.4688 108.594C62.9797 116.239 55.4276 123.843 47.8126 131.406C46.9266 132.92 46.8226 134.482 47.5001 136.094C50.1563 138.75 52.8126 141.406 55.4688 144.062C56.5254 144.764 57.6713 144.972 58.9063 144.687C67.1738 137.097 75.1944 129.233 82.9688 121.094C78.8997 116.816 74.7332 112.65 70.4688 108.594Z" fill="#094A54"/>
</svg>
