<svg width="90" height="90" viewBox="0 0 90 90" fill="none" xmlns="http://www.w3.org/2000/svg">
<path d="M15.5566 15.5391C13.9219 16.2949 12.5684 18.2461 11.8477 20.8301C11.6543 21.5156 11.5488 22.6582 11.5312 24.082C11.5137 26.0684 11.4785 26.332 11.1094 26.8418C9.45703 29.1797 9.28125 31.8164 10.6172 34.5234L11.2148 35.7363L10.6348 36.5449C7.45312 40.9746 7.45312 45.8613 10.6348 49.377L11.2852 50.0801L10.9336 50.5723C8.87695 53.4902 8.66602 56.8652 10.3535 59.7481L10.8457 60.5742L10.459 61.3652C9.38672 63.4746 9.07031 66.7441 9.73828 68.7305C10.8281 71.9824 12.709 73.8633 15.6094 74.6191C17.0859 74.9883 19.8105 74.9883 21.7266 74.6191C22.957 74.3731 23.4141 74.3555 24.2051 74.5137C25.4707 74.7598 28.0195 74.7598 29.2148 74.5137C33.0469 73.7227 35.8418 70.3652 35.9121 66.4981L35.9473 65.2148H37.3711C39.6738 65.2148 42.5566 64.2832 44.2441 63C44.9297 62.4727 45.0703 62.4727 45.7559 63C47.4961 64.3008 50.3262 65.2148 52.6289 65.2148H54.0527L54.0879 66.4981C54.1758 70.3828 56.9531 73.7227 60.7852 74.5137C61.998 74.7598 64.5293 74.7598 65.7949 74.5137C66.6387 74.3379 67.043 74.3555 68.2559 74.6191C69.9609 74.9883 72.6504 75.041 74.0039 74.7246C77.1152 73.9863 79.1543 72.0352 80.2617 68.7305C80.9297 66.7441 80.6133 63.4746 79.5586 61.3828L79.1719 60.6094L79.8223 59.3613C80.7012 57.6914 80.9824 56.0918 80.7012 54.4746C80.4727 53.2969 79.752 51.5567 79.084 50.6074L78.7148 50.0977L79.4531 49.2539C82.459 45.8613 82.4941 41.0274 79.5586 36.8262L78.7676 35.7012L79.2773 34.752C79.998 33.4512 80.3848 31.6406 80.2617 30.3399C80.1562 29.25 79.541 27.7207 78.8555 26.8067C78.4863 26.332 78.4512 26.0859 78.4336 24.1699C78.416 20.8301 77.6426 18.4395 76.0078 16.6992C74.8828 15.5039 73.793 15.0645 72.0703 15.1524C70.8223 15.2051 70.6289 15.2578 69.7148 15.8906C67.9922 17.0684 66.7969 19.2481 65.918 22.7988C65.7773 23.3789 65.6016 23.6074 64.9688 23.9766C63.8613 24.627 62.666 26.0332 62.2266 27.2109C62.0156 27.7559 61.8047 28.793 61.752 29.5137L61.6465 30.832L60.3984 32.0625C58.2891 34.1543 57.3926 36.5625 57.5156 39.7617L57.5859 41.4844L56.6895 41.7481C53.9824 42.5215 52.2773 45.1231 51.9434 49.0078C51.873 49.8164 51.7676 50.4317 51.6973 50.3965C49.6406 49.2891 47.6367 48.8145 45 48.8145C42.6094 48.8145 40.9043 49.166 39.1641 49.9922C38.6543 50.2383 38.2324 50.4141 38.2324 50.3965C38.2148 50.3789 38.1094 49.6055 38.0039 48.6914C37.5293 44.8067 36 42.5215 33.3105 41.7481L32.4141 41.4844L32.4844 39.7617C32.6074 36.5625 31.7109 34.1543 29.6016 32.0625L28.3535 30.832L28.248 29.5137C28.1953 28.793 27.9844 27.7559 27.7734 27.2109C27.334 26.0332 26.1387 24.627 25.0312 23.9766C24.3984 23.6074 24.2227 23.3789 24.082 22.7988C23.0449 18.6152 21.5508 16.3125 19.2832 15.3281C18.4395 14.959 16.5586 15.0645 15.5566 15.5391ZM19.1777 17.2793C20.7246 18.2285 21.7969 20.4434 22.5879 24.293C22.6582 24.6797 22.9219 24.9082 23.6953 25.2949C25.6992 26.3145 26.4375 27.6504 26.4551 30.1992C26.4551 31.5352 26.5078 31.8692 26.7539 32.0098C26.9121 32.0977 27.4219 32.4668 27.8965 32.8535C30.1465 34.6289 31.166 37.8106 30.5859 41.2383C30.3574 42.5742 30.3574 42.5918 30.7441 42.9258C30.9727 43.1016 31.3945 43.2422 31.6758 43.2422C34.6816 43.2422 36.6328 46.5469 36.334 51.1524C36.2812 51.9961 36.3164 52.7871 36.4043 52.9629C36.6855 53.4375 37.4062 53.3145 38.2148 52.6465C39.8672 51.3106 42.2402 50.5723 45 50.5723C47.7598 50.5723 50.1328 51.3106 51.7852 52.6465C52.1895 52.9805 52.6816 53.2617 52.8574 53.2617C53.5957 53.2441 53.666 53.0508 53.7012 50.4317C53.7188 48.2871 53.7891 47.707 54.1406 46.6699C54.8438 44.6309 56.5312 43.2422 58.3242 43.2422C58.6055 43.2422 59.0273 43.1016 59.2383 42.9258C59.6074 42.627 59.625 42.5742 59.4141 41.2559C59.1504 39.6387 59.2734 37.5293 59.6953 36.2988C60.2578 34.6289 61.752 32.8535 63.2461 32.0098C63.4922 31.8692 63.5449 31.5352 63.5449 30.1992C63.5625 27.6504 64.3008 26.3145 66.3047 25.2949C67.0781 24.9082 67.3418 24.6797 67.4121 24.293C68.0449 21.2344 68.8359 19.2481 69.9434 18.0527C70.8574 17.0684 71.4551 16.8047 72.668 16.9102C73.793 16.9981 74.6543 17.5606 75.3398 18.668C76.4297 20.3906 76.9746 23.2559 76.623 25.418L76.4121 26.7363L77.0273 27.3867C78.873 29.3027 79.0137 31.834 77.4141 34.4707C77.0801 35.0156 76.8164 35.6309 76.8164 35.8242C76.8164 36.0176 77.1328 36.5625 77.5195 37.0195C79.9102 39.9024 80.6133 43.5234 79.3301 46.2305C79.0488 46.8633 78.3281 47.9004 77.7305 48.5684C77.1328 49.2188 76.6406 49.8516 76.6406 49.9746C76.6406 50.0977 76.9746 50.625 77.3613 51.1524C78.75 52.9805 79.2773 54.8613 78.9258 56.707C78.7324 57.6914 78.416 58.3945 77.3262 60.082C77.0977 60.4336 77.1328 60.5566 77.5723 61.3477C80.0156 65.707 78.8555 70.752 75.0059 72.5273C73.9512 73.0195 73.8281 73.0371 71.2793 73.0195C69.5566 73.002 68.3438 72.9141 67.7637 72.7383C67.043 72.5273 66.709 72.5273 65.7422 72.7207C64.3711 72.9844 62.0684 73.002 61.0312 72.7734C57.5508 71.9648 55.3359 68.6426 55.916 65.1445C56.1973 63.4219 56.127 63.3691 53.4902 63.4219C50.4844 63.4922 48.3398 62.8242 46.248 61.1719C45.7559 60.7852 45.2109 60.4688 45.0176 60.4688C44.8242 60.4688 44.1738 60.8379 43.5586 61.3125C41.4316 62.9121 39.5156 63.4922 36.5098 63.4219C33.9082 63.3691 33.8027 63.4395 34.084 65.0742C34.3125 66.4277 34.1191 67.8516 33.5215 69.1348C32.8535 70.5586 31.957 71.4551 30.4805 72.1758C29.2852 72.7734 29.0215 72.8438 27.3691 72.8965C26.2617 72.9492 25.1016 72.8789 24.3457 72.7383C23.2734 72.5273 22.9746 72.5273 22.2363 72.7383C21.6562 72.9141 20.4434 73.002 18.7207 73.0195C16.1719 73.0371 16.0488 73.0195 14.9941 72.5273C11.7598 71.0508 10.3008 66.9902 11.6016 63.1934C11.7949 62.6309 12.1465 61.8223 12.3926 61.418C12.9375 60.4863 12.9375 60.3809 12.375 59.6426C11.7422 58.8164 11.127 57.3574 10.9863 56.4082C10.7578 54.8438 11.4609 52.7168 12.7617 50.9942C13.0957 50.5723 13.3594 50.1152 13.3594 49.9922C13.3594 49.8516 12.8672 49.2188 12.2695 48.5684C11.6719 47.9004 10.9512 46.8633 10.6699 46.2305C9.38672 43.5234 10.0898 39.9024 12.4805 37.0195C12.8672 36.5625 13.1836 36.0176 13.1836 35.8242C13.1836 35.6309 12.9023 35.0332 12.5684 34.4883C11.0215 31.957 11.1445 29.4082 12.9199 27.4395L13.5879 26.7188L13.377 25.4004C12.8672 22.3067 14.0801 18.5625 15.9785 17.2793C16.8047 16.7168 18.2988 16.7168 19.1777 17.2793Z" fill="#094A54"/>
<path d="M72.6328 36.9492C72.2637 37.3184 72.4043 37.8984 72.9668 38.4785C73.8809 39.4453 74.4258 40.8516 74.4434 42.2754C74.4434 43.8398 74.1445 44.3848 73.0898 44.666C72.1582 44.9121 71.8945 45.1055 71.8945 45.5977C71.8945 46.1777 72.2285 46.4062 73.1426 46.4062C75.252 46.4062 76.6055 44.1035 76.1309 41.2559C75.6562 38.4434 73.6348 35.9473 72.6328 36.9492Z" fill="#094A54"/>
<path d="M19.0547 44.4374C17.209 45.9667 16.4355 49.746 17.3848 52.6815L17.7891 53.912L17.2617 54.9667C16.5059 56.4433 16.1719 57.9022 16.1719 59.6776C16.1719 61.5585 16.5059 62.9296 17.4375 64.828C18.1758 66.3222 18.5625 66.7265 19.1602 66.5331C19.8984 66.3046 19.9336 65.8124 19.2832 64.6347C17.7012 61.787 17.4727 58.3065 18.7383 55.8632L18.9844 55.3886L19.9688 55.9159C20.5137 56.1972 21.1113 56.4257 21.2871 56.4257C21.4629 56.4257 21.6211 56.5312 21.6211 56.6718C21.6211 56.7948 21.9023 57.4628 22.2363 58.1483C22.957 59.5897 24.2051 60.8202 25.4004 61.2597C26.2969 61.6112 26.6484 61.5409 26.9297 60.9257C27.1758 60.3632 26.9297 60.0468 25.8926 59.5546C24.416 58.869 23.3965 57.1991 23.2383 55.2479C23.1152 53.7187 23.7305 52.453 24.9609 51.6972C25.9453 51.0819 26.1035 50.5722 25.4707 49.9921C25.1191 49.6757 25.1016 49.6757 24.1348 50.1679C23.5547 50.4843 22.9395 50.994 22.5703 51.4687C22.0078 52.2069 21.4453 53.6483 21.4453 54.3515C21.4453 54.7206 21.0762 54.6327 20.2852 54.0351C18.2988 52.5761 18.1934 47.6718 20.1094 45.8964C21.1816 44.8944 20.1797 43.5058 19.0547 44.4374Z" fill="#094A54"/>
<path d="M66.4278 49.7637C66.2169 49.9746 66.1114 50.2559 66.1642 50.4141C66.2169 50.5899 66.463 51.2578 66.6915 51.9434C67.2716 53.543 67.3067 55.459 66.797 56.8477C66.34 58.0606 65.1798 59.168 64.213 59.3262C62.7892 59.5547 62.3673 59.959 62.7189 60.75C63.1759 61.7168 65.7247 61.0488 67.131 59.5899C67.5177 59.1856 67.8868 58.711 67.9396 58.5352C68.0275 58.2363 68.1681 58.2012 68.8009 58.2891C70.3829 58.5176 72.1407 57.252 73.1075 55.2129C73.5118 54.3516 73.5646 54.0176 73.5646 52.3652C73.5646 51.0469 73.4942 50.4141 73.3185 50.2207C73.0372 49.8692 72.1583 49.834 71.9474 50.1328C71.8771 50.2559 71.8067 51.2051 71.8067 52.2246C71.8067 53.9824 71.7716 54.1231 71.2794 54.9492C70.6993 55.8633 69.7853 56.6016 69.1876 56.6016C68.836 56.6016 68.8185 56.5137 68.8009 54.4395C68.8009 52.6289 68.7306 52.1367 68.379 51.2578C67.9923 50.2383 67.3595 49.3945 66.9728 49.3945C66.8849 49.3945 66.6388 49.5527 66.4278 49.7637Z" fill="#094A54"/>
</svg>
