<svg width="102" height="102" viewBox="0 0 102 102" fill="none" xmlns="http://www.w3.org/2000/svg">
<path opacity="0.869" fill-rule="evenodd" clip-rule="evenodd" d="M35.668 0.902344C38.2721 0.902344 40.8764 0.902344 43.4805 0.902344C57.6246 2.87686 68.0088 10.1685 74.6328 22.7773C79.9756 34.7836 79.6502 46.6324 73.6562 58.3242C72.6959 59.9199 71.6867 61.4824 70.6289 63.0117C72.2537 64.7342 73.9139 66.4269 75.6094 68.0898C76.8139 66.8854 78.0182 65.6811 79.2227 64.4766C79.5721 64.375 79.8977 64.44 80.1992 64.6719C86.3516 70.8242 92.5039 76.9766 98.6562 83.1289C99.731 84.6262 100.48 86.2537 100.902 88.0117C100.902 89.3139 100.902 90.6158 100.902 91.918C100.252 95.0098 98.6248 97.4512 96.0195 99.2422C94.7135 100.012 93.3463 100.566 91.918 100.902C90.6158 100.902 89.3139 100.902 88.0117 100.902C86.2537 100.48 84.6262 99.731 83.1289 98.6562C76.9115 92.4389 70.6939 86.2213 64.4766 80.0039C64.3463 79.7436 64.3463 79.483 64.4766 79.2227C65.6811 78.0182 66.8854 76.8139 68.0898 75.6094C66.4269 73.9139 64.7342 72.2537 63.0117 70.6289C52.4887 78.1557 40.9652 80.2064 28.4414 76.7812C19.0669 73.7836 11.7427 68.152 6.46875 59.8867C3.41754 54.8018 1.56206 49.333 0.902344 43.4805C0.902344 40.8764 0.902344 38.2721 0.902344 35.668C3.03805 20.6855 10.9807 10.0411 24.7305 3.73438C28.2906 2.35628 31.9363 1.41227 35.668 0.902344ZM39.3789 2.46484C54.8936 3.17064 66.1893 10.3972 73.2656 24.1445C78.3879 36.1592 77.6717 47.8127 71.1172 59.1055C61.5908 72.984 48.4723 78.5504 31.7617 75.8047C18.4424 72.4463 9.36033 64.3408 4.51562 51.4883C0.113816 36.1842 3.59689 23.0006 14.9648 11.9375C21.9992 5.94674 30.1373 2.78918 39.3789 2.46484ZM69.2617 64.5742C70.9504 66.1326 72.5779 67.7602 74.1445 69.457C72.6471 71.0846 71.0846 72.6471 69.457 74.1445C67.7996 72.5848 66.1721 70.9898 64.5742 69.3594C66.3072 67.9195 67.8697 66.3244 69.2617 64.5742ZM79.418 66.7227C81.1912 68.202 82.8838 69.7971 84.4961 71.5078C80.1666 75.8373 75.8373 80.1666 71.5078 84.4961C69.8773 82.8982 68.2824 81.2707 66.7227 79.6133C70.9586 75.3123 75.1902 71.0154 79.418 66.7227ZM85.668 72.7773C89.5023 76.5141 93.3109 80.29 97.0938 84.1055C99.5178 87.5156 99.7783 91.0965 97.875 94.8477C94.3365 99.4842 90.007 100.428 84.8867 97.6797C80.7906 93.7791 76.7543 89.8076 72.7773 85.7656C77.1137 81.4619 81.4105 77.1326 85.668 72.7773Z" fill="white"/>
<path opacity="0.875" fill-rule="evenodd" clip-rule="evenodd" d="M37.2301 9.49673C49.7723 9.07663 59.31 14.1548 65.8434 24.7311C70.3266 33.3467 70.8473 42.2008 67.4059 51.2936C62.5602 61.8092 54.3897 67.8963 42.8941 69.5553C29.7715 70.3682 19.8432 65.1924 13.109 54.028C8.12729 43.9661 8.3226 34.0051 13.6949 24.1452C19.1962 15.5178 27.0412 10.635 37.2301 9.49673ZM37.4254 11.2545C25.1115 12.8571 16.8107 19.4977 12.5231 31.1764C9.51588 42.5276 12.1851 52.2932 20.5309 60.4733C20.5959 56.3067 20.6611 52.1399 20.7262 47.9733C21.2527 44.9081 22.9779 42.8573 25.902 41.8209C29.3656 40.9483 32.8162 40.037 36.2535 39.0866C35.5115 38.5403 34.8279 37.9217 34.2027 37.2311C32.2924 34.4096 31.3484 31.2846 31.3707 27.8561C31.2799 23.0354 33.5586 20.0732 38.2066 18.9694C42.4481 18.4688 45.4754 20.1289 47.2887 23.9499C48.0871 26.4624 48.1523 29.0014 47.484 31.567C46.9703 34.7133 45.4402 37.2198 42.8941 39.0866C46.54 40.0631 50.1857 41.0397 53.8316 42.0163C56.2914 43.1084 57.8213 44.9639 58.4215 47.5827C58.4865 51.9446 58.5518 56.3067 58.6168 60.6686C67.6965 51.6016 70.1053 40.9897 65.8434 28.8327C60.15 16.9315 50.6773 11.0721 37.4254 11.2545ZM38.402 20.6295C36.4947 21.0165 35.0299 22.0581 34.0074 23.7545C32.8283 27.02 32.8936 30.275 34.2027 33.5202C35.1451 36.1229 36.9354 37.8157 39.5738 38.5983C41.5357 38.0893 43.0656 36.9825 44.1637 35.278C45.4272 32.8928 46.1107 30.3538 46.2145 27.6608C45.8895 22.7784 43.2854 20.4345 38.402 20.6295ZM38.7926 40.3561C34.6512 41.4243 30.4844 42.4985 26.2926 43.5788C24.2203 44.4321 22.9508 45.962 22.484 48.1686C22.3213 52.8575 22.3539 57.545 22.5816 62.2311C24.2375 63.4284 25.9953 64.47 27.8551 65.3561C28.0178 61.0608 28.1154 56.7639 28.1481 52.4655C28.527 51.8584 29.0477 51.7282 29.7106 52.0749C29.7441 56.809 29.8418 61.5292 30.0035 66.235C36.4332 68.4124 42.8785 68.445 49.3395 66.3327C49.2754 61.5329 49.3406 56.7477 49.5348 51.9772C50.0971 51.7903 50.5854 51.8879 50.9996 52.2702C51.0647 56.6973 51.1299 61.1243 51.1949 65.5514C53.1154 64.5918 54.9383 63.485 56.6637 62.2311C56.8518 57.2085 56.7865 52.1954 56.4684 47.192C55.7848 45.4668 54.5803 44.2624 52.8551 43.5788C49.0791 42.6022 45.3029 41.6256 41.527 40.6491C40.6281 40.4299 39.7168 40.3323 38.7926 40.3561Z" fill="white"/>
</svg>
