<svg width="90" height="90" viewBox="0 0 90 90" fill="none" xmlns="http://www.w3.org/2000/svg">
<path opacity="0.888" fill-rule="evenodd" clip-rule="evenodd" d="M53.877 15.7326C61.4219 15.0682 67.3105 17.8221 71.543 23.9943C75.2801 30.9333 74.87 37.6129 70.3125 44.0334C66.4091 48.5478 61.4579 50.745 55.459 50.6252C53.3194 51.1245 51.8253 52.3844 50.9766 54.4045C50.6498 56.6887 50.2982 58.9739 49.9219 61.2599C47.7216 68.0892 43.1221 72.2788 36.1231 73.8283C28.0384 74.8392 21.9154 71.8803 17.7539 64.9513C15.9994 61.4601 15.3549 57.7687 15.8203 53.8771C17.1526 39.9041 23.6858 29.1522 35.4199 21.6212C41.1341 18.2222 47.2864 16.2593 53.877 15.7326ZM53.877 17.1388C60.3197 16.4818 65.5638 18.6498 69.6094 23.6427C73.9076 30.4298 73.6733 37.051 68.9063 43.506C65.0985 47.5894 60.3816 49.5524 54.7559 49.3947C51.6678 50.3734 49.8221 52.4535 49.2188 55.6349C49.236 61.9003 46.6872 66.7928 41.5723 70.3127C35.0844 73.8212 28.8735 73.4111 22.9395 69.0822C18.3312 64.9861 16.4268 59.8591 17.2266 53.7013C18.912 38.511 26.5585 27.5247 40.166 20.7423C44.5555 18.7664 49.1258 17.5652 53.877 17.1388Z" fill="#094A54"/>
<path opacity="0.87" fill-rule="evenodd" clip-rule="evenodd" d="M51.416 20.6543C51.8883 20.6254 52.3571 20.6548 52.8223 20.7422C53.0453 21.1182 53.0453 21.4989 52.8223 21.8847C50.7665 22.0654 49.6533 23.1788 49.4824 25.2246C48.7139 25.6892 48.3038 25.4549 48.252 24.5215C48.4743 22.5422 49.529 21.253 51.416 20.6543Z" fill="#094A54"/>
<path opacity="0.887" fill-rule="evenodd" clip-rule="evenodd" d="M58.7989 24.6974C59.0975 24.6692 59.3906 24.6984 59.6778 24.7852C59.8138 25.208 59.9017 25.6475 59.9414 26.1036C60.5906 26.6979 61.1471 26.6686 61.6114 26.0157C62.1997 25.8037 62.6098 25.9795 62.8418 26.5431C62.6151 26.946 62.3221 27.2975 61.9629 27.5978C62.161 27.9059 62.3368 28.2283 62.4903 28.5645C62.8969 28.7004 63.307 28.8177 63.7207 28.9161C63.9686 29.3466 63.9099 29.7275 63.545 30.0587C62.9086 30.0327 62.4692 30.2963 62.2266 30.8497C62.3323 31.3343 62.4789 31.8325 62.6661 32.3438C62.5539 32.9227 62.2023 33.0985 61.6114 32.8712C61.1471 32.2183 60.5906 32.189 59.9414 32.7833C59.8829 33.1349 59.8242 33.4864 59.7657 33.838C59.3556 34.3068 58.9453 34.3068 58.5352 33.838C58.4478 33.4319 58.4187 33.0218 58.4473 32.6075C58.0646 32.5924 57.7131 32.4752 57.3926 32.256C57.1323 32.4282 56.8978 32.6334 56.6895 32.8712C55.8399 33.0763 55.5177 32.7539 55.7227 31.9044C55.9605 31.6961 56.1657 31.4616 56.3379 31.2013C56.1187 30.8808 56.0015 30.5293 55.9864 30.1466C55.5721 30.1752 55.162 30.1461 54.7559 30.0587C54.2871 29.6486 54.2871 29.2383 54.7559 28.8282C55.162 28.7409 55.5721 28.7117 55.9864 28.7403C56.0015 28.3577 56.1187 28.0061 56.3379 27.6856C56.1657 27.4253 55.9605 27.1908 55.7227 26.9825C55.459 26.0743 55.7812 25.752 56.6895 26.0157C57.1643 26.5251 57.6916 26.5838 58.2715 26.1915C58.3926 25.6729 58.5684 25.175 58.7989 24.6974ZM58.4473 27.5099C57.0623 28.4659 56.8865 29.6085 57.92 30.9376C59.2098 31.6752 60.2354 31.4115 60.9961 30.1466C61.1985 28.2687 60.3489 27.3898 58.4473 27.5099Z" fill="#094A54"/>
<path opacity="0.874" fill-rule="evenodd" clip-rule="evenodd" d="M35.0683 27.6858C35.3826 27.6357 35.6757 27.6942 35.9473 27.8616C36.2417 29.9138 37.4134 31.0856 39.4629 31.3772C39.7183 31.7541 39.6598 32.0763 39.2871 32.344C36.6361 32.4781 35.1126 31.2183 34.7168 28.5647C34.7057 28.2107 34.8228 27.9176 35.0683 27.6858Z" fill="#094A54"/>
<path opacity="0.876" fill-rule="evenodd" clip-rule="evenodd" d="M46.1426 31.0254C49.1921 31.2013 50.5983 32.7834 50.3614 35.7715C50.0683 36.0058 49.7755 36.0058 49.4824 35.7715C49.1729 33.6748 47.9718 32.5028 45.8789 32.2559C45.7325 31.7863 45.8204 31.3762 46.1426 31.0254Z" fill="#094A54"/>
<path opacity="0.889" fill-rule="evenodd" clip-rule="evenodd" d="M31.9043 34.8927C32.2949 34.8361 32.6173 34.9534 32.8711 35.2443C32.9585 35.6503 32.9877 36.0604 32.959 36.4748C33.3681 36.5038 33.7488 36.6208 34.1016 36.8263C34.4831 36.1654 35.0104 35.9896 35.6836 36.299C35.8229 36.9293 35.6764 37.486 35.2442 37.9689C35.3259 38.8079 35.7947 39.1595 36.6504 39.0236C37.0154 39.3548 37.0741 39.7357 36.8262 40.1662C36.4261 40.2915 36.016 40.3794 35.5957 40.4298C35.0014 41.079 35.0308 41.6355 35.6836 42.0998C35.9473 43.008 35.6251 43.3302 34.7168 43.0666C34.2811 42.3849 33.7537 42.3555 33.1348 42.9787C33.0093 43.4229 32.8922 43.8623 32.7832 44.297C31.7811 44.467 31.3417 44.0276 31.4649 42.9787C30.8157 42.3843 30.2592 42.4137 29.795 43.0666C28.8867 43.3302 28.5645 43.008 28.8282 42.0998C29.0333 41.8946 29.2383 41.6897 29.4434 41.4845C29.1769 41.1511 29.0597 40.7702 29.0918 40.3419C28.6775 40.3706 28.2674 40.3414 27.8614 40.2541C27.3926 39.844 27.3926 39.4337 27.8614 39.0236C28.2674 38.9362 28.6775 38.907 29.0918 38.9357C29.107 38.553 29.2242 38.2015 29.4434 37.881C29.2711 37.6207 29.066 37.3862 28.8282 37.1779C28.623 36.3283 28.9454 36.0061 29.795 36.2111C30.0033 36.4489 30.2378 36.6541 30.4981 36.8263C30.8185 36.6071 31.1701 36.4899 31.5528 36.4748C31.4763 35.888 31.5936 35.3607 31.9043 34.8927ZM31.7286 37.7052C30.0954 38.6866 29.9196 39.8877 31.2012 41.3087C32.4721 41.8795 33.4389 41.5573 34.1016 40.3419C34.3407 38.5588 33.5497 37.6799 31.7286 37.7052Z" fill="#094A54"/>
<path opacity="0.876" fill-rule="evenodd" clip-rule="evenodd" d="M62.8418 35.4199C65.8462 35.4654 67.3404 36.9889 67.3242 39.9902C66.2873 40.3037 65.8187 39.8936 65.918 38.7598C65.3256 37.3206 64.2415 36.6175 62.666 36.6504C62.6959 36.418 62.6374 36.2129 62.4902 36.0352C62.6317 35.8395 62.749 35.6346 62.8418 35.4199Z" fill="#094A54"/>
<path opacity="0.879" fill-rule="evenodd" clip-rule="evenodd" d="M42.6269 41.3967C45.6365 41.3302 47.1892 42.795 47.2851 45.7912C46.9673 46.1245 46.5864 46.2124 46.1426 46.0549C45.8947 43.9613 44.7228 42.7601 42.6269 42.4514C42.4295 42.103 42.4295 41.7514 42.6269 41.3967Z" fill="#094A54"/>
<path opacity="0.871" fill-rule="evenodd" clip-rule="evenodd" d="M57.3926 41.3966C57.9231 41.3676 58.4504 41.3969 58.9746 41.4844C59.1638 41.7878 59.1931 42.1101 59.0625 42.4512C57.0032 42.6355 55.89 43.7487 55.7227 45.7911C55.4049 46.1244 55.0239 46.2123 54.5801 46.0548C54.2159 44.3778 54.7432 43.0301 56.1621 42.0118C56.5884 41.7986 56.9987 41.5936 57.3926 41.3966Z" fill="#094A54"/>
<path opacity="0.869" fill-rule="evenodd" clip-rule="evenodd" d="M26.2793 44.2089C26.9464 44.1138 27.2979 44.4066 27.334 45.0878C26.8878 47.8541 25.3058 49.1139 22.5879 48.8671C22.3356 48.4686 22.3942 48.117 22.7636 47.8124C23.6577 47.7296 24.4487 47.4072 25.1367 46.8456C25.6396 46.0073 26.0205 45.1284 26.2793 44.2089Z" fill="#094A54"/>
<path opacity="0.876" fill-rule="evenodd" clip-rule="evenodd" d="M34.3652 49.1308C34.9817 49.0419 35.5384 49.159 36.0352 49.4824C36.1524 49.7167 36.1524 49.9512 36.0352 50.1855C33.8992 50.4466 32.6979 51.6477 32.4316 53.7891C31.7865 53.9966 31.3764 53.7915 31.2012 53.1738C31.4631 51.1764 32.5178 49.8289 34.3652 49.1308Z" fill="#094A54"/>
<path opacity="0.87" fill-rule="evenodd" clip-rule="evenodd" d="M41.5723 52.6465C41.918 52.6045 42.2404 52.663 42.5391 52.8222C42.7609 54.8898 43.9035 56.0617 45.9668 56.3379C46.2222 56.7147 46.1637 57.037 45.791 57.3047C43.0956 57.4228 41.5721 56.1338 41.2207 53.4375C41.224 53.1153 41.3411 52.8516 41.5723 52.6465Z" fill="#094A54"/>
<path opacity="0.895" fill-rule="evenodd" clip-rule="evenodd" d="M35.9473 58.6232C36.3379 58.5666 36.6603 58.6838 36.9141 58.9748C37.0015 59.3808 37.0307 59.7909 37.002 60.2052C37.4302 60.1731 37.8111 60.2903 38.1446 60.5568C38.8099 59.6394 39.4251 59.6394 39.9903 60.5568C39.8718 60.9113 39.6667 61.2042 39.375 61.4357C39.2798 62.3789 39.7192 62.8184 40.6934 62.7541C41.071 63.1188 41.1297 63.5289 40.8692 63.9845C40.4473 64.0172 40.037 64.1051 39.6387 64.2482C39.0156 64.8671 39.0449 65.3945 39.7266 65.8302C39.9903 66.7385 39.6681 67.0607 38.7598 66.797C38.3241 66.1153 37.7967 66.086 37.1778 66.7091C37.0523 67.1533 36.9352 67.5928 36.8262 68.0275C36.5332 68.1447 36.2403 68.1447 35.9473 68.0275C35.7061 67.5822 35.5304 67.1134 35.42 66.6212C34.8803 66.2222 34.4115 66.2809 34.0137 66.797C33.6149 66.9303 33.234 66.9009 32.8711 66.7091C32.7769 66.0754 32.9821 65.5481 33.4864 65.1271C33.2672 64.8067 33.1499 64.4551 33.1348 64.0724C32.7205 64.1011 32.3104 64.0719 31.9043 63.9845C31.4508 63.6119 31.4508 63.231 31.9043 62.8419C32.2993 62.6883 32.7094 62.6296 33.1348 62.6662C33.1499 62.2835 33.2672 61.9319 33.4864 61.6115C33.3141 61.3511 33.109 61.1167 32.8711 60.9084C32.6706 60.3183 32.8755 59.9667 33.4864 59.8537C33.8814 60.0129 34.2329 60.2472 34.5411 60.5568C34.8615 60.3376 35.2131 60.2203 35.5958 60.2052C35.5442 59.6332 35.6615 59.1059 35.9473 58.6232ZM35.7715 61.4357C34.0042 62.6226 33.9457 63.8824 35.5958 65.215C36.719 65.5564 37.5685 65.2342 38.1446 64.2482C38.4981 62.4013 37.7071 61.4638 35.7715 61.4357Z" fill="#094A54"/>
<path opacity="0.867" fill-rule="evenodd" clip-rule="evenodd" d="M21.5332 59.1504C23.8016 58.9877 25.2958 59.9838 26.0156 62.1387C26.1534 62.7118 26.124 63.2685 25.9277 63.8087C25.5865 63.9393 25.2643 63.9099 24.9609 63.7208C24.7292 61.614 23.5573 60.4423 21.4453 60.2051C21.3261 59.8363 21.3554 59.4848 21.5332 59.1504Z" fill="#094A54"/>
</svg>
