<svg width="80" height="80" viewBox="0 0 80 80" fill="none" xmlns="http://www.w3.org/2000/svg">
<path d="M53.8593 1.21882C53.2343 1.90632 53.7656 2.50007 55.0312 2.50007C57.9999 2.50007 61.7499 3.85945 64.4999 5.93757C68.2499 8.7657 70.7031 13.2969 71.0312 18.0469C71.1562 19.7501 71.4062 20.1876 72.1093 19.8751C72.6406 19.6251 72.7187 19.1563 72.5156 17.3594C71.5312 8.92195 65.2968 2.40632 57.0312 1.15632C54.9843 0.859446 54.1718 0.875071 53.8593 1.21882Z" fill="#094A54"/>
<path d="M53.75 8.4375C53.6094 8.6875 53.6094 8.89062 53.7188 9.14062C53.8594 9.4375 54.0781 9.51562 55.3281 9.67188C57.8438 10 59.7031 10.9375 61.4063 12.75C62.9063 14.3594 63.9063 16.6875 63.9063 18.5781C63.9063 19.4062 64.2656 20 64.75 20C65.875 20 65.6406 16.9844 64.3125 14.2812C62.5781 10.7969 59.0156 8.375 55.2969 8.15625C54.0156 8.09375 53.9375 8.10938 53.75 8.4375Z" fill="#094A54"/>
<path d="M36.0781 12.25C35.5937 12.4375 35 12.75 34.75 12.9375C34.5 13.1094 31.2968 16.2656 27.6406 19.9531C21.1093 26.5156 20.9687 26.6719 20.3281 27.9688C19.5468 29.6094 19.2343 30.7656 19.125 32.5781C18.9687 35.1562 18.6093 36.4219 17.5312 38.125C17.2343 38.5938 15.3281 40.6719 13.2968 42.7344C9.87497 46.2188 9.56247 46.5781 8.85935 47.9062C7.81247 49.9375 7.46872 51.3594 7.4531 53.6719C7.43747 55 7.53122 55.875 7.71872 56.6406C8.0781 58.0156 8.99997 60.0156 9.7031 60.9375C9.99997 61.3281 10.2968 61.7188 10.3593 61.8281C10.4375 61.9375 10.25 62.3438 9.92185 62.7812C8.73435 64.4375 8.12497 66.4219 8.12497 68.6094C8.12497 71.6406 8.98435 73.6875 11.1718 75.875C13.4531 78.1562 15.3593 78.9688 18.4375 78.9688C21.3281 78.9688 23.125 78.25 25.625 76.0781C27.9843 74.0312 29.7968 73.3438 32.4218 73.4844C34.2343 73.5781 35.6562 74.1094 37.1718 75.2344C37.7968 75.7031 38.4218 76.0938 38.5625 76.0938C39.4687 76.0781 39.5156 75.1719 38.6562 74.4375C36.9375 72.9375 34.7187 72.0469 32.4218 71.9219C29.6093 71.7656 27.1718 72.6719 24.8281 74.75C24.1093 75.4062 23.0468 76.1719 22.4843 76.4688C18.4218 78.625 13.5312 77.2656 10.9375 73.2656C9.24997 70.6562 9.15622 67.2188 10.7031 64.4375C11.4687 63.0781 11.5468 63.0312 12.2812 63.6094C15.3281 66.0312 19.9375 66.7969 23.7343 65.5312C26.1562 64.7188 26.9218 64.1562 31.1718 60C36.1406 55.1094 36.8437 54.7188 40.75 54.4531C42.7343 54.3281 44.2187 53.9219 45.8593 53.0938C47.0468 52.4844 47.4843 52.0781 53.9218 45.6406C61.875 37.7031 61.6406 38 61.6406 35.3906C61.6406 33.9062 61.5937 33.7344 60.9531 32.125C57.1406 22.5938 50.3125 15.9062 40.9062 12.4375C39 11.7344 37.4687 11.6719 36.0781 12.25ZM40.375 13.8594C43.1093 14.8438 46.2656 16.5469 48.9062 18.4844C50.7968 19.8594 54 23.1094 55.3125 24.9531C57.7968 28.4688 60 33.0781 60.125 35C60.1875 35.9844 59.9531 37.3438 59.7187 37.3438C59.6562 37.3438 59.3593 36.9062 59.0781 36.3594C54.25 27.5 46.6093 19.75 37.7968 14.8438C36.9843 14.3906 36.2968 13.9844 36.2656 13.9531C35.9687 13.7188 37.7343 13.2656 38.5781 13.375C38.9687 13.4219 39.7812 13.6406 40.375 13.8594ZM36.6406 15.9531C38.9531 17.2188 42.3593 19.5156 44.4531 21.1875C46.6718 22.9688 50.6406 26.9375 52.3906 29.1406C54.0625 31.2344 56.3281 34.6094 57.6562 37L58.6406 38.7812L52.6406 44.7812C49.3437 48.0938 46.25 51.0469 45.7812 51.3594C44.4218 52.2812 42.6718 52.7969 40.4375 52.9688C37.7187 53.1562 35.8437 53.7969 34.1875 55.0469L33.4843 55.5938L25.7343 47.8281L17.9843 40.0781L18.4687 39.4531C19.7031 37.8281 20.625 35.1094 20.625 33C20.625 31.6719 21.0156 30.0625 21.6562 28.75C22.1875 27.6562 22.625 27.1875 28.5 21.2812C31.9375 17.8281 34.7968 15 34.8437 15C34.8906 15 35.7031 15.4219 36.6406 15.9531ZM29.3437 59.6094C26.125 62.7812 25.1718 63.4844 23.2812 64.0781C21.625 64.5938 19.9687 64.75 18.5 64.5469C15.8593 64.1719 14.0781 63.2969 12.1718 61.4062C11.1093 60.3438 10.7031 59.8125 10.1718 58.75C8.53122 55.4062 8.49997 52.2031 10.1093 48.9062C10.7968 47.4844 10.9531 47.2812 13.8906 44.3281L16.9375 41.2344L24.6406 48.9375L32.3437 56.6406L29.3437 59.6094Z" fill="#094A54"/>
<path d="M37.4219 30.7969C36.625 31.2031 33.8594 33.9219 33.3281 34.7969C32.7969 35.7187 32.6719 37.0937 33.0469 38.0625C33.8281 40.125 35.9219 41.1719 38.0312 40.5625C38.8125 40.3281 39.125 40.0937 40.625 38.6562C42.6094 36.7344 43.125 35.8906 43.125 34.5625C43.125 34.0937 43.0469 33.4375 42.9375 33.0937C42.7031 32.2969 41.7344 31.2031 40.8906 30.7969C39.9687 30.3437 38.2969 30.3594 37.4219 30.7969ZM39.8281 32.0312C40.4531 32.2031 41.2187 32.875 41.4375 33.4375C41.6562 34.0156 41.625 35.0625 41.3594 35.5625C40.9844 36.2656 38.4219 38.7031 37.7812 38.9844C37.4531 39.1094 37 39.2187 36.7656 39.2187C36.1875 39.2187 35.1406 38.6719 34.7812 38.1875C34.4531 37.7187 34.2812 36.6406 34.4375 35.9844C34.5937 35.4062 37.4219 32.5312 38.2031 32.1719C38.9219 31.8437 39.1094 31.8125 39.8281 32.0312Z" fill="#094A54"/>
<path d="M53.8594 15.4375C53.7031 15.5938 53.5938 15.8281 53.5938 15.9688C53.5938 16.2969 54.1094 16.7188 54.5156 16.7188C55.5469 16.7188 56.6094 17.6875 56.7969 18.8281C56.9219 19.5 57.2656 20 57.6094 20C57.7188 20 57.9531 19.8594 58.1406 19.6719C58.4062 19.4062 58.4375 19.2344 58.3594 18.7031C58.0938 17.1094 56.9844 15.8125 55.5625 15.3906C54.5469 15.0781 54.1719 15.0938 53.8594 15.4375Z" fill="#094A54"/>
</svg>
