<svg width="90" height="90" viewBox="0 0 90 90" fill="none" xmlns="http://www.w3.org/2000/svg">
<path opacity="0.917" fill-rule="evenodd" clip-rule="evenodd" d="M73.5645 2.9004C81.0333 2.63272 85.926 6.03117 88.2422 13.0957C89.4205 18.971 87.692 23.805 83.0567 27.5977C69.9316 39.4335 56.8067 51.2696 43.6817 63.1055C43.1264 63.6472 42.482 64.0575 41.7481 64.3359C41.045 64.4532 40.3418 64.4532 39.6387 64.3359C39.1054 64.0944 38.5781 63.9186 38.0567 63.8086C33.457 69.1114 28.8575 74.414 24.2579 79.7168C21.4883 82.7278 18.1776 84.925 14.3262 86.3086C10.3099 87.5333 6.55991 87.0059 3.07622 84.7266C1.33337 83.4066 0.83532 81.7367 1.58208 79.7168C10.2491 70.874 18.9795 62.0849 27.7735 53.3496C27.6133 52.9054 27.4376 52.4366 27.2461 51.9434C26.9652 50.6547 27.1996 49.4828 27.9493 48.4277C40.6554 34.4111 53.3409 20.378 66.0059 6.32813C68.22 4.48763 70.7397 3.34506 73.5645 2.9004ZM73.2129 4.48243C79.5894 4.04228 84.0133 6.7376 86.4844 12.5684C87.9172 17.4721 86.8334 21.7201 83.2325 25.3125C69.469 37.6107 55.758 49.9741 42.0997 62.4024C41.2484 62.9007 40.3694 62.9592 39.4629 62.5781C35.9767 59.0919 32.4902 55.6054 29.004 52.1192C28.4181 51.2988 28.4181 50.4786 29.004 49.6582C41.8003 35.3967 54.6617 21.1876 67.5879 7.03126C69.2851 5.75419 71.1602 4.90457 73.2129 4.48243ZM28.9161 54.4043C31.6053 57.0055 34.2712 59.6422 36.9141 62.3145C31.9005 68.6222 26.5977 74.7454 21.0059 80.6836C18.3924 83.0451 15.3454 84.5686 11.8653 85.2539C8.46863 85.8597 5.56824 84.9514 3.16411 82.5293C2.68027 81.8555 2.62169 81.1524 2.98833 80.4199C11.6663 71.7713 20.3089 63.0993 28.9161 54.4043Z" fill="#094A54"/>
<path opacity="0.892" fill-rule="evenodd" clip-rule="evenodd" d="M45.2637 37.3535C45.4486 37.3273 45.6244 37.3565 45.791 37.4414C48.5742 40.2246 51.3575 43.0079 54.1406 45.791C54.094 46.3746 53.8012 46.8434 53.2617 47.1973C50.3028 44.2384 47.3437 41.2792 44.3848 38.3203C44.714 38.0208 45.007 37.6986 45.2637 37.3535Z" fill="#094A54"/>
<path opacity="0.885" fill-rule="evenodd" clip-rule="evenodd" d="M40.5176 42.0996C40.7675 42.1363 41.0019 42.2242 41.2207 42.3633C43.9406 45.0831 46.6652 47.8078 49.3945 50.5371C49.3479 51.1207 49.0551 51.5895 48.5156 51.9434C45.5567 48.9844 42.5976 46.0253 39.6387 43.0664C39.9679 42.7669 40.2609 42.4447 40.5176 42.0996Z" fill="#094A54"/>
<path opacity="0.956" fill-rule="evenodd" clip-rule="evenodd" d="M35.7715 46.8457C35.9564 46.8195 36.1322 46.8487 36.2988 46.9336C39.082 49.7167 41.8653 52.5001 44.6484 55.2832C44.6019 55.8668 44.309 56.3356 43.7695 56.6895C40.8106 53.7305 37.8515 50.7714 34.8926 47.8125C35.2218 47.513 35.5148 47.1908 35.7715 46.8457Z" fill="#094A54"/>
<path opacity="0.934" fill-rule="evenodd" clip-rule="evenodd" d="M23.6425 64.7754C26.2819 65.0749 27.19 66.4812 26.3671 68.9941C23.3546 72.1825 20.2784 75.3173 17.1386 78.3984C15.0679 79.7391 13.5152 79.2997 12.4804 77.0801C12.2855 76.1752 12.4613 75.3548 13.0078 74.6191C16.0839 71.543 19.1601 68.4668 22.2363 65.3906C22.7035 65.1308 23.1723 64.9257 23.6425 64.7754ZM23.4668 66.3574C20.3674 69.5447 17.2327 72.7087 14.0625 75.8496C13.8545 77.3712 14.4698 77.8693 15.9082 77.3438C18.9258 74.3261 21.9433 71.3087 24.9609 68.291C25.3712 66.9709 24.8732 66.3263 23.4668 66.3574Z" fill="#094A54"/>
</svg>
