<svg width="80" height="80" viewBox="0 0 80 80" fill="none" xmlns="http://www.w3.org/2000/svg">
<g clip-path="url(#clip0_259_790)">
<path d="M10 0.453125C9.01562 0.765625 7.8125 1.35938 7.57813 1.64062C7.5 1.75 6.96875 1.92188 6.40625 2.03125C-0.109375 3.25 -1.76562 12.8438 2.03125 27.4219C4.67188 37.625 9.59375 47.1562 13.5938 49.8281C14.1094 50.1562 14.7344 50.4844 14.9688 50.5469L15.4219 50.6406L15.5156 52.8906C15.7656 58.2188 16.875 62.5781 18.875 66.0156C19.375 66.8594 20.1094 67.7656 21.1719 68.8281C22.5156 70.1875 22.9375 70.5156 24.2188 71.1406C28.9688 73.5156 35.6875 73.5312 40.8125 71.2031L41.9844 70.6719L43.375 71.125C45.0469 71.6875 47.625 72.25 49.7656 72.5156C52.0625 72.7969 56.9844 72.75 59.7188 72.4375C60.9844 72.2812 62.0781 72.2031 62.1562 72.25C62.2344 72.2969 62.3438 72.6406 62.4062 73C62.6094 74.2344 63.6562 76.1406 64.75 77.2188C66.4688 78.9531 68.6094 79.8594 71.0156 79.8594C73.6406 79.8594 75.4844 79.0781 77.3594 77.2031C78.7188 75.8281 79.375 74.6562 79.7812 72.8594C80.7188 68.6406 78.2031 64.0781 74.1719 62.6562C68.8906 60.7969 63.4531 63.875 62.3438 69.3438L62.0781 70.7031L60.7656 70.8906C55.1094 71.7031 48.8125 71.375 44.4688 70.0156L43.5625 69.7344L44.3906 69.125C49.5 65.3906 52.9531 59.4375 53.2344 53.8906C53.6094 46.5781 48.5156 43.1406 40.3125 45.1719C35.3906 46.3906 31.375 50.2656 30.5312 54.6094C29.9375 57.6719 30.875 61.2969 33.0156 64.1562C34.5 66.1094 37.2188 68.3594 39.5156 69.5312C39.8906 69.7188 40.1406 69.9219 40.0625 70C39.7812 70.2812 37.0312 71.0938 35.5469 71.3438C32.5312 71.8281 27.8906 71.3281 25.5312 70.25C20.3438 67.875 17.3906 61.9062 16.9375 52.875L16.8281 50.8281L17.8281 50.3594C19.0156 49.7969 20.0469 48.9844 21.1094 47.7188C27.3906 40.3594 33.1094 21.875 32.2188 11.8438C31.6875 5.875 29.6719 2.75 25.8594 2C25.3438 1.90625 24.8594 1.73438 24.7969 1.60938C24.625 1.32812 23.3906 0.71875 22.3594 0.40625C21.2656 0.09375 19.8125 0.078125 19.2031 0.40625C18.6719 0.671875 18.1406 1.6875 18.125 2.42188C18.125 4.5 19.5156 5.54688 21.7656 5.17188C23.0938 4.95312 23.8906 4.54688 24.5 3.8125C24.9375 3.28125 25.0156 3.25 25.5781 3.35938C27.9062 3.78125 29.5312 5.625 30.3281 8.70312C31.7188 14.1562 30.4062 24.0156 27.0469 33.4062C25.3594 38.0938 24.9375 38.7969 22.8906 40.4531C19.875 42.875 16.6875 43.5469 13.4219 42.4219C11.5 41.7656 8.76562 39.9062 7.5 38.375C6.59375 37.2812 4.20313 30.4844 3.04688 25.75C0.921875 16.9531 0.859375 10.1406 2.84375 6.39062C3.73438 4.70312 5.25 3.5625 6.89063 3.34375C7.53125 3.26562 7.59375 3.28125 7.85938 3.71875C8.25 4.39062 9.01562 4.8125 10.3438 5.09375C12.8906 5.625 14.25 4.71875 14.2344 2.48438C14.2344 1.4375 13.9375 0.8125 13.2812 0.40625C12.7031 0.078125 11.1094 0.09375 10 0.453125ZM12.7031 1.67188C12.8594 1.76562 12.8438 3.09375 12.6562 3.4375C12.4375 3.84375 11.8438 3.9375 10.7031 3.73438C8.95312 3.4375 8.375 2.625 9.53125 2.10938C10.7656 1.54688 12.1406 1.35938 12.7031 1.67188ZM22.7031 2.03125C23.1875 2.21875 23.5938 2.4375 23.5938 2.51562C23.5938 3.14062 22.7344 3.625 21.2812 3.82812C20.25 3.96875 19.75 3.6875 19.5938 2.875C19.3281 1.42188 20.3281 1.14062 22.7031 2.03125ZM11.3594 43.1094C13.5469 44.2188 16.3906 44.625 18.5938 44.1562C19.7656 43.9062 21.6562 43.1094 22.5156 42.4844C22.7812 42.2969 23.0156 42.1875 23.0625 42.2188C23.1562 42.3281 21.5312 44.8906 20.5156 46.2188C19.0469 48.1562 17.3594 49.375 16.1719 49.375C14.5625 49.3594 12.0156 46.875 9.82812 43.1719C9.40625 42.4531 9.0625 41.8281 9.0625 41.7969C9.0625 41.75 9.4375 41.9531 9.89062 42.25C10.3281 42.5312 11 42.9219 11.3594 43.1094ZM46.7656 46.1719C50.0469 46.8594 51.875 49.3906 51.875 53.25C51.875 58.6719 48.2031 64.8906 42.9219 68.4062L41.8594 69.125L40.6719 68.5312C37 66.7188 34.3594 64.2188 32.8906 61.2031C31.4219 58.125 31.375 55.3438 32.75 52.5C33.5 50.9688 35.625 48.8281 37.3438 47.8594C40.1562 46.2812 44.0312 45.5938 46.7656 46.1719ZM72.5312 63.6562C76.6562 64.5312 79.2656 68.4688 78.4219 72.5312C77.9688 74.7344 76.4219 76.7031 74.3438 77.7344C70.1562 79.7969 65.0156 77.4219 63.8281 72.8906C62.7344 68.6562 65.5 64.375 69.8438 63.5938C70.9062 63.4062 71.3906 63.4219 72.5312 63.6562Z" fill="#094A54"/>
<path d="M69.5781 64.9219C67.7344 65.4219 66.2031 66.6719 65.375 68.3594C64.9688 69.2187 64.9219 69.4375 64.9219 70.9375C64.9219 72.5312 64.9375 72.6406 65.5 73.7812C66.4219 75.625 67.8125 76.7031 69.8594 77.125C72.6875 77.7187 75.4219 76.3281 76.75 73.6406C77.2344 72.6562 77.2656 72.4844 77.2656 71.0156C77.2656 69.5781 77.2188 69.3594 76.7656 68.4062C75.9062 66.5937 74.5 65.4219 72.5469 64.9219C71.4531 64.6406 70.6562 64.6406 69.5781 64.9219ZM73.2344 66.6406C76.0469 68.0156 76.8125 71.7812 74.7656 74.1875C73.9531 75.125 72.4375 75.8281 71.2031 75.8437C68.4375 75.8594 66.25 73.75 66.25 71.0781C66.25 69.7031 66.5938 68.7656 67.4531 67.8125C68.9688 66.125 71.2344 65.6719 73.2344 66.6406Z" fill="#094A54"/>
<path d="M70.1094 69.6875C69.5157 70.1563 69.2969 70.9375 69.5938 71.6094C70.2657 73.25 72.6407 72.7969 72.6563 71.0469C72.6563 70.2813 72.4532 69.9063 71.8751 69.6094C71.2501 69.2813 70.5938 69.3125 70.1094 69.6875ZM71.2501 71.0156C71.2501 71.1406 71.1876 71.25 71.1094 71.25C70.9063 71.25 70.7657 71 70.8907 70.875C71.0626 70.7031 71.2501 70.7813 71.2501 71.0156Z" fill="#094A54"/>
</g>
<defs>
<clipPath id="clip0_259_790">
<rect width="80" height="80" fill="white"/>
</clipPath>
</defs>
</svg>
