<svg width="90" height="90" viewBox="0 0 90 90" fill="none" xmlns="http://www.w3.org/2000/svg">
<path d="M66.9551 9.24609L58.7461 17.4551L57.6035 16.6289C54.0527 14.0977 49.6582 13.4473 45.6328 14.8887C42.5918 15.9609 39.8145 18.4395 38.4082 21.3398C37.2832 23.6426 37.0371 24.8906 37.125 27.7207L37.2129 30.0586H36.6504C35.1211 30.0586 32.5898 31.2539 31.3945 32.5195C30.5156 33.4512 29.6543 35.0508 29.3379 36.2812L29.1445 37.0898H27.2637C24.8203 37.0898 23.291 37.4414 21.3223 38.4082C16.4531 40.7988 13.5176 46.248 14.2383 51.5215C14.5723 53.9473 15.2402 55.6348 16.6465 57.6387L17.4551 58.7461L9.24609 66.9551C3.95508 72.2461 1.05469 75.2871 1.05469 75.498C1.05469 75.9727 14.0273 88.9453 14.502 88.9453C14.7129 88.9453 17.7891 86.0098 23.0449 80.7539L31.2539 72.5449L32.3965 73.3711C33.7852 74.373 35.4727 75.1465 37.0547 75.5332C38.4434 75.8672 41.5195 75.9023 42.8027 75.6035C47.3203 74.5137 50.8711 71.2441 52.3828 66.7969C52.6816 65.918 52.7871 65.0918 52.8574 63.2461L52.9629 60.8555L53.7539 60.6445C57.1113 59.8008 59.4316 57.1289 60.0293 53.4375L60.1172 52.8047L62.2969 52.875C65.0391 52.9629 66.5684 52.6641 68.7832 51.5391C70.1191 50.8887 70.6816 50.4668 71.9824 49.1484C74.6191 46.5117 75.7969 43.7168 75.7969 40.0781C75.8145 37.125 75.0762 34.7871 73.3711 32.3965L72.5449 31.2539L80.7539 23.0449C86.0449 17.7539 88.9453 14.7129 88.9453 14.502C88.9453 14.0273 75.9727 1.05469 75.498 1.05469C75.2871 1.05469 72.2109 3.99023 66.9551 9.24609ZM78.6621 22.6758C72.4922 28.8457 70.4883 30.9551 70.4883 31.2715C70.4883 31.5176 70.8398 32.0625 71.4375 32.7129C74.2676 35.7539 74.9355 40.7988 73.0547 44.7715C71.5781 47.8652 68.9941 50.0273 65.7246 50.9062C64.248 51.293 61.6113 51.3105 60.1348 50.9062C55.2129 49.623 51.6797 45.1406 51.6797 40.1484C51.6797 38.4785 51.5215 38.3203 49.8516 38.3203C44.8594 38.3203 40.377 34.7871 39.0938 29.8652C38.6895 28.3887 38.707 25.752 39.0938 24.2754C40.1309 20.3906 43.084 17.4023 47.0215 16.2422C48.4453 15.8203 51.3633 15.8027 52.9102 16.2246C54.6152 16.6816 56.127 17.4902 57.2871 18.5625C57.9375 19.1602 58.4824 19.5117 58.7285 19.5117C59.0449 19.5117 61.1367 17.5254 67.3242 11.3379L75.498 3.16406L81.1582 8.82422L86.8359 14.502L78.6621 22.6758ZM38.3906 32.8359C40.4473 36.9141 44.2441 39.5332 48.832 40.0078L49.8691 40.1309L49.9922 41.168C50.4668 45.7559 53.0859 49.5527 57.1641 51.6094C58.4824 52.2773 58.4824 52.2949 58.166 53.8242C57.6035 56.4785 55.5469 58.6055 53.1562 58.9922L52.4531 59.0977L52.0488 58.0605C50.7305 54.8613 48.0586 52.1719 44.9473 50.9238C43.752 50.4492 41.4844 49.9219 40.6055 49.9219C40.1309 49.9219 40.0781 49.8691 40.0781 49.3945C40.0781 48.5156 39.5508 46.248 39.0762 45.0527C37.8281 41.9414 35.1387 39.2695 31.957 37.9688C30.7793 37.4941 30.7266 37.3184 31.3066 35.7891C31.7109 34.6641 32.9414 33.2227 33.9961 32.6074C34.8223 32.1328 36.3691 31.6758 37.2129 31.6582C37.7578 31.6406 37.8281 31.7285 38.3906 32.8359ZM30.041 39.1289C34.7871 40.377 38.3203 44.9473 38.3203 49.8516C38.3203 51.5215 38.4785 51.6797 40.1484 51.6797C45.1406 51.6797 49.623 55.2129 50.9062 60.1348C51.3105 61.6113 51.293 64.248 50.9062 65.7246C49.6582 70.4004 45.6855 73.7051 40.8516 74.1094C38.0566 74.3379 34.7344 73.2305 32.6602 71.3848C32.0625 70.8398 31.5 70.4883 31.2539 70.4883C30.9551 70.4883 28.8105 72.5273 22.6758 78.6621L14.502 86.8359L8.8418 81.1758L3.16406 75.498L11.3379 67.3242C17.8418 60.8203 19.5117 59.0625 19.5117 58.6934C19.5117 58.4121 19.2832 58.043 18.8789 57.6387C17.877 56.707 16.9102 55.0898 16.4004 53.543C16.0137 52.3301 15.9434 51.8027 15.9434 50.0098C15.9258 48.1816 15.9961 47.7246 16.4004 46.5645C17.1914 44.2617 18.334 42.5918 20.0391 41.2383C22.9043 38.9707 26.5078 38.2148 30.041 39.1289Z" fill="#094A54"/>
<path d="M61.9804 26.8243C60.7148 28.0547 58.9921 29.7598 58.166 30.6387L56.6542 32.2383L55.3535 31.5879C53.9824 30.9024 52.2773 30.4805 51.5566 30.6739C51.3281 30.7266 51.0468 30.9727 50.9414 31.2012C50.6425 31.8692 51.1171 32.2735 52.2949 32.3965C54.2812 32.6075 56.2499 33.961 57.0937 35.7188C57.3222 36.1582 57.5683 37.0196 57.6738 37.6348C57.7792 38.25 57.9374 38.8477 58.0429 38.9707C58.2714 39.252 58.9218 39.2696 59.2031 38.9883C59.748 38.4434 59.2558 35.9121 58.3417 34.4004C58.0605 33.9434 57.832 33.5215 57.832 33.4512C57.832 33.3809 59.5371 31.6055 61.6113 29.5313C63.6855 27.4395 65.3906 25.6465 65.3906 25.5235C65.3906 25.2598 64.7578 24.6094 64.4941 24.6094C64.3886 24.6094 63.2636 25.6114 61.9804 26.8243Z" fill="#094A54"/>
<path d="M30.7969 51.0117C30.252 51.5566 30.7441 54.0879 31.6582 55.5996C31.9395 56.0566 32.168 56.4785 32.168 56.5488C32.168 56.6191 30.4629 58.3945 28.3887 60.4688C26.3145 62.5605 24.6094 64.3535 24.6094 64.4766C24.6094 64.7051 25.2422 65.3906 25.4531 65.3906C25.7344 65.3906 26.2617 64.8984 29.7422 61.418L33.3633 57.7617L34.6641 58.4121C36.0527 59.0977 37.7402 59.5195 38.4258 59.3438C38.6719 59.2734 38.9531 59.0273 39.0586 58.7988C39.3574 58.1309 38.8828 57.7266 37.6523 57.5859C34.875 57.2695 32.7832 55.2129 32.3262 52.3652C32.2207 51.75 32.0625 51.1523 31.957 51.0293C31.7285 50.748 31.0781 50.7305 30.7969 51.0117Z" fill="#094A54"/>
<path d="M30.8672 16.8047C30.6562 17.0156 30.5859 17.4551 30.5859 18.7207C30.5859 20.5137 30.7617 20.918 31.5527 20.918C32.168 20.918 32.3438 20.4258 32.3438 18.6504C32.3438 16.9805 32.1504 16.5234 31.4648 16.5234C31.2891 16.5234 31.0078 16.6465 30.8672 16.8047Z" fill="#094A54"/>
<path d="M17.9648 18.8438C17.4375 19.3711 17.7363 19.8985 19.8281 22.0078C20.9531 23.168 22.0957 24.2227 22.3769 24.3633C22.957 24.6621 23.4668 24.4688 23.6074 23.8711C23.6953 23.5547 23.3086 23.0801 21.3222 21.0586C18.9316 18.6504 18.457 18.3516 17.9648 18.8438Z" fill="#094A54"/>
<path d="M15.9258 31.746C15.5919 32.0624 15.5567 32.7128 15.8555 33.0116C16.1895 33.3456 19.4063 33.2929 19.7579 32.9413C20.127 32.5722 20.1094 32.1151 19.7227 31.7636C19.2657 31.3417 16.3301 31.3417 15.9258 31.746Z" fill="#094A54"/>
<path d="M69.3984 57.8496C69.0117 58.0605 68.9941 58.7637 69.3633 59.1328C69.5742 59.3438 70.0137 59.4141 71.2793 59.4141C73.0195 59.4141 73.4765 59.2383 73.4765 58.5352C73.4765 57.8496 73.0195 57.6562 71.3144 57.6562C70.4179 57.6562 69.5566 57.7441 69.3984 57.8496Z" fill="#094A54"/>
<path d="M65.9531 66.3926C65.83 66.4278 65.6543 66.6211 65.5664 66.8145C65.2675 67.3418 65.6894 67.9219 67.9921 70.1719C70.1015 72.2637 70.6289 72.5625 71.1562 72.0352C71.6484 71.543 71.3496 71.0684 68.9414 68.6778C67.6054 67.3594 66.4277 66.2696 66.3398 66.2871C66.2519 66.2871 66.0761 66.3399 65.9531 66.3926Z" fill="#094A54"/>
<path d="M56.9531 70.295C56.7071 70.7872 56.7246 73.8809 56.9883 74.1446C57.2871 74.4434 57.9375 74.4083 58.2539 74.0743C58.6934 73.6524 58.6582 70.6465 58.2188 70.2598C57.7793 69.8555 57.1817 69.8907 56.9531 70.295Z" fill="#094A54"/>
</svg>
