<svg width="81" height="80" viewBox="0 0 81 80" fill="none" xmlns="http://www.w3.org/2000/svg">
<g clip-path="url(#clip0_831_2169)">
<path opacity="0.815" fill-rule="evenodd" clip-rule="evenodd" d="M66.0183 0.162993C66.5596 0.0932787 67.0535 0.202111 67.5 0.489524C67.6646 4.73312 67.7196 8.97801 67.6646 13.2242C71.9465 13.1697 76.2269 13.2242 80.5061 13.3875C80.8532 13.8407 80.9078 14.3305 80.6707 14.8569C76.3353 19.1563 72.0001 23.4554 67.6646 27.7548C63.1645 27.8636 58.6648 27.9726 54.1646 28.0814C53.0672 29.1697 51.9694 30.2583 50.872 31.3467C58.8264 40.644 60.6374 51.0384 56.3049 62.5303C50.1018 74.7788 40.0591 80.4931 26.1768 79.6732C15.1286 78.0755 7.28112 72.2525 2.63416 62.2038C-1.86562 49.683 0.603891 38.7442 10.0427 29.3875C21.0182 20.9414 32.6522 19.9619 44.9451 26.4487C46.521 27.4668 48.0027 28.6097 49.3903 29.8773C50.3781 28.8977 51.3659 27.9181 52.3537 26.9385C52.3649 22.3364 52.5845 17.765 53.0122 13.2242C57.4142 8.91369 61.7493 4.55973 66.0183 0.162993ZM65.3598 3.75483C65.5824 7.47793 65.802 11.233 66.0183 15.0201C69.7499 15.1289 73.4818 15.2379 77.2134 15.3467C73.7011 18.8298 70.1891 22.3125 66.6768 25.7956C62.7273 25.9589 58.7761 26.0134 54.8232 25.9589C54.7682 22.0389 54.8232 18.1205 54.9878 14.2038C58.5117 10.7638 61.969 7.28071 65.3598 3.75483ZM25.5183 24.3263C34.0506 23.4283 41.5142 25.7685 47.9086 31.3467C46.3172 32.9248 44.7255 34.5032 43.1342 36.0814C35.4632 29.9867 27.2865 29.2794 18.6037 33.9589C10.1948 40.146 7.50601 48.2547 10.5366 58.2854C14.9238 67.6729 22.3323 71.8636 32.7622 70.8569C41.7437 69.1341 47.2862 63.8551 49.3903 55.0201C50.597 48.4317 49.0053 42.6084 44.6159 37.5507C46.2072 35.9726 47.7989 34.3942 49.3903 32.8161C56.5581 41.1475 58.3141 50.5081 54.6586 60.8977C48.1496 74.1117 37.558 79.4995 22.8842 77.061C11.4734 73.5821 4.72337 66.0174 2.63416 54.3671C2.11688 38.181 9.74504 28.1672 25.5183 24.3263ZM28.1525 32.8161C33.2617 32.7449 37.7618 34.3233 41.6525 37.5507C40.0466 39.253 38.3453 40.8311 36.5488 42.2854C31.0671 38.9107 25.9088 39.3463 21.0732 43.5916C16.9277 49.5854 17.5312 55.0818 22.8842 60.0814C28.7524 63.3085 33.966 62.4921 38.5244 57.6324C41.421 53.0871 41.366 48.5702 38.3598 44.0814C39.8263 42.2998 41.4177 40.6126 43.1342 39.0201C48.8904 46.4507 49.2197 54.0699 44.122 61.8773C36.4579 70.1104 27.842 71.2533 18.2744 65.3058C11.0763 58.7919 9.48492 51.1184 13.5 42.2854C16.9119 36.867 21.7963 33.7107 28.1525 32.8161ZM27.8232 41.9589C30.5571 41.6565 32.972 42.3638 35.0671 44.0814C32.9268 46.2038 30.7866 48.3263 28.6464 50.4487C28.3711 51.6977 28.865 52.1875 30.1281 51.9181C32.2683 49.7956 34.4086 47.6732 36.5488 45.5507C39.7111 50.3396 39.1075 54.6391 34.7378 58.4487C29.9414 60.9754 25.7159 60.2678 22.061 56.3263C18.7923 49.4476 20.713 44.6587 27.8232 41.9589Z" fill="white"/>
</g>
<defs>
<clipPath id="clip0_831_2169">
<rect width="81" height="80" fill="white"/>
</clipPath>
</defs>
</svg>
