<svg width="90" height="90" viewBox="0 0 90 90" fill="none" xmlns="http://www.w3.org/2000/svg">
<path opacity="0.898" fill-rule="evenodd" clip-rule="evenodd" d="M29.0809 8.31656C39.6279 8.2836 50.175 8.31656 60.7216 8.41544C64.0017 9.09205 65.7815 11.1025 66.0609 14.4469C65.8871 17.1364 64.5689 19.015 62.1058 20.0829C60.3423 20.3625 58.5625 20.4614 56.7665 20.3795C56.8622 37.722 56.7633 55.0585 56.4699 72.3888C54.7316 78.1152 50.8754 81.1473 44.9013 81.4855C38.9271 81.1473 35.0709 78.1152 33.3327 72.3888C33.0392 55.0585 32.9403 37.722 33.036 20.3795C31.24 20.4614 29.4602 20.3625 27.6967 20.0829C24.8067 18.8197 23.5213 16.6113 23.8405 13.4582C24.5229 10.6332 26.2697 8.91937 29.0809 8.31656ZM29.0809 9.89859C39.6279 9.86563 50.175 9.89859 60.7216 9.99747C62.6441 10.4038 63.8637 11.5574 64.38 13.4582C64.6234 16.4462 63.2722 18.259 60.3261 18.8964C50.0429 19.0283 39.7597 19.0283 29.4764 18.8964C26.1771 18.1687 24.8917 16.1583 25.6202 12.8649C26.2974 11.2944 27.4509 10.3056 29.0809 9.89859ZM34.6181 20.3795C41.4736 20.3795 48.3289 20.3795 55.1845 20.3795C55.2175 23.3467 55.1845 26.313 55.0856 29.2785C54.3094 28.6759 53.5512 28.0496 52.8114 27.3998C51.5511 26.682 50.2329 26.5501 48.8563 27.0043C47.9431 27.5877 47.086 28.247 46.2855 28.9818C45.467 29.5466 44.6102 29.6127 43.7147 29.1796C42.9237 28.5205 42.1327 27.8612 41.3417 27.2021C39.8601 26.5137 38.41 26.5795 36.9911 27.3998C36.2331 28.0261 35.4749 28.6522 34.7169 29.2785C34.6181 26.313 34.585 23.3467 34.6181 20.3795ZM38.5731 28.2897C39.2536 28.2504 39.9127 28.3492 40.5507 28.5863C41.3417 29.2455 42.1327 29.9048 42.9237 30.5639C44.2421 31.223 45.5604 31.223 46.8788 30.5639C47.6698 29.9048 48.4608 29.2455 49.2518 28.5863C49.8922 28.3158 50.5515 28.25 51.2294 28.3886C52.1426 28.972 52.9997 29.6313 53.8002 30.3661C54.2253 30.6452 54.6869 30.8101 55.1845 30.8605C55.2175 44.3738 55.1845 57.8869 55.0856 71.4001C53.7652 76.7078 50.3703 79.5424 44.9013 79.9035C41.099 79.7664 38.1656 78.1185 36.1012 74.9596C35.5967 74.0826 35.2012 73.1599 34.9147 72.1911C34.6212 58.4215 34.5223 44.6447 34.6181 30.8605C35.2491 30.7434 35.8423 30.5127 36.3978 30.1684C37.0443 29.4211 37.7695 28.7948 38.5731 28.2897Z" fill="#094A54"/>
</svg>
