<svg width="80" height="80" viewBox="0 0 80 80" fill="none" xmlns="http://www.w3.org/2000/svg">
<path d="M13.8676 6.76597L7.68758 12.946V38.0382C7.68758 65.2336 7.65523 64.0041 8.5612 65.1851C8.78769 65.4925 9.35393 65.9293 9.82309 66.1558C10.5511 66.5117 10.8747 66.5764 12.1689 66.5764H13.6735V68.4692C13.6735 70.7665 13.8353 71.4136 14.5956 72.2549C15.6472 73.4197 16.1649 73.5815 18.9475 73.6624L21.3904 73.7271L21.4875 75.0537C21.6331 77.1245 22.167 78.0952 23.5421 78.7909L24.3348 79.1953H46.79C69.2129 79.1953 69.2291 79.1953 69.9247 78.8556C70.8145 78.4188 71.5425 77.5451 71.8337 76.5421C72.1897 75.3773 72.2058 17.0391 71.8499 15.9066C71.5425 14.855 70.8954 14.0785 69.9247 13.5931C69.1482 13.221 68.954 13.1887 66.6244 13.1887H64.1491V11.8459C64.1491 10.859 64.0521 10.3251 63.8094 9.79128C63.0976 8.20582 62.1431 7.65576 59.9267 7.55869L58.3736 7.49398L58.2927 5.43937C58.2441 4.16129 58.1147 3.19061 57.9691 2.83469C57.6132 1.99343 56.9499 1.28159 56.1733 0.9095C55.4777 0.569756 55.3644 0.569756 37.7627 0.569756H20.0638L13.8676 6.76597ZM55.9792 1.75076C56.3351 1.96107 56.7719 2.39788 56.9823 2.7538C57.3058 3.33621 57.3543 3.62742 57.3543 5.45554V7.52634H41.7101H26.0497L19.8697 13.7064L13.6735 19.9026V42.8431V65.7998L12.088 65.7351C10.6805 65.6866 10.4217 65.6381 9.83927 65.2498C9.48335 65.0233 9.06272 64.5541 8.88476 64.1982C8.59356 63.5996 8.57738 62.8069 8.52884 38.5559L8.49649 13.5284L13.2205 13.4799C17.718 13.4313 17.993 13.4152 18.6078 13.0754C19.4329 12.6386 20.0477 11.9753 20.4197 11.1664C20.6624 10.6002 20.711 9.90452 20.7595 5.94089L20.8242 1.37866H38.0701H55.3321L55.9792 1.75076ZM19.9506 6.26445C19.902 10.9399 19.8697 11.1017 18.8505 11.943C18.0577 12.6224 17.4106 12.7033 13.1072 12.7033H9.06272L14.4015 7.36456C17.3297 4.42014 19.805 2.02579 19.8697 2.02579C19.9506 2.02579 19.9829 3.9348 19.9506 6.26445ZM61.6415 8.64263C62.4181 8.99855 62.7578 9.35446 63.0976 10.1634C63.3079 10.6811 63.3402 14.1108 63.3402 40.5944C63.3402 61.2862 63.2917 70.5724 63.1623 70.8959C62.952 71.446 62.2725 72.1902 61.6901 72.4976C61.043 72.8373 16.7797 72.8373 16.1326 72.4976C15.5501 72.1902 14.8707 71.446 14.6603 70.8959C14.5309 70.5724 14.4824 62.7098 14.4824 45.4478V20.4688H19.1417C23.2994 20.4688 23.8495 20.4365 24.4481 20.1614C25.2408 19.8055 26.2439 18.673 26.4542 17.8965C26.5351 17.5729 26.616 15.2918 26.616 12.8166V8.33524H43.8133C60.137 8.33524 61.0268 8.35143 61.6415 8.64263ZM25.5158 18.0259C25.3541 18.3333 24.9496 18.8187 24.6099 19.0775L23.9951 19.579L19.53 19.6276L15.0486 19.6761L20.3874 14.3211L25.7262 8.98237L25.7747 13.2048C25.8071 17.0552 25.7909 17.4921 25.5158 18.0259ZM69.6012 14.3373C70.0865 14.58 70.4424 14.9035 70.7498 15.4213L71.1866 16.1816V46.3052V76.4127L70.7013 77.1083C70.4424 77.4804 69.9571 77.9172 69.6497 78.079C69.1158 78.3702 68.1937 78.3864 46.7577 78.3864H24.4319L23.7848 78.0143C22.7979 77.4481 22.4097 76.6392 22.4097 75.0375V73.6948L41.8719 73.6624C60.59 73.6139 61.3342 73.5977 61.9327 73.3065C62.7578 72.902 63.4858 72.1578 63.8418 71.3489C64.133 70.7342 64.1491 69.4561 64.1491 42.3416V13.9976H66.5273C68.5981 13.9976 68.9864 14.0461 69.6012 14.3373Z" fill="#094A54"/>
<path d="M46.7739 13.916C46.7253 14.0617 46.6768 14.9353 46.6768 15.8736V17.5399L44.784 17.5885L42.875 17.637L42.8264 19.2872L42.7779 20.9535H44.7354H46.6768V22.7816C46.6768 23.995 46.7415 24.6745 46.871 24.8039C47.0004 24.9333 47.6151 24.998 48.5535 24.998C49.7668 24.998 50.058 24.9495 50.1389 24.7392C50.1875 24.5936 50.236 23.6876 50.236 22.7169V20.9535H52.1774H54.1349L54.0864 19.2872L54.0378 17.637L52.145 17.5885L50.2522 17.5399L50.2036 15.6471L50.1551 13.7543L48.5211 13.7057C47.1298 13.6734 46.8548 13.7057 46.7739 13.916ZM49.4594 16.3751L49.508 18.2841L51.417 18.3327L53.3098 18.3812V19.2548V20.1446H51.6273C50.7052 20.1446 49.8315 20.1932 49.6859 20.2417C49.4756 20.3226 49.4271 20.6623 49.4271 22.2639V24.1891H48.4564H47.4857V22.2639C47.4857 20.6623 47.4372 20.3226 47.2269 20.2417C47.0813 20.1932 46.2076 20.1446 45.2855 20.1446H43.603V19.2548V18.365H45.5443H47.4857V16.4237V14.4823H48.4564H49.4109L49.4594 16.3751Z" fill="#094A54"/>
<path d="M18.6078 25.0318C18.5593 25.1451 18.5431 28.4777 18.5593 32.4414L18.6078 39.6406H25.888H33.1681V32.2796V24.9186L25.9203 24.87C20.2095 24.8377 18.6564 24.87 18.6078 25.0318ZM22.8141 26.3908C22.5067 26.7952 22.2479 27.1835 22.2479 27.232C22.2317 27.2967 22.167 27.6527 22.1023 28.0409C21.9243 28.9469 22.1508 30.0955 22.6847 30.8883C22.9597 31.3089 23.0406 31.5516 22.9112 31.6001C22.2317 31.8266 20.6463 33.1209 20.0477 33.9459L19.3358 34.9004V30.2735V25.6466H21.3581H23.3804L22.8141 26.3908ZM27.2469 25.9701C29.5766 27.1511 29.5119 30.4515 27.1337 31.503C24.8526 32.5223 22.3773 30.4838 22.9274 28.0409C23.348 26.1319 25.532 25.0803 27.2469 25.9701ZM32.4401 30.2897V34.9166L31.9386 34.1724C31.3562 33.2826 30.3531 32.3928 29.4471 31.9237C29.0912 31.7457 28.7677 31.5678 28.7515 31.5516C28.7191 31.5192 28.8809 31.228 29.1074 30.8883C29.3339 30.5485 29.6089 29.9014 29.706 29.4484C29.9487 28.3807 29.5928 27.0541 28.8647 26.2128L28.3632 25.6466H30.4017H32.4401V30.2897ZM24.6746 32.3605C25.5644 32.6679 26.2115 32.6679 27.2308 32.3443L28.0397 32.0855L29.0265 32.6032C30.9355 33.6224 32.246 35.6446 32.4077 37.7963L32.4886 38.9126H25.9041H19.3358V38.2008C19.3358 36.583 20.4521 34.2695 21.6978 33.3312C22.4097 32.7811 23.5745 32.1178 23.801 32.1178C23.8981 32.1178 24.3025 32.2311 24.6746 32.3605Z" fill="#094A54"/>
<path d="M37.698 32.6029C37.6333 32.6999 37.6818 32.8779 37.7789 33.0073C37.9568 33.2176 39.4776 33.25 48.4402 33.25C54.1996 33.25 58.9884 33.1853 59.1178 33.1044C59.2472 33.0235 59.2957 32.8455 59.2472 32.6999C59.1501 32.4735 58.1147 32.4411 48.4726 32.4411C41.2248 32.4411 37.7627 32.4896 37.698 32.6029Z" fill="#094A54"/>
<path d="M37.6656 39.1706C37.6171 39.3 37.6494 39.4942 37.7303 39.5751C37.8112 39.656 42.0499 39.7045 48.5535 39.6883C59.0854 39.6398 59.2149 39.6398 59.2149 39.3162C59.2149 38.9926 59.0854 38.9926 48.4888 38.9441C38.8628 38.9118 37.7627 38.9279 37.6656 39.1706Z" fill="#094A54"/>
<path d="M18.7049 45.5281C18.5755 45.609 18.5269 45.787 18.5755 45.9326C18.6725 46.1752 20.5168 46.1914 38.9113 46.1914C57.3058 46.1914 59.1501 46.1752 59.2472 45.9326C59.2957 45.787 59.2472 45.609 59.1178 45.5281C58.8266 45.334 18.9961 45.334 18.7049 45.5281Z" fill="#094A54"/>
<path d="M18.5755 52.2761C18.5269 52.4055 18.5593 52.5996 18.6402 52.6805C18.7211 52.7614 26.5998 52.81 39.0084 52.7938C59.0854 52.7452 59.2149 52.7452 59.2149 52.4217C59.2149 52.0981 59.0854 52.0981 38.9437 52.0496C20.6463 52.0172 18.6725 52.0334 18.5755 52.2761Z" fill="#094A54"/>
<path d="M18.5755 58.7468C18.5269 58.8762 18.5593 59.0703 18.6402 59.1512C18.7211 59.2321 26.5998 59.2807 39.0084 59.2645C59.0854 59.2159 59.2149 59.2159 59.2149 58.8924C59.2149 58.5688 59.0854 58.5688 38.9437 58.5203C20.6463 58.4879 18.6725 58.5041 18.5755 58.7468Z" fill="#094A54"/>
<path d="M18.5755 65.3796C18.5269 65.5252 18.5755 65.7032 18.7049 65.7841C18.9961 65.9782 58.8266 65.9782 59.1178 65.7841C59.2472 65.7032 59.2957 65.5252 59.2472 65.3796C59.1501 65.137 57.3058 65.1208 38.9113 65.1208C20.5168 65.1208 18.6725 65.137 18.5755 65.3796Z" fill="#094A54"/>
</svg>
