<svg width="90" height="90" viewBox="0 0 90 90" fill="none" xmlns="http://www.w3.org/2000/svg">
<path opacity="0.888" fill-rule="evenodd" clip-rule="evenodd" d="M41.748 7.9979C54.5369 7.30657 65.113 11.7597 73.4765 21.3573C81.5649 31.8006 83.7915 43.4022 80.1562 56.162C76.0253 68.0272 68.0273 76.0252 56.162 80.1561C43.4015 83.7913 31.8 81.5648 21.3573 73.4764C10.5963 63.989 6.34827 52.1237 8.61319 37.8807C10.9593 26.928 16.9066 18.5784 26.455 12.8319C31.2398 10.1575 36.3374 8.54623 41.748 7.9979ZM41.3964 9.40415C54.8452 8.64485 65.6558 13.5667 73.828 24.1698C81.2007 35.1645 82.4311 46.8246 77.5194 59.1502C71.6155 71.495 61.8596 78.5556 48.2519 80.3319C33.2022 81.0552 21.7472 75.0493 13.8866 62.3143C9.19438 53.6585 8.13969 44.5764 10.7226 35.0682C13.9981 24.5268 20.6486 16.9388 30.6737 12.3045C34.1438 10.8662 37.718 9.89938 41.3964 9.40415Z" fill="#094A54"/>
<path opacity="0.882" fill-rule="evenodd" clip-rule="evenodd" d="M52.295 12.3927C52.6856 12.3361 53.0079 12.4533 53.2618 12.7443C53.3203 13.506 53.379 14.2677 53.4375 15.0295C54.2955 15.2277 55.0865 15.5792 55.8106 16.0841C56.3058 15.6769 56.7746 15.2375 57.2168 14.7658C58.1251 14.5021 58.4473 14.8244 58.1836 15.7326C57.6449 16.1829 57.2054 16.7103 56.8653 17.3146C57.4062 18.0879 57.7577 18.9376 57.92 19.8634C58.6231 19.922 59.3262 19.9807 60.0293 20.0392C60.4982 20.4493 60.4982 20.8596 60.0293 21.2697C59.2817 21.3048 58.5493 21.3927 57.8321 21.5334C57.7226 22.4425 57.4004 23.2629 56.8653 23.9943C57.3378 24.496 57.7772 25.0233 58.1836 25.5763C58.3888 26.4259 58.0664 26.7481 57.2168 26.5431C56.769 26.036 56.2708 25.5965 55.7227 25.2248C55.015 25.7396 54.224 26.0327 53.3497 26.1037C53.3788 26.9262 53.3495 27.7463 53.2618 28.5646C52.8756 28.9568 52.4655 28.9568 52.0313 28.5646C51.9436 27.7463 51.9142 26.9262 51.9434 26.1037C51.0691 26.0327 50.2781 25.7396 49.5704 25.2248C49.0223 25.5965 48.5241 26.036 48.0762 26.5431C47.2852 26.6895 46.963 26.3673 47.1094 25.5763C47.5489 25.049 47.9883 24.5216 48.4278 23.9943C47.9616 23.2365 47.6392 22.4161 47.461 21.5334C46.7438 21.3927 46.0113 21.3048 45.2637 21.2697C44.7949 20.8596 44.7949 20.4493 45.2637 20.0392C45.9668 19.9807 46.67 19.922 47.3731 19.8634C47.5353 18.9376 47.8869 18.0879 48.4278 17.3146C48.0876 16.7103 47.6482 16.1829 47.1094 15.7326C46.8457 14.8244 47.168 14.5021 48.0762 14.7658C48.5185 15.2375 48.9873 15.6769 49.4825 16.0841C50.1612 15.5744 50.923 15.2521 51.7676 15.1173C51.9088 14.3414 51.9967 13.5503 52.0313 12.7443C52.1573 12.6486 52.2452 12.5314 52.295 12.3927ZM51.7676 16.4357C51.287 16.6475 50.8182 16.9112 50.3614 17.2267C48.252 19.5119 48.252 21.797 50.3614 24.0822C53.2458 25.5034 55.2673 24.7124 56.4258 21.7091C56.7624 18.267 55.2096 16.5092 51.7676 16.4357Z" fill="#094A54"/>
<path opacity="0.869" fill-rule="evenodd" clip-rule="evenodd" d="M39.1114 15.0293C39.7279 14.9403 40.2846 15.0575 40.7813 15.3809C40.9263 15.7677 40.8384 16.09 40.5176 16.3477C37.5246 16.5535 35.9134 18.1647 35.6837 21.1817C35.3803 21.3708 35.058 21.4002 34.7169 21.2696C34.4653 17.9967 35.9301 15.9165 39.1114 15.0293Z" fill="#094A54"/>
<path opacity="0.896" fill-rule="evenodd" clip-rule="evenodd" d="M65.8301 21.8848C69.0924 22.249 70.4695 24.0655 69.961 27.334C68.9204 31.6209 66.1957 33.9648 61.7871 34.3652C58.6679 34.0859 57.3496 32.3866 57.8321 29.2676C58.5647 27.4266 59.9418 26.4598 61.9629 26.3672C62.2322 25.6607 62.4374 24.9282 62.5782 24.1699C63.3064 22.8827 64.3903 22.121 65.8301 21.8848ZM65.6543 23.291C64.1772 23.953 63.4449 25.1249 63.4571 26.8066C63.1647 27.2315 62.784 27.5537 62.3145 27.7734C61.2252 27.7453 60.3169 28.1261 59.5899 28.916C58.5718 31.2745 59.3334 32.6222 61.875 32.959C65.39 32.6078 67.6164 30.7329 68.5547 27.334C69.1255 24.8342 68.1587 23.4865 65.6543 23.291Z" fill="#094A54"/>
<path opacity="0.889" fill-rule="evenodd" clip-rule="evenodd" d="M24.6972 23.4667C27.1913 22.9708 28.9785 23.8497 30.0585 26.1034C30.5275 29.2073 29.2091 30.936 26.1034 31.2889C25.957 31.4354 25.8104 31.582 25.664 31.7284C25.2419 35.0601 23.3962 36.32 20.1269 35.5077C18.101 34.3574 17.3685 32.6287 17.9296 30.3221C18.8111 26.6576 21.0669 24.3725 24.6972 23.4667ZM24.873 24.8729C21.4116 25.9338 19.4781 28.2774 19.0722 31.9042C19.2123 33.0373 19.7983 33.8283 20.83 34.2772C22.3078 34.6666 23.3918 34.1686 24.0819 32.7831C24.1913 32.0603 24.3671 31.3571 24.6093 30.6737C24.8227 30.4014 25.0864 30.1965 25.4003 30.0585C27.8641 30.0572 28.9479 28.8561 28.6523 26.4549C27.831 24.9743 26.5712 24.447 24.873 24.8729Z" fill="#094A54"/>
<path opacity="0.879" fill-rule="evenodd" clip-rule="evenodd" d="M39.8145 26.2793C42.9791 26.3234 45.0591 27.8467 46.0547 30.8496C46.1941 31.5392 46.1647 32.213 45.9668 32.8711C45.6256 33.0017 45.3034 32.9723 45 32.7832C44.6472 29.5007 42.8307 27.6843 39.5508 27.334C39.4193 26.9227 39.5072 26.5711 39.8145 26.2793Z" fill="#094A54"/>
<path opacity="0.893" fill-rule="evenodd" clip-rule="evenodd" d="M34.3653 32.4316C34.711 32.3896 35.0334 32.4481 35.3321 32.6074C35.5008 33.0433 35.6473 33.4828 35.7715 33.9258C36.3112 34.3248 36.78 34.2661 37.1778 33.75C38.1611 33.4137 38.542 33.7359 38.3204 34.7168C38.1152 34.9219 37.9103 35.1269 37.7051 35.332C37.9716 35.6655 38.0889 36.0464 38.0567 36.4746C38.471 36.4459 38.8811 36.4751 39.2872 36.5625C39.756 36.9726 39.756 37.3829 39.2872 37.7929C38.8811 37.8803 38.471 37.9095 38.0567 37.8808C38.0889 38.309 37.9716 38.69 37.7051 39.0234C38.6225 39.6887 38.6225 40.304 37.7051 40.8691C36.4467 39.8278 35.6849 40.1206 35.42 41.748C35.0341 41.9711 34.6534 41.9711 34.2774 41.748C34.3862 40.7928 33.9759 40.2655 33.0469 40.166C32.6911 40.4325 32.3102 40.6668 31.9043 40.8691C31.3772 40.6926 31.172 40.3411 31.2891 39.8144C31.5639 39.5991 31.769 39.3354 31.9043 39.0234C31.7094 38.6636 31.5922 38.2829 31.5528 37.8808C31.1385 37.9095 30.7284 37.8803 30.3223 37.7929C29.8535 37.3829 29.8535 36.9726 30.3223 36.5625C30.7284 36.4751 31.1385 36.4459 31.5528 36.4746C31.5679 36.0919 31.6851 35.7404 31.9043 35.4199C31.4 34.9989 31.1949 34.4716 31.2891 33.8379C31.6519 33.6461 32.0328 33.6167 32.4317 33.75C32.8295 34.2661 33.2983 34.3248 33.8379 33.9258C34.1334 33.4796 34.3092 32.9816 34.3653 32.4316ZM34.1895 35.2441C32.4104 36.4162 32.3519 37.6759 34.0137 39.0234C35.047 39.314 35.8967 39.0503 36.5625 38.2324C37.1177 36.1793 36.3266 35.1833 34.1895 35.2441Z" fill="#094A54"/>
<path opacity="0.88" fill-rule="evenodd" clip-rule="evenodd" d="M52.4707 33.1348C53.0012 33.1058 53.5286 33.1352 54.0527 33.2227C54.4254 33.4904 54.4839 33.8126 54.2285 34.1895C50.9407 34.5184 49.1535 36.3348 48.8672 39.6387C48.2201 39.9726 47.7807 39.7968 47.5488 39.1114C47.8563 35.9937 49.497 34.0016 52.4707 33.1348Z" fill="#094A54"/>
<path opacity="0.868" fill-rule="evenodd" clip-rule="evenodd" d="M70.7519 33.1349C71.1425 33.0783 71.4649 33.1956 71.7187 33.4865C72.0228 36.6323 73.7513 38.3315 76.9043 38.5841C77.1273 38.97 77.1273 39.3507 76.9043 39.7267C73.7221 39.8839 71.6421 38.4484 70.664 35.4201C70.3072 34.6194 70.3366 33.8577 70.7519 33.1349Z" fill="#094A54"/>
<path opacity="0.9" fill-rule="evenodd" clip-rule="evenodd" d="M59.3261 35.7716C59.7167 35.715 60.0391 35.8323 60.2929 36.1232C60.3803 36.5293 60.4095 36.9393 60.3808 37.3537C60.7899 37.3827 61.1706 37.4997 61.5234 37.7052C62.2049 36.8158 62.8201 36.8158 63.3691 37.7052C63.1668 38.1111 62.9325 38.492 62.666 38.8478C62.8609 39.2076 62.9782 39.5884 63.0175 39.9904C63.4319 39.9617 63.8419 39.9909 64.248 40.0783C64.7168 40.4298 64.7168 40.7814 64.248 41.133C63.2928 41.0242 62.7655 41.4344 62.666 42.3634C62.9734 42.7301 63.2079 43.1402 63.3691 43.5939C63.1988 44.1344 62.8472 44.3102 62.3144 44.1212C61.9971 43.9504 61.7041 43.7452 61.4355 43.506C61.1151 43.7252 60.7635 43.8425 60.3808 43.8576C60.4095 44.2719 60.3803 44.682 60.2929 45.088C59.8828 45.5568 59.4726 45.5568 59.0625 45.088C58.9751 44.682 58.9459 44.2719 58.9746 43.8576C58.5919 43.8425 58.2403 43.7252 57.9199 43.506C57.6595 43.6783 57.4251 43.8834 57.2168 44.1212C56.2359 44.3429 55.9137 43.962 56.25 42.9787C56.766 42.5809 56.8248 42.1121 56.4257 41.5724C56.0508 41.2845 55.6113 41.1381 55.1074 41.133C54.8731 40.7814 54.8731 40.4298 55.1074 40.0783C56.0626 40.1871 56.5899 39.7768 56.6894 38.8478C56.6138 38.5957 56.4672 38.3906 56.25 38.2326C55.9137 37.2493 56.2359 36.8683 57.2168 37.09C57.4251 37.3278 57.6595 37.533 57.9199 37.7052C58.2403 37.486 58.5919 37.3688 58.9746 37.3537C58.8981 36.7669 59.0153 36.2396 59.3261 35.7716ZM59.1503 38.5841C57.5903 39.5109 57.356 40.712 58.4472 42.1877C59.5381 42.8602 60.5049 42.7136 61.3476 41.7482C62.0699 39.7434 61.3374 38.6887 59.1503 38.5841Z" fill="#094A54"/>
<path opacity="0.882" fill-rule="evenodd" clip-rule="evenodd" d="M19.7753 37.8811C20.5635 37.844 20.8857 38.1955 20.7421 38.9358C19.5642 39.2441 18.4216 39.6835 17.3144 40.2541C16.1047 41.3259 15.4602 42.6736 15.3808 44.2971C15.033 44.8239 14.6521 44.8533 14.2382 44.385C14.0595 41.9005 15.0263 39.9962 17.1386 38.6721C18.0024 38.2761 18.8813 38.0124 19.7753 37.8811Z" fill="#094A54"/>
<path opacity="0.88" fill-rule="evenodd" clip-rule="evenodd" d="M69.1698 42.2754C69.5727 42.2304 69.9537 42.2889 70.3124 42.4512C70.4001 43.2695 70.4295 44.0896 70.4003 44.9121C71.2746 44.9831 72.0657 45.2762 72.7734 45.791C73.3214 45.4193 73.8196 44.9798 74.2675 44.4727C75.303 44.409 75.5667 44.8485 75.0585 45.791C74.6454 46.1748 74.2645 46.5849 73.9159 47.0215C74.3874 47.8204 74.7389 48.67 74.9706 49.5703C75.6152 49.6289 76.2596 49.6876 76.9042 49.7461C77.526 50.0671 77.5847 50.4774 77.08 50.9766C76.3324 51.0117 75.5999 51.0996 74.8827 51.2403C74.7521 52.1886 74.4299 53.0675 73.9159 53.877C74.3232 54.3721 74.7627 54.841 75.2343 55.2832C75.498 56.1915 75.1758 56.5137 74.2675 56.25C73.8252 55.7784 73.3564 55.3389 72.8613 54.9317C72.1826 55.4414 71.4207 55.7636 70.5761 55.8985C70.4349 56.6744 70.3471 57.4654 70.3124 58.2715C69.9023 58.7403 69.4921 58.7403 69.082 58.2715C69.0473 57.4654 68.9594 56.6744 68.8183 55.8985C67.9737 55.7636 67.2118 55.4414 66.5331 54.9317C66.0311 55.2871 65.621 55.7265 65.3027 56.25C64.3193 56.5863 63.9384 56.2641 64.1601 55.2832C64.6672 54.8353 65.1067 54.3372 65.4784 53.7891C64.9493 53.0229 64.6271 52.1733 64.5116 51.2403C63.7945 51.0996 63.062 51.0117 62.3144 50.9766C61.8447 50.5057 61.9034 50.0956 62.4902 49.7461C63.1908 49.6584 63.8939 49.629 64.5995 49.6582C64.6451 48.7013 64.9381 47.8224 65.4784 47.0215C65.1299 46.5849 64.7489 46.1748 64.3359 45.791C63.8277 44.8485 64.0913 44.409 65.1269 44.4727C65.5748 44.9798 66.0729 45.4193 66.621 45.791C67.3287 45.2762 68.1197 44.9831 68.9941 44.9121C68.9543 44.0223 69.013 43.1434 69.1698 42.2754ZM69.1698 46.1426C68.0499 46.4688 67.1417 47.1134 66.4452 48.0762C65.3413 50.3355 65.7222 52.2985 67.5878 53.9649C70.4573 55.2108 72.42 54.3612 73.4765 51.416C73.8242 48.1801 72.3886 46.4223 69.1698 46.1426Z" fill="#094A54"/>
<path opacity="0.881" fill-rule="evenodd" clip-rule="evenodd" d="M47.1974 43.6816C47.9518 43.736 48.2449 44.1461 48.0763 44.9121C47.6526 48.0894 45.8363 49.8472 42.6271 50.1855C41.7155 50.0221 41.5397 49.5826 42.0997 48.8672C43.6288 48.7911 44.8885 48.1758 45.879 47.0215C46.428 45.9339 46.8674 44.8205 47.1974 43.6816Z" fill="#094A54"/>
<path opacity="0.893" fill-rule="evenodd" clip-rule="evenodd" d="M29.7949 44.912C30.2324 44.8765 30.6427 44.9643 31.0253 45.1756C31.2106 45.4196 31.2398 45.6833 31.1132 45.9666C30.0097 46.2372 28.9256 46.6181 27.8613 47.1092C26.4547 48.1938 25.7222 49.6294 25.664 51.4159C25.3606 51.605 25.0384 51.6344 24.6972 51.5038C24.4678 47.837 26.1671 45.6397 29.7949 44.912Z" fill="#094A54"/>
<path opacity="0.89" fill-rule="evenodd" clip-rule="evenodd" d="M55.9864 48.7795C57.7806 48.7528 59.099 49.5144 59.9415 51.0646C60.7012 55.7276 58.9141 58.9795 54.5802 60.8205C52.9913 61.3783 51.4092 61.3783 49.8341 60.8205C47.7892 59.3086 47.3498 57.4044 48.5157 55.1076C49.4117 53.9279 50.613 53.3127 52.1192 53.2619C52.4045 52.6286 52.6097 51.9548 52.7345 51.2404C53.3958 49.8451 54.4796 49.0247 55.9864 48.7795ZM55.8106 50.1857C54.3335 50.8477 53.6012 52.0197 53.6134 53.7014C53.4453 53.891 53.2989 54.096 53.1739 54.3166C52.385 54.6474 51.5646 54.8817 50.713 55.0197C50.0875 55.3523 49.6481 55.8503 49.3946 56.5139C49.0995 58.5619 49.9784 59.6751 52.0313 59.8537C55.4645 59.5268 57.6911 57.7104 58.711 54.4045C59.4293 51.8152 58.4625 50.409 55.8106 50.1857Z" fill="#094A54"/>
<path opacity="0.876" fill-rule="evenodd" clip-rule="evenodd" d="M18.7208 50.3613C19.4838 50.189 19.8939 50.4821 19.9512 51.2402C19.5796 54.3361 17.8804 56.2403 14.8536 56.9531C14.3848 57.0704 13.9161 57.0704 13.4473 56.9531C13.2243 56.5771 13.2243 56.1964 13.4473 55.8105C16.7505 55.4955 18.5083 53.6792 18.7208 50.3613Z" fill="#094A54"/>
<path opacity="0.879" fill-rule="evenodd" clip-rule="evenodd" d="M34.541 50.5371C34.8868 50.4951 35.2092 50.5536 35.5078 50.7129C35.7173 53.9692 37.4458 55.6979 40.6934 55.8984C41.1622 56.3085 41.1622 56.7188 40.6934 57.1289C36.8362 57.0517 34.6681 55.0888 34.1895 51.2402C34.309 51.0012 34.4262 50.7668 34.541 50.5371Z" fill="#094A54"/>
<path opacity="0.882" fill-rule="evenodd" clip-rule="evenodd" d="M27.6856 54.5801C28.0516 54.6019 28.3152 54.7777 28.4766 55.1074C28.5643 55.867 28.5937 56.6286 28.5645 57.3926C29.4388 57.4636 30.2298 57.7566 30.9375 58.2715C31.4856 57.8997 31.9838 57.4603 32.4317 56.9531C33.2227 56.8067 33.5449 57.1289 33.3985 57.9199C32.8597 58.3703 32.4203 58.8976 32.0801 59.502C32.6205 60.3028 32.9135 61.1817 32.959 62.1387C33.723 62.1095 34.4846 62.1388 35.2442 62.2266C35.713 62.6367 35.713 63.0469 35.2442 63.457C34.4846 63.5447 33.723 63.5741 32.959 63.5449C32.8952 64.5231 32.6024 65.4314 32.0801 66.2695C32.4519 66.8176 32.8914 67.3158 33.3985 67.7637C33.6034 68.6132 33.2812 68.9356 32.4317 68.7305C31.9838 68.2233 31.4856 67.7839 30.9375 67.4121C30.2298 67.927 29.4388 68.22 28.5645 68.291C28.5937 69.055 28.5643 69.8166 28.4766 70.5762C28.1272 71.1629 27.7171 71.2216 27.2461 70.752C27.1584 69.9337 27.1291 69.1135 27.1582 68.291C26.238 68.2773 25.4177 67.9843 24.6973 67.4121C24.2021 67.8194 23.7333 68.2588 23.2911 68.7305C22.3828 68.9941 22.0606 68.6719 22.3243 67.7637C22.6983 67.2135 23.1378 66.7155 23.6426 66.2695C23.1369 65.4848 22.7853 64.6353 22.5879 63.7207C21.892 63.5753 21.1889 63.4874 20.4786 63.457C20.0098 63.0469 20.0098 62.6367 20.4786 62.2266C21.1889 62.1962 21.892 62.1083 22.5879 61.9629C22.7693 61.0664 23.1209 60.246 23.6426 59.502C23.1701 59.0003 22.7307 58.4729 22.3243 57.9199C22.0606 57.0117 22.3828 56.6895 23.2911 56.9531C23.7333 57.4247 24.2021 57.8642 24.6973 58.2715C25.4444 57.7686 26.2648 57.4755 27.1582 57.3926C27.1291 56.5701 27.1584 55.7499 27.2461 54.9316C27.421 54.8321 27.5675 54.7149 27.6856 54.5801ZM26.9825 58.623C25.9056 59.0238 25.0561 59.727 24.4336 60.7324C23.2955 63.6495 24.1452 65.7297 26.9825 66.9727C29.4622 67.2126 31.0149 66.1286 31.6407 63.7207C31.8544 60.3947 30.3017 58.6955 26.9825 58.623Z" fill="#094A54"/>
<path opacity="0.894" fill-rule="evenodd" clip-rule="evenodd" d="M64.248 59.1505C65.2749 59.1417 65.685 59.6691 65.4785 60.7325C65.8612 60.7476 66.2127 60.8649 66.5332 61.0841C66.7935 60.9118 67.028 60.7067 67.2363 60.4689C68.1446 60.2052 68.4668 60.5274 68.2031 61.4357C67.9653 61.644 67.7601 61.8784 67.5879 62.1388C67.8071 62.4592 67.9243 62.8108 67.9394 63.1935C68.2957 63.165 68.6473 63.1943 68.9941 63.2814C69.5304 63.5204 69.6477 63.9013 69.3457 64.4239C68.8911 64.5962 68.4223 64.6547 67.9394 64.5997C67.9593 65.0478 67.842 65.4579 67.5879 65.8302C67.7601 66.0905 67.9653 66.325 68.2031 66.5333C68.4037 67.1234 68.1987 67.475 67.5879 67.588C67.1929 67.4287 66.8413 67.1944 66.5332 66.8849C66.1414 67.0742 65.7311 67.1914 65.3027 67.2364C65.3577 67.7193 65.2992 68.1881 65.1269 68.6427C64.8339 68.877 64.5411 68.877 64.248 68.6427C64.0758 68.1881 64.0172 67.7193 64.0722 67.2364C63.6439 67.1914 63.2336 67.0742 62.8418 66.8849C62.5814 67.0571 62.3469 67.2623 62.1386 67.5001C61.5486 67.7007 61.197 67.4957 61.084 66.8849C61.2432 66.4899 61.4775 66.1383 61.7871 65.8302C61.5978 65.4384 61.4805 65.0281 61.4355 64.5997C61.0212 64.6284 60.6111 64.5992 60.2051 64.5118C59.7004 64.0126 59.7591 63.6023 60.3808 63.2814C60.7277 63.1943 61.0792 63.165 61.4355 63.1935C61.4506 62.8108 61.5679 62.4592 61.7871 62.1388C61.6148 61.8784 61.4097 61.644 61.1719 61.4357C60.9713 60.8456 61.1762 60.494 61.7871 60.381C62.2642 60.4583 62.6449 60.6928 62.9297 61.0841C63.2194 60.8702 63.5416 60.7237 63.8965 60.6446C64.0218 60.1479 64.139 59.6497 64.248 59.1505ZM64.0722 61.963C62.7773 62.7331 62.4551 63.7878 63.1054 65.1271C64.286 66.3407 65.3992 66.2821 66.4453 64.9513C67.0036 62.9084 66.2126 61.9122 64.0722 61.963Z" fill="#094A54"/>
<path opacity="0.888" fill-rule="evenodd" clip-rule="evenodd" d="M42.8028 63.1934C43.0151 63.3224 43.2494 63.3809 43.5059 63.3691C43.5309 67.3583 41.5387 69.4383 37.5293 69.6094C37.0605 69.1993 37.0605 68.789 37.5293 68.3789C40.4867 68.117 42.0979 66.5056 42.3633 63.5449C42.5382 63.4454 42.6847 63.3282 42.8028 63.1934Z" fill="#094A54"/>
<path opacity="0.881" fill-rule="evenodd" clip-rule="evenodd" d="M52.6464 65.6543C56.7103 65.9672 58.7612 68.1351 58.7988 72.1582C58.4041 72.5904 58.0234 72.5904 57.6562 72.1582C57.3046 68.9941 55.5468 67.2363 52.3828 66.8848C52.2395 66.4105 52.3274 66.0002 52.6464 65.6543Z" fill="#094A54"/>
<path opacity="0.889" fill-rule="evenodd" clip-rule="evenodd" d="M46.4941 68.6427C46.8847 68.5861 47.2071 68.7034 47.4609 68.9943C47.5483 69.4003 47.5774 69.8104 47.5488 70.2248C47.9315 70.2399 48.283 70.3571 48.6035 70.5763C49.0245 70.072 49.5518 69.8669 50.1855 69.9611C50.3249 70.1518 50.4421 70.3569 50.5371 70.5763C50.3347 70.9822 50.1004 71.3631 49.8339 71.7189C49.9334 72.6479 50.4608 73.0582 51.416 72.9494C51.6503 73.3009 51.6503 73.6525 51.416 74.0041C50.4608 73.8952 49.9334 74.3055 49.8339 75.2345C49.9095 75.4866 50.0561 75.6917 50.2734 75.8498C50.6097 76.8331 50.2875 77.214 49.3066 76.9923C49.1015 76.7872 48.8965 76.5822 48.6914 76.3771C48.3579 76.6436 47.977 76.7608 47.5488 76.7287C47.5774 77.143 47.5483 77.5531 47.4609 77.9591C47.0508 78.4279 46.6405 78.4279 46.2304 77.9591C46.1431 77.5531 46.1139 77.143 46.1425 76.7287C45.7143 76.7608 45.3334 76.6436 45 76.3771C44.6647 76.9941 44.1668 77.1991 43.5058 76.9923C43.314 76.6295 43.2847 76.2486 43.4179 75.8498C43.934 75.452 43.9927 74.9832 43.5937 74.4435C43.2188 74.1556 42.7793 74.0092 42.2753 74.0041C42.041 73.6525 42.041 73.3009 42.2753 72.9494C43.2305 73.0582 43.7579 72.6479 43.8574 71.7189C43.7818 71.4668 43.6352 71.2617 43.4179 71.1037C43.2847 70.7048 43.314 70.3239 43.5058 69.9611C44.1395 69.8669 44.6669 70.072 45.0878 70.5763C45.4083 70.3571 45.7599 70.2399 46.1425 70.2248C46.0661 69.638 46.1833 69.1107 46.4941 68.6427ZM46.4941 71.4552C46.1005 71.6384 45.7198 71.8727 45.3515 72.1584C44.5157 73.8842 45.0137 74.9976 46.8457 75.4982C48.0378 75.3314 48.7409 74.6576 48.955 73.4767C48.6942 72.1325 47.8738 71.4587 46.4941 71.4552Z" fill="#094A54"/>
</svg>
