<svg width="74" height="80" viewBox="0 0 74 80" fill="none" xmlns="http://www.w3.org/2000/svg">
<g clip-path="url(#clip0_831_2166)">
<path d="M26.1921 1.21132C24.9487 1.62148 24.2983 2.03163 23.4758 2.9496C22.5958 3.92616 22.2133 4.57069 21.9072 5.72304C21.6203 6.73866 20.7212 20.5082 20.9125 20.7621C21.0081 20.8598 21.1229 21.1723 21.1803 21.4457C21.2759 21.8363 21.1994 21.9926 20.8742 22.1293C20.6447 22.2465 20.3386 22.5785 20.2047 22.8715C19.8604 23.5941 19.8795 25.8402 20.243 27.266C20.4151 27.9105 20.7212 29.2777 20.9125 30.3324C21.3142 32.3246 21.5629 32.7934 22.4619 33.1644C22.8828 33.3402 23.0549 33.5941 23.2271 34.2973C23.5523 35.6644 24.8148 38.2035 25.6948 39.2973L26.4791 40.2348V43.0082C26.4791 46.2113 26.2686 46.9144 24.9678 48.0473C24.0114 48.8871 23.5332 49.0238 15.0972 51.0355C11.7305 51.8363 8.59331 52.6176 8.11508 52.7934C6.06826 53.5355 4.17448 55.3129 3.12238 57.4809C2.5485 58.6918 2.52937 58.7309 1.68769 68.3402C1.22859 73.6527 0.865138 78.2035 0.884267 78.4769C0.960783 79.1215 1.55379 79.2387 1.78334 78.6332C1.87898 78.3793 2.31895 73.9652 2.75892 68.809C3.39018 61.4652 3.65799 59.2191 3.94493 58.3988C4.65271 56.4457 6.45085 54.6293 8.47853 53.8676C8.95676 53.6723 11.1184 53.1059 13.2799 52.598C15.4415 52.1098 18.6552 51.3285 20.4342 50.8988L23.6671 50.1176L30.324 51.5434L37.0001 52.9691L43.0449 51.5434L49.0897 50.1176L51.4043 50.6254C52.686 50.8988 55.8423 51.5238 58.4247 52.0121C61.0071 52.4809 63.6852 53.0473 64.393 53.2426C66.6694 53.9066 68.5823 55.5082 69.6153 57.6566C70.0552 58.5746 70.17 59.4926 71.0691 68.4184C71.6047 73.7894 72.102 78.3793 72.1977 78.6137C72.4081 79.1215 72.9246 79.1996 73.0776 78.7699C73.1541 78.6137 72.7524 74.0043 72.1977 68.5551C71.1456 58.0668 71.0499 57.6371 69.9022 55.9184C69.1179 54.7465 67.5684 53.3793 66.3633 52.8129C65.1008 52.1879 63.207 51.7387 57.7743 50.7426C49.128 49.141 48.1524 48.8285 47.1003 47.3832C46.3351 46.348 46.1821 45.5863 46.1821 42.891V40.3519L47.0237 39.2582C48.0567 37.891 48.9367 36.1332 49.3575 34.5512C49.6253 33.6137 49.7783 33.3207 50.1227 33.2426C50.9835 33.0277 51.3852 32.2855 51.8443 30.098C52.0738 28.9262 52.4182 27.3246 52.5903 26.5238C53.0112 24.5316 52.8581 23.1449 52.093 22.3832C51.4808 21.7582 51.4234 21.4457 51.7678 20.8598C51.9591 20.5668 51.8252 19.0824 51.1174 13.2426C50.1418 5.29335 49.9888 4.70741 48.5732 3.10585C48.1715 2.67616 47.2916 2.03163 46.6029 1.68007L45.3213 1.03554L36.1393 0.996475C29.0997 0.957413 26.7851 1.01601 26.1921 1.21132ZM46.1438 2.71523C46.7942 3.02773 47.5402 3.59413 47.8272 3.92616C48.9558 5.29335 49.1471 6.11366 50.0079 13.1059C50.4479 16.7582 50.7731 19.7465 50.7348 19.7855C50.6965 19.8246 49.4531 19.6098 47.9419 19.2973C39.1999 17.5004 32.3517 17.559 23.8392 19.5121C22.8636 19.7465 22.022 19.8832 21.9837 19.8441C21.9454 19.8051 22.0985 16.7387 22.3472 13.0277C22.8445 5.62538 22.9019 5.27382 24.2027 3.76991C24.5661 3.35976 25.2739 2.81288 25.8095 2.57851L26.766 2.10976H35.8715H44.9769L46.1438 2.71523ZM41.3998 19.3949C42.8153 19.5512 45.1873 19.9027 46.6603 20.1957C48.1332 20.4887 49.5871 20.7621 49.8931 20.8207C50.3905 20.8988 50.4287 20.9574 50.3331 21.6215C50.2948 22.0121 49.9122 22.8129 49.5297 23.3988C49.128 23.9848 48.5541 25.0394 48.2289 25.7426C47.9228 26.4457 47.655 27.0316 47.6167 27.0707C47.5976 27.0902 45.2256 26.7191 42.3371 26.2113C36.101 25.1566 35.8906 25.1566 29.4632 26.3285C27.0721 26.7777 25.0826 27.1098 25.0444 27.0707C25.0252 27.0316 24.7766 26.4848 24.4896 25.8402C24.2027 25.1957 23.6288 24.1215 23.1888 23.4574C22.7489 22.7543 22.4045 21.973 22.4045 21.6019L22.3663 20.9769L24.3748 20.5277C26.2686 20.1176 30.8214 19.3754 32.5047 19.2387C34.5324 19.0629 39.0852 19.141 41.3998 19.3949ZM23.1123 25.5473C24.394 28.0082 25.1974 32.0121 24.8531 34.2387C24.7957 34.7465 24.6809 35.1176 24.6427 35.059C24.5853 35.0199 24.394 34.4144 24.2218 33.7504C23.9349 32.6176 23.8392 32.5004 23.2271 32.2855C22.5576 32.0512 22.0793 31.4262 22.0793 30.7621C22.0793 30.5863 21.8307 29.2387 21.5055 27.7934C20.8742 24.9223 20.8168 24.2973 21.142 23.4574L21.3524 22.9105L21.9072 23.5746C22.1941 23.9457 22.7489 24.8246 23.1123 25.5473ZM51.7295 24.5902C51.7295 25.098 51.5191 26.4066 51.2704 27.5004C51.0026 28.5746 50.7348 29.8832 50.6583 30.391C50.5052 31.6019 50.1609 32.1293 49.434 32.2855C49.1088 32.3637 48.8028 32.5199 48.7645 32.6371C48.7262 32.7738 48.5541 33.3988 48.3628 34.0434L48.0376 35.2152L47.8654 34.3363C47.3107 31.4652 48.9367 25.684 50.9261 23.3402C51.2322 23.0082 51.2513 23.0082 51.4808 23.3207C51.6147 23.516 51.7295 24.0824 51.7295 24.5902ZM42.1649 27.3246C44.7474 27.7543 46.9472 28.1449 47.062 28.184C47.2342 28.2426 47.215 28.6137 47.0046 29.5902C46.7368 30.8988 46.7559 35.4691 47.0429 36.6801C47.1385 37.0902 46.9855 37.4418 46.2968 38.3793C45.5508 39.3754 44.9961 39.8246 42.7006 41.2894C39.6782 43.2035 39.0086 43.4769 37.287 43.6527C35.4697 43.8285 34.3411 43.4574 30.9935 41.6215C27.799 39.8832 27.0147 39.2973 26.0773 37.9105C25.5417 37.1293 25.5226 37.0316 25.733 36.1527C26.0391 34.8246 26.0391 31.348 25.733 29.8051C25.5991 29.0824 25.4652 28.4184 25.4461 28.3402C25.4078 28.0863 34.322 26.5629 35.948 26.5434C36.9044 26.5238 39.1999 26.8168 42.1649 27.3246ZM30.7066 42.7348C33.9203 44.5316 35.508 45.0004 37.4783 44.7855C39.1808 44.5902 40.3094 44.1215 42.7388 42.5785L44.9387 41.1918L45.0534 43.6723C45.1873 46.4848 45.3978 47.1879 46.5838 48.4965C47.3489 49.3363 47.3489 49.3559 46.909 49.473C40.4051 51.0355 37.4209 51.7191 37.0001 51.7191C36.7131 51.7191 34.0542 51.1918 31.07 50.5473C28.0859 49.9027 25.58 49.3754 25.4652 49.3754C25.3696 49.3754 25.6756 48.9262 26.1539 48.3988C27.3399 47.0512 27.6268 46.0746 27.6268 43.3793C27.6268 42.1684 27.6842 41.1723 27.7416 41.1723C27.8181 41.1723 29.138 41.8754 30.7066 42.7348Z" fill="#094A54"/>
</g>
<defs>
<clipPath id="clip0_831_2166">
<rect width="74" height="80" fill="white"/>
</clipPath>
</defs>
</svg>
