<svg width="90" height="90" viewBox="0 0 90 90" fill="none" xmlns="http://www.w3.org/2000/svg">
<path d="M50.9942 3.41016C49.9922 3.74414 49.6583 4.37695 49.6758 5.94141C49.6934 6.67969 49.834 7.80469 49.9922 8.4375C50.4141 10.0195 51.5391 12.2871 52.2422 12.9551L52.8399 13.5352L52.5411 17.0859C52.3653 19.0547 52.2071 21.6211 52.1895 22.7988C52.1544 23.9941 52.084 24.9609 52.0313 24.9609C51.8379 24.9609 51.1876 23.6602 50.8887 22.6758C50.7305 22.1309 50.5372 20.584 50.4493 19.1602C50.2911 16.3125 50.0098 15.3281 48.9903 13.9395C47.6719 12.1289 46.7754 9.82617 46.4063 7.29492C46.3008 6.52148 46.1778 5.76562 46.1251 5.58984C46.002 5.20312 45.5801 5.0625 45.1407 5.29102C44.8243 5.4668 44.8067 5.58984 44.9122 6.64453C44.9825 7.29492 45.211 8.52539 45.4395 9.4043C45.6504 10.2656 45.8262 11.0039 45.8087 11.0215C45.7735 11.0566 45.1055 10.5293 44.2969 9.87891C42.6622 8.57812 41.5547 7.1543 41.3965 6.16992C41.2383 5.18555 40.9922 4.74609 40.6231 4.74609C39.3926 4.74609 39.8321 7.13672 41.4493 9.12305C41.8008 9.54492 43.1895 10.7754 44.543 11.8652C48.586 15.0645 48.8497 15.5039 49.0606 19.248C49.1485 20.6016 49.2891 21.9727 49.377 22.3066C49.5879 22.9922 49.7813 22.9922 46.7579 22.3242C44.3145 21.7969 44.1212 21.7266 44.1212 21.2168C44.1212 20.4961 42.9434 18.3867 42.0645 17.5078C40.9044 16.3828 39.7442 15.8203 38.5137 15.8203H37.5294L36.6856 14.1504C35.4376 11.7246 33.7149 10.0898 32.8712 10.5469C32.2735 10.8633 32.4669 11.2852 33.6622 12.3574C34.5938 13.1836 34.9454 13.6758 35.6661 15.0996C36.4219 16.6113 36.5098 16.9277 36.4395 17.6133C36.1407 20.2852 40.7813 24.1875 43.2774 23.3613C43.8926 23.168 44.1915 23.1856 46.1075 23.6074C47.2852 23.8711 48.6563 24.1523 49.1661 24.2578C49.9747 24.4336 50.1329 24.5391 50.5372 25.2246C50.7833 25.6641 51.293 26.2441 51.6622 26.543C52.2422 27.0176 52.3653 27.2285 52.4532 28.002C52.6114 29.1797 53.42 31.5176 54.3868 33.627L55.1602 35.2969L54.7383 36.1406C54.4219 36.7734 54.3165 37.2481 54.3165 38.1797C54.3165 38.8301 54.2813 39.375 54.2462 39.375C53.9473 39.375 51.3458 38.3379 50.2032 37.7578C47.8477 36.5801 47.5137 36.2988 47.3907 35.4199C47.1797 34.084 45.8087 31.5352 44.7364 30.5156C43.5587 29.3731 41.8712 28.4941 40.711 28.4063L39.8321 28.3359L39.3399 27.1231C39.0762 26.4727 38.7422 25.3301 38.584 24.6094C38.2149 22.8691 38.0391 22.5 37.6348 22.5C36.7208 22.5 36.7208 23.6953 37.6876 26.5606L38.2676 28.2832L36.5098 26.666C35.543 25.7695 33.3985 23.6426 31.7286 21.9023C28.9512 19.0371 28.67 18.791 28.3184 18.9668C27.4571 19.4238 27.7559 19.8281 32.2208 24.3633L34.6641 26.8418L33.7676 26.7012C32.1329 26.4551 30.2696 25.8574 28.4942 25.0313C26.754 24.2227 26.2794 24.1523 26.0684 24.7148C25.9278 25.1016 26.4376 25.541 27.8965 26.2617C30.1993 27.4043 33.627 28.3008 35.6837 28.3008C36.1583 28.3008 36.4571 28.459 37.1075 29.1094C37.8809 29.8652 37.9161 29.9531 37.8282 30.6738C37.6524 32.3262 39.4278 34.875 41.9415 36.5625C43.8575 37.8281 45.4395 38.25 46.4415 37.7227C46.8633 37.4941 46.9688 37.5293 47.9356 38.0918C48.4981 38.4258 48.9727 38.7246 49.0079 38.7598C49.1133 38.8652 46.0372 40.4473 44.9122 40.8691C44.1387 41.168 43.4004 41.3086 42.6622 41.3086C41.6778 41.3086 41.3262 41.2031 39.3926 40.2715C36.5626 38.9004 36.1055 38.8477 32.6251 39.4805C30.1465 39.9199 29.8301 39.9375 28.8809 39.7441C28.0899 39.5508 27.7208 39.3574 27.211 38.8301C26.5079 38.0918 25.9454 37.9512 25.6993 38.4434C25.4532 38.9004 25.7169 39.4102 26.543 40.1133C27.9141 41.291 29.7774 41.4844 33.0997 40.7813C35.7891 40.2188 36.4219 40.3066 38.9356 41.5898C40.7813 42.5215 41.1153 42.627 42.2754 42.6797C43.8399 42.7676 45.0001 42.4512 47.1446 41.3789C47.9883 40.957 48.6915 40.6406 48.6915 40.6758C48.6915 40.8867 46.4063 42.4688 45.1055 43.1719C43.3477 44.1035 42.2579 44.4902 39.4629 45.1934C37.1426 45.7734 36.5626 46.0547 36.5626 46.5996C36.5626 47.3379 37.4766 47.25 41.3614 46.125C45.1231 45.0527 47.5313 43.6992 50.0274 41.2734L51.4337 39.9023L53.0508 40.4473C53.9473 40.7461 54.668 41.0801 54.668 41.1856C54.668 41.291 55.0196 42.0996 55.4415 42.9785C56.2676 44.6484 57.6563 46.2305 58.3243 46.2305C58.6055 46.2305 58.6758 46.4063 58.7813 47.1445C58.9922 48.9023 58.9395 49.166 58.3419 49.5176C57.7266 49.8867 56.6016 51.4863 56.1622 52.6289C55.8985 53.3145 55.7403 53.4551 54.8438 53.8594C53.4727 54.4746 52.6817 54.7559 50.1153 55.5469L47.9356 56.1973L47.4083 55.5996C46.3887 54.4395 44.6485 53.8945 42.0118 53.8945C39.2169 53.9121 36.879 54.7559 36.2286 56.0039C36.0528 56.3203 35.8419 56.5137 35.6837 56.4609C33.8028 55.8984 31.4649 54.5977 30.0762 53.3496C29.1094 52.4707 28.0723 50.7832 26.8594 48.0762C26.2969 46.8106 25.6817 45.6328 25.4883 45.457C25.1368 45.1055 24.6622 45.1758 24.504 45.6152C24.3985 45.8789 25.2422 48.0234 26.1387 49.7988C26.3672 50.2734 26.5254 50.6953 26.4903 50.7305C26.4551 50.7656 25.9805 50.6074 25.4356 50.3613C23.9063 49.6582 21.0587 49.0957 15.8555 48.5156C12.0587 48.0762 11.004 48.0059 10.8106 48.1641C10.4942 48.4277 10.4766 48.9375 10.7754 49.1836C10.8809 49.2715 13.2012 49.6055 15.9083 49.9219C18.5977 50.2383 20.9708 50.5371 21.1641 50.6074C21.586 50.7656 19.2833 51.3633 16.7169 51.75C14.9415 52.0312 14.4844 52.2949 14.6778 52.8926C14.7657 53.1914 14.9239 53.2617 15.5919 53.2617C16.7169 53.2617 20.3555 52.4883 22.2364 51.8555C23.1153 51.5742 23.9415 51.3281 24.0821 51.3281C24.5919 51.3281 26.6661 52.5059 28.1251 53.6309C28.9337 54.2461 29.7247 54.8438 29.8653 54.9492C30.0587 55.1074 29.8829 55.2305 28.9512 55.5293C25.8047 56.584 22.1485 57.1289 18.2286 57.1289C11.2852 57.1289 8.43756 57.8848 6.27545 60.293C5.32623 61.3477 5.20318 62.0859 5.94146 62.1914C6.24029 62.2441 6.59186 61.9805 7.34771 61.2246C7.92779 60.627 8.77154 59.9766 9.31646 59.7129C10.2305 59.2734 12.4454 58.6055 12.5684 58.7461C12.6036 58.7813 12.129 59.2031 11.5313 59.6777C10.0899 60.8203 8.9649 62.1563 8.17389 63.6504C7.41803 65.1094 7.40045 65.7949 8.12115 65.8828C8.56061 65.9355 8.6485 65.8125 9.26373 64.5645C10.2481 62.5605 12.3575 60.4512 14.4669 59.4141L16.0313 58.6406L19.2129 58.5176C20.9708 58.4473 22.9571 58.3066 23.6251 58.1836C24.293 58.0781 24.8555 58.0254 24.9083 58.0781C24.9962 58.166 24.2051 58.7285 23.379 59.1504C23.045 59.3262 21.3751 59.959 19.6876 60.5742C16.9981 61.5234 16.6114 61.7168 16.5587 62.0684C16.5235 62.2969 16.6114 62.5605 16.7872 62.6836C17.0333 62.8594 17.5782 62.7363 19.9161 61.9453C23.6602 60.6621 25.1719 59.8711 26.5254 58.4297C27.1231 57.8145 27.7208 57.3047 27.8614 57.3047C28.0196 57.3047 28.8809 57.0234 29.7774 56.6895L31.4122 56.0742L32.3614 56.6016C32.8887 56.8828 33.9786 57.3398 34.8047 57.6035C35.6309 57.8848 36.6504 58.377 37.0899 58.6934C38.1446 59.4668 38.5489 59.6602 39.9903 60.1348C43.1544 61.1719 47.0215 60.1875 47.8829 58.1133C48.0938 57.6035 48.252 57.5156 49.5879 57.1465C50.8184 56.8125 54.0879 55.7051 55.0372 55.3008C55.2833 55.1953 55.3184 55.3711 55.2481 56.9004C55.1954 57.8496 55.2305 58.9395 55.3184 59.3262C55.4766 59.9941 55.4415 60.0469 53.754 62.4199C51.1348 66.0762 49.7637 67.1309 47.2501 67.4121C46.7403 67.4648 46.0723 67.5527 45.7559 67.6055C45.2462 67.6758 45.1583 67.623 44.8419 67.0254C44.42 66.2168 43.5059 65.3027 42.8379 65.0566C41.1856 64.4238 37.793 65.7949 35.7012 67.9219C35.2794 68.3438 34.6465 69.2754 34.295 69.9961C33.7501 71.1035 33.4512 71.4375 32.168 72.4746C28.8985 75.0938 26.4024 75.5859 22.6055 74.3379C21.1641 73.8633 20.0215 73.002 18.9844 71.5781C17.9122 70.1191 17.42 68.8535 17.2442 67.0254C17.1563 66.252 17.0508 65.5137 16.9805 65.4082C16.8223 65.1445 16.295 65.1621 16.0313 65.4258C15.7501 65.707 15.7676 67.377 16.0665 68.5195C16.2247 69.1699 16.2422 69.4336 16.1016 69.3633C14.3262 68.5723 13.5352 68.3438 12.5157 68.3086C11.6192 68.291 11.3379 68.3613 11.1797 68.5898C10.8106 69.1699 11.2501 69.5039 12.5684 69.6445C14.4493 69.8379 15.8731 70.6465 18.1934 72.8262L20.127 74.6543L18.5977 74.7598C15.8028 74.9531 13.8165 75.6738 11.2676 77.4316C9.15826 78.873 8.05084 79.3477 6.76764 79.3652C5.94146 79.3652 5.5899 79.2773 5.15045 78.9609C4.53521 78.5215 3.97271 78.5566 3.79693 79.0313C3.48053 79.875 5.06256 80.7715 6.85553 80.7539C8.36725 80.7363 9.50982 80.2793 11.7774 78.75C12.7794 78.082 13.6407 77.5547 13.6583 77.5898C13.7637 77.6777 12.5157 79.7871 11.795 80.7363C11.4434 81.2109 10.8633 81.7559 10.4942 81.9316C9.86139 82.2656 9.73834 82.4941 9.94928 83.0391C10.0899 83.4258 10.8633 83.3906 11.5489 82.9688C12.3399 82.4941 13.6934 80.6133 14.8008 78.4512L15.7325 76.6582L16.9629 76.3594C18.2637 76.0605 22.3946 75.9902 24.2227 76.2539L25.1544 76.377L23.4493 77.8711C19.9688 80.9297 18.8262 81.5625 16.7872 81.5625C15.8555 81.5625 15.6446 81.6152 15.5567 81.8965C14.9942 83.707 19.6524 83.0391 21.9551 80.9648L22.377 80.5957L22.254 81.2988C22.043 82.5996 21.0235 84.4102 20.1446 85.0781C19.2657 85.7285 19.0899 86.3438 19.67 86.6426C20.1622 86.9063 21.4629 86.0098 22.2364 84.8672C22.9395 83.8301 23.6602 81.7031 23.836 80.2266C23.959 79.3125 24.0294 79.1895 24.9786 78.3633C26.3321 77.168 27.2637 76.5527 28.2657 76.1836C28.7227 76.0254 29.6544 75.6387 30.3223 75.3223L31.5704 74.7598L31.0606 77.502C30.4981 80.5605 30.0587 81.7207 29.0919 82.6699C28.5645 83.1797 28.459 83.3906 28.5469 83.7598C28.7754 84.6738 29.9883 84.1113 30.9024 82.6699C31.6231 81.5273 31.9044 80.5957 32.4317 77.6953C32.9063 75.041 33.3985 73.5117 33.8907 73.0547C34.1895 72.791 34.2422 72.8086 34.6114 73.1953C35.3321 73.9688 36.668 74.4258 38.1622 74.4258C39.3399 74.4258 39.6739 74.3379 40.8516 73.7754C42.9083 72.791 44.5254 71.0508 45.0704 69.2051C45.1407 68.959 45.3692 68.9063 46.1778 68.9063C49.4297 68.8887 51.8204 67.4824 54.1934 64.1602C54.7735 63.334 55.4415 62.4023 55.67 62.0859L56.0919 61.5234L56.6895 61.9629C57.586 62.6484 58.3594 62.7012 59.4493 62.1738C59.959 61.9277 60.6797 61.418 61.0313 61.0488C61.8751 60.1875 62.8594 58.5176 63.2286 57.375L63.5098 56.4785L65.6544 56.0391C66.8321 55.793 68.5196 55.3008 69.3985 54.9492C70.295 54.5801 71.1036 54.3516 71.1915 54.4043C71.4551 54.5625 73.2481 54.1582 74.2676 53.7012C75.9903 52.9453 77.502 51.0117 77.5196 49.5527C77.5196 48.7793 77.8887 48.4102 79.5059 47.5664C81.9844 46.2832 84.2696 43.9453 85.6934 41.2559C86.2911 40.1309 86.3438 39.9023 86.1505 39.6563C85.834 39.2871 85.377 39.3047 85.0606 39.6738C84.9024 39.8496 84.4102 40.6582 83.918 41.4668C83.0391 42.9785 81.1934 45 80.1915 45.5801L79.6465 45.8789L80.2618 44.5781C81.0352 42.8731 81.7208 40.3242 81.8965 38.3731C82.0547 36.5801 81.9317 36.1582 81.2462 36.2461C80.7891 36.2988 80.7715 36.3516 80.5606 37.9688C80.4551 38.8828 80.2618 40.1133 80.1387 40.6934C79.8575 41.9766 79.8223 41.8535 79.2598 38.4082C78.8555 35.8418 78.7325 35.5078 78.2227 35.5078C77.502 35.5078 77.4493 35.9121 77.8712 38.1797C78.293 40.5879 78.504 43.6465 78.3282 44.877C78.2579 45.3867 77.9415 46.0898 77.502 46.7402L76.8165 47.7773L75.7794 47.6895C74.8653 47.6016 74.584 47.6543 73.5821 48.1289C71.6133 49.0606 69.961 50.9941 69.6797 52.7168C69.5743 53.3848 69.5215 53.4551 68.5723 53.8066C67.7813 54.1055 64.1954 55.0195 63.7911 55.0195C63.7383 55.0195 63.6856 54.5098 63.668 53.877C63.6329 52.6289 63.2637 51.3281 62.7012 50.5547C62.3672 50.0801 62.3672 50.0449 62.6485 49.8164C62.8243 49.6934 63.7383 49.2539 64.67 48.8496C66.7442 47.9531 67.6055 47.3379 68.2911 46.3359C68.6602 45.791 69.0118 45.4922 69.4688 45.3691C70.295 45.1231 72.0176 43.8398 72.6505 43.0137C73.5821 41.8008 74.0743 40.4473 74.1094 39.1289L74.127 37.8984L75.3399 36.8789C78.0469 34.6113 79.752 32.0625 80.209 29.584C80.3321 29.0039 80.0157 28.4766 79.5587 28.4766C79.2071 28.4766 79.0313 28.7754 78.6094 30.1465C78.3985 30.832 77.9766 31.7813 77.6778 32.2559C77.0626 33.2402 75.6036 34.9805 75.4278 34.9805C75.3575 34.9805 75.5333 34.2949 75.8321 33.4336C76.2891 32.0801 76.3594 31.6582 76.3594 29.7949C76.377 28.6348 76.3243 27.4746 76.254 27.2285C76.0958 26.6836 75.6915 26.4727 75.2696 26.7012C75.0411 26.8242 74.9883 27.2637 74.9708 29.3731C74.9532 32.2734 74.6719 33.3984 73.4942 35.332C72.8262 36.457 72.7911 36.4746 71.9122 36.5801C70.2774 36.791 68.9942 38.0391 67.8165 40.5352C67.3243 41.5723 67.2364 41.9414 67.254 43.0664C67.254 43.7871 67.3067 44.5606 67.3946 44.7715C67.6231 45.4043 66.3575 46.6172 64.7227 47.2852C63.9844 47.6016 62.8067 48.1465 62.1036 48.5332C60.7852 49.2539 60.3985 49.2715 60.2227 48.6387C59.9766 47.7422 60.1172 45.8965 60.4688 45.3164C60.6446 45 60.8907 44.2969 61.0137 43.7695C61.1544 43.1016 61.418 42.5566 61.8751 42.0117C62.2442 41.5723 62.8946 40.6582 63.334 39.9902C63.7735 39.3047 64.5469 38.3555 65.0391 37.8809C65.5313 37.3887 66.3575 36.4922 66.8497 35.8594C67.3594 35.2266 68.713 33.6094 69.8907 32.2559C72.4571 29.2676 73.6524 27.5977 74.5489 25.7695C75.2872 24.2578 75.252 23.7305 74.4434 23.7305C74.0743 23.7305 73.9161 23.9063 73.5645 24.7324C73.0723 25.8398 71.5255 28.1953 70.5762 29.2676L69.961 29.9707L70.084 29.4434C70.1544 29.1445 70.2071 27.9316 70.2071 26.7188C70.2071 24.8555 70.1544 24.3984 69.8204 23.6777C69.4337 22.8164 68.9766 22.6055 68.5547 23.1152C68.3965 23.3086 68.4141 23.625 68.6251 24.5918C69.4161 28.0371 68.5196 31.5352 66.0587 34.6641L65.127 35.8242L65.004 34.3125C64.9512 33.4688 64.7227 31.9922 64.5118 31.0254C63.6856 27.2637 63.879 23.7832 65.0391 20.7598C65.584 19.3711 65.5313 18.8086 64.8633 18.8086C64.4239 18.8086 64.0723 19.3359 63.5801 20.8477C62.5079 24.0117 62.3672 27.6152 63.1934 31.6406C63.9317 35.3145 63.6856 36.9844 61.9629 39.6387L61.295 40.6934L61.0489 39.6563C60.4512 37.0547 58.5352 34.8047 56.9004 34.8047C56.5489 34.8047 56.3731 34.5762 55.7579 33.2578C53.9297 29.3027 53.5606 27.7734 53.5606 23.9941C53.543 22.4473 53.7012 19.4766 53.877 17.4023C54.1758 13.8516 54.211 13.6055 54.6153 13.2363C55.9688 11.9531 56.0215 8.78906 54.7383 5.97656C53.8419 4.02539 52.3126 2.9707 50.9942 3.41016ZM52.6817 5.13281C53.6309 6.01172 54.6329 9.21094 54.4044 10.582C54.2462 11.5488 53.8594 12.3047 53.5254 12.3047C53.1212 12.3047 52.1016 10.5996 51.5743 9.05273C51.0821 7.55859 50.8536 5.80078 51.0469 5.00977C51.1524 4.58789 51.2227 4.53516 51.7149 4.64062C52.0313 4.69336 52.4532 4.92188 52.6817 5.13281ZM39.8145 17.4727C40.3067 17.7012 40.9395 18.1582 41.2559 18.4746C41.959 19.2305 42.8907 21.0234 42.8907 21.6562C42.8907 22.0781 42.8204 22.1484 42.3633 22.1484C41.0801 22.1484 38.8301 20.4609 38.0743 18.9492C37.5469 17.877 37.5294 17.7012 37.8985 17.332C38.2676 16.9453 38.7774 16.9805 39.8145 17.4727ZM42.2051 30.252C42.7676 30.5684 43.5938 31.2012 44.0333 31.6758C44.8594 32.5547 46.002 34.7168 46.0723 35.5078C46.1251 36.5098 46.0899 36.5625 45.334 36.5625C43.1719 36.5625 39.709 33.5215 39.1114 31.1133C39.0411 30.7969 39.1114 30.5156 39.3751 30.1816C39.9024 29.5137 40.8516 29.5313 42.2051 30.252ZM58.4473 37.1426C59.502 38.3731 59.8536 39.5156 59.836 41.7481C59.8184 44.8242 59.2735 45.6328 57.9551 44.4727C56.6895 43.3828 55.5469 40.4297 55.5469 38.3203C55.5469 36.0176 56.9883 35.4375 58.4473 37.1426ZM72.3516 37.9336C72.4571 38.0039 72.6329 38.2324 72.7559 38.4609C73.002 38.9356 72.7911 40.2539 72.3165 41.1504C71.6485 42.4512 69.5919 44.1914 68.8536 44.0859C68.502 44.0332 68.4669 43.9453 68.4844 43.0313C68.5196 41.3438 69.8731 38.9707 71.2794 38.1094C71.8594 37.7578 72.0528 37.7227 72.3516 37.9336ZM76.1133 49.1309C76.7813 49.9219 74.8829 52.2246 73.1075 52.7871C72.5626 52.9453 71.877 53.0859 71.5782 53.0859C71.1036 53.0859 71.0157 53.0156 71.0157 52.6816C71.0157 52.1895 71.3672 51.6621 72.4044 50.5547C73.67 49.2188 75.5684 48.4805 76.1133 49.1309ZM61.1719 50.8008C62.3145 51.5918 62.7012 53.6836 62.1563 56.127C61.4532 59.2734 59.3614 61.6289 57.709 61.1016C56.8126 60.8203 56.2501 58.3594 56.5665 56.1973C57.2344 51.75 59.2208 49.4121 61.1719 50.8008ZM44.209 55.3887C46.9512 55.916 47.584 57.6387 45.4395 58.7109C44.6661 59.0977 44.3321 59.1504 42.7149 59.1504C41.1153 59.1504 40.7286 59.0801 39.7618 58.6758C36.9141 57.4805 36.5977 56.6367 38.6895 55.7402C40.254 55.0547 41.959 54.9492 44.209 55.3887ZM42.9258 66.5684C43.4883 67.0605 43.7696 67.7637 43.7696 68.6074C43.7696 70.6992 40.6758 73.125 38.0215 73.125C36.2286 73.125 34.9278 72.123 35.209 70.9629C35.5254 69.75 37.3008 67.9395 39.1114 67.0078C40.9747 66.0586 42.2051 65.918 42.9258 66.5684Z" fill="#094A54"/>
</svg>
