<svg width="90" height="90" viewBox="0 0 90 90" fill="none" xmlns="http://www.w3.org/2000/svg">
<path opacity="0.874" fill-rule="evenodd" clip-rule="evenodd" d="M42.0996 1.31838C52.2494 0.48614 58.7241 4.93926 61.5234 14.6778C63.3408 23.3415 62.3447 31.6617 58.5352 39.6387C56.8023 43.6319 54.8394 47.4991 52.6465 51.2402C58.9623 60.415 65.4075 69.4969 71.9824 78.4863C71.8875 78.7057 71.7703 78.9109 71.6309 79.1016C71.1621 79.2188 70.6934 79.2188 70.2246 79.1016C67.2172 78.4013 64.2582 77.5515 61.3477 76.5527C61.9886 80.2521 62.5451 83.9728 63.0176 87.7149C62.8255 88.4542 62.3566 88.6885 61.6113 88.418C55.8677 80.4783 50.3014 72.4217 44.9121 64.2481C39.5228 72.4217 33.9565 80.4783 28.2129 88.418C27.4676 88.6885 26.9988 88.4542 26.8066 87.7149C27.2791 83.9728 27.8357 80.2521 28.4766 76.5527C25.566 77.5515 22.6071 78.4013 19.5996 79.1016C19.1308 79.2188 18.6622 79.2188 18.1934 79.1016C18.0299 78.8917 17.9126 78.6574 17.8418 78.3985C24.4155 69.4709 30.8609 60.4475 37.1777 51.3281C33.6449 45.4048 30.803 39.1646 28.6523 32.6074C26.9067 25.785 27.0239 18.9881 29.0039 12.2168C31.3363 6.10225 35.7017 2.46943 42.0996 1.31838ZM43.1543 2.90041C46.3303 2.58147 49.2601 3.25529 51.9434 4.92189C54.6754 7.31552 55.9352 10.3331 55.7227 13.9746C51.8273 10.9197 47.4036 9.71854 42.4512 10.3711C39.4 10.7624 36.6754 11.9049 34.2773 13.7988C34.0831 7.63282 37.042 4.00001 43.1543 2.90041ZM33.4863 7.82228C32.2757 11.0524 32.1291 14.3336 33.0469 17.666C34.5025 22.7459 36.4948 27.6093 39.0234 32.2559C43.2413 39.8744 47.8116 47.2572 52.7344 54.4043C58.018 62.0318 63.438 69.5611 68.9941 76.9922C66.1162 76.448 63.3037 75.6276 60.5566 74.5313C59.8658 74.2815 59.397 74.4866 59.1504 75.1465C59.9462 78.2165 60.5029 81.322 60.8203 84.4629C51.828 72.2268 43.6249 59.4533 36.2109 46.1426C33.5862 41.2561 31.4768 36.1584 29.8828 30.8496C28.9046 25.8223 28.8461 20.7832 29.707 15.7324C30.3165 12.7568 31.5763 10.1201 33.4863 7.82228ZM56.3379 7.82228C58.2479 10.1201 59.5078 12.7568 60.1172 15.7324C60.7906 19.8153 60.9077 23.9168 60.4688 28.0371C59.7799 31.7444 58.6666 35.3187 57.1289 38.7598C55.4978 42.4906 53.6815 46.1234 51.6797 49.6582C49.6341 46.7919 47.7297 43.8328 45.9668 40.7813C48.5982 36.428 51.0298 31.9456 53.2617 27.334C55.0065 23.6818 56.2955 19.8733 57.1289 15.9082C57.6156 13.1347 57.352 10.4394 56.3379 7.82228ZM42.8027 11.8653C46.7427 11.4441 50.3756 12.2938 53.7012 14.4141C54.4064 14.885 54.9925 15.4709 55.459 16.1719C53.9815 21.7352 51.8428 27.038 49.043 32.0801C47.6953 34.4238 46.3477 36.7677 45 39.1113C40.2493 32.0405 36.7044 24.3941 34.3652 16.1719C34.9573 15.2869 35.7191 14.5838 36.6504 14.0625C38.5801 12.9232 40.631 12.1907 42.8027 11.8653ZM37.8809 52.9981C38.1575 53.0749 38.3627 53.2507 38.4961 53.5254C40.3065 56.5313 42.0936 59.5489 43.8574 62.5781C39.1032 70.0652 34.152 77.4188 29.0039 84.6387C29.2983 81.4372 29.855 78.2731 30.6738 75.1465C30.4362 74.4866 29.9675 74.2815 29.2676 74.5313C26.5205 75.6276 23.708 76.448 20.8301 76.9922C26.7544 69.1538 32.4381 61.1557 37.8809 52.9981Z" fill="#094A54"/>
</svg>
