<svg width="120" height="120" viewBox="0 0 120 120" fill="none" xmlns="http://www.w3.org/2000/svg">
<path opacity="0.919" fill-rule="evenodd" clip-rule="evenodd" d="M68.5554 17.9301C69.2729 17.917 69.7807 18.2295 70.0789 18.8676C72.147 29.9505 74.1392 41.0441 76.0554 52.1488C83.9464 52.1097 91.8371 52.1488 99.7273 52.266C100.402 52.6565 100.597 53.2424 100.313 54.0238C100.196 54.2973 100.001 54.4926 99.7273 54.6098C91.28 54.8036 82.8425 54.7645 74.4148 54.4926C74.1087 54.1616 73.9132 53.7709 73.8289 53.3207C72.1463 43.9277 70.3885 34.5527 68.5554 25.1957C62.4293 46.1057 56.3745 67.0434 50.3914 88.0082C49.6102 89.2581 48.8288 89.2581 48.0476 88.0082C45.2323 76.6689 42.3807 65.3406 39.4929 54.0238C30.6659 53.8286 21.8377 53.7114 13.0086 53.6723C12.4034 52.9593 12.4034 52.2562 13.0086 51.5629C22.3836 51.4066 31.7586 51.4066 41.1336 51.5629C44.025 61.8393 46.7203 72.1907 49.2195 82.6176C55.4815 61.3298 61.6533 40.0016 67.7351 18.6332C68.0035 18.3669 68.277 18.1325 68.5554 17.9301Z" fill="#094A54"/>
<path opacity="0.919" fill-rule="evenodd" clip-rule="evenodd" d="M83.2759 58.9461C94.5904 58.4471 102.286 63.447 106.362 73.9461C108.868 84.4793 105.704 92.7997 96.8696 98.907C90.0348 102.541 83.0816 102.776 76.0103 99.6101C66.8291 94.1757 63.1182 86.168 64.8775 75.5867C67.4975 66.1294 73.6304 60.5827 83.2759 58.9461ZM85.6196 61.2898C95.4892 61.9458 101.778 67.0238 104.487 76.5242C105.837 86.4434 102.048 93.5919 93.1196 97.9695C84.0742 101.048 76.535 98.899 70.5025 91.5242C65.4132 83.4886 65.7259 75.676 71.44 68.0867C75.2905 63.9542 80.0169 61.6885 85.6196 61.2898Z" fill="#094A54"/>
<path opacity="0.909" fill-rule="evenodd" clip-rule="evenodd" d="M81.3073 67.0538C84.2906 67.0198 87.2734 67.0538 90.2554 67.1554C90.357 67.2571 90.4587 67.3588 90.5604 67.4605C90.6621 70.1034 90.696 72.7472 90.6621 75.3917C93.3066 75.3578 95.9504 75.3917 98.5933 75.4934C98.695 75.5951 98.7967 75.6968 98.8984 75.7985C99.034 78.7812 99.034 81.7638 98.8984 84.7466C98.7967 84.8482 98.695 84.9499 98.5933 85.0516C95.9504 85.1533 93.3066 85.1872 90.6621 85.1533C90.696 87.7978 90.6621 90.4416 90.5604 93.0845C90.4587 93.1862 90.357 93.2879 90.2554 93.3896C87.2726 93.5252 84.29 93.5252 81.3073 93.3896C81.2056 93.2879 81.1039 93.1862 81.0022 93.0845C80.9005 90.4416 80.8666 87.7978 80.9005 85.1533C78.256 85.1872 75.6122 85.1533 72.9693 85.0516C72.8676 84.9499 72.7659 84.8482 72.6642 84.7466C72.5286 81.7638 72.5286 78.7812 72.6642 75.7985C72.7659 75.6968 72.8676 75.5951 72.9693 75.4934C75.6122 75.3917 78.256 75.3578 80.9005 75.3917C80.8666 72.7472 80.9005 70.1034 81.0022 67.4605C81.148 67.3499 81.2497 67.2142 81.3073 67.0538ZM82.9342 69.0874C82.9682 71.732 82.9342 74.3757 82.8325 77.0187C82.7308 77.1203 82.6291 77.222 82.5275 77.3237C79.8845 77.4254 77.2408 77.4594 74.5962 77.4254C74.5962 79.3234 74.5962 81.2216 74.5962 83.1196C77.3178 83.0556 80.0293 83.1233 82.7308 83.323C82.8716 83.4298 82.9732 83.5654 83.0359 83.7297C83.1376 86.3047 83.1715 88.8808 83.1376 91.4576C85.0356 91.4576 86.9338 91.4576 88.8318 91.4576C88.7978 88.8131 88.8318 86.1693 88.9335 83.5264C89.0352 83.4247 89.1368 83.323 89.2385 83.2213C91.8815 83.1196 94.5252 83.0857 97.1698 83.1196C97.1698 81.2216 97.1698 79.3234 97.1698 77.4254C94.3896 77.4594 91.6104 77.4254 88.8318 77.3237C88.6305 74.5943 88.5627 71.8489 88.6284 69.0874C86.7304 69.0874 84.8322 69.0874 82.9342 69.0874Z" fill="#094A54"/>
</svg>
