<svg width="90" height="90" viewBox="0 0 90 90" fill="none" xmlns="http://www.w3.org/2000/svg">
<path opacity="0.878" fill-rule="evenodd" clip-rule="evenodd" d="M57.2168 1.14258C60.9504 1.39069 63.2649 3.32429 64.1601 6.94336C64.3591 8.33989 64.1833 9.68755 63.6328 10.9863C63.1086 11.7735 62.6104 12.5646 62.1386 13.3594C62.5755 17.0855 63.0441 20.8062 63.5449 24.5215C65.0519 25.1434 66.546 25.7878 68.0273 26.4551C69.0686 29.6821 69.8303 32.9634 70.3125 36.2988C67.9904 38.6211 65.5588 40.8183 63.0175 42.8906C60.2038 42.4216 57.3913 41.9528 54.58 41.4844C52.0019 43.8281 49.4239 46.1719 46.8457 48.5156C47.9522 51.8648 49.0069 55.234 50.0097 58.623C48.3695 60.468 46.5824 62.1673 44.6484 63.7207C44.9676 67.7078 45.3779 71.6922 45.8789 75.6738C48.8498 77.3989 50.0217 79.9771 49.3945 83.4082C48.0122 87.3958 45.2288 89.0657 41.0449 88.418C36.8982 86.9523 35.2868 84.0519 36.2109 79.7168C36.5307 78.6076 37.1165 77.6702 37.9687 76.9043C37.708 73.3273 37.3565 69.753 36.914 66.1816C36.8261 65.9765 36.6797 65.8301 36.4746 65.7422C34.4489 65.353 32.4567 64.8548 30.498 64.248C29.8005 61.8683 29.1853 59.4659 28.6523 57.041C28.4656 56.9361 28.2607 56.8775 28.0371 56.8652C24.8041 57.2113 21.5813 57.6216 18.3691 58.0957C15.967 61.1132 12.9787 61.8456 9.40426 60.293C6.29276 58.2254 5.26737 55.3836 6.32809 51.7676C8.13806 48.0946 11.0384 46.7763 15.0293 47.8125C16.3097 48.3221 17.3937 49.1131 18.2812 50.1855C22.6501 49.6675 27.0153 49.1108 31.3769 48.5156C32.3847 47.5079 33.3808 46.5117 34.3652 45.5273C33.1054 42.3339 31.8457 39.1407 30.5859 35.9473C30.3662 35.4943 30.3075 35.0256 30.4101 34.541C33.6621 31.4063 36.914 28.2714 40.166 25.1367C40.459 25.0195 40.7519 25.0195 41.0449 25.1367C44.6122 26.5308 48.1864 27.9079 51.7675 29.2676C53.1044 28.3122 54.3642 27.2575 55.5468 26.1035C55.3046 22.1066 54.8945 18.1222 54.3164 14.1504C51.2833 12.36 50.1113 9.72329 50.8008 6.24023C51.8396 3.13107 53.9782 1.43185 57.2168 1.14258ZM56.1621 2.90039C59.9482 2.62308 62.1161 4.35159 62.666 8.08594C62.313 11.295 60.5258 13.0235 57.3047 13.2715C54.1707 12.95 52.4422 11.2215 52.1191 8.08594C52.397 5.5026 53.7447 3.77409 56.1621 2.90039ZM61.6113 23.6426C61.0811 23.4559 60.5538 23.2508 60.0293 23.0273C59.7362 22.9101 59.4434 22.9101 59.1504 23.0273C58.4826 23.519 57.8673 24.0757 57.3047 24.6973C56.8019 21.4325 56.421 18.1513 56.1621 14.8535C57.6893 14.9916 59.154 14.7572 60.5566 14.1504C61.024 17.3016 61.3756 20.4657 61.6113 23.6426ZM59.6777 24.6973C62.0005 25.6681 64.315 26.6643 66.6211 27.6855C67.3356 30.2214 68.0094 32.7702 68.6425 35.332C68.6174 35.7101 68.4416 36.0032 68.1152 36.2109C66.2463 37.7865 64.4299 39.4272 62.666 41.1328C60.1279 40.8422 57.6084 40.4028 55.1074 39.8145C54.2367 36.7432 53.563 33.6377 53.0859 30.498C55.2651 28.5228 57.4623 26.5892 59.6777 24.6973ZM40.6933 26.8066C44.1458 28.1222 47.6029 29.4405 51.0644 30.7617C51.3223 30.9547 51.4689 31.2184 51.5039 31.5527C52.2047 34.4712 52.7908 37.4008 53.2617 40.3418C50.6865 42.6531 48.1377 44.997 45.6152 47.373C42.3843 46.6386 39.1617 45.8768 35.9472 45.0879C34.6582 41.8066 33.369 38.5254 32.08 35.2441C34.9548 32.4279 37.8258 29.6154 40.6933 26.8066ZM35.4199 46.8457C38.6564 47.4349 41.879 48.1087 45.0879 48.8672C46.203 51.8908 47.1992 54.967 48.0761 58.0957C47.8306 58.6065 47.479 59.046 47.0215 59.4141C44.9706 61.2304 42.9199 63.0469 40.8691 64.8633C37.8084 64.3621 34.7616 63.7469 31.7285 63.0176C30.9503 59.5823 30.1299 56.1546 29.2675 52.7344C31.3495 50.7988 33.4003 48.8359 35.4199 46.8457ZM12.5683 48.9551C15.7654 49.281 17.5818 51.0388 18.0175 54.2285C17.2441 58.4517 14.7832 60.0629 10.6347 59.0625C7.46429 57.1613 6.73186 54.5539 8.43746 51.2402C9.51706 49.8957 10.894 49.134 12.5683 48.9551ZM28.2129 50.5371C28.5115 50.509 28.8045 50.5382 29.0918 50.625C28.3704 51.0525 27.843 51.6386 27.5097 52.3828C27.7031 53.3029 27.9374 54.2111 28.2129 55.1074C25.2457 55.6421 22.2574 55.9645 19.248 56.0742C19.6706 54.6325 19.6121 53.1969 19.0722 51.7676C22.1389 51.3297 25.1857 50.9196 28.2129 50.5371ZM42.8027 65.3027C42.9296 65.3762 43.0175 65.4933 43.0664 65.6543C43.4541 68.8637 43.7764 72.0278 44.0332 75.1465C42.5088 74.816 41.044 74.9918 39.6386 75.6738C39.1842 72.5801 38.8327 69.4745 38.584 66.3574C39.5138 66.5611 40.4513 66.649 41.3965 66.6211C41.953 66.2695 42.4216 65.8301 42.8027 65.3027ZM41.748 76.5527C44.8207 76.3446 46.8422 77.6923 47.8125 80.5957C48.247 83.8007 46.9286 85.8807 43.8574 86.8359C40.6193 87.1952 38.5393 85.8182 37.6172 82.7051C37.4231 79.5725 38.8002 77.5218 41.748 76.5527Z" fill="#094A54"/>
<path opacity="0.872" fill-rule="evenodd" clip-rule="evenodd" d="M74.0918 48.0761C78.9153 47.7801 82.1087 49.8895 83.6719 54.4043C84.2682 57.166 83.7408 59.6854 82.0899 61.9629C77.6611 66.4502 73.1786 70.8741 68.6426 75.2344C65.4279 77.2094 62.2053 77.2094 58.9746 75.2344C55.259 72.1185 54.4094 68.3392 56.4258 63.8965C56.6601 63.5449 56.8946 63.1933 57.1289 62.8418C61.4356 58.5351 65.7422 54.2285 70.0489 49.9219C71.2804 49.0125 72.6281 48.3973 74.0918 48.0761ZM74.6192 49.6582C79.2239 49.7222 81.8021 52.0367 82.3535 56.6015C82.2859 57.9566 81.9049 59.2165 81.211 60.3808C79.2239 62.5436 77.1733 64.653 75.0586 66.709C71.8336 63.5131 68.6401 60.2905 65.4785 57.041C67.4389 54.9926 69.4312 52.9711 71.4551 50.9765C72.4481 50.3441 73.5028 49.9046 74.6192 49.6582ZM64.0723 58.0957C67.3768 61.3121 70.6579 64.5641 73.916 67.8515C71.9188 69.9075 69.868 71.8998 67.7637 73.8281C63.6323 76.0252 60.2633 75.1756 57.6563 71.2793C56.5886 68.8484 56.7644 66.5047 58.1836 64.248C60.1183 62.167 62.0812 60.1163 64.0723 58.0957Z" fill="#094A54"/>
</svg>
