<svg width="90" height="90" viewBox="0 0 90 90" fill="none" xmlns="http://www.w3.org/2000/svg">
<path d="M10.5769 73.2032C4.27928 65.5258 0.5 55.7049 0.5 45C0.5 20.4233 20.4233 0.5 45 0.5C59.8254 0.5 72.9576 7.74938 81.0453 18.8988L10.5769 73.2032ZM11.2203 73.9699L81.6239 19.7155C86.5906 26.8959 89.5 35.6075 89.5 45C89.5 69.5767 69.5767 89.5 45 89.5C31.4877 89.5 19.3823 83.4781 11.2203 73.9699Z" stroke="#094A54"/>
<path opacity="0.851" fill-rule="evenodd" clip-rule="evenodd" d="M62.2038 24.7234C65.3879 24.5443 67.0379 26.0372 67.154 29.2021C69.6678 29.4371 71.0427 30.8122 71.2792 33.3273C71.1547 35.475 70.0546 36.8304 67.9791 37.3935C65.8063 37.1277 63.8812 37.6776 62.2038 39.0435C61.0822 40.1064 59.9428 41.1475 58.7859 42.1669C58.8091 43.2786 58.5537 44.3394 58.0198 45.3491C55.9877 50.0856 53.2769 54.3679 49.8873 58.196C46.5859 61.7701 42.559 64.1076 37.8065 65.2088C31.4593 66.223 26.0966 64.3961 21.7184 59.7282C17.9886 54.8557 18.0279 50.0234 21.8363 45.2313C24.3925 42.2535 27.5944 40.348 31.442 39.515C35.7782 38.9415 40.0999 38.2737 44.4068 37.5113C46.958 36.8835 49.4724 36.1371 51.9499 35.272C52.6948 35.2049 53.4019 35.3423 54.0714 35.6845C55.4081 34.5246 56.6849 33.3066 57.9019 32.0308C58.6372 30.6728 59.0302 29.2192 59.0805 27.6699C59.6165 26.1315 60.6576 25.1493 62.2038 24.7234ZM62.3217 25.6663C65.2071 25.6651 66.5231 27.1187 66.2701 30.0271C68.6018 29.944 69.9572 31.044 70.3363 33.3273C70.2262 34.945 69.4012 35.9861 67.8612 36.4506C65.6293 36.213 63.6256 36.763 61.8503 38.1006C60.7264 39.1854 59.5675 40.2265 58.3733 41.224C57.2434 39.5533 56.0844 37.9032 54.8964 36.2738C56.1544 35.1925 57.3527 34.0532 58.4912 32.8558C59.4114 31.4699 59.8828 29.9377 59.9055 28.2592C60.2121 26.9122 61.0174 26.0478 62.3217 25.6663ZM51.9499 36.1559C52.9055 36.0938 53.711 36.4081 54.3661 37.0988C55.4268 38.631 56.4876 40.1632 57.5483 41.6954C57.7606 42.1894 57.8391 42.7002 57.784 43.2276C55.8939 48.2684 53.2223 52.8257 49.7695 56.8995C46.879 60.1836 43.3629 62.5212 39.2209 63.9123C32.5586 65.6116 26.9208 63.942 22.3077 58.9032C18.8223 54.0508 19.1366 49.4542 23.2506 45.1134C26.0375 42.237 29.4358 40.5672 33.4456 40.1043C37.1592 39.6892 40.8522 39.1392 44.5246 38.4542C47.0767 37.8858 49.5518 37.1197 51.9499 36.1559Z" fill="#094A54"/>
<path opacity="0.828" fill-rule="evenodd" clip-rule="evenodd" d="M61.8499 30.8515C62.2695 30.7797 62.5052 30.9565 62.5571 31.3819C61.8539 34.2059 60.1253 36.0131 57.3712 36.8035C57.1477 36.5904 57.0888 36.335 57.1944 36.0374C59.6016 35.0648 61.1534 33.3361 61.8499 30.8515Z" fill="#094A54"/>
<path opacity="0.842" fill-rule="evenodd" clip-rule="evenodd" d="M48.8849 51.3607C49.221 51.3432 49.4175 51.5005 49.4742 51.8321C49.2927 52.2697 49.0373 52.6627 48.7081 53.0107C44.4475 57.6258 39.1831 60.0617 32.9146 60.3182C32.7803 59.9613 32.8786 59.7059 33.2093 59.5521C39.5675 58.9272 44.7926 56.1968 48.8849 51.3607Z" fill="#094A54"/>
</svg>
