<svg width="118" height="95" viewBox="0 0 118 95" fill="none" xmlns="http://www.w3.org/2000/svg">
<path d="M58.5 3.23607L64.3966 21.384C64.6644 22.208 65.4323 22.766 66.2987 22.766H85.3806L69.943 33.982C69.2421 34.4913 68.9488 35.394 69.2165 36.2181L75.1131 54.366L59.6756 43.15C58.9746 42.6407 58.0254 42.6407 57.3244 43.15L41.8869 54.366L47.7835 36.2181C48.0512 35.394 47.7579 34.4913 47.057 33.982L31.6194 22.766L50.7013 22.766C51.5677 22.766 52.3356 22.208 52.6034 21.384L58.5 3.23607Z" stroke="#094A54" stroke-width="2"/>
<path d="M40.5 63.2361L43.2534 71.7102C43.5212 72.5343 44.2891 73.0922 45.1555 73.0922L54.0658 73.0922L46.8572 78.3295C46.1563 78.8388 45.863 79.7416 46.1307 80.5656L48.8841 89.0398L41.6756 83.8024C40.9746 83.2932 40.0254 83.2932 39.3244 83.8024L32.1159 89.0398L34.8693 80.5656C35.137 79.7415 34.8437 78.8388 34.1428 78.3295L33.555 79.1385L34.1428 78.3295L26.9342 73.0922L35.8445 73.0922C36.7109 73.0922 37.4788 72.5343 37.7466 71.7102L40.5 63.2361Z" stroke="#094A54" stroke-width="2"/>
<path d="M76.5 63.2361L79.2534 71.7102C79.5212 72.5343 80.2891 73.0922 81.1555 73.0922L90.0658 73.0922L82.8572 78.3295C82.1563 78.8388 81.863 79.7416 82.1307 80.5656L84.8841 89.0398L77.6756 83.8024C76.9746 83.2932 76.0254 83.2932 75.3244 83.8024L68.1159 89.0398L70.8693 80.5656C71.137 79.7415 70.8437 78.8388 70.1428 78.3295L69.555 79.1385L70.1428 78.3295L62.9342 73.0922L71.8445 73.0922C72.7109 73.0922 73.4788 72.5343 73.7466 71.7102L76.5 63.2361Z" stroke="#094A54" stroke-width="2"/>
<path d="M100.5 35.2361L103.253 43.7102C103.521 44.5343 104.289 45.0922 105.156 45.0922L114.066 45.0922L106.857 50.3295C106.156 50.8388 105.863 51.7416 106.131 52.5656L108.884 61.0398L101.676 55.8024C100.975 55.2932 100.025 55.2932 99.3244 55.8024L92.1159 61.0398L94.8693 52.5656C95.137 51.7415 94.8437 50.8388 94.1428 50.3295L93.555 51.1385L94.1428 50.3295L86.9342 45.0922L95.8445 45.0922C96.7109 45.0922 97.4788 44.5343 97.7466 43.7102L100.5 35.2361Z" stroke="#094A54" stroke-width="2"/>
<path d="M17.5 35.2361L20.2534 43.7102C20.5212 44.5343 21.2891 45.0922 22.1555 45.0922L31.0658 45.0922L23.8572 50.3295C23.1563 50.8388 22.863 51.7416 23.1307 52.5656L25.8841 61.0398L18.6756 55.8024C17.9746 55.2932 17.0254 55.2932 16.3244 55.8024L9.11587 61.0398L11.8693 52.5656C12.137 51.7415 11.8437 50.8388 11.1428 50.3295L10.555 51.1385L11.1428 50.3295L3.93419 45.0922L12.8445 45.0922C13.7109 45.0922 14.4788 44.5343 14.7466 43.7102L17.5 35.2361Z" stroke="#094A54" stroke-width="2"/>
</svg>
