<svg width="64" height="64" viewBox="0 0 64 64" fill="none" xmlns="http://www.w3.org/2000/svg">
<path opacity="0.854" fill-rule="evenodd" clip-rule="evenodd" d="M58.0046 0.655992C58.2127 0.626427 58.4104 0.659393 58.5979 0.754869C60.1886 2.27935 61.7046 3.86138 63.1462 5.50096C61.548 8.13722 60.1307 10.8727 58.8945 13.7078C58.4332 14.3669 57.9716 15.0262 57.5103 15.6853C49.699 23.4966 41.8877 31.3078 34.0764 39.1191C32.4823 40.2461 30.7684 41.1688 28.9348 41.8877C22.7386 48.0839 16.5422 54.2803 10.346 60.4765C8.47441 61.4398 6.69462 61.2751 5.0066 59.9822C3.92192 60.968 2.8671 61.9898 1.84253 63.0473C1.39858 63.0088 1.03601 62.778 0.754888 62.3552C0.623045 62.2233 0.623045 62.0916 0.754888 61.9597C1.81248 60.9351 2.83427 59.8803 3.82007 58.7956C2.5764 57.1001 2.41167 55.3203 3.32569 53.4563C9.52191 47.2601 15.7183 41.0636 21.9146 34.8674C22.6334 33.0338 23.5561 31.3199 24.6831 29.7258C32.5602 21.8487 40.4376 13.9714 48.3147 6.09422C51.671 4.47976 54.9009 2.66715 58.0046 0.655992ZM57.8069 2.63353C59.044 3.54023 60.1645 4.59505 61.1687 5.79759C60.6085 6.78636 60.048 7.77513 59.4878 8.7639C58.0046 7.28075 56.5215 5.79759 55.0383 4.31444C56.0067 3.7987 56.9295 3.23846 57.8069 2.63353ZM53.4563 5.00658C55.2622 6.71339 57.042 8.46015 58.7957 10.2471C58.2321 11.605 57.5399 12.8904 56.7192 14.1033C48.6386 22.5135 40.3658 30.7203 31.9011 38.7236C30.8884 39.2465 29.8666 39.7409 28.8359 40.2068C27.0892 38.46 25.3422 36.7131 23.5955 34.9663C24.1428 33.7066 24.7691 32.4871 25.4741 31.3078C33.6208 22.8317 41.9593 14.5589 50.49 6.48973C51.497 5.98625 52.4857 5.49187 53.4563 5.00658ZM22.4089 36.4494C24.1053 37.8484 25.7203 39.3643 27.2539 40.9978C27.3858 41.1297 27.3858 41.2614 27.2539 41.3933C21.5849 47.0623 15.9161 52.7311 10.2471 58.4001C8.63202 56.7851 7.01716 55.1702 5.4021 53.5552C11.1109 47.8794 16.7799 42.1774 22.4089 36.4494ZM4.21558 55.0383C5.84863 56.3413 7.36481 57.7914 8.76392 59.3889C6.74307 59.5797 5.32577 58.7229 4.51221 56.8181C4.28499 56.246 4.18612 55.6527 4.21558 55.0383Z" fill="#094A54"/>
</svg>
