<svg width="88" height="88" viewBox="0 0 88 88" fill="none" xmlns="http://www.w3.org/2000/svg">
<path d="M65.9551 8.24609L57.7461 16.4551L56.6035 15.6289C53.0527 13.0977 48.6582 12.4473 44.6328 13.8887C41.5918 14.9609 38.8145 17.4395 37.4082 20.3398C36.2832 22.6426 36.0371 23.8906 36.125 26.7207L36.2129 29.0586H35.6504C34.1211 29.0586 31.5898 30.2539 30.3945 31.5195C29.5156 32.4512 28.6543 34.0508 28.3379 35.2812L28.1445 36.0898H26.2637C23.8203 36.0898 22.291 36.4414 20.3223 37.4082C15.4531 39.7988 12.5176 45.248 13.2383 50.5215C13.5723 52.9473 14.2402 54.6348 15.6465 56.6387L16.4551 57.7461L8.24609 65.9551C2.95508 71.2461 0.0546875 74.2871 0.0546875 74.498C0.0546875 74.9727 13.0273 87.9453 13.502 87.9453C13.7129 87.9453 16.7891 85.0098 22.0449 79.7539L30.2539 71.5449L31.3965 72.3711C32.7852 73.373 34.4727 74.1465 36.0547 74.5332C37.4434 74.8672 40.5195 74.9023 41.8027 74.6035C46.3203 73.5137 49.8711 70.2441 51.3828 65.7969C51.6816 64.918 51.7871 64.0918 51.8574 62.2461L51.9629 59.8555L52.7539 59.6445C56.1113 58.8008 58.4316 56.1289 59.0293 52.4375L59.1172 51.8047L61.2969 51.875C64.0391 51.9629 65.5684 51.6641 67.7832 50.5391C69.1191 49.8887 69.6816 49.4668 70.9824 48.1484C73.6191 45.5117 74.7969 42.7168 74.7969 39.0781C74.8145 36.125 74.0762 33.7871 72.3711 31.3965L71.5449 30.2539L79.7539 22.0449C85.0449 16.7539 87.9453 13.7129 87.9453 13.502C87.9453 13.0273 74.9727 0.0546875 74.498 0.0546875C74.2871 0.0546875 71.2109 2.99023 65.9551 8.24609ZM77.6621 21.6758C71.4922 27.8457 69.4883 29.9551 69.4883 30.2715C69.4883 30.5176 69.8398 31.0625 70.4375 31.7129C73.2676 34.7539 73.9355 39.7988 72.0547 43.7715C70.5781 46.8652 67.9941 49.0273 64.7246 49.9062C63.248 50.293 60.6113 50.3105 59.1348 49.9062C54.2129 48.623 50.6797 44.1406 50.6797 39.1484C50.6797 37.4785 50.5215 37.3203 48.8516 37.3203C43.8594 37.3203 39.377 33.7871 38.0938 28.8652C37.6895 27.3887 37.707 24.752 38.0938 23.2754C39.1309 19.3906 42.084 16.4023 46.0215 15.2422C47.4453 14.8203 50.3633 14.8027 51.9102 15.2246C53.6152 15.6816 55.127 16.4902 56.2871 17.5625C56.9375 18.1602 57.4824 18.5117 57.7285 18.5117C58.0449 18.5117 60.1367 16.5254 66.3242 10.3379L74.498 2.16406L80.1582 7.82422L85.8359 13.502L77.6621 21.6758ZM37.3906 31.8359C39.4473 35.9141 43.2441 38.5332 47.832 39.0078L48.8691 39.1309L48.9922 40.168C49.4668 44.7559 52.0859 48.5527 56.1641 50.6094C57.4824 51.2773 57.4824 51.2949 57.166 52.8242C56.6035 55.4785 54.5469 57.6055 52.1562 57.9922L51.4531 58.0977L51.0488 57.0605C49.7305 53.8613 47.0586 51.1719 43.9473 49.9238C42.752 49.4492 40.4844 48.9219 39.6055 48.9219C39.1309 48.9219 39.0781 48.8691 39.0781 48.3945C39.0781 47.5156 38.5508 45.248 38.0762 44.0527C36.8281 40.9414 34.1387 38.2695 30.957 36.9688C29.7793 36.4941 29.7266 36.3184 30.3066 34.7891C30.7109 33.6641 31.9414 32.2227 32.9961 31.6074C33.8223 31.1328 35.3691 30.6758 36.2129 30.6582C36.7578 30.6406 36.8281 30.7285 37.3906 31.8359ZM29.041 38.1289C33.7871 39.377 37.3203 43.9473 37.3203 48.8516C37.3203 50.5215 37.4785 50.6797 39.1484 50.6797C44.1406 50.6797 48.623 54.2129 49.9062 59.1348C50.3105 60.6113 50.293 63.248 49.9062 64.7246C48.6582 69.4004 44.6855 72.7051 39.8516 73.1094C37.0566 73.3379 33.7344 72.2305 31.6602 70.3848C31.0625 69.8398 30.5 69.4883 30.2539 69.4883C29.9551 69.4883 27.8105 71.5273 21.6758 77.6621L13.502 85.8359L7.8418 80.1758L2.16406 74.498L10.3379 66.3242C16.8418 59.8203 18.5117 58.0625 18.5117 57.6934C18.5117 57.4121 18.2832 57.043 17.8789 56.6387C16.877 55.707 15.9102 54.0898 15.4004 52.543C15.0137 51.3301 14.9434 50.8027 14.9434 49.0098C14.9258 47.1816 14.9961 46.7246 15.4004 45.5645C16.1914 43.2617 17.334 41.5918 19.0391 40.2383C21.9043 37.9707 25.5078 37.2148 29.041 38.1289Z" fill="#094A54"/>
<path d="M60.9804 25.8243C59.7148 27.0547 57.9921 28.7598 57.166 29.6387L55.6542 31.2383L54.3535 30.5879C52.9824 29.9024 51.2773 29.4805 50.5566 29.6739C50.3281 29.7266 50.0468 29.9727 49.9414 30.2012C49.6425 30.8692 50.1171 31.2735 51.2949 31.3965C53.2812 31.6075 55.2499 32.961 56.0937 34.7188C56.3222 35.1582 56.5683 36.0196 56.6738 36.6348C56.7792 37.25 56.9374 37.8477 57.0429 37.9707C57.2714 38.252 57.9218 38.2696 58.2031 37.9883C58.748 37.4434 58.2558 34.9121 57.3417 33.4004C57.0605 32.9434 56.832 32.5215 56.832 32.4512C56.832 32.3809 58.5371 30.6055 60.6113 28.5313C62.6855 26.4395 64.3906 24.6465 64.3906 24.5235C64.3906 24.2598 63.7578 23.6094 63.4941 23.6094C63.3886 23.6094 62.2636 24.6114 60.9804 25.8243Z" fill="#094A54"/>
<path d="M29.7969 50.0117C29.252 50.5566 29.7441 53.0879 30.6582 54.5996C30.9395 55.0566 31.168 55.4785 31.168 55.5488C31.168 55.6191 29.4629 57.3945 27.3887 59.4688C25.3145 61.5605 23.6094 63.3535 23.6094 63.4766C23.6094 63.7051 24.2422 64.3906 24.4531 64.3906C24.7344 64.3906 25.2617 63.8984 28.7422 60.418L32.3633 56.7617L33.6641 57.4121C35.0527 58.0977 36.7402 58.5195 37.4258 58.3438C37.6719 58.2734 37.9531 58.0273 38.0586 57.7988C38.3574 57.1309 37.8828 56.7266 36.6523 56.5859C33.875 56.2695 31.7832 54.2129 31.3262 51.3652C31.2207 50.75 31.0625 50.1523 30.957 50.0293C30.7285 49.748 30.0781 49.7305 29.7969 50.0117Z" fill="#094A54"/>
<path d="M29.8672 15.8047C29.6562 16.0156 29.5859 16.4551 29.5859 17.7207C29.5859 19.5137 29.7617 19.918 30.5527 19.918C31.168 19.918 31.3438 19.4258 31.3438 17.6504C31.3438 15.9805 31.1504 15.5234 30.4648 15.5234C30.2891 15.5234 30.0078 15.6465 29.8672 15.8047Z" fill="#094A54"/>
<path d="M16.9648 17.8438C16.4375 18.3711 16.7363 18.8985 18.8281 21.0078C19.9531 22.168 21.0957 23.2227 21.3769 23.3633C21.957 23.6621 22.4668 23.4688 22.6074 22.8711C22.6953 22.5547 22.3086 22.0801 20.3222 20.0586C17.9316 17.6504 17.457 17.3516 16.9648 17.8438Z" fill="#094A54"/>
<path d="M14.9258 30.746C14.5919 31.0624 14.5567 31.7128 14.8555 32.0116C15.1895 32.3456 18.4063 32.2929 18.7579 31.9413C19.127 31.5722 19.1094 31.1151 18.7227 30.7636C18.2657 30.3417 15.3301 30.3417 14.9258 30.746Z" fill="#094A54"/>
<path d="M68.3984 56.8496C68.0117 57.0605 67.9941 57.7637 68.3633 58.1328C68.5742 58.3438 69.0137 58.4141 70.2793 58.4141C72.0195 58.4141 72.4765 58.2383 72.4765 57.5352C72.4765 56.8496 72.0195 56.6562 70.3144 56.6562C69.4179 56.6562 68.5566 56.7441 68.3984 56.8496Z" fill="#094A54"/>
<path d="M64.9531 65.3926C64.83 65.4278 64.6543 65.6211 64.5664 65.8145C64.2675 66.3418 64.6894 66.9219 66.9921 69.1719C69.1015 71.2637 69.6289 71.5625 70.1562 71.0352C70.6484 70.543 70.3496 70.0684 67.9414 67.6778C66.6054 66.3594 65.4277 65.2696 65.3398 65.2871C65.2519 65.2871 65.0761 65.3399 64.9531 65.3926Z" fill="#094A54"/>
<path d="M55.9531 69.295C55.7071 69.7872 55.7246 72.8809 55.9883 73.1446C56.2871 73.4434 56.9375 73.4083 57.2539 73.0743C57.6934 72.6524 57.6582 69.6465 57.2188 69.2598C56.7793 68.8555 56.1817 68.8907 55.9531 69.295Z" fill="#094A54"/>
</svg>
