<svg width="190" height="190" viewBox="0 0 190 190" fill="none" xmlns="http://www.w3.org/2000/svg">
<path d="M99.7871 1.03908C97.4492 2.52345 95.1855 5.26955 94.6289 7.23634C94.3691 8.12697 94.2207 9.79689 94.332 10.8731L94.4805 12.877L91.7344 13.2481C86.4648 14.0274 82.9023 16.7735 82.0488 20.7813C81.418 23.6758 81.5664 28.0918 82.3457 30.3555L83.0137 32.2852L81.7891 33.0645C81.084 33.4727 80.1191 34.3633 79.5996 34.9942L78.6348 36.1817L78.041 35.3281C77.0391 33.8809 74.4043 32.2852 73.0312 32.2852C68.207 32.2852 54.0684 44.8652 42.3047 59.5977C35.5508 68.0215 31.543 74.6641 30.8008 78.7461C30.1328 82.1973 29.6875 94.666 29.6875 110.66V126.098L28.7227 127.285C27.3125 128.955 20.4844 133.965 9.72266 141.201C2.96875 145.729 0.371094 147.658 0.371094 148.178C0.371094 148.697 0.556641 148.846 1.07617 148.697C1.89258 148.512 18.4805 137.342 23.7129 133.482C27.6465 130.588 30.2812 128.25 30.9121 127.137C31.209 126.58 31.3945 119.604 31.5801 103.906C31.7656 91.3262 32.0254 80.5645 32.248 79.4512C32.7676 76.7793 34.6602 72.8457 37.4434 68.6895C46.8691 54.6992 66.9082 34.7715 72.4375 33.918C73.4023 33.7695 73.959 33.9551 75.1836 34.8457C78.3008 37.1836 78.7832 40.3379 76.5566 44.1231C74.9238 46.8692 69.9883 52.2129 66.6484 54.8848C64.8672 56.2949 63.9766 57.3711 62.9375 59.3379C61.7871 61.5274 61.4902 61.8613 60.5996 61.8613C59.2637 61.8613 57.4082 63.9766 54.9219 68.2442C50.543 75.7031 36.627 104.277 36.8125 105.391C37.1465 107.061 38.2598 105.354 42.0078 97.4121C49.541 81.418 56.4805 68.1699 59.0781 64.8301C60.4141 63.1602 61.416 63.0488 63.6797 64.3848C66.4258 66.0176 68.6523 70.3965 68.6523 74.1817C68.6152 76.9277 67.0938 80.4902 63.6797 85.7227C61.6016 88.9512 60.4883 91.0293 60.4883 91.6973C60.4883 92.2539 60.8223 94.1094 61.2305 95.8164C64.3105 108.508 62.1953 118.602 55.0703 125.578C53.8828 126.729 51.8789 128.324 50.5801 129.178C48.168 130.736 47.834 131.219 48.7988 131.59C50.4316 132.221 57.7051 126.023 60.1914 121.904C64.6074 114.631 65.3867 105.836 62.6406 94.5547L61.8613 91.2891L64.459 87.5039C67.1309 83.6074 68.9492 80.2676 69.7285 77.8926C70.3594 75.9258 74.4785 71.0645 78.3008 67.7246C80.1934 66.0918 83.0508 63.3828 84.6465 61.6758L87.541 58.5957L88.4688 59.1895C90.2871 60.377 91.1035 62.2695 91.1035 65.127C91.0664 68.8379 90.2871 70.2481 84.6094 76.4453C77.7441 84.0156 71.6211 91.9199 71.6211 93.293C71.6211 94.4434 72.7715 93.8496 73.959 92.1797C77.0762 87.6524 80.8242 83.0137 85.166 78.3008C87.8008 75.4434 90.0645 73.1055 90.2129 73.1055C90.7695 73.1055 92.3652 75.332 92.5879 76.4824C93.1074 78.7832 92.1797 80.5274 85.7598 89.1367C82.3457 93.7383 78.709 98.7852 77.707 100.418C75.9629 103.238 75.8887 103.424 75.8516 106.318C75.8145 107.951 75.5176 110.215 75.1836 111.328C74.1074 115.225 73.7363 119.752 73.9961 126.914C74.1074 130.699 74.3301 134.522 74.4785 135.449L74.7012 137.082L73.4766 135.709C70.9531 132.852 67.4648 131.107 65.0898 131.553C63.6426 131.813 61.4531 133.557 60.6367 135.115C59.3008 137.713 60.3398 141.98 63.5312 146.805C64.5332 148.4 65.4609 149.885 65.5723 150.145C65.9434 151.147 52.918 169.701 40.3379 185.992C38.9277 187.848 38.2227 189.072 38.3711 189.48C38.4824 189.777 38.8164 190 39.0762 189.926C39.9668 189.629 55.293 169.033 62.1953 158.791C64.5703 155.229 66.6484 152.186 66.7969 152.037C66.9453 151.852 68.0215 153.188 69.1719 155.006C71.25 158.16 71.3242 158.346 71.1387 160.313C70.916 163.318 68.8008 168.662 63.7539 178.793C60.7109 184.99 59.4121 187.959 59.6719 188.219C60.3027 188.85 60.748 188.293 63.2344 183.58C68.0586 174.488 72.2891 164.543 72.9199 160.795C73.2539 158.643 72.2148 156.416 67.6875 150.033C65.7207 147.213 63.5312 143.688 62.7891 142.203C61.6758 139.902 61.5273 139.234 61.6758 137.602C61.8613 135.969 62.084 135.486 63.2344 134.447C64.3105 133.445 64.8672 133.223 66.166 133.223C68.8008 133.223 71.8066 135.523 74.4785 139.568C75.5547 141.238 76.668 141.387 76.5566 139.902C76.5566 139.383 76.2969 137.045 76.0371 134.707C75.4434 129.029 75.4434 118.527 76.0371 115.039C77.0762 109.139 79.0801 106.059 81.9375 105.984C84.5723 105.947 86.0195 107.617 87.0957 112.07C87.8379 115.076 88.0977 122.795 87.6152 127.434C87.207 131.627 87.3926 132.666 88.4688 131.775C88.7656 131.553 89.0996 130.885 89.2109 130.328C89.8047 127.842 92.6621 120.42 94.4434 116.709C97.7461 109.807 100.678 106.504 103.461 106.504C105.502 106.504 106.133 107.506 106.133 110.92C106.133 115.41 104.24 122.016 100.492 130.551C99.4531 132.963 99.082 134.113 99.3789 134.41C99.9355 134.967 100.307 134.596 102.273 131.479C107.691 122.684 113.258 117.266 116.783 117.266C118.305 117.266 119.492 118.379 119.492 119.752C119.455 122.387 116.041 128.287 110.66 134.967C106.393 140.273 106.578 140.719 112.033 138.01C118.119 135.041 123.129 133.557 125.059 134.15C126.061 134.447 126.951 136.488 126.654 137.713C125.875 140.793 120.865 144.912 113.852 148.252C110.846 149.699 110.586 149.959 110.586 151.814C110.586 155.191 108.916 158.68 103.609 166.473C100.195 171.482 97.3008 177.16 95.3711 182.764C93.7012 187.699 93.5898 188.516 94.5918 188.516C95.1113 188.516 95.4082 188.07 95.7422 186.734C97.5234 180.314 100.826 173.523 105.984 165.842C109.473 160.684 111.662 156.564 111.699 155.191C111.699 154.523 112.182 154.635 112.701 155.451C113.703 157.047 121.607 166.102 126.691 171.445C133.111 178.162 144.689 189.258 145.357 189.258C145.58 189.258 145.914 189.072 146.025 188.887C146.174 188.664 141.98 184.285 136.711 179.127C123.352 166.027 112.441 153.67 112.441 151.629C112.441 150.85 112.85 150.516 115.15 149.439C123.055 145.617 128.398 140.57 128.398 136.934C128.398 135.523 127.545 133.816 126.469 133.074C124.688 131.813 119.826 132.629 114.371 135.078C111.699 136.303 111.662 136.488 115.373 131.404C118.713 126.84 120.643 122.943 120.865 120.234C121.051 118.416 120.939 118.008 120.16 117.117C119.604 116.449 118.75 115.967 117.822 115.818C116.523 115.596 116.375 115.447 115.744 113.666C114.037 108.656 113.889 101.68 115.373 95.9277C116.412 92.0313 120.012 84.832 122.943 80.8985C124.242 79.1543 126.617 76.334 128.176 74.5899L131.07 71.4727L130.848 67.9102C130.254 58.3731 130.18 53.1777 130.588 51.1367C131.998 44.457 137.564 39.1875 143.762 38.7051C146.471 38.4824 148.215 39.1504 148.92 40.7461C149.254 41.4883 149.365 46.0156 149.365 57.7051C149.365 72.4375 149.105 79.0801 148.029 95.2969C147.732 99.7871 147.732 101.494 148.029 101.791C148.326 102.088 148.549 102.088 148.846 101.791C149.477 101.16 150.627 81.6035 151.332 59.375L151.592 51.3965L153.15 54.5508C154.004 56.2949 154.857 58.4473 155.08 59.375C155.934 63.2344 156.305 73.2539 156.527 96.8926L156.787 121.979L157.789 123.277C159.014 124.873 163.875 128.992 169.85 133.52C175.936 138.084 188.182 146.656 188.998 146.879C189.443 146.99 189.629 146.842 189.629 146.322C189.629 145.84 187.811 144.355 183.617 141.387C173.375 134.262 164.729 127.656 161.426 124.465L158.271 121.422L158.049 94.7402C157.715 59.1895 157.604 58.2246 152.631 50.0606C151.332 47.8711 151.146 47.2774 150.924 44.4942C150.553 39.8184 150.145 38.7422 148.438 37.8516C147.658 37.4434 146.211 37.0723 145.246 37.0352C143.539 36.9238 143.428 36.8496 140.867 33.7695C125.355 15.1406 108.174 0.0371246 102.57 1.52588e-05C101.977 1.52588e-05 100.715 0.482437 99.7871 1.03908ZM105.205 2.56056C111.662 5.64064 123.871 16.6621 135.078 29.502C139.123 34.1406 141.387 36.8867 141.387 37.2207C141.387 37.332 140.941 37.5176 140.385 37.666C137.49 38.3711 132.814 42.2305 131.033 45.4219C129.809 47.5742 128.77 50.8027 128.77 52.4727C128.77 54.7363 128.25 54.625 125.912 51.8418C122.684 47.9824 120.049 43.9375 116.932 37.8887C113.926 32.1367 113.629 31.7656 108.285 27.2012C102.459 22.2656 97.0039 15.3262 96.1133 11.8008C95.2227 8.34962 96.9297 4.82423 100.529 2.56056C101.457 1.96681 102.385 1.48439 102.57 1.48439C102.793 1.48439 103.98 1.96681 105.205 2.56056ZM96.9668 16.959C99.5645 20.8555 103.461 25.1602 108.248 29.3906L112.627 33.25L115.596 38.8535C119.752 46.6836 122.572 50.8027 126.914 55.4785L128.324 56.9629L128.918 63.086C129.252 66.4629 129.512 69.5801 129.512 69.9883C129.512 70.4707 128.25 72.1777 126.357 74.2559C114.482 87.2813 110.141 101.012 113.963 113.443C114.371 114.779 114.668 115.893 114.594 115.93C114.52 115.967 113.703 116.449 112.775 117.006C110.957 118.045 108.248 120.531 105.984 123.203C105.205 124.131 104.686 124.539 104.834 124.131C107.135 117.971 108.359 111.031 107.654 108.396C106.504 104.24 102.867 103.535 99.1191 106.764L97.4863 108.137L97.7461 105.539C97.8945 104.129 98.2656 100.938 98.5625 98.4512C99.3047 92.5137 99.2305 92.291 94.7402 85.5L92.7734 82.4942L93.5156 80.8613C94.8516 77.9297 94.332 74.7383 92.2168 72.6602L91.1777 71.6211L91.8457 69.877C92.2168 68.9121 92.625 67.2793 92.7363 66.2402L92.959 64.3106L95.668 66.3887C98.3398 68.4297 98.4141 68.5039 99.9727 72.3633C101.568 76.2969 104.166 81.1582 105.131 81.9375C105.539 82.3086 105.762 82.2715 106.059 81.9375C106.355 81.5664 105.91 80.5274 104.463 78.0039C103.387 76.1113 101.865 72.9199 101.123 70.916C99.75 67.2793 99.7129 67.2422 97.0781 65.3496C93.5527 62.7891 92.7363 62.0469 91.6973 60.377C91.252 59.6348 90.2871 58.5586 89.6191 58.0762L88.4316 57.1485L88.9512 55.5527C89.8047 53.1777 89.4707 48.4649 88.2832 46.4238C87.1328 44.3457 84.3496 42.7129 81.5293 42.416L79.5254 42.2305L79.6367 40.0039C79.6738 38.2227 79.9336 37.4805 80.75 36.293C81.3438 35.4766 82.2715 34.5488 82.791 34.2149L83.793 33.6582L89.2852 39.1875C92.3281 42.2676 96.2246 45.793 97.9688 47.0918C99.7129 48.3535 101.383 49.6152 101.68 49.875C102.014 50.0977 105.316 54.5879 109.027 59.8574C112.775 65.0899 115.967 69.4688 116.115 69.5801C116.301 69.6543 116.635 69.543 116.857 69.2461C117.191 68.8379 116.338 67.3906 112.887 62.4922C103.572 49.2442 103.684 49.3555 99.4531 46.1641C95.2969 43.084 86.9844 35.0313 85.2031 32.3594C82.6426 28.5742 82.457 22.0801 84.7949 18.4805C86.168 16.4024 90.2129 14.6953 94.332 14.5098C95.1484 14.4727 95.5938 14.8809 96.9668 16.959ZM84.1641 44.8652C84.9062 45.2735 85.9082 45.9785 86.3535 46.461C88.0605 48.3164 88.3945 53.252 86.9844 56.2578C86.3164 57.6309 83.4961 60.5625 74.7012 69.0606L70.2109 73.4024L70.0625 71.8067C69.6914 68.5781 67.0566 64.459 64.1992 62.6777L63.3086 62.084L64.1992 60.3027C64.7188 59.3008 65.7949 57.9277 66.6113 57.1856C70.4707 53.7344 76.0371 47.834 77.3359 45.8672L78.7832 43.7149L80.7871 43.9375C81.9004 44.0488 83.4219 44.4942 84.1641 44.8652ZM93.4414 86.3535C96.4473 90.8067 97.2266 92.5137 97.2266 94.666C97.2266 95.7793 97.041 97.6719 96.8555 98.8965C96.6699 100.121 96.3359 103.313 96.1504 106.021C95.7793 110.586 95.668 111.031 94.5547 112.85C93.8867 113.926 92.4766 116.932 91.4004 119.492L89.4336 124.131V120.049C89.3965 112.441 87.7637 106.912 84.9805 105.094C83.2734 103.943 80.7871 104.129 78.6719 105.539L77.1875 106.504V105.576C77.1875 103.795 78.8574 101.16 86.4277 90.9922C89.1738 87.2813 91.5859 84.2383 91.7344 84.2383C91.8828 84.2383 92.6621 85.2031 93.4414 86.3535Z" fill="#094A54"/>
</svg>
