<svg width="44" height="74" viewBox="0 0 44 74" fill="none" xmlns="http://www.w3.org/2000/svg">
<path opacity="0.898" fill-rule="evenodd" clip-rule="evenodd" d="M6.08094 0.316562C16.6279 0.283596 27.175 0.316562 37.7216 0.415439C41.0017 1.09205 42.7815 3.10254 43.0609 6.44693C42.8871 9.13639 41.5689 11.015 39.1058 12.0829C37.3423 12.3625 35.5625 12.4614 33.7665 12.3795C33.8622 29.722 33.7633 47.0585 33.4699 64.3888C31.7316 70.1152 27.8754 73.1473 21.9013 73.4855C15.9271 73.1473 12.0709 70.1152 10.3327 64.3888C10.0392 47.0585 9.94031 29.722 10.036 12.3795C8.24002 12.4614 6.46023 12.3625 4.69666 12.0829C1.80669 10.8197 0.521288 8.61135 0.840463 5.45816C1.52291 2.63325 3.26967 0.919375 6.08094 0.316562ZM6.08094 1.89859C16.6279 1.86563 27.175 1.89859 37.7216 1.99747C39.6441 2.40383 40.8637 3.55741 41.38 5.45816C41.6234 8.44622 40.2722 10.259 37.3261 10.8964C27.0429 11.0283 16.7597 11.0283 6.47645 10.8964C3.17712 10.1687 1.89172 8.15829 2.62025 4.8649C3.29736 3.29442 4.45086 2.30565 6.08094 1.89859ZM11.6181 12.3795C18.4736 12.3795 25.3289 12.3795 32.1845 12.3795C32.2175 15.3467 32.1845 18.313 32.0856 21.2785C31.3094 20.6759 30.5512 20.0496 29.8114 19.3998C28.5511 18.682 27.2329 18.5501 25.8563 19.0043C24.9431 19.5877 24.086 20.247 23.2855 20.9818C22.467 21.5466 21.6102 21.6127 20.7147 21.1796C19.9237 20.5205 19.1327 19.8612 18.3417 19.2021C16.8601 18.5137 15.41 18.5795 13.9911 19.3998C13.2331 20.0261 12.4749 20.6522 11.7169 21.2785C11.6181 18.313 11.585 15.3467 11.6181 12.3795ZM15.5731 20.2897C16.2536 20.2504 16.9127 20.3492 17.5507 20.5863C18.3417 21.2455 19.1327 21.9048 19.9237 22.5639C21.2421 23.223 22.5604 23.223 23.8788 22.5639C24.6698 21.9048 25.4608 21.2455 26.2518 20.5863C26.8922 20.3158 27.5515 20.25 28.2294 20.3886C29.1426 20.972 29.9997 21.6313 30.8002 22.3661C31.2253 22.6452 31.6869 22.8101 32.1845 22.8605C32.2175 36.3738 32.1845 49.8869 32.0856 63.4001C30.7652 68.7078 27.3703 71.5424 21.9013 71.9035C18.099 71.7664 15.1656 70.1185 13.1012 66.9596C12.5967 66.0826 12.2012 65.1599 11.9147 64.1911C11.6212 50.4215 11.5223 36.6447 11.6181 22.8605C12.2491 22.7434 12.8423 22.5127 13.3978 22.1684C14.0443 21.4211 14.7695 20.7948 15.5731 20.2897Z" fill="#094A54"/>
</svg>
