<svg width="141" height="150" viewBox="0 0 141 150" fill="none" xmlns="http://www.w3.org/2000/svg">
<path d="M50.0331 1.30063C47.621 2.07993 46.3593 2.85922 44.7636 4.60336C43.0566 6.45883 42.3144 7.68344 41.7206 9.87289C41.164 11.8026 39.4199 37.9647 39.791 38.4471C39.9765 38.6327 40.1992 39.2264 40.3105 39.7459C40.496 40.4881 40.3476 40.785 39.7167 41.0448C39.2714 41.2674 38.6777 41.8983 38.4179 42.4549C37.7499 43.828 37.787 48.0956 38.4921 50.8045C38.8261 52.0292 39.4199 54.6268 39.791 56.6307C40.5702 60.4159 41.0527 61.3065 42.7968 62.0116C43.6132 62.3456 43.9472 62.828 44.2812 64.1639C44.912 66.7616 47.3613 71.5858 49.0683 73.6639L50.5898 75.4452V80.7147C50.5898 86.8006 50.1816 88.1366 47.6581 90.2889C45.8027 91.8846 44.8749 92.1444 28.5097 95.9667C21.9785 97.4881 15.8925 98.9725 14.9648 99.3065C10.9941 100.717 7.32025 104.094 5.27923 108.213C4.16595 110.514 4.12884 110.588 2.49603 128.846C1.6054 138.939 0.900326 147.586 0.937436 148.105C1.08587 149.33 2.23626 149.553 2.68158 148.402C2.86712 147.92 3.72064 139.533 4.57415 129.736C5.79876 115.783 6.3183 111.515 6.87494 109.957C8.24798 106.246 11.7363 102.795 15.6699 101.348C16.5976 100.976 20.791 99.9002 24.9843 98.9354C29.1777 98.0077 35.412 96.5233 38.8632 95.7069L45.1347 94.2225L58.0488 96.9315L70.9999 99.6405L82.7265 96.9315L94.4531 94.2225L98.9433 95.1874C101.43 95.7069 107.553 96.8944 112.562 97.8221C117.572 98.7127 122.768 99.7889 124.141 100.16C128.557 101.422 132.268 104.465 134.271 108.547C135.125 110.291 135.348 112.035 137.092 128.994C138.131 139.199 139.096 147.92 139.281 148.365C139.689 149.33 140.691 149.478 140.988 148.662C141.137 148.365 140.357 139.607 139.281 129.254C137.24 109.326 137.055 108.51 134.828 105.244C133.307 103.017 130.301 100.42 127.963 99.3436C125.514 98.1561 121.84 97.3026 111.301 95.41C94.5273 92.367 92.6347 91.7733 90.5937 89.0272C89.1093 87.0604 88.8124 85.6131 88.8124 80.492V75.6678L90.4453 73.5897C92.4492 70.992 94.1562 67.6522 94.9726 64.6463C95.4921 62.8651 95.789 62.3084 96.457 62.16C98.1269 61.7518 98.9062 60.3417 99.7968 56.1854C100.242 53.9588 100.91 50.9159 101.244 49.3944C102.06 45.6092 101.764 42.9745 100.279 41.5272C99.0917 40.3397 98.9804 39.7459 99.6484 38.6327C100.019 38.076 99.7597 35.2557 98.3867 24.16C96.4941 9.05649 96.1972 7.94321 93.4511 4.90024C92.6718 4.08383 90.9648 2.85922 89.6288 2.19125L87.1425 0.966644L69.33 0.892426C55.6738 0.818207 51.1835 0.929535 50.0331 1.30063ZM88.7382 4.15805C89.9999 4.7518 91.4472 5.82797 92.0038 6.45883C94.1933 9.05649 94.5644 10.6151 96.2343 23.9002C97.0878 30.8397 97.7187 36.5174 97.6445 36.5917C97.5703 36.6659 95.1581 36.2577 92.2265 35.6639C75.2675 32.2499 61.9824 32.3612 45.4687 36.0721C43.5761 36.5174 41.9433 36.7772 41.8691 36.703C41.7949 36.6288 42.0917 30.8026 42.5742 23.7518C43.539 9.68735 43.6503 9.01938 46.1738 6.16196C46.8788 5.38266 48.2519 4.3436 49.291 3.89828L51.1464 3.00766H68.8105H86.4745L88.7382 4.15805ZM79.5351 35.8495C82.2812 36.1463 86.8828 36.8143 89.7402 37.3709C92.5976 37.9276 95.4179 38.4471 96.0117 38.5584C96.9765 38.7069 97.0507 38.8182 96.8652 40.0799C96.791 40.8221 96.0488 42.3436 95.3066 43.4569C94.5273 44.5702 93.414 46.5741 92.7831 47.91C92.1894 49.2459 91.6699 50.3592 91.5956 50.4334C91.5585 50.4706 86.957 49.7655 81.3535 48.8006C69.2558 46.7967 68.8476 46.7967 56.3788 49.0233C51.7402 49.8768 47.8808 50.5077 47.8066 50.4334C47.7695 50.3592 47.287 49.3202 46.7304 48.0956C46.1738 46.8709 45.0605 44.8299 44.207 43.5682C43.3535 42.2323 42.6855 40.7479 42.6855 40.0428L42.6113 38.8553L46.5077 38.0018C50.1816 37.2225 59.0136 35.8124 62.2792 35.5526C66.2128 35.2186 75.0449 35.367 79.5351 35.8495ZM44.0585 47.5389C46.5449 52.2147 48.1035 59.8221 47.4355 64.0526C47.3242 65.0174 47.1015 65.7225 47.0273 65.6112C46.916 65.537 46.5449 64.3866 46.2109 63.1249C45.6542 60.9725 45.4687 60.7499 44.2812 60.3417C42.9824 59.8963 42.0546 58.7088 42.0546 57.4471C42.0546 57.1131 41.5722 54.5526 40.9413 51.8065C39.7167 46.3514 39.6054 45.1639 40.2363 43.5682L40.6445 42.5292L41.7206 43.7909C42.2773 44.4959 43.3535 46.1659 44.0585 47.5389ZM99.5742 45.7206C99.5742 46.6854 99.166 49.1717 98.6835 51.2499C98.164 53.2909 97.6445 55.7772 97.496 56.742C97.1992 59.0428 96.5312 60.0448 95.121 60.3417C94.4902 60.4901 93.8964 60.787 93.8222 61.0096C93.748 61.2694 93.414 62.4569 93.0429 63.6815L92.412 65.9081L92.0781 64.2381C91.0019 58.7831 94.1562 47.7987 98.0156 43.3456C98.6093 42.7147 98.6464 42.7147 99.0917 43.3084C99.3515 43.6795 99.5742 44.7557 99.5742 45.7206ZM81.0195 50.9159C86.0292 51.7323 90.2968 52.4745 90.5195 52.5487C90.8535 52.66 90.8163 53.3651 90.4081 55.2206C89.8886 57.7069 89.9257 66.3905 90.4824 68.6913C90.6679 69.4706 90.371 70.1385 89.0351 71.9198C87.5878 73.8124 86.5117 74.6659 82.0585 77.4491C76.1953 81.0858 74.8964 81.6053 71.5566 81.9393C68.0312 82.2733 65.8417 81.5682 59.3476 78.0799C53.1503 74.7772 51.6288 73.6639 49.8105 71.0292C48.7714 69.5448 48.7343 69.3592 49.1425 67.6893C49.7363 65.1659 49.7363 58.5604 49.1425 55.6288C48.8827 54.2557 48.623 52.994 48.5859 52.8456C48.5117 52.3631 65.8046 49.4686 68.9589 49.4315C70.8144 49.3944 75.2675 49.951 81.0195 50.9159ZM58.791 80.1952C65.0253 83.6092 68.1054 84.4999 71.9277 84.0917C75.2304 83.7206 77.4199 82.8299 82.1328 79.8983L86.4003 77.2635L86.623 81.9764C86.8828 87.3202 87.291 88.6561 89.5917 91.1424C91.0761 92.7381 91.0761 92.7752 90.2226 92.9979C77.6054 95.9667 71.8163 97.2655 70.9999 97.2655C70.4433 97.2655 65.2851 96.2635 59.496 95.0389C53.707 93.8143 48.8456 92.8124 48.623 92.8124C48.4374 92.8124 49.0312 91.9588 49.9589 90.9569C52.2597 88.3963 52.8163 86.5409 52.8163 81.4198C52.8163 79.119 52.9277 77.2264 53.039 77.2264C53.1874 77.2264 55.748 78.5624 58.791 80.1952Z" fill="#094A54"/>
</svg>
