<svg width="190" height="190" viewBox="0 0 190 190" fill="none" xmlns="http://www.w3.org/2000/svg">
<path d="M133.297 1.18716C132.889 1.85513 131.998 3.48795 131.33 4.82388C130.142 7.08755 130.068 7.45865 130.068 10.7614C130.105 15.1032 130.885 16.9586 134.039 20.1501L136.191 22.3395L135.115 23.6754C133.037 26.2731 127.842 31.0602 125.541 32.4333C120.568 35.402 114.742 37.8141 101.42 42.3414C91.3632 45.7184 88.914 46.8688 86.1308 49.5036C84.9804 50.5797 80.9726 54.2164 77.1874 57.5563C68.8378 65.0153 64.9784 69.32 63.0116 73.2907C61.0819 77.1129 61.3788 79.2282 64.1249 81.7145C67.7987 85.0172 73.6991 86.5016 77.4472 85.0915C77.8554 84.943 77.7812 85.277 77.1874 86.5016C75.4062 89.9528 70.5077 101.048 69.2089 104.5C67.7987 108.173 65.9804 116.968 65.4979 122.275C65.0897 126.84 65.5722 126.431 60.5995 126.617C56.8515 126.765 55.9608 126.951 54.328 127.767C52.4726 128.695 46.0526 133.222 32.4706 143.168C24.8261 148.771 25.6796 148.4 10.0194 152.742C5.00967 154.115 0.704985 155.414 0.44522 155.673C0.0370165 156.045 0.0370165 156.193 0.482329 156.527C0.890532 156.861 3.48819 156.267 12.0976 153.855C18.1835 152.111 23.8983 150.441 24.789 150.144C26.6815 149.476 26.0878 149.884 38.9647 140.422C52.5839 130.439 55.0702 128.843 57.7792 128.361C63.0116 127.359 77.1503 129.326 85.3515 132.183C90.6581 134.039 93.5155 135.968 94.2948 138.306C94.8886 140.162 94.1093 143.316 92.662 144.986C90.3612 147.621 87.8749 147.955 84.6835 146.099C79.9335 143.353 75.6659 141.832 69.9882 140.83C65.3124 140.05 63.828 140.088 63.828 141.015C63.828 141.461 64.0878 141.757 64.496 141.757C70.2108 141.869 79.08 144.541 84.3495 147.806C88.2831 150.218 88.6542 154.968 85.1288 158.086L83.8671 159.162L79.9335 157.158C75.4433 154.82 70.4706 153.15 65.8319 152.334C61.7128 151.629 60.2655 151.629 59.9687 152.334C59.7089 153.076 61.119 153.632 63.1972 153.632C67.0194 153.632 75.2948 156.341 80.6757 159.347C83.3476 160.832 83.8671 161.759 83.8671 164.84C83.8671 166.955 83.2362 168.402 81.6776 169.664L80.6015 170.591L77.5956 169.144C73.5136 167.177 68.8007 165.693 64.3104 164.951C60.2284 164.283 58.8183 164.32 58.8183 165.099C58.8183 165.767 59.7831 166.027 63.9022 166.584C68.7636 167.215 78.7089 170.777 79.5995 172.15C80.0077 172.892 79.4882 174.302 78.2265 175.713C75.8515 178.459 72.9198 179.127 67.3905 178.273C59.4862 177.048 60.1913 176.974 54.9218 180.017C46.6835 184.804 42.0448 186.4 36.3671 186.437C33.3612 186.437 32.4706 186.289 30.3183 185.398C27.3124 184.173 26.83 184.285 22.5624 187.031C20.4843 188.33 19.7421 188.998 19.8905 189.443C20.2245 190.297 20.744 190.148 23.5644 188.293C24.9745 187.402 26.496 186.548 26.9784 186.437C27.4237 186.326 28.8339 186.586 30.1327 187.068C32.0624 187.773 33.1757 187.922 36.7382 187.922C40.5605 187.922 41.3769 187.81 44.4198 186.734C48.2792 185.435 52.5468 183.357 57.0741 180.648L60.1542 178.793L64.9042 179.572C70.619 180.5 72.5116 180.537 74.8495 179.757C78.5604 178.496 81.2694 175.601 81.2694 172.892C81.2694 172.261 81.6405 171.779 82.3827 171.334C84.869 169.849 86.1679 165.804 85.2772 162.353L84.7948 160.498L86.205 159.236C88.4315 157.232 89.1737 155.451 88.9511 152.742C88.8397 151.48 88.6542 150.144 88.5058 149.699C88.2831 149.031 88.4315 148.882 89.6562 148.697C93.664 148.029 96.8183 142.834 95.9647 138.269C95.5194 135.894 92.328 133.111 88.0604 131.404C87.0956 130.996 86.3163 130.55 86.3534 130.365C86.3905 130.216 86.9101 128.732 87.5038 127.136L88.6171 124.168L89.3964 125.763C91.4374 129.771 95.9276 132.591 100.195 132.629C103.424 132.666 105.576 131.59 108.99 128.25L111.625 125.615L113.035 127.248C115.002 129.548 117.117 130.402 120.197 130.179C123.017 129.957 124.687 129.215 128.213 126.543L130.699 124.65L132.814 125.095C138.047 126.209 143.316 125.207 146.322 122.498C149.365 119.752 156.082 110.066 159.719 103.09C163.949 95.111 165.99 88.7653 166.658 81.6774C167.141 76.4821 168.254 72.029 170.517 66.4254C172.336 61.861 177.531 51.5817 180.648 46.3493L182.541 43.1579L185.844 42.9723C189.406 42.7496 190.074 42.5641 189.777 41.7848C189.629 41.4137 187.996 41.2282 183.209 41.0426C179.683 40.9313 176.418 40.7829 175.898 40.7457C175.193 40.6715 174.971 40.82 174.971 41.3766C174.971 42.0075 175.342 42.1559 177.754 42.4528C179.275 42.6383 180.574 42.8239 180.648 42.861C180.685 42.8981 179.906 44.4196 178.83 46.2379C173.449 55.5524 169.182 64.6071 167.066 71.2497C165.953 74.775 165.471 77.3356 164.766 83.8297C164.543 85.7223 163.875 88.8766 163.244 90.8805C161.834 95.2594 158.234 102.904 155.303 107.617L153.113 111.105L152.519 108.656C151.48 104.463 149.217 102.422 145.543 102.422C143.465 102.422 141.795 102.941 139.828 104.166C139.049 104.648 138.381 105.019 138.269 105.019C138.195 105.019 138.047 104.351 137.898 103.498C137.156 98.859 133.779 96.2985 129.623 97.2262C128.658 97.4489 127.322 97.9313 126.691 98.3024L125.541 98.9704L125.726 96.0758C125.875 93.6637 125.764 92.9215 125.096 91.5485C123.5 88.2458 118.082 86.6872 113.369 88.1344C109.064 89.5075 103.498 94.109 98.414 100.455C97.078 102.162 95.9647 103.535 95.8905 103.535C95.705 103.535 98.08 98.4879 100.529 93.6266C102.941 88.8024 103.201 87.8004 102.162 88.0231C101.717 88.0973 100.455 90.2497 98.4882 94.109C93.5897 103.832 91.1776 109.992 86.6503 124.205C85.9452 126.506 85.203 128.769 85.0175 129.252L84.6835 130.105L80.453 129.066C78.1522 128.472 74.1444 127.73 71.5468 127.396L66.7968 126.765V125.466C66.7968 123.611 67.7616 117.117 68.6894 112.441C69.8026 106.838 72.0663 101.048 77.8925 88.8766C80.0077 84.4977 80.3788 83.9411 82.1229 82.6793C83.1991 81.9 85.3886 80.193 86.9843 78.8942C90.4726 76.0368 93.9237 74.1442 97.2265 73.2907C99.6757 72.6598 102.051 72.6598 111.514 73.3278C118.119 73.8102 122.906 71.8434 128.695 66.277C129.734 65.2379 130.625 64.1989 130.625 63.9391C130.625 62.8629 129.771 63.1598 127.953 64.8297C124.91 67.65 123.129 68.9489 120.494 70.1364C116.635 71.9547 114.408 72.1774 107.766 71.4352C104.463 71.1012 101.197 70.9157 100.084 71.0641C94.9999 71.695 90.7694 73.6618 86.0194 77.5954C79.414 83.0875 77.3729 84.0524 72.9198 83.7926C69.8026 83.6442 67.3905 82.568 65.0526 80.3415C63.7167 79.0797 63.4569 78.5602 63.4569 77.4098C63.4569 73.4762 67.7987 68.0954 79.2284 57.9274C82.0858 55.3668 85.4257 52.361 86.6503 51.1735C89.5819 48.4274 91.9569 47.277 101.16 44.1598C122.869 36.775 128.732 33.6579 135.041 26.236L137.416 23.4528L140.607 26.0504C145.172 29.7243 149.773 32.7301 155.191 35.4762C159.904 37.8512 161.426 38.2965 161.426 37.3317C161.426 36.9977 159.422 35.7731 156.564 34.3629C148.883 30.5407 142.314 25.8649 136.303 19.9645C132.369 16.1051 131.553 14.5094 131.553 10.5758C131.553 7.71841 131.627 7.49576 133.334 4.34146C135.004 1.37271 135.301 -0.000335693 134.373 -0.000335693C134.187 -0.000335693 133.705 0.556305 133.297 1.18716ZM121.31 90.1383C123.723 91.3629 124.391 92.7731 124.168 95.9274C123.797 100.9 120.494 108.433 114.111 118.713C107.172 129.92 102.088 133 95.8163 129.845C94.5546 129.215 93.0331 128.101 92.4022 127.359C90.9179 125.578 89.4335 122.572 89.4335 121.384C89.4335 120.828 90.1757 118.304 91.0663 115.707C92.4394 111.699 93.0702 110.437 95.371 107.209C106.17 92.1051 114.445 86.65 121.31 90.1383ZM134.521 99.9352C138.158 103.572 136.562 113.109 130.959 121.384C127.285 126.802 120.42 130.031 116.635 128.064C115.187 127.359 112.812 124.91 112.812 124.205C112.812 124.019 114.037 121.904 115.521 119.529C119.195 113.777 121.57 109.324 123.426 104.834L124.947 101.123L127.248 99.8981C130.514 98.2282 132.814 98.2282 134.521 99.9352ZM148.289 104.648C150.85 106.244 151.777 110.511 150.33 114.297C149.105 117.488 145.877 121.273 143.057 122.757C141.424 123.648 140.793 123.759 137.49 123.759C135.449 123.759 133.334 123.648 132.777 123.463L131.738 123.203L133 121.236C135.56 117.228 137.379 112.701 137.898 108.99C138.121 107.431 138.344 107.097 139.754 106.095C143.168 103.757 146.025 103.275 148.289 104.648Z" fill="#094A54"/>
</svg>
