<svg width="66" height="79" viewBox="0 0 66 79" fill="none" xmlns="http://www.w3.org/2000/svg">
<path d="M46.8593 1.21882C46.2343 1.90632 46.7656 2.50007 48.0312 2.50007C50.9999 2.50007 54.7499 3.85945 57.4999 5.93757C61.2499 8.7657 63.7031 13.2969 64.0312 18.0469C64.1562 19.7501 64.4062 20.1876 65.1093 19.8751C65.6406 19.6251 65.7187 19.1563 65.5156 17.3594C64.5312 8.92195 58.2968 2.40632 50.0312 1.15632C47.9843 0.859446 47.1718 0.875071 46.8593 1.21882Z" fill="#094A54"/>
<path d="M46.75 8.4375C46.6094 8.6875 46.6094 8.89062 46.7188 9.14062C46.8594 9.4375 47.0781 9.51562 48.3281 9.67188C50.8438 10 52.7031 10.9375 54.4063 12.75C55.9063 14.3594 56.9063 16.6875 56.9063 18.5781C56.9063 19.4062 57.2656 20 57.75 20C58.875 20 58.6406 16.9844 57.3125 14.2812C55.5781 10.7969 52.0156 8.375 48.2969 8.15625C47.0156 8.09375 46.9375 8.10938 46.75 8.4375Z" fill="#094A54"/>
<path d="M29.0781 12.25C28.5937 12.4375 28 12.75 27.75 12.9375C27.5 13.1094 24.2968 16.2656 20.6406 19.9531C14.1093 26.5156 13.9687 26.6719 13.3281 27.9688C12.5468 29.6094 12.2343 30.7656 12.125 32.5781C11.9687 35.1562 11.6093 36.4219 10.5312 38.125C10.2343 38.5938 8.3281 40.6719 6.29685 42.7344C2.87497 46.2188 2.56247 46.5781 1.85935 47.9062C0.812471 49.9375 0.468721 51.3594 0.453096 53.6719C0.437471 55 0.531221 55.875 0.718721 56.6406C1.0781 58.0156 1.99997 60.0156 2.7031 60.9375C2.99997 61.3281 3.29685 61.7188 3.35935 61.8281C3.43747 61.9375 3.24997 62.3438 2.92185 62.7812C1.73435 64.4375 1.12497 66.4219 1.12497 68.6094C1.12497 71.6406 1.98435 73.6875 4.17185 75.875C6.4531 78.1562 8.35934 78.9688 11.4375 78.9688C14.3281 78.9688 16.125 78.25 18.625 76.0781C20.9843 74.0312 22.7968 73.3438 25.4218 73.4844C27.2343 73.5781 28.6562 74.1094 30.1718 75.2344C30.7968 75.7031 31.4218 76.0938 31.5625 76.0938C32.4687 76.0781 32.5156 75.1719 31.6562 74.4375C29.9375 72.9375 27.7187 72.0469 25.4218 71.9219C22.6093 71.7656 20.1718 72.6719 17.8281 74.75C17.1093 75.4062 16.0468 76.1719 15.4843 76.4688C11.4218 78.625 6.53122 77.2656 3.93747 73.2656C2.24997 70.6562 2.15622 67.2188 3.7031 64.4375C4.46872 63.0781 4.54685 63.0312 5.28122 63.6094C8.3281 66.0312 12.9375 66.7969 16.7343 65.5312C19.1562 64.7188 19.9218 64.1562 24.1718 60C29.1406 55.1094 29.8437 54.7188 33.75 54.4531C35.7343 54.3281 37.2187 53.9219 38.8593 53.0938C40.0468 52.4844 40.4843 52.0781 46.9218 45.6406C54.875 37.7031 54.6406 38 54.6406 35.3906C54.6406 33.9062 54.5937 33.7344 53.9531 32.125C50.1406 22.5938 43.3125 15.9062 33.9062 12.4375C32 11.7344 30.4687 11.6719 29.0781 12.25ZM33.375 13.8594C36.1093 14.8438 39.2656 16.5469 41.9062 18.4844C43.7968 19.8594 47 23.1094 48.3125 24.9531C50.7968 28.4688 53 33.0781 53.125 35C53.1875 35.9844 52.9531 37.3438 52.7187 37.3438C52.6562 37.3438 52.3593 36.9062 52.0781 36.3594C47.25 27.5 39.6093 19.75 30.7968 14.8438C29.9843 14.3906 29.2968 13.9844 29.2656 13.9531C28.9687 13.7188 30.7343 13.2656 31.5781 13.375C31.9687 13.4219 32.7812 13.6406 33.375 13.8594ZM29.6406 15.9531C31.9531 17.2188 35.3593 19.5156 37.4531 21.1875C39.6718 22.9688 43.6406 26.9375 45.3906 29.1406C47.0625 31.2344 49.3281 34.6094 50.6562 37L51.6406 38.7812L45.6406 44.7812C42.3437 48.0938 39.25 51.0469 38.7812 51.3594C37.4218 52.2812 35.6718 52.7969 33.4375 52.9688C30.7187 53.1562 28.8437 53.7969 27.1875 55.0469L26.4843 55.5938L18.7343 47.8281L10.9843 40.0781L11.4687 39.4531C12.7031 37.8281 13.625 35.1094 13.625 33C13.625 31.6719 14.0156 30.0625 14.6562 28.75C15.1875 27.6562 15.625 27.1875 21.5 21.2812C24.9375 17.8281 27.7968 15 27.8437 15C27.8906 15 28.7031 15.4219 29.6406 15.9531ZM22.3437 59.6094C19.125 62.7812 18.1718 63.4844 16.2812 64.0781C14.625 64.5938 12.9687 64.75 11.5 64.5469C8.85934 64.1719 7.0781 63.2969 5.17185 61.4062C4.10935 60.3438 3.7031 59.8125 3.17185 58.75C1.53122 55.4062 1.49997 52.2031 3.10935 48.9062C3.79685 47.4844 3.9531 47.2812 6.8906 44.3281L9.93747 41.2344L17.6406 48.9375L25.3437 56.6406L22.3437 59.6094Z" fill="#094A54"/>
<path d="M30.4219 30.7969C29.625 31.2031 26.8594 33.9219 26.3281 34.7969C25.7969 35.7187 25.6719 37.0937 26.0469 38.0625C26.8281 40.125 28.9219 41.1719 31.0312 40.5625C31.8125 40.3281 32.125 40.0937 33.625 38.6562C35.6094 36.7344 36.125 35.8906 36.125 34.5625C36.125 34.0937 36.0469 33.4375 35.9375 33.0937C35.7031 32.2969 34.7344 31.2031 33.8906 30.7969C32.9687 30.3437 31.2969 30.3594 30.4219 30.7969ZM32.8281 32.0312C33.4531 32.2031 34.2187 32.875 34.4375 33.4375C34.6562 34.0156 34.625 35.0625 34.3594 35.5625C33.9844 36.2656 31.4219 38.7031 30.7812 38.9844C30.4531 39.1094 30 39.2187 29.7656 39.2187C29.1875 39.2187 28.1406 38.6719 27.7812 38.1875C27.4531 37.7187 27.2812 36.6406 27.4375 35.9844C27.5937 35.4062 30.4219 32.5312 31.2031 32.1719C31.9219 31.8437 32.1094 31.8125 32.8281 32.0312Z" fill="#094A54"/>
<path d="M46.8594 15.4375C46.7031 15.5938 46.5938 15.8281 46.5938 15.9688C46.5938 16.2969 47.1094 16.7188 47.5156 16.7188C48.5469 16.7188 49.6094 17.6875 49.7969 18.8281C49.9219 19.5 50.2656 20 50.6094 20C50.7188 20 50.9531 19.8594 51.1406 19.6719C51.4062 19.4062 51.4375 19.2344 51.3594 18.7031C51.0938 17.1094 49.9844 15.8125 48.5625 15.3906C47.5469 15.0781 47.1719 15.0938 46.8594 15.4375Z" fill="#094A54"/>
</svg>
