<svg width="72" height="66" viewBox="0 0 72 66" fill="none" xmlns="http://www.w3.org/2000/svg">
<path d="M67.1718 0.65625C67.3437 0.71875 67.6874 1 67.9531 1.28125L68.4218 1.76562L68.4687 6.32812C68.4999 10.6719 68.4843 10.9219 68.1874 11.4062C67.8593 11.9531 67.0312 12.5312 66.5781 12.5312C66.3281 12.5312 66.3124 13.0469 66.3124 21.2812V30.0312H68.6249C70.6874 30.0312 70.9843 30.0625 71.2187 30.3281C71.4531 30.5938 71.4687 31.7656 71.4374 45.75L71.3906 60.8906L70.8906 61.9375C70.2812 63.25 69.1874 64.3594 67.9531 64.9688L67.0156 65.4219H35.9999H4.98431L4.07806 64.9844C2.82806 64.3594 1.71868 63.2344 1.10931 61.9531L0.609306 60.8906L0.562431 45.75C0.531181 31.7656 0.546806 30.5938 0.781181 30.3281C1.01556 30.0625 1.29681 30.0312 3.14056 30.0312H5.21868V21.2969V12.5625L4.67181 12.2344C4.37493 12.0625 3.98431 11.6875 3.81243 11.4062C3.51556 10.9219 3.49993 10.625 3.49993 6.54688C3.49993 1.85938 3.51556 1.75 4.35931 0.96875L4.78118 0.578125L12.4687 0.53125L20.1562 0.484375L20.7031 0.84375C21.7499 1.5625 21.7968 1.76562 21.7499 6.6875L21.7031 11.0781L21.2656 11.6406C20.9843 12 20.6093 12.2812 20.2187 12.3906L19.5937 12.5781V21.3125V30.0312H24.1249H28.6562V21.2812V12.5312L28.2968 12.3906C28.0937 12.3125 27.7031 12 27.4374 11.6875L26.9374 11.1094V6.54688C26.9374 1.51562 26.9531 1.46875 27.9687 0.796875C28.3906 0.515625 28.8437 0.5 35.9999 0.5C43.2343 0.5 43.5937 0.515625 44.0781 0.8125C45.0312 1.39062 45.0624 1.57812 45.0624 6.53125C45.0624 10.75 45.0468 11.0469 44.7499 11.5156C44.4531 11.9844 43.6249 12.5312 43.2031 12.5312C43.0781 12.5312 43.0312 15.0312 43.0312 21.2812V30.0312H47.5624H52.0937V21.2969V12.5625L51.4999 12.2656C51.1093 12.0781 50.8124 11.7656 50.5624 11.2812C50.2187 10.5938 50.2031 10.5 50.2499 6.28125C50.2968 1.51562 50.3124 1.4375 51.3593 0.8125C51.8437 0.515625 52.1874 0.5 59.3593 0.515625C63.4843 0.515625 66.9999 0.578125 67.1718 0.65625ZM52.0624 2.17188C51.8281 2.39062 51.7812 2.67188 51.7812 4.125V5.8125L59.3906 5.78125L67.0156 5.73438V4.04688C67.0156 2.54688 66.9843 2.32812 66.7187 2.125C66.4687 1.9375 65.2031 1.90625 59.3749 1.90625C53.0624 1.90625 52.3281 1.9375 52.0624 2.17188ZM28.6562 2.21875C28.3593 2.51562 28.3437 2.70312 28.3749 4.14062L28.4218 5.73438H35.9999H43.5781L43.6249 4.09375C43.6718 2.57812 43.6406 2.4375 43.3281 2.17188C43.0312 1.92188 42.4374 1.90625 35.9843 1.90625C29.1406 1.90625 28.9687 1.90625 28.6562 2.21875ZM5.35931 2.0625C5.09368 2.21875 5.06243 2.40625 5.06243 4.01562V5.8125H12.6406H20.2187V4.10938C20.2187 2.76562 20.1718 2.34375 19.9687 2.15625C19.7499 1.9375 18.8749 1.90625 12.7031 1.90625C8.15618 1.90625 5.56243 1.96875 5.35931 2.0625ZM51.7812 8.90625C51.7812 10.0156 51.8437 10.6562 51.9687 10.7812C52.1093 10.9219 53.9843 10.9688 59.4687 10.9688H66.7812L66.9374 10.5625C67.1093 10.125 67.1562 7.48438 66.9843 7.32812C66.9374 7.26562 63.4843 7.21875 59.3281 7.21875H51.7812V8.90625ZM28.3437 8.79688C28.3437 9.65625 28.4218 10.5 28.4999 10.6719C28.6562 10.9531 28.9062 10.9688 35.9999 10.9688C43.0937 10.9688 43.3437 10.9531 43.4999 10.6719C43.5781 10.5 43.6562 9.65625 43.6562 8.79688V7.21875H35.9999H28.3437V8.79688ZM5.06243 8.84375C5.06243 9.73438 5.10931 10.5781 5.15618 10.7188C5.23431 10.9375 6.0468 10.9688 12.5468 10.9688C18.0156 10.9688 19.8906 10.9219 20.0312 10.7812C20.1562 10.6562 20.2187 10.0156 20.2187 8.90625V7.21875H12.6406H5.06243V8.84375ZM53.5781 21.4688C53.6249 26.3906 53.6874 32.7969 53.7343 35.7031L53.8281 40.9688L59.3281 40.9375L64.8281 40.8906L64.8749 26.9062C64.8906 19.2188 64.8749 12.8281 64.8281 12.7188C64.7812 12.5781 63.4843 12.5312 59.1249 12.5312H53.4999L53.5781 21.4688ZM30.2187 18.8906C30.2187 22.4062 30.2656 28.7969 30.3281 33.1094L30.4218 40.9688H35.9531H41.4687V26.75V12.5312H35.8437H30.2187V18.8906ZM6.78118 18.8906C6.78118 22.4062 6.82806 28.7969 6.89056 33.1094L6.98431 40.9688H12.5156H18.0312V26.75V12.5312H12.4062H6.78118V18.8906ZM66.4999 36.2344L66.5468 40.8906L68.2187 40.9375L69.9062 40.9844V36.2812V31.5938H68.1874H66.4687L66.4999 36.2344ZM43.1874 36.2812V40.9688H47.6406H52.0937V36.2812V31.5938H47.6406H43.1874V36.2812ZM19.7499 36.2812V40.9688H24.2031H28.6562V36.2812V31.5938H24.2031H19.7499V36.2812ZM2.09368 36.2812V40.9688H3.65618H5.21868V36.2812V31.5938H3.65618H2.09368V36.2812ZM2.09368 46.75V50.9688H35.9999H69.9062V46.75V42.5312H35.9999H2.09368V46.75ZM66.4374 54.125C66.3906 55.5156 66.3124 55.875 65.9062 56.75C64.6718 59.3594 62.0156 61.125 59.3437 61.125C55.2656 61.125 52.2499 57.9375 52.2499 53.625V52.5312H47.7343H43.2343L43.1406 53.9688C43.0468 55.6875 42.6406 56.875 41.7656 58.0312C40.9843 59.0781 39.9374 59.9375 38.6562 60.5469C37.7031 61.0156 37.5312 61.0469 35.9218 61.0469C34.2656 61.0469 34.1562 61.0312 32.9843 60.4688C30.3124 59.1875 28.8124 56.6719 28.8124 53.4375V52.5312H24.2031H19.5937V53.6719C19.5937 56.375 18.4062 58.6719 16.2812 60.0312C15.0156 60.8594 13.7031 61.1875 11.9687 61.0938C10.7343 61.0312 10.4218 60.9531 9.37493 60.4375C6.68742 59.1094 5.23431 56.5781 5.21868 53.1875V52.5312H3.65618H2.09368V56.4062C2.09368 60.8281 2.17181 61.2656 3.20306 62.4375C3.54681 62.8281 4.21868 63.3281 4.71868 63.5781L5.60931 64.0156H35.9999H66.3906L67.2812 63.5781C67.7812 63.3281 68.4531 62.8281 68.7968 62.4375C69.8281 61.2656 69.9062 60.8281 69.9062 56.4062V52.5312H68.2031H66.4999L66.4374 54.125ZM53.8124 53.8594C53.8124 55.6094 54.1874 56.625 55.3124 57.8281C56.4531 59.0625 57.6562 59.6094 59.2812 59.625C60.3124 59.6406 60.5937 59.5781 61.4999 59.125C63.7812 58 65.0624 55.9844 65.0624 53.5156V52.5312H59.4374H53.8124V53.8594ZM30.4062 54C30.4531 55.25 30.5312 55.5938 30.9687 56.4844C31.9374 58.4531 33.7656 59.6094 35.9218 59.625C37.9843 59.6406 40.0624 58.2812 41.0468 56.2969C41.4687 55.4219 41.5624 55.0625 41.5937 53.9062L41.6562 52.5312H35.9999H30.3437L30.4062 54ZM6.78118 53.6094C6.78118 56.5469 8.45305 58.8125 11.1562 59.5C12.9218 59.9531 14.7968 59.4531 16.2343 58.1406C17.4843 56.9844 17.9218 55.9688 17.9999 54.0625L18.0624 52.5312H12.4218H6.78118V53.6094Z" fill="#094A54"/>
<path d="M58.9688 21.75C59.2656 22.0469 59.2812 22.2656 59.2812 26.5625C59.2812 30.7344 59.2656 31.0937 59 31.3281C58.625 31.6719 58.2969 31.6562 57.9844 31.3125C57.75 31.0625 57.7188 30.4844 57.7188 26.4844C57.7188 22.2969 57.7344 21.9375 58 21.7031C58.375 21.3594 58.5938 21.375 58.9688 21.75Z" fill="#094A54"/>
<path d="M35.5938 21.6875C35.8125 21.8906 35.8438 22.5469 35.8438 26.5156C35.8438 30.4844 35.8125 31.1406 35.5938 31.3437C35.2969 31.6562 35.0469 31.6562 34.6562 31.375C34.375 31.1562 34.3594 30.9219 34.3594 26.5156C34.3594 22.1094 34.375 21.875 34.6562 21.6562C35.0469 21.375 35.2969 21.375 35.5938 21.6875Z" fill="#094A54"/>
<path d="M12.125 21.6094C12.3906 21.75 12.4062 22.1563 12.4062 26.5156C12.4062 31.0625 12.3906 31.2813 12.1094 31.4375C11.6875 31.6563 11.5312 31.6406 11.25 31.3438C11.0312 31.1406 11 30.4844 11 26.5156C11 22.5469 11.0312 21.8906 11.25 21.6875C11.5312 21.4063 11.75 21.375 12.125 21.6094Z" fill="#094A54"/>
</svg>
