<svg width="55" height="88" viewBox="0 0 55 88" fill="none" xmlns="http://www.w3.org/2000/svg">
<path opacity="0.874" fill-rule="evenodd" clip-rule="evenodd" d="M25.0996 0.318376C35.2494 -0.51386 41.7241 3.93926 44.5234 13.6778C46.3408 22.3415 45.3447 30.6617 41.5352 38.6387C39.8023 42.6319 37.8394 46.4991 35.6465 50.2402C41.9623 59.415 48.4075 68.4969 54.9824 77.4863C54.8875 77.7057 54.7703 77.9109 54.6309 78.1016C54.1621 78.2188 53.6934 78.2188 53.2246 78.1016C50.2172 77.4013 47.2582 76.5515 44.3477 75.5527C44.9886 79.2521 45.5451 82.9728 46.0176 86.7149C45.8255 87.4542 45.3566 87.6885 44.6113 87.418C38.8677 79.4783 33.3014 71.4217 27.9121 63.2481C22.5228 71.4217 16.9565 79.4783 11.2129 87.418C10.4676 87.6885 9.99877 87.4542 9.80664 86.7149C10.2791 82.9728 10.8357 79.2521 11.4766 75.5527C8.56598 76.5515 5.60705 77.4013 2.59961 78.1016C2.1308 78.2188 1.66217 78.2188 1.19336 78.1016C1.02988 77.8917 0.912637 77.6574 0.841797 77.3985C7.41549 68.4709 13.8609 59.4475 20.1777 50.3281C16.6449 44.4048 13.803 38.1646 11.6523 31.6074C9.90666 24.785 10.0239 17.9881 12.0039 11.2168C14.3363 5.10225 18.7017 1.46943 25.0996 0.318376ZM26.1543 1.90041C29.3303 1.58147 32.2601 2.25529 34.9434 3.92189C37.6754 6.31552 38.9352 9.33311 38.7227 12.9746C34.8273 9.91971 30.4036 8.71854 25.4512 9.37111C22.4 9.76236 19.6754 10.9049 17.2773 12.7988C17.0831 6.63282 20.042 3.00001 26.1543 1.90041ZM16.4863 6.82228C15.2757 10.0524 15.1291 13.3336 16.0469 16.666C17.5025 21.7459 19.4948 26.6093 22.0234 31.2559C26.2413 38.8744 30.8116 46.2572 35.7344 53.4043C41.018 61.0318 46.438 68.5611 51.9941 75.9922C49.1162 75.448 46.3037 74.6276 43.5566 73.5313C42.8658 73.2815 42.397 73.4866 42.1504 74.1465C42.9462 77.2165 43.5029 80.322 43.8203 83.4629C34.828 71.2268 26.6249 58.4533 19.2109 45.1426C16.5862 40.2561 14.4768 35.1584 12.8828 29.8496C11.9046 24.8223 11.8461 19.7832 12.707 14.7324C13.3165 11.7568 14.5763 9.12006 16.4863 6.82228ZM39.3379 6.82228C41.2479 9.12006 42.5078 11.7568 43.1172 14.7324C43.7906 18.8153 43.9077 22.9168 43.4688 27.0371C42.7799 30.7444 41.6666 34.3187 40.1289 37.7598C38.4978 41.4906 36.6815 45.1234 34.6797 48.6582C32.6341 45.7919 30.7297 42.8328 28.9668 39.7813C31.5982 35.428 34.0298 30.9456 36.2617 26.334C38.0065 22.6818 39.2955 18.8733 40.1289 14.9082C40.6156 12.1347 40.352 9.43937 39.3379 6.82228ZM25.8027 10.8653C29.7427 10.4441 33.3756 11.2938 36.7012 13.4141C37.4064 13.885 37.9925 14.4709 38.459 15.1719C36.9815 20.7352 34.8428 26.038 32.043 31.0801C30.6953 33.4238 29.3477 35.7677 28 38.1113C23.2493 31.0405 19.7044 23.3941 17.3652 15.1719C17.9573 14.2869 18.7191 13.5838 19.6504 13.0625C21.5801 11.9232 23.631 11.1907 25.8027 10.8653ZM20.8809 51.9981C21.1575 52.0749 21.3627 52.2507 21.4961 52.5254C23.3065 55.5313 25.0936 58.5489 26.8574 61.5781C22.1032 69.0652 17.152 76.4188 12.0039 83.6387C12.2983 80.4372 12.855 77.2731 13.6738 74.1465C13.4362 73.4866 12.9675 73.2815 12.2676 73.5313C9.52047 74.6276 6.70797 75.448 3.83008 75.9922C9.75443 68.1538 15.4381 60.1557 20.8809 51.9981Z" fill="#094A54"/>
</svg>
