<svg width="78" height="36" viewBox="0 0 78 36" fill="none" xmlns="http://www.w3.org/2000/svg">
<path d="M35.2207 0.351513C34.9395 0.404247 33.832 0.544872 32.7598 0.703075C24.0762 1.91597 14.2676 6.45112 5.53125 13.289C3.08789 15.1875 0.503906 17.6132 0.503906 18C0.503906 18.3867 3.12305 20.8476 5.51367 22.7109C15.1816 30.1992 25.0781 34.541 34.9219 35.5957C37.7168 35.8945 43.0605 35.7187 45.7676 35.2441C55.1016 33.5917 64.1895 29.2851 72.8379 22.4121C75.1758 20.5664 77.4961 18.3691 77.4961 18.0351C77.4961 17.2792 72.1875 12.832 67.8457 9.94917C60.6387 5.13276 53.1855 2.02143 45.7676 0.75581C44.168 0.47456 42.6914 0.369091 39.7031 0.333935C37.5234 0.298779 35.5195 0.316357 35.2207 0.351513ZM40.8457 2.17964C46.9453 2.88276 52.1484 7.11909 54.0996 12.9902C56.8594 21.3398 52.3594 30.3222 44.0098 33.0996C35.6602 35.8593 26.6953 31.3593 23.9004 22.9921C21.1055 14.6777 25.6406 5.69526 34.0254 2.88276C36.3984 2.09175 38.3145 1.89839 40.8457 2.17964ZM27.8379 4.14839C25.043 6.36323 22.7051 10.0019 21.7383 13.6054C21.3867 14.871 21.334 15.539 21.334 18C21.334 21.3925 21.6328 22.7988 22.916 25.541C24.0762 27.9843 25.5 29.83 27.6445 31.6757C28.1191 32.08 28.4004 32.414 28.2949 32.414C27.8027 32.414 22.7051 30.6035 20.8594 29.7773C14.7246 27.0175 8.51953 23.0097 3.58008 18.6328L2.87695 18L3.58008 17.3671C8.50195 13.0078 14.7246 8.98237 20.8242 6.24018C22.7578 5.37886 27.7676 3.58589 28.2773 3.58589C28.418 3.58589 28.2246 3.83198 27.8379 4.14839ZM52.1484 4.30659C59.6016 6.73237 67.9863 11.6542 74.4199 17.3671L75.123 18L74.2441 18.791C72.9785 19.916 69.5859 22.5527 67.7402 23.8183C62.7305 27.2636 57.2109 30.041 52.1309 31.6933C50.918 32.0976 49.8105 32.414 49.7051 32.414C49.582 32.414 49.8281 32.1152 50.2676 31.7636C53.1152 29.3906 55.3125 25.9628 56.2617 22.3945C56.6133 21.1289 56.666 20.4609 56.666 18C56.666 15.5214 56.6133 14.8886 56.2617 13.6054C55.2773 9.98433 53.1152 6.60933 50.2676 4.23628C49.8281 3.88472 49.582 3.58589 49.7051 3.58589C49.8105 3.58589 50.918 3.91987 52.1484 4.30659Z" fill="#094A54"/>
<path d="M37.7696 7.75192C33.8672 8.24411 30.3516 11.1972 29.1387 15.0117C28.6114 16.6113 28.6114 19.3886 29.1211 20.9883C30.1582 24.2226 32.8477 26.8769 36.0996 27.8789C37.7696 28.3886 40.3711 28.3886 41.9883 27.8613C45.1875 26.8418 47.8418 24.1875 48.8789 20.9883C49.3887 19.3886 49.3887 16.6113 48.8789 15.0117C47.8594 11.8476 45.1524 9.12302 42.0762 8.1738C40.9688 7.82224 38.8067 7.6113 37.7696 7.75192ZM41.0215 9.82614C45.1875 10.916 47.9297 14.9414 47.3145 19.125C46.8223 22.5351 44.3614 25.2949 41.0215 26.1738C36.627 27.3164 32.0039 24.5215 30.8262 20.0215C29.2617 14.0097 35.0098 8.26169 41.0215 9.82614Z" fill="#094A54"/>
<path d="M41.9883 17.5077C41.9004 17.7362 41.7773 18.2284 41.7246 18.6151C41.5664 19.5468 40.5469 20.5663 39.6152 20.7245C38.4023 20.9179 38.1211 21.0936 38.1211 21.6913C38.1211 23.1151 40.4414 22.9569 42.1465 21.4101C43.3242 20.3554 44.0273 18.3515 43.4824 17.5429C43.1133 16.9804 42.2168 16.9628 41.9883 17.5077Z" fill="#094A54"/>
</svg>
