<svg width="118" height="112" viewBox="0 0 118 112" fill="none" xmlns="http://www.w3.org/2000/svg">
<path d="M47.5823 75.6361C49.5914 71.6178 56.7741 66.369 69.4316 77.5196" stroke="#094A54" stroke-width="2.26027" stroke-linecap="round"/>
<path d="M31.0068 39.1785C33.7694 40.0575 40.726 40.3086 46.452 34.2812" stroke="#094A54" stroke-width="2.26027" stroke-linecap="round"/>
<path d="M70.1849 33.9043C71.4406 36.039 76.2123 40.0824 85.2534 39.1783" stroke="#094A54" stroke-width="2.26027" stroke-linecap="round"/>
<circle cx="59.2603" cy="55.7528" r="43.3219" stroke="#094A54" stroke-width="2.26027"/>
<circle cx="44.1918" cy="49.7276" r="6.40411" stroke="#094A54" stroke-width="2.26027"/>
<circle cx="72.822" cy="49.7276" r="6.40411" stroke="#094A54" stroke-width="2.26027"/>
<circle cx="101.452" cy="24.1099" r="1.88356" stroke="#094A54" stroke-width="0.753425"/>
<circle cx="46.452" cy="5.27395" r="1.88356" stroke="#094A54" stroke-width="0.753425"/>
<circle cx="9.53432" cy="21.8506" r="1.13014" stroke="#094A54" stroke-width="0.753425"/>
<circle cx="67.548" cy="1.50685" r="1.13014" stroke="#094A54" stroke-width="0.753425"/>
<circle cx="41.9315" cy="46.7129" r="3.0137" fill="#094A54"/>
<circle cx="74.3288" cy="46.7129" r="3.0137" fill="#094A54"/>
<path d="M12.548 100.959L105.973 100.959" stroke="#094A54" stroke-width="2.26027" stroke-linecap="round"/>
<path d="M43.4384 106.986L73.5753 106.986" stroke="#00C78B" stroke-width="2.26027" stroke-linecap="round"/>
<path d="M50.2192 110L66.7946 110" stroke="#00C78B" stroke-width="2.26027" stroke-linecap="round"/>
<path d="M76.5891 106.986L81.8631 106.986" stroke="#00C78B" stroke-width="2.26027" stroke-linecap="round"/>
<path d="M35.1508 106.986L40.4247 106.986" stroke="#00C78B" stroke-width="2.26027" stroke-linecap="round"/>
<path d="M6.52051 100.959L9.53421 100.959" stroke="#094A54" stroke-width="2.26027" stroke-linecap="round"/>
<path d="M2 100.959L3.50685 100.959" stroke="#094A54" stroke-width="2.26027" stroke-linecap="round"/>
<path d="M108.986 100.959L112 100.959" stroke="#094A54" stroke-width="2.26027" stroke-linecap="round"/>
<path d="M115.014 100.959L116.521 100.959" stroke="#094A54" stroke-width="2.26027" stroke-linecap="round"/>
<path d="M108.158 47.3712C108.168 47.2821 108.298 47.2821 108.308 47.3712L108.436 48.5C108.442 48.5504 108.495 48.5808 108.541 48.5606L109.583 48.1074C109.665 48.0716 109.73 48.1837 109.658 48.237L108.744 48.9126C108.704 48.9427 108.704 49.0036 108.744 49.0337L109.658 49.7093C109.73 49.7626 109.665 49.8747 109.583 49.839L108.541 49.3857C108.495 49.3655 108.442 49.396 108.436 49.4463L108.308 50.5751C108.298 50.6642 108.168 50.6642 108.158 50.5751L108.03 49.4463C108.024 49.396 107.971 49.3655 107.925 49.3857L106.883 49.839C106.801 49.8747 106.736 49.7626 106.808 49.7093L107.722 49.0337C107.762 49.0036 107.762 48.9427 107.722 48.9126L106.808 48.237C106.736 48.1837 106.801 48.0716 106.883 48.1074L107.925 48.5606C107.971 48.5808 108.024 48.5504 108.03 48.5L108.158 47.3712Z" fill="#00C78B"/>
<path d="M82.5416 9.69935C82.5517 9.61025 82.6812 9.61025 82.6913 9.69935L82.8197 10.8282C82.8254 10.8785 82.8782 10.9089 82.9246 10.8887L83.9664 10.4355C84.0486 10.3997 84.1133 10.5118 84.0412 10.5652L83.1278 11.2407C83.0871 11.2708 83.0871 11.3317 83.1278 11.3619L84.0412 12.0374C84.1133 12.0908 84.0486 12.2029 83.9664 12.1671L82.9246 11.7138C82.8782 11.6936 82.8254 11.7241 82.8197 11.7744L82.6913 12.9032C82.6812 12.9923 82.5517 12.9923 82.5416 12.9032L82.4133 11.7744C82.4075 11.7241 82.3548 11.6936 82.3083 11.7138L81.2666 12.1671C81.1844 12.2029 81.1196 12.0908 81.1917 12.0374L82.1051 11.3619C82.1458 11.3317 82.1458 11.2708 82.1051 11.2407L81.1917 10.5652C81.1196 10.5118 81.1844 10.3997 81.2666 10.4355L82.3083 10.8887C82.3548 10.9089 82.4075 10.8785 82.4133 10.8282L82.5416 9.69935Z" fill="#00C78B"/>
<path d="M108.158 5.93178C108.168 5.84267 108.298 5.84267 108.308 5.93178L108.436 7.06058C108.442 7.1109 108.495 7.14136 108.541 7.12115L109.583 6.66791C109.665 6.63213 109.73 6.74425 109.658 6.79757L108.744 7.47314C108.704 7.50325 108.704 7.56417 108.744 7.59429L109.658 8.26985C109.73 8.32318 109.665 8.43529 109.583 8.39951L108.541 7.94627C108.495 7.92606 108.442 7.95652 108.436 8.00684L108.308 9.13565C108.298 9.22475 108.168 9.22475 108.158 9.13565L108.03 8.00684C108.024 7.95652 107.971 7.92606 107.925 7.94627L106.883 8.39951C106.801 8.43529 106.736 8.32318 106.808 8.26985L107.722 7.59429C107.762 7.56417 107.762 7.50325 107.722 7.47314L106.808 6.79757C106.736 6.74425 106.801 6.63213 106.883 6.66791L107.925 7.12116C107.971 7.14136 108.024 7.1109 108.03 7.06058L108.158 5.93178Z" fill="#00C78B"/>
<path d="M24.5279 2.1642C24.5381 2.07509 24.6675 2.07509 24.6777 2.1642L24.806 3.293C24.8117 3.34333 24.8645 3.37378 24.9109 3.35358L25.9527 2.90033C26.0349 2.86456 26.0997 2.97667 26.0275 3.03L25.1142 3.70556C25.0734 3.73568 25.0734 3.79659 25.1142 3.82671L26.0275 4.50227C26.0997 4.5556 26.0349 4.66771 25.9527 4.63193L24.9109 4.17869C24.8645 4.15848 24.8117 4.18894 24.806 4.23926L24.6777 5.36807C24.6675 5.45718 24.5381 5.45717 24.5279 5.36807L24.3996 4.23926C24.3939 4.18894 24.3411 4.15848 24.2947 4.17869L23.2529 4.63193C23.1707 4.66771 23.106 4.5556 23.1781 4.50227L24.0915 3.82671C24.1322 3.79659 24.1322 3.73568 24.0915 3.70556L23.1781 3.03C23.106 2.97667 23.1707 2.86456 23.2529 2.90034L24.2947 3.35358C24.3411 3.37378 24.3939 3.34333 24.3996 3.293L24.5279 2.1642Z" fill="#00C78B"/>
<path d="M6.44567 49.631C6.4558 49.5419 6.58526 49.5419 6.59539 49.631L6.72374 50.7598C6.72947 50.8101 6.78222 50.8406 6.82866 50.8204L7.87041 50.3671C7.95265 50.3314 8.01738 50.4435 7.94527 50.4968L7.03188 51.1724C6.99116 51.2025 6.99116 51.2634 7.03188 51.2935L7.94527 51.9691C8.01738 52.0224 7.95265 52.1345 7.87041 52.0987L6.82866 51.6455C6.78222 51.6253 6.72947 51.6557 6.72374 51.7061L6.59539 52.8349C6.58526 52.924 6.4558 52.924 6.44567 52.8349L6.31731 51.7061C6.31159 51.6557 6.25884 51.6253 6.21239 51.6455L5.17064 52.0987C5.08841 52.1345 5.02368 52.0224 5.09578 51.9691L6.00918 51.2935C6.0499 51.2634 6.0499 51.2025 6.00918 51.1724L5.09578 50.4968C5.02368 50.4435 5.08841 50.3314 5.17064 50.3671L6.21239 50.8204C6.25884 50.8406 6.31159 50.8101 6.31731 50.7598L6.44567 49.631Z" fill="#00C78B"/>
</svg>
