<svg width="44" height="74" viewBox="0 0 44 74" fill="none" xmlns="http://www.w3.org/2000/svg">
<path opacity="0.898" fill-rule="evenodd" clip-rule="evenodd" d="M6.08082 0.316562C16.6278 0.283596 27.1748 0.316562 37.7214 0.415439C41.0016 1.09205 42.7814 3.10254 43.0608 6.44693C42.887 9.13639 41.5687 11.015 39.1057 12.0829C37.3422 12.3625 35.5624 12.4614 33.7664 12.3795C33.8621 29.722 33.7632 47.0585 33.4697 64.3888C31.7315 70.1152 27.8753 73.1473 21.9011 73.4855C15.927 73.1473 12.0708 70.1152 10.3325 64.3888C10.0391 47.0585 9.94018 29.722 10.0359 12.3795C8.2399 12.4614 6.46011 12.3625 4.69654 12.0829C1.80657 10.8197 0.521166 8.61135 0.840341 5.45816C1.52279 2.63325 3.26955 0.919375 6.08082 0.316562ZM6.08082 1.89859C16.6278 1.86563 27.1748 1.89859 37.7214 1.99747C39.644 2.40383 40.8636 3.55741 41.3799 5.45816C41.6233 8.44622 40.2721 10.259 37.3259 10.8964C27.0427 11.0283 16.7595 11.0283 6.47633 10.8964C3.177 10.1687 1.8916 8.15829 2.62013 4.8649C3.29724 3.29442 4.45073 2.30565 6.08082 1.89859ZM11.6179 12.3795C18.4735 12.3795 25.3288 12.3795 32.1843 12.3795C32.2174 15.3467 32.1843 18.313 32.0855 21.2785C31.3093 20.6759 30.5511 20.0496 29.8113 19.3998C28.551 18.682 27.2328 18.5501 25.8562 19.0043C24.943 19.5877 24.0859 20.247 23.2854 20.9818C22.4669 21.5466 21.61 21.6127 20.7146 21.1796C19.9236 20.5205 19.1326 19.8612 18.3416 19.2021C16.86 18.5137 15.4099 18.5795 13.991 19.3998C13.233 20.0261 12.4748 20.6522 11.7168 21.2785C11.6179 18.313 11.5849 15.3467 11.6179 12.3795ZM15.573 20.2897C16.2535 20.2504 16.9126 20.3492 17.5505 20.5863C18.3416 21.2455 19.1326 21.9048 19.9236 22.5639C21.242 23.223 22.5602 23.223 23.8787 22.5639C24.6697 21.9048 25.4607 21.2455 26.2517 20.5863C26.892 20.3158 27.5514 20.25 28.2293 20.3886C29.1425 20.972 29.9995 21.6313 30.8001 22.3661C31.2252 22.6452 31.6868 22.8101 32.1843 22.8605C32.2174 36.3738 32.1843 49.8869 32.0855 63.4001C30.7651 68.7078 27.3702 71.5424 21.9011 71.9035C18.0989 71.7664 15.1654 70.1185 13.1011 66.9596C12.5966 66.0826 12.2011 65.1599 11.9146 64.1911C11.6211 50.4215 11.5222 36.6447 11.6179 22.8605C12.249 22.7434 12.8422 22.5127 13.3977 22.1684C14.0442 21.4211 14.7693 20.7948 15.573 20.2897Z" fill="#094A54"/>
</svg>
