<svg width="56" height="64" viewBox="0 0 56 64" fill="none" xmlns="http://www.w3.org/2000/svg">
<path opacity="0.889" fill-rule="evenodd" clip-rule="evenodd" d="M2.24805 0.622805C19.3575 0.593502 36.4669 0.622805 53.5762 0.710696C54.5584 1.16534 55.2322 1.89776 55.5977 2.90796C55.7149 7.06818 55.7149 11.2282 55.5977 15.3884C55.2755 16.6483 54.4844 17.4393 53.2246 17.7615C52.524 17.8492 51.8208 17.8785 51.1152 17.8494C51.1446 31.912 51.1152 45.9745 51.0273 60.0369C50.8927 61.5649 50.1017 62.5903 48.6543 63.113C34.8261 63.2303 20.9981 63.2303 7.16993 63.113C5.72254 62.5903 4.93153 61.5649 4.79688 60.0369C4.70899 45.9745 4.67963 31.912 4.70899 17.8494C3.16334 18.125 1.84498 17.7147 0.753911 16.6189C0.529719 16.2292 0.353938 15.8189 0.226567 15.3884C0.109374 11.2282 0.109374 7.06818 0.226567 2.90796C0.626118 1.89377 1.29989 1.13204 2.24805 0.622805ZM3.12696 1.85327C19.6506 1.82397 36.174 1.85327 52.6973 1.94116C53.4883 2.14625 53.9863 2.64429 54.1914 3.43531C54.3087 7.36103 54.3087 11.2869 54.1914 15.2126C53.8935 15.7743 53.454 16.1844 52.8731 16.4431C52.6974 14.2197 52.6389 11.993 52.6973 9.76343C52.2285 9.76343 51.7598 9.76343 51.291 9.76343C51.291 11.9901 51.291 14.2165 51.291 16.4431C50.4121 16.4431 49.5332 16.4431 48.6543 16.4431C48.6543 14.2165 48.6543 11.9901 48.6543 9.76343C48.1855 9.76343 47.7169 9.76343 47.2481 9.76343C47.2481 11.9901 47.2481 14.2165 47.2481 16.4431C46.3691 16.4431 45.4902 16.4431 44.6113 16.4431C44.6113 14.2165 44.6113 11.9901 44.6113 9.76343C44.1425 9.76343 43.6739 9.76343 43.2051 9.76343C43.2051 11.9901 43.2051 14.2165 43.2051 16.4431C42.3262 16.4431 41.4473 16.4431 40.5684 16.4431C40.5684 14.2165 40.5684 11.9901 40.5684 9.76343C40.0996 9.76343 39.6309 9.76343 39.1621 9.76343C39.1621 11.9901 39.1621 14.2165 39.1621 16.4431C38.2832 16.4431 37.4043 16.4431 36.5254 16.4431C36.5254 14.2165 36.5254 11.9901 36.5254 9.76343C36.1153 9.76343 35.705 9.76343 35.2949 9.76343C35.2949 11.9901 35.2949 14.2165 35.2949 16.4431C34.416 16.4431 33.5371 16.4431 32.6582 16.4431C32.6582 14.2165 32.6582 11.9901 32.6582 9.76343C32.1894 9.76343 31.7208 9.76343 31.252 9.76343C31.252 11.9901 31.252 14.2165 31.252 16.4431C30.3731 16.4431 29.4941 16.4431 28.6152 16.4431C28.6152 14.2165 28.6152 11.9901 28.6152 9.76343C28.1464 9.76343 27.6778 9.76343 27.209 9.76343C27.209 11.9901 27.209 14.2165 27.209 16.4431C26.3301 16.4431 25.4512 16.4431 24.5723 16.4431C24.5723 14.2165 24.5723 11.9901 24.5723 9.76343C24.1035 9.76343 23.6348 9.76343 23.166 9.76343C23.166 11.9901 23.166 14.2165 23.166 16.4431C22.2871 16.4431 21.4082 16.4431 20.5293 16.4431C20.5293 14.2165 20.5293 11.9901 20.5293 9.76343C20.0605 9.76343 19.5919 9.76343 19.1231 9.76343C19.1231 11.9901 19.1231 14.2165 19.1231 16.4431C18.2441 16.4431 17.3652 16.4431 16.4863 16.4431C16.4863 14.2165 16.4863 11.9901 16.4863 9.76343C16.0762 9.76343 15.666 9.76343 15.2559 9.76343C15.2559 11.9901 15.2559 14.2165 15.2559 16.4431C14.377 16.4431 13.4981 16.4431 12.6191 16.4431C12.6191 14.2165 12.6191 11.9901 12.6191 9.76343C12.1503 9.76343 11.6817 9.76343 11.2129 9.76343C11.2129 11.9901 11.2129 14.2165 11.2129 16.4431C10.334 16.4431 9.45508 16.4431 8.57618 16.4431C8.57618 14.2165 8.57618 11.9901 8.57618 9.76343C8.10737 9.76343 7.63874 9.76343 7.16993 9.76343C7.16993 11.9901 7.16993 14.2165 7.16993 16.4431C6.29102 16.4431 5.41211 16.4431 4.53321 16.4431C4.53321 14.2165 4.53321 11.9901 4.53321 9.76343C4.0644 9.76343 3.59577 9.76343 3.12696 9.76343C3.18532 11.993 3.12678 14.2197 2.95118 16.4431C2.35334 16.2777 1.91389 15.9261 1.63282 15.3884C1.51557 11.2869 1.51557 7.18525 1.63282 3.08374C1.95819 2.44095 2.45618 2.0308 3.12696 1.85327ZM6.11524 17.8494C20.6465 17.8494 35.1777 17.8494 49.709 17.8494C49.7955 32.1564 49.7076 46.4532 49.4453 60.74C49.064 61.357 48.5074 61.7379 47.7754 61.8826C34.5333 61.9998 21.291 61.9998 8.04883 61.8826C7.31688 61.7379 6.76018 61.357 6.37891 60.74C6.11665 46.4532 6.02875 32.1564 6.11524 17.8494Z" fill="#094A54"/>
</svg>
