<svg width="74" height="60" viewBox="0 0 74 60" fill="none" xmlns="http://www.w3.org/2000/svg">
<path d="M7.55664 0.539074C5.92188 1.29493 4.56836 3.24611 3.84766 5.83009C3.6543 6.51564 3.54883 7.65821 3.53125 9.08204C3.51367 11.0684 3.47852 11.332 3.10938 11.8418C1.45703 14.1797 1.28125 16.8164 2.61719 19.5234L3.21484 20.7363L2.63477 21.5449C-0.546875 25.9746 -0.546875 30.8613 2.63477 34.377L3.28516 35.0801L2.93359 35.5723C0.876953 38.4902 0.666016 41.8652 2.35352 44.7481L2.8457 45.5742L2.45898 46.3652C1.38672 48.4746 1.07031 51.7441 1.73828 53.7305C2.82812 56.9824 4.70898 58.8633 7.60938 59.6191C9.08594 59.9883 11.8105 59.9883 13.7266 59.6191C14.957 59.3731 15.4141 59.3555 16.2051 59.5137C17.4707 59.7598 20.0195 59.7598 21.2148 59.5137C25.0469 58.7227 27.8418 55.3652 27.9121 51.4981L27.9473 50.2148H29.3711C31.6738 50.2148 34.5566 49.2832 36.2441 48C36.9297 47.4727 37.0703 47.4727 37.7559 48C39.4961 49.3008 42.3262 50.2148 44.6289 50.2148H46.0527L46.0879 51.4981C46.1758 55.3828 48.9531 58.7227 52.7852 59.5137C53.998 59.7598 56.5293 59.7598 57.7949 59.5137C58.6387 59.3379 59.043 59.3555 60.2559 59.6191C61.9609 59.9883 64.6504 60.041 66.0039 59.7246C69.1152 58.9863 71.1543 57.0352 72.2617 53.7305C72.9297 51.7441 72.6133 48.4746 71.5586 46.3828L71.1719 45.6094L71.8223 44.3613C72.7012 42.6914 72.9824 41.0918 72.7012 39.4746C72.4727 38.2969 71.752 36.5567 71.084 35.6074L70.7148 35.0977L71.4531 34.2539C74.459 30.8613 74.4941 26.0274 71.5586 21.8262L70.7676 20.7012L71.2773 19.752C71.998 18.4512 72.3848 16.6406 72.2617 15.3399C72.1562 14.25 71.541 12.7207 70.8555 11.8067C70.4863 11.332 70.4512 11.0859 70.4336 9.16993C70.416 5.83009 69.6426 3.43946 68.0078 1.69923C66.8828 0.503918 65.793 0.0644646 64.0703 0.152355C62.8223 0.20509 62.6289 0.257824 61.7148 0.890636C59.9922 2.06837 58.7969 4.24806 57.918 7.79884C57.7773 8.37892 57.6016 8.60743 56.9688 8.97657C55.8613 9.62696 54.666 11.0332 54.2266 12.2109C54.0156 12.7559 53.8047 13.793 53.752 14.5137L53.6465 15.832L52.3984 17.0625C50.2891 19.1543 49.3926 21.5625 49.5156 24.7617L49.5859 26.4844L48.6895 26.7481C45.9824 27.5215 44.2773 30.1231 43.9434 34.0078C43.873 34.8164 43.7676 35.4317 43.6973 35.3965C41.6406 34.2891 39.6367 33.8145 37 33.8145C34.6094 33.8145 32.9043 34.166 31.1641 34.9922C30.6543 35.2383 30.2324 35.4141 30.2324 35.3965C30.2148 35.3789 30.1094 34.6055 30.0039 33.6914C29.5293 29.8067 28 27.5215 25.3105 26.7481L24.4141 26.4844L24.4844 24.7617C24.6074 21.5625 23.7109 19.1543 21.6016 17.0625L20.3535 15.832L20.248 14.5137C20.1953 13.793 19.9844 12.7559 19.7734 12.2109C19.334 11.0332 18.1387 9.62696 17.0312 8.97657C16.3984 8.60743 16.2227 8.37892 16.082 7.79884C15.0449 3.61525 13.5508 1.31251 11.2832 0.328136C10.4395 -0.0410042 8.55859 0.0644646 7.55664 0.539074ZM11.1777 2.27931C12.7246 3.22853 13.7969 5.44337 14.5879 9.29298C14.6582 9.6797 14.9219 9.90821 15.6953 10.2949C17.6992 11.3145 18.4375 12.6504 18.4551 15.1992C18.4551 16.5352 18.5078 16.8692 18.7539 17.0098C18.9121 17.0977 19.4219 17.4668 19.8965 17.8535C22.1465 19.6289 23.166 22.8106 22.5859 26.2383C22.3574 27.5742 22.3574 27.5918 22.7441 27.9258C22.9727 28.1016 23.3945 28.2422 23.6758 28.2422C26.6816 28.2422 28.6328 31.5469 28.334 36.1524C28.2812 36.9961 28.3164 37.7871 28.4043 37.9629C28.6855 38.4375 29.4062 38.3145 30.2148 37.6465C31.8672 36.3106 34.2402 35.5723 37 35.5723C39.7598 35.5723 42.1328 36.3106 43.7852 37.6465C44.1895 37.9805 44.6816 38.2617 44.8574 38.2617C45.5957 38.2441 45.666 38.0508 45.7012 35.4317C45.7188 33.2871 45.7891 32.707 46.1406 31.6699C46.8438 29.6309 48.5312 28.2422 50.3242 28.2422C50.6055 28.2422 51.0273 28.1016 51.2383 27.9258C51.6074 27.627 51.625 27.5742 51.4141 26.2559C51.1504 24.6387 51.2734 22.5293 51.6953 21.2988C52.2578 19.6289 53.752 17.8535 55.2461 17.0098C55.4922 16.8692 55.5449 16.5352 55.5449 15.1992C55.5625 12.6504 56.3008 11.3145 58.3047 10.2949C59.0781 9.90821 59.3418 9.6797 59.4121 9.29298C60.0449 6.23439 60.8359 4.24806 61.9434 3.05275C62.8574 2.06837 63.4551 1.8047 64.668 1.91017C65.793 1.99806 66.6543 2.56056 67.3398 3.66798C68.4297 5.39064 68.9746 8.25587 68.623 10.418L68.4121 11.7363L69.0273 12.3867C70.873 14.3027 71.0137 16.834 69.4141 19.4707C69.0801 20.0156 68.8164 20.6309 68.8164 20.8242C68.8164 21.0176 69.1328 21.5625 69.5195 22.0195C71.9102 24.9024 72.6133 28.5234 71.3301 31.2305C71.0488 31.8633 70.3281 32.9004 69.7305 33.5684C69.1328 34.2188 68.6406 34.8516 68.6406 34.9746C68.6406 35.0977 68.9746 35.625 69.3613 36.1524C70.75 37.9805 71.2773 39.8613 70.9258 41.707C70.7324 42.6914 70.416 43.3945 69.3262 45.082C69.0977 45.4336 69.1328 45.5566 69.5723 46.3477C72.0156 50.707 70.8555 55.752 67.0059 57.5273C65.9512 58.0195 65.8281 58.0371 63.2793 58.0195C61.5566 58.002 60.3438 57.9141 59.7637 57.7383C59.043 57.5273 58.709 57.5273 57.7422 57.7207C56.3711 57.9844 54.0684 58.002 53.0312 57.7734C49.5508 56.9648 47.3359 53.6426 47.916 50.1445C48.1973 48.4219 48.127 48.3691 45.4902 48.4219C42.4844 48.4922 40.3398 47.8242 38.248 46.1719C37.7559 45.7852 37.2109 45.4688 37.0176 45.4688C36.8242 45.4688 36.1738 45.8379 35.5586 46.3125C33.4316 47.9121 31.5156 48.4922 28.5098 48.4219C25.9082 48.3691 25.8027 48.4395 26.084 50.0742C26.3125 51.4277 26.1191 52.8516 25.5215 54.1348C24.8535 55.5586 23.957 56.4551 22.4805 57.1758C21.2852 57.7734 21.0215 57.8438 19.3691 57.8965C18.2617 57.9492 17.1016 57.8789 16.3457 57.7383C15.2734 57.5273 14.9746 57.5273 14.2363 57.7383C13.6562 57.9141 12.4434 58.002 10.7207 58.0195C8.17188 58.0371 8.04883 58.0195 6.99414 57.5273C3.75977 56.0508 2.30078 51.9902 3.60156 48.1934C3.79492 47.6309 4.14648 46.8223 4.39258 46.418C4.9375 45.4863 4.9375 45.3809 4.375 44.6426C3.74219 43.8164 3.12695 42.3574 2.98633 41.4082C2.75781 39.8438 3.46094 37.7168 4.76172 35.9942C5.0957 35.5723 5.35938 35.1152 5.35938 34.9922C5.35938 34.8516 4.86719 34.2188 4.26953 33.5684C3.67188 32.9004 2.95117 31.8633 2.66992 31.2305C1.38672 28.5234 2.08984 24.9024 4.48047 22.0195C4.86719 21.5625 5.18359 21.0176 5.18359 20.8242C5.18359 20.6309 4.90234 20.0332 4.56836 19.4883C3.02148 16.957 3.14453 14.4082 4.91992 12.4395L5.58789 11.7188L5.37695 10.4004C4.86719 7.30665 6.08008 3.56251 7.97852 2.27931C8.80469 1.71681 10.2988 1.71681 11.1777 2.27931Z" fill="#094A54"/>
<path d="M64.6328 21.9492C64.2637 22.3184 64.4043 22.8984 64.9668 23.4785C65.8809 24.4453 66.4258 25.8516 66.4434 27.2754C66.4434 28.8398 66.1445 29.3848 65.0898 29.666C64.1582 29.9121 63.8945 30.1055 63.8945 30.5977C63.8945 31.1777 64.2285 31.4062 65.1426 31.4062C67.252 31.4062 68.6055 29.1035 68.1309 26.2559C67.6562 23.4434 65.6348 20.9473 64.6328 21.9492Z" fill="#094A54"/>
<path d="M11.0547 29.4374C9.20898 30.9667 8.43555 34.746 9.38477 37.6815L9.78906 38.912L9.26172 39.9667C8.50586 41.4433 8.17188 42.9022 8.17188 44.6776C8.17188 46.5585 8.50586 47.9296 9.4375 49.828C10.1758 51.3222 10.5625 51.7265 11.1602 51.5331C11.8984 51.3046 11.9336 50.8124 11.2832 49.6347C9.70117 46.787 9.47266 43.3065 10.7383 40.8632L10.9844 40.3886L11.9688 40.9159C12.5137 41.1972 13.1113 41.4257 13.2871 41.4257C13.4629 41.4257 13.6211 41.5312 13.6211 41.6718C13.6211 41.7948 13.9023 42.4628 14.2363 43.1483C14.957 44.5897 16.2051 45.8202 17.4004 46.2597C18.2969 46.6112 18.6484 46.5409 18.9297 45.9257C19.1758 45.3632 18.9297 45.0468 17.8926 44.5546C16.416 43.869 15.3965 42.1991 15.2383 40.2479C15.1152 38.7187 15.7305 37.453 16.9609 36.6972C17.9453 36.0819 18.1035 35.5722 17.4707 34.9921C17.1191 34.6757 17.1016 34.6757 16.1348 35.1679C15.5547 35.4843 14.9395 35.994 14.5703 36.4687C14.0078 37.2069 13.4453 38.6483 13.4453 39.3515C13.4453 39.7206 13.0762 39.6327 12.2852 39.0351C10.2988 37.5761 10.1934 32.6718 12.1094 30.8964C13.1816 29.8944 12.1797 28.5058 11.0547 29.4374Z" fill="#094A54"/>
<path d="M58.4278 34.7637C58.2169 34.9746 58.1114 35.2559 58.1642 35.4141C58.2169 35.5899 58.463 36.2578 58.6915 36.9434C59.2716 38.543 59.3067 40.459 58.797 41.8477C58.34 43.0606 57.1798 44.168 56.213 44.3262C54.7892 44.5547 54.3673 44.959 54.7189 45.75C55.1759 46.7168 57.7247 46.0488 59.131 44.5899C59.5177 44.1856 59.8868 43.711 59.9396 43.5352C60.0275 43.2363 60.1681 43.2012 60.8009 43.2891C62.3829 43.5176 64.1407 42.252 65.1075 40.2129C65.5118 39.3516 65.5646 39.0176 65.5646 37.3652C65.5646 36.0469 65.4942 35.4141 65.3185 35.2207C65.0372 34.8692 64.1583 34.834 63.9474 35.1328C63.8771 35.2559 63.8067 36.2051 63.8067 37.2246C63.8067 38.9824 63.7716 39.1231 63.2794 39.9492C62.6993 40.8633 61.7853 41.6016 61.1876 41.6016C60.836 41.6016 60.8185 41.5137 60.8009 39.4395C60.8009 37.6289 60.7306 37.1367 60.379 36.2578C59.9923 35.2383 59.3595 34.3945 58.9728 34.3945C58.8849 34.3945 58.6388 34.5527 58.4278 34.7637Z" fill="#094A54"/>
</svg>
