<svg width="54" height="73" viewBox="0 0 54 73" fill="none" xmlns="http://www.w3.org/2000/svg">
<path opacity="0.865" fill-rule="evenodd" clip-rule="evenodd" d="M24.7259 0.909912C29.5653 2.62232 34.3773 4.43507 39.1619 6.34814C41.0513 7.12927 41.6115 8.48052 40.8428 10.4021C39.4969 11.8364 38.0138 11.9683 36.3934 10.7976C35.7188 12.0648 35.2244 13.383 34.9102 14.7527C42.6964 16.5038 48.2995 20.9863 51.7193 28.1999C53.4856 32.5484 53.9472 37.0307 53.1036 41.6472C51.9295 45.2889 50.9407 48.9803 50.1373 52.7214C49.6344 55.4022 49.3377 58.1049 49.2474 60.8293C50.8919 60.9237 51.9137 61.7805 52.3125 63.4001C52.4444 65.6413 52.4444 67.8826 52.3125 70.1238C51.9275 71.6295 50.9718 72.5194 49.4451 72.7934C41.7327 72.8265 34.0203 72.8593 26.3079 72.8923C18.323 72.923 10.3468 72.8241 2.37969 72.5957C1.25961 72.1345 0.567471 71.3105 0.303272 70.1238C0.17137 67.8826 0.17137 65.6413 0.303272 63.4001C0.567471 62.2134 1.25961 61.3894 2.37969 60.9282C14.7061 60.8293 27.0329 60.7963 39.3597 60.8293C39.3925 59.9699 39.3595 59.113 39.2608 58.2585C31.7325 61.0105 24.5803 60.2523 17.8045 55.9844C16.0979 54.6078 14.45 53.1575 12.8606 51.6338C11.5604 50.9626 10.1761 50.6332 8.70781 50.645C6.73008 49.822 5.90623 48.3388 6.23589 46.1956C6.59837 44.7783 7.48826 43.8884 8.90557 43.5259C16.2883 43.394 23.6713 43.394 31.054 43.5259C33.427 44.3513 34.3169 45.9664 33.7237 48.3708C32.8253 50.1896 31.3421 51.0795 29.2742 51.0405C28.7304 51.6362 28.7962 52.1636 29.472 52.6226C37.3449 52.7572 42.7171 49.1648 45.5889 41.845C47.4796 34.1312 45.1396 28.0997 38.5686 23.7505C36.5387 22.5681 34.3634 21.909 32.0428 21.7729C30.3512 25.7921 28.7363 29.8461 27.1978 33.9348C27.1159 34.0252 27.0171 34.0912 26.9012 34.1326C26.1102 33.8029 25.3191 33.4735 24.5281 33.1438C23.8439 34.4715 23.3167 35.8558 22.9461 37.2966C20.9033 36.7034 18.9258 35.9454 17.0135 35.0225C17.6067 33.6382 18.2 32.2539 18.7933 30.8696C17.8688 30.6711 17.0777 30.2756 16.4202 29.6831C19.3535 22.2015 22.287 14.7197 25.2203 7.23804C25.3747 6.95248 25.3417 6.68887 25.1214 6.44702C22.5632 5.81298 21.8051 4.29688 22.8472 1.89868C23.373 1.33109 23.9993 1.00151 24.7259 0.909912ZM24.7259 2.49194C29.5566 4.31114 34.3686 6.18974 39.1619 8.12793C39.9731 8.98341 39.8082 9.6095 38.6675 10.0066C33.7478 8.1038 28.87 6.1262 24.0337 4.07397C23.7925 3.32387 24.0233 2.79652 24.7259 2.49194ZM26.9012 7.23804C29.5918 8.12397 32.2287 9.14557 34.8113 10.3032C31.9184 17.5731 29.051 24.8571 26.209 32.155C23.591 31.0929 20.9871 30.0052 18.3978 28.8921C21.2604 21.684 24.0948 14.4659 26.9012 7.23804ZM34.0203 16.3347C42.3843 17.8082 48.0203 22.5543 50.9283 30.573C52.0721 34.1492 52.2698 37.7746 51.5215 41.4495C50.3475 45.0911 49.3587 48.7826 48.5552 52.5237C48.0794 55.209 47.7828 57.9115 47.6653 60.6316C45.4242 60.6316 43.1828 60.6316 40.9417 60.6316C41.0072 59.044 40.9413 57.462 40.7439 55.8855C30.5567 60.3753 21.6577 58.5625 14.0472 50.4473C13.3455 50.0634 12.6206 49.734 11.8719 49.4585C10.7785 49.4419 9.72387 49.2441 8.70781 48.8652C7.3265 47.461 7.4584 46.2086 9.10332 45.1079C16.3544 44.976 23.6052 44.976 30.8562 45.1079C32.3283 45.8327 32.6908 46.9203 31.9439 48.3708C31.7038 48.6772 31.4072 48.9077 31.054 49.063C30.0105 49.183 29.0217 49.4466 28.0877 49.854C26.9979 51.2268 27.0637 52.5452 28.2854 53.8091C35.7224 54.7545 41.4901 52.0849 45.5889 45.8C49.5505 37.5737 48.2651 30.2898 41.7327 23.9482C39.0783 21.8801 36.0791 20.5947 32.7349 20.092C33.1375 18.8517 33.5661 17.5992 34.0203 16.3347ZM20.1775 31.5618C21.1663 31.7597 22.0892 32.1222 22.9461 32.6494C22.569 33.551 22.1735 34.4409 21.7596 35.3191C20.8359 34.989 19.979 34.5605 19.1888 34.0337C19.4941 33.1934 19.8236 32.3696 20.1775 31.5618ZM3.36846 62.2136C18.7274 62.1806 34.0864 62.2136 49.4451 62.3125C50.0548 62.4679 50.4831 62.8304 50.7305 63.4001C50.8624 65.5754 50.8624 67.7507 50.7305 69.926C50.5658 70.6182 50.1373 71.0467 49.4451 71.2114C34.0862 71.3433 18.7274 71.3433 3.36846 71.2114C2.83531 71.075 2.40678 70.7783 2.08306 70.3215C1.86573 69.1506 1.76685 67.9641 1.78643 66.762C1.76685 65.5598 1.86573 64.3733 2.08306 63.2024C2.44 62.7424 2.86854 62.413 3.36846 62.2136Z" fill="#094A54"/>
</svg>
