<svg width="80" height="176" viewBox="0 0 80 176" fill="none" xmlns="http://www.w3.org/2000/svg">
<path d="M23.783 0.792969C23.0037 1.27539 22.4842 1.98047 22.1873 2.9082C22.0018 3.6875 21.5565 10.3301 21.2596 17.6777C20.9256 26.2871 20.5174 31.8164 20.1834 33.2637C18.7361 39.1641 15.7303 43.5059 11.0174 46.3633C6.34161 49.1836 2.51934 57.4219 2.51934 64.6211C2.51934 67.293 2.44512 67.4785 1.59161 67.8867C0.366998 68.4434 0.144342 69.5566 0.404108 74.0469C0.84942 82.4707 4.59747 89.0762 10.4979 91.8965C13.6522 93.3809 17.4744 94.123 22.1873 94.123C26.0838 94.123 26.6404 94.0488 28.6443 93.084C29.8318 92.5273 31.8729 91.3027 33.1717 90.375C36.2147 88.2227 37.699 87.6289 39.9998 87.6289C42.3006 87.6289 43.785 88.2227 46.8279 90.375C48.1268 91.3027 50.1678 92.5273 51.3553 93.084C53.3592 94.0488 53.9158 94.123 57.8123 94.123C68.9451 94.123 75.5506 89.8555 78.4451 80.8379C79.6697 76.9785 80.1522 70.002 79.2615 68.6289C78.9647 68.1465 78.5936 66.6621 78.4451 65.3262C77.8885 59.7227 75.5506 53.4512 72.7303 49.8887C71.8768 48.8125 69.9471 47.1055 68.4256 46.1035C64.9744 43.7656 63.2674 41.7988 61.4861 38.0879C59.408 33.709 59.0369 31.1855 58.5545 16.9355C58.3318 9.99609 57.9608 3.79883 57.7752 3.13086C57.5525 2.46289 56.8846 1.49805 56.2908 0.978516L55.1404 0.0507812H40.074C25.7498 0.0507812 24.8963 0.0878906 23.783 0.792969ZM54.8807 3.24219C55.2147 3.65039 55.4744 7.02734 55.8084 15.748C56.365 29.998 56.4764 31.5938 57.2557 34.6367C58.74 40.4258 61.8572 44.8418 67.0154 48.4043C68.8709 49.666 70.2811 51.0391 71.2088 52.375C73.3611 55.4922 75.1424 60.5762 75.8104 65.252L76.0701 67.2188H74.7713C72.8787 67.2188 67.7576 66.1797 64.5291 65.1777C60.8182 63.9902 56.8475 61.9121 51.2811 58.2754C42.1522 52.3008 37.8475 52.3008 28.5701 58.3496C20.8514 63.4336 16.4725 65.3262 9.60723 66.625C4.89434 67.5156 5.117 67.5898 5.117 64.8809C5.117 61.6523 6.00762 57.8672 7.45489 54.7871C9.0877 51.4102 10.201 50.1113 13.5037 47.8848C18.0311 44.8418 21.3338 39.9062 22.744 34.1172C23.2635 32.0762 24.3768 12.7422 24.4139 5.72852C24.4139 2.46289 23.5604 2.64844 39.9627 2.64844C52.6541 2.64844 54.4354 2.72266 54.8807 3.24219ZM44.0076 57.125C44.9725 57.4961 47.6072 59.0918 49.8709 60.6504C54.658 63.9531 59.3709 66.3652 63.6756 67.7383C66.9041 68.7402 72.285 69.8164 74.2889 69.8164C76.8494 69.8164 77.1092 70.0762 77.1092 72.4883C77.1092 77.8691 75.0311 83.6953 71.9881 86.8125C69.7615 89.0762 67.6463 90.0781 63.119 91.043C56.7361 92.3418 52.7283 91.5625 48.0897 88.0371C44.9725 85.6992 43.1912 85.0312 39.9998 85.0312C36.8084 85.0312 35.0272 85.6992 31.91 88.0371C30.8338 88.8906 28.9783 90.0039 27.8279 90.5234C25.9725 91.4141 25.2674 91.5254 22.0018 91.4883C13.3924 91.4141 7.93731 88.5938 5.15411 82.6934C3.85528 79.9844 2.89044 75.5684 2.89044 72.4512V70.2246L4.67169 70.0391C15.2479 68.7402 21.7049 66.4023 29.9803 60.7246C32.1697 59.2402 34.8416 57.6816 35.9549 57.2734C38.4783 56.3086 41.6697 56.2344 44.0076 57.125Z" fill="#094A54"/>
<path d="M5.89648 96.6836C5.67383 96.9434 5.11719 98.502 4.67188 100.098C3.52148 104.439 3.52148 110.934 4.67188 114.719C6.26758 119.691 7.86328 122.326 14.543 130.973C21.5566 139.99 24.1172 144.666 25.9355 151.457C26.6406 154.055 26.7891 155.65 26.7891 160.363C26.8262 163.518 26.6777 167.711 26.4922 169.678L26.1582 173.24L27.3086 174.502L28.4219 175.764L39.8145 175.875L51.1699 175.986L52.3945 174.762L53.6191 173.537L53.8418 167.414C54.1758 157.729 56.1797 151.197 64.4922 132.902C68.834 123.365 71.1348 117.613 72.4336 112.975C74.252 106.629 75.3652 97.7598 74.5117 96.7207C73.8066 95.8672 72.8789 96.0527 71.6914 97.3145C68.9453 100.246 63.5645 101.805 56.1426 101.842C51.3926 101.879 50.5762 101.805 46.5684 100.691C41.1875 99.2441 38.8125 99.1699 34.8047 100.469C25.7129 103.326 11.6113 101.619 8.38281 97.2774C7.5293 96.0899 6.56445 95.8672 5.89648 96.6836ZM14.5801 103.4C21.1855 105.107 29.127 104.959 35.5098 103.029C37.2539 102.51 39.2207 102.102 39.9258 102.102C40.668 102.102 43.748 102.695 46.8281 103.438C52.209 104.736 52.6172 104.773 57.2559 104.588C62.748 104.328 66.8672 103.438 69.9102 101.768L71.9141 100.691V102.139C71.9141 103.957 71.0605 108.188 69.8359 112.418C68.5 117.02 66.4219 122.252 62.1543 131.604C53.6191 150.418 51.1328 158.656 51.1328 167.934C51.1328 170.977 50.9844 172.609 50.6875 172.906C50.3535 173.24 47.459 173.352 39.9629 173.352C31.1309 173.352 29.6465 173.277 29.2012 172.758C28.8301 172.313 28.8301 171.459 29.1641 168.416C30.7969 154.463 28.0137 144.332 19.627 133.311C18.0684 131.27 15.5449 127.967 14.0234 125.963C8.30859 118.504 6.45312 114.051 6.45312 107.854C6.45312 105.813 6.67578 103.289 6.93555 102.25L7.38086 100.357L9.86719 101.582C11.2402 102.287 13.3555 103.104 14.5801 103.4Z" fill="#094A54"/>
</svg>
