<svg width="55" height="88" viewBox="0 0 55 88" fill="none" xmlns="http://www.w3.org/2000/svg">
<path opacity="0.874" fill-rule="evenodd" clip-rule="evenodd" d="M25.0996 0.318498C35.2494 -0.513738 41.7241 3.93938 44.5234 13.6779C46.3408 22.3416 45.3447 30.6619 41.5352 38.6388C39.8023 42.632 37.8394 46.4992 35.6465 50.2404C41.9623 59.4151 48.4075 68.497 54.9824 77.4865C54.8875 77.7058 54.7703 77.911 54.6309 78.1017C54.1621 78.2189 53.6934 78.2189 53.2246 78.1017C50.2172 77.4014 47.2582 76.5517 44.3477 75.5529C44.9886 79.2522 45.5451 82.9729 46.0176 86.715C45.8255 87.4543 45.3566 87.6886 44.6113 87.4181C38.8677 79.4784 33.3014 71.4218 27.9121 63.2482C22.5228 71.4218 16.9565 79.4784 11.2129 87.4181C10.4676 87.6886 9.99877 87.4543 9.80664 86.715C10.2791 82.9729 10.8357 79.2522 11.4766 75.5529C8.56598 76.5517 5.60705 77.4014 2.59961 78.1017C2.1308 78.2189 1.66217 78.2189 1.19336 78.1017C1.02988 77.8918 0.912637 77.6575 0.841797 77.3986C7.41549 68.471 13.8609 59.4476 20.1777 50.3283C16.6449 44.405 13.803 38.1647 11.6523 31.6076C9.90666 24.7851 10.0239 17.9882 12.0039 11.2169C14.3363 5.10237 18.7017 1.46955 25.0996 0.318498ZM26.1543 1.90053C29.3303 1.58159 32.2601 2.25541 34.9434 3.92201C37.6754 6.31564 38.9352 9.33323 38.7227 12.9747C34.8273 9.91983 30.4036 8.71866 25.4512 9.37123C22.4 9.76249 19.6754 10.9051 17.2773 12.799C17.0831 6.63295 20.042 3.00013 26.1543 1.90053ZM16.4863 6.8224C15.2757 10.0525 15.1291 13.3337 16.0469 16.6662C17.5025 21.7461 19.4948 26.6094 22.0234 31.256C26.2413 38.8745 30.8116 46.2573 35.7344 53.4044C41.018 61.0319 46.438 68.5612 51.9941 75.9923C49.1162 75.4481 46.3037 74.6277 43.5566 73.5314C42.8658 73.2816 42.397 73.4867 42.1504 74.1466C42.9462 77.2166 43.5029 80.3222 43.8203 83.463C34.828 71.2269 26.6249 58.4534 19.2109 45.1427C16.5862 40.2562 14.4768 35.1585 12.8828 29.8497C11.9046 24.8224 11.8461 19.7833 12.707 14.7326C13.3165 11.7569 14.5763 9.12018 16.4863 6.8224ZM39.3379 6.8224C41.2479 9.12018 42.5078 11.7569 43.1172 14.7326C43.7906 18.8154 43.9077 22.9169 43.4688 27.0372C42.7799 30.7445 41.6666 34.3188 40.1289 37.7599C38.4978 41.4907 36.6815 45.1236 34.6797 48.6583C32.6341 45.792 30.7297 42.833 28.9668 39.7814C31.5982 35.4282 34.0298 30.9457 36.2617 26.3341C38.0065 22.6819 39.2955 18.8734 40.1289 14.9083C40.6156 12.1348 40.352 9.43949 39.3379 6.8224ZM25.8027 10.8654C29.7427 10.4443 33.3756 11.2939 36.7012 13.4142C37.4064 13.8851 37.9925 14.4711 38.459 15.172C36.9815 20.7353 34.8428 26.0381 32.043 31.0802C30.6953 33.4239 29.3477 35.7678 28 38.1115C23.2493 31.0407 19.7044 23.3942 17.3652 15.172C17.9573 14.287 18.7191 13.5839 19.6504 13.0626C21.5801 11.9233 23.631 11.1909 25.8027 10.8654ZM20.8809 51.9982C21.1575 52.075 21.3627 52.2508 21.4961 52.5255C23.3065 55.5314 25.0936 58.549 26.8574 61.5783C22.1032 69.0653 17.152 76.4189 12.0039 83.6388C12.2983 80.4373 12.855 77.2732 13.6738 74.1466C13.4362 73.4867 12.9675 73.2816 12.2676 73.5314C9.52047 74.6277 6.70797 75.4481 3.83008 75.9923C9.75443 68.1539 15.4381 60.1558 20.8809 51.9982Z" fill="#094A54"/>
</svg>
