<svg width="88" height="85" viewBox="0 0 88 85" fill="none" xmlns="http://www.w3.org/2000/svg">
<path opacity="0.917" fill-rule="evenodd" clip-rule="evenodd" d="M72.5645 0.900401C80.0333 0.632721 84.926 4.03117 87.2422 11.0957C88.4205 16.971 86.692 21.805 82.0567 25.5977C68.9316 37.4335 55.8067 49.2696 42.6817 61.1055C42.1264 61.6472 41.482 62.0575 40.7481 62.3359C40.045 62.4532 39.3418 62.4532 38.6387 62.3359C38.1054 62.0944 37.5781 61.9186 37.0567 61.8086C32.457 67.1114 27.8575 72.414 23.2579 77.7168C20.4883 80.7278 17.1776 82.925 13.3262 84.3086C9.30992 85.5333 5.55991 85.0059 2.07622 82.7266C0.333367 81.4066 -0.16468 79.7367 0.582079 77.7168C9.24908 68.874 17.9795 60.0849 26.7735 51.3496C26.6133 50.9054 26.4376 50.4366 26.2461 49.9434C25.9652 48.6547 26.1996 47.4828 26.9493 46.4277C39.6554 32.4111 52.3409 18.378 65.0059 4.32813C67.22 2.48763 69.7397 1.34506 72.5645 0.900401ZM72.2129 2.48243C78.5894 2.04228 83.0133 4.7376 85.4844 10.5684C86.9172 15.4721 85.8334 19.7201 82.2325 23.3125C68.469 35.6107 54.758 47.9741 41.0997 60.4024C40.2484 60.9007 39.3694 60.9592 38.4629 60.5781C34.9767 57.0919 31.4902 53.6054 28.004 50.1192C27.4181 49.2988 27.4181 48.4786 28.004 47.6582C40.8003 33.3967 53.6617 19.1876 66.5879 5.03126C68.2851 3.75419 70.1602 2.90457 72.2129 2.48243ZM27.9161 52.4043C30.6053 55.0055 33.2712 57.6422 35.9141 60.3145C30.9005 66.6222 25.5977 72.7454 20.0059 78.6836C17.3924 81.0451 14.3454 82.5686 10.8653 83.2539C7.46863 83.8597 4.56824 82.9514 2.16411 80.5293C1.68027 79.8555 1.62169 79.1524 1.98833 78.4199C10.6663 69.7713 19.3089 61.0993 27.9161 52.4043Z" fill="#094A54"/>
</svg>
