<svg width="90" height="90" viewBox="0 0 90 90" fill="none" xmlns="http://www.w3.org/2000/svg">
<path d="M89.5 45C89.5 69.5767 69.5767 89.5 45 89.5C31.3004 89.5 19.047 83.31 10.8832 73.5725C4.402 65.8419 0.5 55.8773 0.5 45C0.5 20.4233 20.4233 0.5 45 0.5C59.9977 0.5 73.2627 7.91889 81.3253 19.2892C86.4738 26.5499 89.5 35.4208 89.5 45Z" stroke="#094A54"/>
<path d="M71.6214 67.1468C68.6081 71.4508 55.5094 74.8322 49.3227 66.7735C42.6294 69.9735 31.5894 68.9815 22.6027 63.9682C21.3547 63.2722 20.1707 62.3922 19.4481 61.1575C17.8134 58.3708 17.7734 54.5042 20.7547 48.8002C25.7281 36.3868 34.6694 25.4935 38.2801 21.1122C39.0214 20.4348 43.7521 19.4748 46.6347 18.5522C47.9094 18.1602 50.2801 17.8962 53.1174 21.6348C54.4641 23.4082 60.5734 27.7602 52.8214 30.6882C51.6214 30.9948 50.7361 31.5575 45.2587 30.5548C44.5441 30.4322 42.7627 30.5548 41.5067 32.7602L38.8854 36.5095C38.6391 36.8568 38.4832 37.2601 38.4321 37.6828C37.9734 41.6828 37.9894 46.6855 35.7601 49.2188C39.2027 46.7308 48.1974 43.7735 54.9761 52.1868M71.6641 47.5068C68.6128 44.7866 64.7226 43.1923 60.6398 42.9891C56.5571 42.7858 52.5277 43.9857 49.2214 46.3895" stroke="#094A54" stroke-linecap="round" stroke-linejoin="round"/>
</svg>
