<svg width="90" height="90" viewBox="0 0 90 90" fill="none" xmlns="http://www.w3.org/2000/svg">
<path d="M56.25 71.25C56.25 76.0714 50.625 82.5 45 82.5M56.25 7.5V20.625M33.75 39.6571C52.7885 30.1013 59.7115 46.0282 78.75 41.25M71.25 7.5H22.5C16.2868 7.5 11.25 12.5368 11.25 18.75V82.5M41.25 71.2496H71.25C75.3921 71.2496 78.75 67.8917 78.75 63.7496V28.125C78.75 23.9829 75.3921 20.625 71.25 20.625H41.25C37.1079 20.625 33.75 23.9829 33.75 28.125V63.7496C33.75 67.8917 37.1079 71.2496 41.25 71.2496Z" stroke="white" stroke-width="2" stroke-linecap="round" stroke-linejoin="round"/>
</svg>
