<svg width="82" height="32" viewBox="0 0 82 32" fill="none" xmlns="http://www.w3.org/2000/svg">
<path d="M1.7124 26.1023H2.52307V27.0852C2.71545 26.4673 3.28269 26.0212 4.06288 26.0212C4.90402 26.0212 5.56269 26.4063 5.74478 27.1054C5.93716 26.4974 6.61602 26.0212 7.39621 26.0212C8.50059 26.0212 9.16954 26.7606 9.16954 27.9968V31.2086H8.35888V28.2094C8.35888 27.3385 7.92345 26.7408 7.20383 26.7408C6.35278 26.7408 5.84612 27.3385 5.84612 28.2094V31.2086H5.03545V28.2094C5.03545 27.3385 4.60002 26.7408 3.89069 26.7408C3.02935 26.7408 2.52307 27.3385 2.52307 28.2094V31.2086H1.7124V26.1023Z" fill="#094A54"/>
<path d="M12.0683 28.1185H15.2093C15.1487 27.2575 14.5708 26.7101 13.6588 26.7101C12.7978 26.7101 12.2203 27.2168 12.0683 28.1185ZM16.0908 29.5673C15.9186 30.6111 15.0169 31.2899 13.7502 31.2899C12.2405 31.2899 11.2275 30.0842 11.2275 28.6252C11.2275 27.1257 12.1593 26.0213 13.6588 26.0213C15.1487 26.0213 16.0401 27.0549 16.0401 28.4122C16.0401 28.5238 16.0298 28.696 16.0199 28.7669H12.0279C12.0885 29.8206 12.7879 30.5707 13.7502 30.5707C14.5811 30.5707 15.1079 30.2057 15.2698 29.5673H16.0908Z" fill="#094A54"/>
<path d="M22.0796 28.6555C22.0796 27.5005 21.4107 26.7507 20.3878 26.7507C19.3642 26.7507 18.6853 27.5005 18.6853 28.6555C18.6853 29.8106 19.3642 30.5603 20.3878 30.5603C21.4107 30.5603 22.0796 29.8106 22.0796 28.6555ZM17.8545 28.6555C17.8545 27.1664 18.7261 26.0212 20.3166 26.0212C21.0358 26.0212 21.7048 26.3858 22.0088 26.9332V24.0052H22.8191V31.209H22.0088V30.3679C21.7048 30.9252 21.0358 31.2898 20.3166 31.2898C18.7261 31.2898 17.8545 30.145 17.8545 28.6555Z" fill="#094A54"/>
<path d="M25.2112 26.1023H26.0219V31.2086H25.2112V26.1023ZM26.0824 25.1397H25.1506V24.0048H26.0824V25.1397Z" fill="#094A54"/>
<path d="M28.0789 28.6555C28.0789 27.2879 28.9505 26.0212 30.5611 26.0212C31.7059 26.0212 32.7291 26.6898 32.8811 27.825H32.0811C31.9798 27.2067 31.3413 26.7507 30.5714 26.7507C29.4568 26.7507 28.92 27.6121 28.92 28.6555C28.92 29.6993 29.4667 30.5603 30.5714 30.5603C31.3413 30.5603 31.8987 30.1751 32.0811 29.5572H32.8712C32.699 30.601 31.8579 31.2898 30.5611 31.2898C28.9505 31.2898 28.0789 30.0231 28.0789 28.6555Z" fill="#094A54"/>
<path d="M38.1611 28.9088V28.777H36.7325C35.9725 28.777 35.4761 29.142 35.4761 29.7393C35.4761 30.2666 35.8914 30.6007 36.5401 30.6007C37.5634 30.6007 38.1611 29.9626 38.1611 28.9088ZM38.9717 27.9157V31.209H38.1611V30.3271C37.8875 30.9146 37.2087 31.2898 36.4186 31.2898C35.3443 31.2898 34.6453 30.6818 34.6453 29.7496C34.6453 28.777 35.4456 28.1591 36.6818 28.1591H37.8369C38.0597 28.1591 38.1611 28.0479 38.1611 27.8852C38.1611 27.1866 37.6647 26.7104 36.7935 26.7104C36.0434 26.7104 35.4555 27.1763 35.4155 27.7332H34.6453C34.7367 26.7507 35.6685 26.0212 36.8136 26.0212C38.1409 26.0212 38.9717 26.7812 38.9717 27.9157Z" fill="#094A54"/>
<path d="M41.2219 24.0052H42.0326V31.209H41.2219V24.0052Z" fill="#094A54"/>
<path d="M47.5549 28.6555C47.5549 27.2879 48.4266 26.0212 50.0372 26.0212C51.182 26.0212 52.2052 26.6898 52.3572 27.825H51.5572C51.4559 27.2067 50.8174 26.7507 50.0475 26.7507C48.9328 26.7507 48.3957 27.6121 48.3957 28.6555C48.3957 29.6993 48.9427 30.5603 50.0475 30.5603C50.8174 30.5603 51.3747 30.1751 51.5572 29.5572H52.3473C52.1751 30.601 51.334 31.2898 50.0372 31.2898C48.4266 31.2898 47.5549 30.0231 47.5549 28.6555Z" fill="#094A54"/>
<path d="M54.9117 28.1185H58.0527C57.9917 27.2575 57.4142 26.7101 56.5026 26.7101C55.6408 26.7101 55.0637 27.2168 54.9117 28.1185ZM58.9338 29.5673C58.762 30.6111 57.8599 31.2899 56.5936 31.2899C55.0839 31.2899 54.0706 30.0842 54.0706 28.6252C54.0706 27.1257 55.0027 26.0213 56.5026 26.0213C57.9917 26.0213 58.8835 27.0549 58.8835 28.4122C58.8835 28.5238 58.8728 28.696 58.8629 28.7669H54.8713C54.9319 29.8206 55.6309 30.5707 56.5936 30.5707C57.4241 30.5707 57.9513 30.2057 58.1132 29.5673H58.9338Z" fill="#094A54"/>
<path d="M60.9917 26.1023H61.8024V27.0852C62.0656 26.3755 62.7041 26.0212 63.4843 26.0212C64.6393 26.0212 65.3887 26.8418 65.3887 28.0882V31.2086H64.5784V28.2197C64.5784 27.3484 64.0717 26.7606 63.3018 26.7606C62.4302 26.7606 61.8024 27.46 61.8024 28.4528V31.2086H60.9917V26.1023Z" fill="#094A54"/>
<path d="M68.9155 24.471V26.1023H70.4858V26.8215H68.9155V29.5876C68.9155 30.1548 69.2397 30.4893 69.7365 30.4893H70.4858V31.2086H69.706C68.7331 31.2086 68.1049 30.6006 68.1049 29.6078V26.8215H67.0413V26.1023H68.1049V24.471H68.9155Z" fill="#094A54"/>
<path d="M72.7866 28.1185H75.9275C75.8669 27.2575 75.289 26.7101 74.377 26.7101C73.5161 26.7101 72.9386 27.2168 72.7866 28.1185ZM76.809 29.5673C76.6368 30.6111 75.7351 31.2899 74.4685 31.2899C72.9588 31.2899 71.9458 30.0842 71.9458 28.6252C71.9458 27.1257 72.8776 26.0213 74.377 26.0213C75.8669 26.0213 76.7584 27.0549 76.7584 28.4122C76.7584 28.5238 76.7481 28.696 76.7382 28.7669H72.7462C72.8068 29.8206 73.5062 30.5707 74.4685 30.5707C75.2993 30.5707 75.8262 30.2057 75.9881 29.5673H76.809Z" fill="#094A54"/>
<path d="M81.0044 26.8216C79.9708 26.8216 79.6771 27.7538 79.6771 28.9595V31.2086H78.8665V26.1023H79.6771V27.1359C79.8901 26.4364 80.3156 26.1023 81.0653 26.1023H81.7137V26.8216H81.0044Z" fill="#094A54"/>
<path d="M19.2526 8.88036C19.1192 8.74474 18.9733 8.68683 18.7821 8.68683H12.2156C12.0244 8.68683 11.8811 8.74474 11.7451 8.88036C11.6122 9.01369 11.5516 9.1596 11.5516 9.34817V10.3691C11.5516 10.5604 11.6122 10.7063 11.7451 10.8396C11.8811 10.9729 12.0244 11.0331 12.2156 11.0331H15.7467L15.739 11.6091C15.7166 12.771 15.3417 13.6865 14.6198 14.3306C13.9032 14.9691 12.7966 15.2785 11.2347 15.2785H8.55352C6.79809 15.2785 5.54324 14.7756 4.82362 13.7821C4.13486 12.8339 3.80038 11.2346 3.80038 8.89064C3.80038 6.53636 4.17752 4.93674 4.952 4.00379C5.75162 3.03807 7.16533 2.57027 9.27276 2.57027H11.6019C13.5737 2.57027 14.851 3.10322 15.3996 4.15731C15.8549 5.03236 16.355 5.13293 16.6895 5.13293H18.2465C18.4103 5.13293 18.5989 5.0575 18.8023 4.90931C18.8575 4.86893 19.0289 4.7455 19.0289 4.26017C19.0289 3.08569 18.3596 2.11731 16.984 1.30017C15.5303 0.437312 13.8728 -2.0793e-05 12.0594 -2.0793e-05H9.14209C6.07124 -2.0793e-05 3.75505 0.726836 2.25371 2.16531C0.759618 3.5935 0 5.85979 0 8.89788C0 11.9413 0.726856 14.2171 2.15771 15.6609C2.87467 16.3828 3.75771 16.9261 4.80381 17.2906C5.85257 17.6529 7.05981 17.8365 8.42285 17.8365H11.3653C14.0442 17.8365 16.0861 17.2228 17.4366 16.0129C18.7897 14.8007 19.4461 13.0956 19.4461 10.8019V9.34817C19.4461 9.1596 19.3859 9.01369 19.2526 8.88036Z" fill="#094A54"/>
<path d="M38.2158 14.846C37.5594 15.7058 36.5408 16.1439 35.1903 16.1439C33.8421 16.1439 32.8261 15.7058 32.172 14.8437C31.5488 14.0163 31.244 12.7885 31.244 11.086C31.244 9.38579 31.5488 8.15836 32.1747 7.34122C32.5015 6.91379 32.9194 6.59417 33.4223 6.37779C33.9251 6.16408 34.5164 6.05589 35.1903 6.05589C36.5381 6.05589 37.5568 6.48865 38.2135 7.33855C38.8448 8.15836 39.1514 9.38351 39.1514 11.086C39.1514 12.7885 38.847 14.0186 38.2158 14.846ZM40.6981 5.94274C39.4482 4.79074 37.5945 4.20713 35.1903 4.20713C32.7884 4.20713 30.9347 4.79074 29.6848 5.94274C28.4448 7.07951 27.8188 8.81512 27.8188 11.0936C27.8188 13.3747 28.4448 15.11 29.6848 16.2517C30.311 16.8304 31.0882 17.2654 32.0063 17.5572C32.9267 17.849 33.9907 17.9949 35.1903 17.9949C37.5945 17.9949 39.4455 17.4086 40.6981 16.2517C41.9354 15.11 42.5644 13.3747 42.5644 11.0936C42.5644 8.81512 41.9381 7.07951 40.6981 5.94274Z" fill="#094A54"/>
<path d="M24.8433 17.7307H22.4365C22.1584 17.7307 21.9336 17.5056 21.9336 17.2279V0.533002C21.9336 0.255288 22.1584 0.0297643 22.4365 0.0297643H24.8433C25.121 0.0297643 25.3462 0.255288 25.3462 0.533002V17.2279C25.3462 17.5056 25.121 17.7307 24.8433 17.7307Z" fill="#094A54"/>
<path d="M54.8576 14.7253C54.234 15.5451 53.2378 15.9603 51.8922 15.9603C50.6827 15.9603 49.664 15.8521 48.8694 15.6384L48.4492 15.5276V15.1401V6.92604L48.8465 6.803C50.0439 6.43347 51.0298 6.25214 51.8648 6.25214C53.248 6.25214 54.2591 6.67233 54.8751 7.49976C55.4587 8.2868 55.7402 9.4689 55.7402 11.1139C55.7402 12.7611 55.4511 13.9432 54.8576 14.7253ZM57.5437 5.963C56.3741 4.7809 54.8252 4.20757 52.8103 4.20757C51.7616 4.20757 50.5418 4.42357 49.186 4.85138L48.4492 5.08261V0.532899C48.4492 0.256328 48.2229 0.030042 47.9463 0.030042H45.5395C45.2625 0.030042 45.0366 0.256328 45.0366 0.532899V15.1401V16.4239C45.0366 16.6293 45.1578 16.814 45.3467 16.8944C45.9505 17.1512 46.7319 17.3817 47.6797 17.5801C48.9978 17.854 50.2854 17.995 51.5101 17.995C56.7414 17.995 59.2839 15.7439 59.2839 11.1139C59.2839 8.8628 58.698 7.12985 57.5437 5.963Z" fill="#094A54"/>
<path d="M81.137 17.7307H78.7302C78.4521 17.7307 78.2273 17.5056 78.2273 17.2279V0.533002C78.2273 0.255288 78.4521 0.0297643 78.7302 0.0297643H81.137C81.4147 0.0297643 81.6399 0.255288 81.6399 0.533002V17.2279C81.6399 17.5056 81.4147 17.7307 81.137 17.7307Z" fill="#094A54"/>
<path d="M71.2632 14.8762C69.9253 15.7189 68.5116 16.1436 67.0632 16.1436C66.2556 16.1436 65.6068 15.9451 65.1367 15.5528C64.6438 15.1429 64.3821 14.5867 64.3821 13.9505C64.3821 13.3143 64.6362 12.7638 65.1165 12.3611C65.5741 11.9764 66.1828 11.7829 66.9299 11.7829H71.5272V14.7105L71.2632 14.8762ZM73.2804 5.49257C72.1234 4.64 70.5489 4.20724 68.5996 4.20724C66.9676 4.20724 62.008 4.09714 62.008 7.29867C62.008 7.40114 62.0308 7.49067 62.0796 7.53943C62.1223 7.58248 62.2106 7.64533 62.3242 7.64533H64.2114C64.6739 7.64533 65.0411 7.45943 65.3703 7.05714C65.9139 6.39315 66.8217 6.056 68.0666 6.056C69.299 6.056 70.1642 6.30248 70.7074 6.81295C71.2609 7.33372 71.5272 8.16876 71.5272 9.36572V9.88381V9.93181H66.6156C64.9101 9.93181 63.507 10.2964 62.448 11.0156C61.4445 11.6998 60.9565 12.653 60.9565 13.9379C60.9565 15.2232 61.4472 16.1867 62.4529 16.8857C63.512 17.6225 64.9002 17.9973 66.5855 18H66.6053C68.2754 18 69.7668 17.5398 71.0419 16.6293L71.5272 16.2796V17.2278C71.5272 17.5044 71.7535 17.731 72.0304 17.731H72.1714H74.4369C74.7139 17.731 74.9402 17.5044 74.9402 17.2278V9.88381V9.36572C74.9402 7.58781 74.3969 6.32 73.2804 5.49257Z" fill="#094A54"/>
</svg>
