<svg width="24" height="24" viewBox="0 0 24 24" fill="none" xmlns="http://www.w3.org/2000/svg">
<mask id="mask0_232_2759" style="mask-type:alpha" maskUnits="userSpaceOnUse" x="0" y="0" width="24" height="24">
<path fill-rule="evenodd" clip-rule="evenodd" d="M6.1847 0.611573L7.15527 0.601562L17.2539 0.60548C17.407 0.607048 17.5022 0.608972 17.5974 0.611573C18.0981 0.624932 18.6031 0.654395 19.0982 0.74278C19.6008 0.832341 20.0683 0.978867 20.5246 1.20986C20.9731 1.43651 21.384 1.73269 21.7399 2.08666C22.0958 2.43978 22.394 2.84754 22.6222 3.29339C22.8551 3.74711 23.0022 4.21144 23.0924 4.71073C23.1814 5.20253 23.211 5.70417 23.2244 6.20149C23.2308 6.42971 23.2336 6.65795 23.2347 6.88656L23.2361 7.29301L23.2363 16.2999C23.2363 16.5709 23.2363 16.842 23.2347 17.1134C23.2336 17.3416 23.2308 17.5699 23.2244 17.7981C23.211 18.295 23.1814 18.7971 23.0924 19.2885C23.0022 19.7878 22.8551 20.2525 22.6222 20.7062C22.394 21.1517 22.0958 21.5594 21.7399 21.913C21.384 22.2665 20.9731 22.5631 20.5246 22.7897C20.0683 23.0207 19.6008 23.1673 19.0982 23.2568C18.6031 23.3452 18.0981 23.3747 17.5974 23.388L16.0891 23.3998L6.52798 23.3941C6.37485 23.3925 6.27979 23.3906 6.1847 23.388C5.68405 23.3747 5.17904 23.3452 4.68391 23.2568C4.18131 23.1673 3.71388 23.0207 3.25751 22.7897C2.80865 22.5631 2.39816 22.2665 2.04223 21.913C1.68634 21.5594 1.38813 21.1517 1.15955 20.7062C0.927043 20.2525 0.779906 19.7878 0.689355 19.2885C0.600364 18.7971 0.571114 18.295 0.557677 17.7981C0.551331 17.5699 0.548566 17.3416 0.547396 17.1134L0.545659 16.7065L0.54541 7.69974C0.54541 7.42867 0.54541 7.15724 0.547396 6.88656C0.548566 6.65795 0.551331 6.42971 0.557677 6.20149C0.571114 5.70417 0.600364 5.20253 0.689355 4.71073C0.779906 4.21144 0.927043 3.74711 1.15955 3.29339C1.38813 2.84754 1.68634 2.43978 2.04223 2.08666C2.39816 1.73269 2.80865 1.43651 3.25751 1.20986C3.71388 0.978867 4.18131 0.832341 4.68391 0.74278C5.17904 0.654395 5.68405 0.624932 6.1847 0.611573Z" fill="white"/>
</mask>
<g mask="url(#mask0_232_2759)">
<path d="M23.2363 0.599609H0.54541V23.3996H23.2363V0.599609Z" fill="#19AA1E"/>
<path fill-rule="evenodd" clip-rule="evenodd" d="M0.54541 0.599609H23.2363V8.08086L0.54541 4.51836V0.599609Z" fill="#FFB919"/>
<path fill-rule="evenodd" clip-rule="evenodd" d="M0.54541 20.9053L23.2363 17.3428V23.399H0.54541V20.9053Z" fill="#82D714"/>
<path fill-rule="evenodd" clip-rule="evenodd" d="M0.54541 4.06738L8.46585 5.31087C9.4518 4.68377 10.6248 4.33995 11.8909 4.33995C13.6444 4.33995 15.2194 4.99955 16.3663 6.15779C16.511 6.30395 16.6475 6.45679 16.7755 6.6155L23.2363 7.62985V8.53127L17.4315 7.61994C17.8628 8.4515 18.0954 9.378 18.0954 10.3235C18.0954 11.545 17.8235 12.763 17.2614 13.9857L17.2443 14.0228L17.0056 14.5368H16.4411C15.2754 14.5368 14.5022 14.8872 13.9967 15.5081C13.5997 15.9956 13.3702 16.6528 13.293 17.3699L13.2906 17.3923L13.2793 17.5069L13.2745 17.5567L13.2654 17.6542C13.2358 17.9744 13.216 18.2459 13.206 18.4671L23.2363 16.8923V17.7938L0.54541 21.3563V20.4548L10.587 18.8783L10.5826 18.6759L10.5813 18.6188L10.5804 18.5896L10.5789 18.5444C10.5698 18.299 10.5475 17.9845 10.5116 17.6032L10.5047 17.531L10.4925 17.4058C10.4204 16.6849 10.1943 16.0194 9.79841 15.5246C9.29818 14.8994 8.53208 14.5439 7.3758 14.5369L7.34066 14.5368H6.77616L6.53744 14.0228C5.96375 12.7876 5.68632 11.5574 5.68632 10.3235C5.68632 8.77188 6.3128 7.27146 7.41547 6.15779C7.44731 6.12565 7.47947 6.09387 7.51194 6.06252L0.54541 4.96877V4.06738Z" fill="white"/>
<path fill-rule="evenodd" clip-rule="evenodd" d="M11.8909 5.23047C15.0588 5.23047 17.2091 7.68051 17.2091 10.3234C17.2091 11.3845 16.9787 12.4886 16.4411 13.6461C13.324 13.6461 12.5545 15.8891 12.4091 17.3005L12.3997 17.3945C12.3505 17.8982 12.3219 18.3024 12.3142 18.6071L11.4698 18.7396L11.4696 18.7122C11.4664 18.3928 11.4364 17.9448 11.3795 17.3681L11.377 17.343C11.2426 15.9347 10.4894 13.6461 7.34073 13.6461C6.80314 12.4886 6.57275 11.3845 6.57275 10.3234C6.57275 7.68051 8.72307 5.23047 11.8909 5.23047Z" fill="#0073FA"/>
</g>
</svg>
