<svg width="18" height="18" viewBox="0 0 18 18" fill="none" xmlns="http://www.w3.org/2000/svg">
<path d="M14.9996 11.9843V13.7908C15.0003 13.9585 14.9659 14.1245 14.8986 14.2781C14.8313 14.4318 14.7325 14.5697 14.6087 14.6831C14.4849 14.7965 14.3387 14.8828 14.1795 14.9365C14.0203 14.9903 13.8517 15.0102 13.6843 14.9951C11.8277 14.7938 10.0443 14.1606 8.47734 13.1465C7.01953 12.222 5.78356 10.9884 4.8572 9.53351C3.83752 7.96259 3.20294 6.17405 3.0049 4.31277C2.98982 4.14625 3.00965 3.97843 3.06312 3.81998C3.11659 3.66153 3.20254 3.51592 3.31548 3.39244C3.42843 3.26896 3.5659 3.1703 3.71915 3.10274C3.87239 3.03519 4.03805 3.00022 4.20558 3.00006H6.01565C6.30846 2.99718 6.59233 3.10067 6.81435 3.29122C7.03637 3.48178 7.18138 3.74641 7.22236 4.03578C7.29876 4.61389 7.44044 5.18152 7.64471 5.72785C7.72589 5.94338 7.74346 6.17761 7.69534 6.4028C7.64722 6.62799 7.53542 6.83469 7.3732 6.99841L6.60694 7.76315C7.46585 9.27069 8.71655 10.5189 10.2271 11.3761L10.9933 10.6114C11.1574 10.4495 11.3645 10.3379 11.5901 10.2899C11.8158 10.2419 12.0505 10.2594 12.2664 10.3404C12.8138 10.5443 13.3826 10.6857 13.9619 10.7619C14.2549 10.8032 14.5226 10.9505 14.714 11.1759C14.9053 11.4013 15.007 11.689 14.9996 11.9843Z" stroke="white" stroke-linecap="round" stroke-linejoin="round"/>
</svg>
