<svg width="62" height="80" viewBox="0 0 62 80" fill="none" xmlns="http://www.w3.org/2000/svg">
<path d="M29.1016 0.296883C27.4492 0.812508 25.9551 2.21876 25.498 3.70313L25.3047 4.37501H20.9805C16.2695 4.37501 15.4961 4.46876 14.3887 5.21876C13.5625 5.78126 12.9121 6.84376 12.7715 7.79688L12.666 8.59376H7.02344C2.18945 8.59376 1.31055 8.62501 0.976562 8.84376L0.589844 9.07813V44.2969C0.589844 76.0938 0.625 79.5313 0.871094 79.75C1.11719 79.9688 4.08789 80 31 80C57.9121 80 60.8828 79.9688 61.1289 79.75C61.375 79.5313 61.4102 76.0938 61.4102 44.2969V9.07813L61.0234 8.84376C60.6895 8.62501 59.8105 8.59376 54.9766 8.59376H49.334L49.2285 7.79688C49.0879 6.84376 48.4375 5.78126 47.6113 5.21876C46.5039 4.46876 45.7305 4.37501 41.0195 4.37501H36.6953L36.502 3.70313C35.6758 0.953133 32.1953 -0.656242 29.1016 0.296883ZM32.248 1.59376C33.6895 1.96876 34.9375 3.32813 35.166 4.76563C35.2188 5.15626 35.3594 5.53126 35.4648 5.60938C35.5879 5.70313 37.8906 5.78126 40.7734 5.81251L45.8887 5.85938L46.5391 6.31251C47.6641 7.06251 47.7168 7.34376 47.6641 11.6406C47.6113 15.8281 47.6113 15.8281 46.3984 16.625C45.9238 16.9531 45.7832 16.9531 31 16.9531C16.2168 16.9531 16.0762 16.9531 15.6016 16.625C15.3379 16.4531 14.9512 16.1094 14.7578 15.875C14.4062 15.4688 14.3887 15.25 14.3887 11.4063C14.3887 7.56251 14.4062 7.34376 14.7578 6.93751C14.9512 6.70313 15.3379 6.35938 15.6016 6.18751C16.0586 5.87501 16.3574 5.85938 21.209 5.81251C24.1094 5.78126 26.4121 5.70313 26.5352 5.60938C26.6406 5.53126 26.7812 5.15626 26.834 4.76563C27.2031 2.40626 29.7344 0.921883 32.248 1.59376ZM12.7188 12.2656V14.5313H10.3809C8.55273 14.5313 7.97266 14.5781 7.65625 14.7813L7.26953 15.0156V44.2344C7.26953 64.0781 7.32227 73.5625 7.44531 73.7656C7.63867 74.0625 8.07812 74.0625 31 74.0625C53.9219 74.0625 54.3613 74.0625 54.5547 73.7656C54.6777 73.5625 54.7305 64.0781 54.7305 44.2344V15.0156L54.3438 14.7813C54.0273 14.5781 53.4473 14.5313 51.6191 14.5313H49.2812V12.2656V10H54.5547H59.8281V44.2969V78.5938H31H2.17188V44.2969V10H7.44531H12.7188V12.2656ZM13.3164 16.5469C13.8965 17.3438 14.7754 17.9375 15.8125 18.2188C17.043 18.5469 44.957 18.5469 46.1875 18.2188C47.2246 17.9375 48.1035 17.3438 48.6836 16.5469L49.1055 15.9375H51.127H53.1484V44.2969V72.6563H31H8.85156V44.2969V15.9375H10.873H12.8945L13.3164 16.5469Z" fill="#094A54"/>
</svg>
