<svg width="76" height="77" viewBox="0 0 76 77" fill="none" xmlns="http://www.w3.org/2000/svg">
<path d="M1.375 46.5H25.75C29.5 46.5 33.25 52.125 37 52.125C40.2412 52.125 46.2839 49.3236 49.0746 54.6167C49.9566 56.2897 48.7786 58.2012 47.0316 58.9255C42.9851 60.6033 38.478 62.8823 37 63.375L25.75 59.625M50.125 55.875L67.285 49.011C68.3267 48.5943 69.4596 48.4585 70.5703 48.6172C74.4957 49.178 75.6047 54.3198 72.2593 56.4486L43.5948 74.6897C41.7855 75.8411 39.5699 76.1628 37.5078 75.5737L1.375 65.25M37 39C29.7812 36.4587 16.375 25.5341 16.375 13.5171C16.375 6.88026 21.4538 1.5 27.7188 1.5C31.5553 1.5 34.9471 3.51767 37 6.60594C39.0529 3.51767 42.4447 1.5 46.2813 1.5C52.5462 1.5 57.625 6.88026 57.625 13.5171C57.625 25.5341 44.2188 36.4587 37 39Z" stroke="white" stroke-width="2" stroke-linecap="round" stroke-linejoin="round"/>
</svg>
