<svg width="1471" height="404" viewBox="0 0 1471 404" fill="none" xmlns="http://www.w3.org/2000/svg">
<path d="M12.3815 27.0626C17.546 28.4676 20.5938 33.7931 19.1889 38.9577C17.784 44.1222 12.4584 47.17 7.29387 45.7651C2.12934 44.3602 -0.918439 39.0346 0.486468 33.87C1.89137 28.7055 7.21696 25.6577 12.3815 27.0626Z" fill="#0AD195"/>
<path d="M8.13371 30.3708L27.3536 -40.2828L33.5877 -38.5869L14.3679 32.0667L8.13371 30.3708Z" fill="#0AD195"/>
<path d="M34.4279 -53.9812C39.5925 -52.5763 42.6402 -47.2507 41.2353 -42.0862C39.8304 -36.9216 34.5048 -33.8739 29.3403 -35.2788C24.1758 -36.6837 21.128 -42.0093 22.5329 -47.1738C23.9378 -52.3383 29.2634 -55.3861 34.4279 -53.9812Z" fill="#0AD195"/>
<path d="M50.061 23.9217C55.2255 25.3266 58.2733 30.6522 56.8684 35.8167C55.4635 40.9812 50.1379 44.029 44.9734 42.6241C39.8089 41.2192 36.7611 35.8936 38.166 30.7291C39.5709 25.5645 44.8965 22.5168 50.061 23.9217Z" fill="#0AD195"/>
<path d="M46.2658 25.5674L57.7977 -16.8248L64.0319 -15.1289L52.4999 27.2633L46.2658 25.5674Z" fill="#0AD195"/>
<path d="M65.3239 -32.1856C70.4885 -30.7807 73.5362 -25.4551 72.1313 -20.2906C70.7264 -15.126 65.4008 -12.0783 60.2363 -13.4832C55.0718 -14.8881 52.024 -20.2137 53.4289 -25.3782C54.8338 -30.5427 60.1594 -33.5905 65.3239 -32.1856Z" fill="#0AD195"/>
<path d="M87.7405 20.7807C92.9051 22.1856 95.9528 27.5112 94.5479 32.6757C93.143 37.8402 87.8174 40.888 82.6529 39.4831C77.4884 38.0782 74.4406 32.7526 75.8455 27.5881C77.2504 22.4236 82.576 19.3758 87.7405 20.7807Z" fill="#0AD195"/>
<path d="M84.3971 20.764L88.241 6.63324L94.4752 8.32912L90.6312 22.4598L84.3971 20.764Z" fill="#0AD195"/>
<path d="M96.2199 -10.39C101.384 -8.98511 104.432 -3.65953 103.027 1.505C101.622 6.66953 96.2968 9.71731 91.1323 8.3124C85.9678 6.9075 82.92 1.58191 84.3249 -3.58262C85.7298 -8.74715 91.0554 -11.7949 96.2199 -10.39Z" fill="#0AD195"/>
<path d="M123.724 23.8754C128.888 25.2803 131.936 30.6059 130.531 35.7704C129.126 40.9349 123.8 43.9827 118.636 42.5778C113.471 41.1729 110.424 35.8473 111.829 30.6828C113.233 25.5183 118.559 22.4705 123.724 23.8754Z" fill="#0AD195"/>
<path d="M120.607 23.0275L120.608 23.024L126.842 24.7199L126.841 24.7234L120.607 23.0275Z" fill="#0AD195"/>
<path d="M128.812 5.16986C133.977 6.57476 137.024 11.9003 135.619 17.0649C134.215 22.2294 128.889 25.2772 123.724 23.8723C118.56 22.4674 115.512 17.1418 116.917 11.9773C118.322 6.81273 123.647 3.76495 128.812 5.16986Z" fill="#0AD195"/>
<path d="M156.316 39.4353C161.481 40.8402 164.528 46.1658 163.123 51.3303C161.719 56.4948 156.393 59.5426 151.228 58.1377C146.064 56.7328 143.016 51.4072 144.421 46.2427C145.826 41.0782 151.152 38.0304 156.316 39.4353Z" fill="#0AD195"/>
<path d="M152.973 39.4186L156.817 25.2878L163.051 26.9837L159.207 41.1144L152.973 39.4186Z" fill="#0AD195"/>
<path d="M164.795 8.26458C169.96 9.66949 173.008 14.9951 171.603 20.1596C170.198 25.3241 164.872 28.3719 159.708 26.967C154.543 25.5621 151.496 20.2365 152.9 15.072C154.305 9.90745 159.631 6.85968 164.795 8.26458Z" fill="#0AD195"/>
<path d="M187.212 61.2309C192.377 62.6358 195.424 67.9614 194.02 73.1259C192.615 78.2904 187.289 81.3382 182.124 79.9333C176.96 78.5284 173.912 73.2028 175.317 68.0383C176.722 62.8737 182.048 59.826 187.212 61.2309Z" fill="#0AD195"/>
<path d="M183.417 62.8766L194.949 20.4844L201.183 22.1803L189.651 64.5725L183.417 62.8766Z" fill="#0AD195"/>
<path d="M202.475 5.1236C207.64 6.52851 210.687 11.8541 209.282 17.0186C207.878 22.1832 202.552 25.2309 197.387 23.826C192.223 22.4211 189.175 17.0955 190.58 11.931C191.985 6.76647 197.31 3.7187 202.475 5.1236Z" fill="#0AD195"/>
<path d="M218.108 83.0264C223.273 84.4313 226.32 89.7569 224.916 94.9215C223.511 100.086 218.185 103.134 213.021 101.729C207.856 100.324 204.808 94.9984 206.213 89.8338C207.618 84.6693 212.944 81.6215 218.108 83.0264Z" fill="#0AD195"/>
<path d="M213.86 86.3346L233.08 15.681L239.314 17.3769L220.095 88.0305L213.86 86.3346Z" fill="#0AD195"/>
<path d="M240.155 1.98262C245.319 3.38752 248.367 8.71311 246.962 13.8776C245.557 19.0422 240.231 22.09 235.067 20.685C229.902 19.2801 226.855 13.9546 228.26 8.79002C229.664 3.62549 234.99 0.577714 240.155 1.98262Z" fill="#0AD195"/>
<path d="M255.788 79.8855C260.952 81.2904 264 86.616 262.595 91.7805C261.19 96.945 255.865 99.9928 250.7 98.5879C245.535 97.183 242.488 91.8574 243.893 86.6929C245.298 81.5283 250.623 78.4806 255.788 79.8855Z" fill="#0AD195"/>
<path d="M251.992 81.5312L263.524 39.139L269.758 40.8349L258.227 83.2271L251.992 81.5312Z" fill="#0AD195"/>
<path d="M271.051 23.7782C276.215 25.1831 279.263 30.5087 277.858 35.6732C276.453 40.8377 271.127 43.8855 265.963 42.4806C260.798 41.0757 257.751 35.7501 259.156 30.5856C260.56 25.4211 265.886 22.3733 271.051 23.7782Z" fill="#0AD195"/>
<path d="M293.467 76.7445C298.632 78.1494 301.679 83.475 300.275 88.6395C298.87 93.804 293.544 96.8518 288.38 95.4469C283.215 94.042 280.167 88.7164 281.572 83.5519C282.977 78.3873 288.303 75.3396 293.467 76.7445Z" fill="#0AD195"/>
<path d="M290.124 76.7278L293.968 62.597L300.202 64.2929L296.358 78.4236L290.124 76.7278Z" fill="#0AD195"/>
<path d="M301.947 45.5738C307.111 46.9787 310.159 52.3043 308.754 57.4688C307.349 62.6333 302.023 65.6811 296.859 64.2762C291.694 62.8713 288.647 57.5457 290.052 52.3812C291.456 47.2166 296.782 44.1689 301.947 45.5738Z" fill="#0AD195"/>
<path d="M329.45 79.8392C334.615 81.2441 337.663 86.5697 336.258 91.7342C334.853 96.8987 329.527 99.9465 324.363 98.5416C319.198 97.1367 316.15 91.8111 317.555 86.6466C318.96 81.4821 324.286 78.4343 329.45 79.8392Z" fill="#0AD195"/>
<path d="M326.333 78.9913L326.334 78.9878L332.569 80.6837L332.568 80.6872L326.333 78.9913Z" fill="#0AD195"/>
<path d="M334.539 61.1336C339.703 62.5386 342.751 67.8641 341.346 73.0287C339.941 78.1932 334.616 81.241 329.451 79.8361C324.287 78.4312 321.239 73.1056 322.644 67.9411C324.049 62.7765 329.374 59.7287 334.539 61.1336Z" fill="#0AD195"/>
<path d="M362.043 95.3991C367.207 96.804 370.255 102.13 368.85 107.294C367.445 112.459 362.12 115.506 356.955 114.102C351.791 112.697 348.743 107.371 350.148 102.206C351.553 97.0419 356.878 93.9942 362.043 95.3991Z" fill="#0AD195"/>
<path d="M358.699 95.3824L362.543 81.2516L368.777 82.9475L364.933 97.0782L358.699 95.3824Z" fill="#0AD195"/>
<path d="M370.522 64.2284C375.687 65.6333 378.734 70.9589 377.33 76.1234C375.925 81.2879 370.599 84.3357 365.434 82.9308C360.27 81.5259 357.222 76.2003 358.627 71.0358C360.032 65.8712 365.358 62.8235 370.522 64.2284Z" fill="#0AD195"/>
<path d="M392.939 117.195C398.103 118.6 401.151 123.925 399.746 129.09C398.341 134.254 393.016 137.302 387.851 135.897C382.687 134.492 379.639 129.167 381.044 124.002C382.449 118.838 387.774 115.79 392.939 117.195Z" fill="#0AD195"/>
<path d="M389.144 118.84L400.675 76.4482L406.91 78.1441L395.378 120.536L389.144 118.84Z" fill="#0AD195"/>
<path d="M408.202 61.0874C413.366 62.4923 416.414 67.8179 415.009 72.9824C413.604 78.1469 408.279 81.1947 403.114 79.7898C397.95 78.3849 394.902 73.0593 396.307 67.8948C397.712 62.7303 403.037 59.6825 408.202 61.0874Z" fill="#0AD195"/>
<path d="M423.835 138.99C428.999 140.395 432.047 145.721 430.642 150.885C429.237 156.05 423.912 159.098 418.747 157.693C413.583 156.288 410.535 150.962 411.94 145.798C413.345 140.633 418.67 137.585 423.835 138.99Z" fill="#0AD195"/>
<path d="M419.587 142.298L438.807 71.6448L445.041 73.3407L425.821 143.994L419.587 142.298Z" fill="#0AD195"/>
<path d="M445.881 57.9464C451.046 59.3513 454.094 64.6769 452.689 69.8414C451.284 75.0059 445.958 78.0537 440.794 76.6488C435.629 75.2439 432.581 69.9183 433.986 64.7538C435.391 59.5893 440.717 56.5415 445.881 57.9464Z" fill="#0AD195"/>
<path d="M461.514 135.849C466.679 137.254 469.727 142.58 468.322 147.744C466.917 152.909 461.591 155.957 456.427 154.552C451.262 153.147 448.214 147.821 449.619 142.657C451.024 137.492 456.35 134.444 461.514 135.849Z" fill="#0AD195"/>
<path d="M457.719 137.495L469.251 95.1028L475.485 96.7987L463.953 139.191L457.719 137.495Z" fill="#0AD195"/>
<path d="M476.777 79.742C481.942 81.1469 484.99 86.4725 483.585 91.637C482.18 96.8015 476.854 99.8493 471.69 98.4444C466.525 97.0395 463.477 91.7139 464.882 86.5494C466.287 81.3849 471.613 78.3371 476.777 79.742Z" fill="#0AD195"/>
<path d="M499.194 132.708C504.358 134.113 507.406 139.439 506.001 144.603C504.596 149.768 499.271 152.816 494.106 151.411C488.942 150.006 485.894 144.68 487.299 139.516C488.704 134.351 494.029 131.303 499.194 132.708Z" fill="#0AD195"/>
<path d="M495.85 132.692L499.694 118.561L505.928 120.257L502.084 134.387L495.85 132.692Z" fill="#0AD195"/>
<path d="M507.673 101.538C512.838 102.942 515.886 108.268 514.481 113.433C513.076 118.597 507.75 121.645 502.586 120.24C497.421 118.835 494.373 113.51 495.778 108.345C497.183 103.18 502.509 100.133 507.673 101.538Z" fill="#0AD195"/>
<path d="M535.177 135.803C540.341 137.208 543.389 142.533 541.984 147.698C540.579 152.863 535.254 155.91 530.089 154.505C524.925 153.1 521.877 147.775 523.282 142.61C524.687 137.446 530.012 134.398 535.177 135.803Z" fill="#0AD195"/>
<path d="M532.06 134.955L532.061 134.952L538.295 136.647L538.294 136.651L532.06 134.955Z" fill="#0AD195"/>
<path d="M540.265 117.097C545.43 118.502 548.478 123.828 547.073 128.992C545.668 134.157 540.342 137.205 535.178 135.8C530.013 134.395 526.965 129.069 528.37 123.905C529.775 118.74 535.101 115.693 540.265 117.097Z" fill="#0AD195"/>
<path d="M567.769 151.363C572.934 152.768 575.982 158.093 574.577 163.258C573.172 168.422 567.846 171.47 562.682 170.065C557.517 168.66 554.469 163.335 555.874 158.17C557.279 153.006 562.605 149.958 567.769 151.363Z" fill="#0AD195"/>
<path d="M564.426 151.346L568.27 137.215L574.504 138.911L570.66 153.042L564.426 151.346Z" fill="#0AD195"/>
<path d="M576.249 120.192C581.413 121.597 584.461 126.923 583.056 132.087C581.651 137.252 576.326 140.299 571.161 138.895C565.997 137.49 562.949 132.164 564.354 127C565.759 121.835 571.084 118.787 576.249 120.192Z" fill="#0AD195"/>
<path d="M598.665 173.158C603.83 174.563 606.878 179.889 605.473 185.053C604.068 190.218 598.742 193.266 593.578 191.861C588.413 190.456 585.366 185.13 586.77 179.966C588.175 174.801 593.501 171.754 598.665 173.158Z" fill="#0AD195"/>
<path d="M594.87 174.804L606.402 132.412L612.636 134.108L601.104 176.5L594.87 174.804Z" fill="#0AD195"/>
<path d="M613.928 117.051C619.093 118.456 622.141 123.782 620.736 128.946C619.331 134.111 614.005 137.159 608.841 135.754C603.676 134.349 600.628 129.023 602.033 123.859C603.438 118.694 608.764 115.646 613.928 117.051Z" fill="#0AD195"/>
<path d="M629.561 194.954C634.726 196.359 637.774 201.685 636.369 206.849C634.964 212.014 629.638 215.061 624.474 213.656C619.309 212.252 616.262 206.926 617.666 201.761C619.071 196.597 624.397 193.549 629.561 194.954Z" fill="#0AD195"/>
<path d="M625.314 198.262L644.534 127.609L650.768 129.304L631.548 199.958L625.314 198.262Z" fill="#0AD195"/>
<path d="M651.608 113.91C656.772 115.315 659.82 120.641 658.415 125.805C657.01 130.97 651.685 134.018 646.52 132.613C641.356 131.208 638.308 125.882 639.713 120.718C641.118 115.553 646.443 112.505 651.608 113.91Z" fill="#0AD195"/>
<path d="M667.241 191.813C672.406 193.218 675.453 198.544 674.048 203.708C672.644 208.873 667.318 211.92 662.153 210.515C656.989 209.111 653.941 203.785 655.346 198.62C656.751 193.456 662.076 190.408 667.241 191.813Z" fill="#0AD195"/>
<path d="M663.446 193.459L674.978 151.067L681.212 152.763L669.68 195.155L663.446 193.459Z" fill="#0AD195"/>
<path d="M682.504 135.706C687.668 137.111 690.716 142.436 689.311 147.601C687.906 152.765 682.581 155.813 677.416 154.408C672.252 153.003 669.204 147.678 670.609 142.513C672.014 137.349 677.339 134.301 682.504 135.706Z" fill="#0AD195"/>
<path d="M704.921 188.672C710.085 190.077 713.133 195.403 711.728 200.567C710.323 205.732 704.997 208.779 699.833 207.375C694.668 205.97 691.621 200.644 693.026 195.48C694.43 190.315 699.756 187.267 704.921 188.672Z" fill="#0AD195"/>
<path d="M701.577 188.655L705.421 174.525L711.655 176.221L707.811 190.351L701.577 188.655Z" fill="#0AD195"/>
<path d="M713.4 157.501C718.564 158.906 721.612 164.232 720.207 169.396C718.802 174.561 713.477 177.609 708.312 176.204C703.148 174.799 700.1 169.473 701.505 164.309C702.91 159.144 708.235 156.096 713.4 157.501Z" fill="#0AD195"/>
<path d="M740.904 191.767C746.068 193.172 749.116 198.497 747.711 203.662C746.306 208.826 740.981 211.874 735.816 210.469C730.651 209.064 727.604 203.739 729.009 198.574C730.414 193.41 735.739 190.362 740.904 191.767Z" fill="#0AD195"/>
<path d="M737.787 190.919L737.788 190.915L744.022 192.611L744.021 192.615L737.787 190.919Z" fill="#0AD195"/>
<path d="M745.992 173.061C751.157 174.466 754.204 179.792 752.799 184.956C751.395 190.121 746.069 193.169 740.904 191.764C735.74 190.359 732.692 185.033 734.097 179.869C735.502 174.704 740.828 171.656 745.992 173.061Z" fill="#0AD195"/>
<path d="M773.496 207.327C778.661 208.732 781.708 214.057 780.304 219.222C778.899 224.386 773.573 227.434 768.409 226.029C763.244 224.624 760.196 219.299 761.601 214.134C763.006 208.97 768.332 205.922 773.496 207.327Z" fill="#0AD195"/>
<path d="M770.153 207.31L773.997 193.179L780.231 194.875L776.387 209.006L770.153 207.31Z" fill="#0AD195"/>
<path d="M781.976 176.156C787.14 177.561 790.188 182.886 788.783 188.051C787.378 193.216 782.053 196.263 776.888 194.858C771.723 193.454 768.676 188.128 770.081 182.963C771.485 177.799 776.811 174.751 781.976 176.156Z" fill="#0AD195"/>
<path d="M804.392 229.122C809.557 230.527 812.605 235.853 811.2 241.017C809.795 246.182 804.469 249.23 799.305 247.825C794.14 246.42 791.092 241.094 792.497 235.93C793.902 230.765 799.228 227.717 804.392 229.122Z" fill="#0AD195"/>
<path d="M800.597 230.768L812.129 188.376L818.363 190.072L806.831 232.464L800.597 230.768Z" fill="#0AD195"/>
<path d="M819.655 173.015C824.82 174.42 827.867 179.746 826.463 184.91C825.058 190.075 819.732 193.122 814.568 191.717C809.403 190.313 806.355 184.987 807.76 179.822C809.165 174.658 814.491 171.61 819.655 173.015Z" fill="#0AD195"/>
<path d="M835.288 250.918C840.453 252.323 843.501 257.648 842.096 262.813C840.691 267.977 835.365 271.025 830.201 269.62C825.036 268.215 821.988 262.89 823.393 257.725C824.798 252.561 830.124 249.513 835.288 250.918Z" fill="#0AD195"/>
<path d="M831.04 254.226L850.26 183.572L856.495 185.268L837.275 255.922L831.04 254.226Z" fill="#0AD195"/>
<path d="M857.335 169.874C862.499 171.279 865.547 176.605 864.142 181.769C862.737 186.934 857.412 189.981 852.247 188.577C847.083 187.172 844.035 181.846 845.44 176.681C846.845 171.517 852.17 168.469 857.335 169.874Z" fill="#0AD195"/>
<path d="M872.968 247.777C878.132 249.182 881.18 254.507 879.775 259.672C878.37 264.836 873.045 267.884 867.88 266.479C862.716 265.074 859.668 259.749 861.073 254.584C862.478 249.42 867.803 246.372 872.968 247.777Z" fill="#0AD195"/>
<path d="M869.173 249.423L880.705 207.03L886.939 208.726L875.407 251.119L869.173 249.423Z" fill="#0AD195"/>
<path d="M888.231 191.67C893.395 193.075 896.443 198.4 895.038 203.565C893.633 208.729 888.308 211.777 883.143 210.372C877.979 208.967 874.931 203.642 876.336 198.477C877.741 193.313 883.066 190.265 888.231 191.67Z" fill="#0AD195"/>
<path d="M910.647 244.636C915.812 246.041 918.86 251.366 917.455 256.531C916.05 261.695 910.724 264.743 905.56 263.338C900.395 261.933 897.347 256.608 898.752 251.443C900.157 246.279 905.483 243.231 910.647 244.636Z" fill="#0AD195"/>
<path d="M907.304 244.619L911.148 230.488L917.382 232.184L913.538 246.315L907.304 244.619Z" fill="#0AD195"/>
<path d="M919.127 213.465C924.291 214.87 927.339 220.196 925.934 225.36C924.529 230.525 919.204 233.573 914.039 232.168C908.875 230.763 905.827 225.437 907.232 220.273C908.637 215.108 913.962 212.06 919.127 213.465Z" fill="#0AD195"/>
<path d="M946.63 247.731C951.795 249.136 954.843 254.461 953.438 259.626C952.033 264.79 946.707 267.838 941.543 266.433C936.378 265.028 933.33 259.703 934.735 254.538C936.14 249.374 941.466 246.326 946.63 247.731Z" fill="#0AD195"/>
<path d="M943.514 246.883L943.515 246.879L949.749 248.575L949.748 248.579L943.514 246.883Z" fill="#0AD195"/>
<path d="M951.719 229.025C956.883 230.43 959.931 235.756 958.526 240.92C957.121 246.085 951.796 249.132 946.631 247.728C941.467 246.323 938.419 240.997 939.824 235.833C941.229 230.668 946.554 227.62 951.719 229.025Z" fill="#0AD195"/>
<path d="M979.223 263.291C984.388 264.695 987.435 270.021 986.03 275.186C984.625 280.35 979.3 283.398 974.135 281.993C968.971 280.588 965.923 275.263 967.328 270.098C968.733 264.933 974.058 261.886 979.223 263.291Z" fill="#0AD195"/>
<path d="M975.879 263.274L979.723 249.143L985.958 250.839L982.114 264.97L975.879 263.274Z" fill="#0AD195"/>
<path d="M987.702 232.12C992.867 233.525 995.915 238.85 994.51 244.015C993.105 249.179 987.779 252.227 982.615 250.822C977.45 249.417 974.402 244.092 975.807 238.927C977.212 233.763 982.538 230.715 987.702 232.12Z" fill="#0AD195"/>
<path d="M1010.12 285.086C1015.28 286.491 1018.33 291.817 1016.93 296.981C1015.52 302.146 1010.2 305.193 1005.03 303.789C999.867 302.384 996.819 297.058 998.224 291.894C999.629 286.729 1004.95 283.681 1010.12 285.086Z" fill="#0AD195"/>
<path d="M1006.32 286.732L1017.86 244.34L1024.09 246.036L1012.56 288.428L1006.32 286.732Z" fill="#0AD195"/>
<path d="M1025.38 228.979C1030.55 230.384 1033.59 235.709 1032.19 240.874C1030.78 246.038 1025.46 249.086 1020.29 247.681C1015.13 246.276 1012.08 240.951 1013.49 235.786C1014.89 230.622 1020.22 227.574 1025.38 228.979Z" fill="#0AD195"/>
<path d="M1041.02 306.882C1046.18 308.287 1049.23 313.612 1047.82 318.777C1046.42 323.941 1041.09 326.989 1035.93 325.584C1030.76 324.179 1027.72 318.854 1029.12 313.689C1030.52 308.525 1035.85 305.477 1041.02 306.882Z" fill="#0AD195"/>
<path d="M1036.77 310.19L1055.99 239.536L1062.22 241.232L1043 311.886L1036.77 310.19Z" fill="#0AD195"/>
<path d="M1063.06 225.838C1068.23 227.243 1071.27 232.568 1069.87 237.733C1068.46 242.897 1063.14 245.945 1057.97 244.54C1052.81 243.135 1049.76 237.81 1051.17 232.645C1052.57 227.481 1057.9 224.433 1063.06 225.838Z" fill="#0AD195"/>
<path d="M1078.69 303.741C1083.86 305.146 1086.91 310.471 1085.5 315.636C1084.1 320.8 1078.77 323.848 1073.61 322.443C1068.44 321.038 1065.39 315.713 1066.8 310.548C1068.2 305.384 1073.53 302.336 1078.69 303.741Z" fill="#0AD195"/>
<path d="M1074.9 305.386L1086.43 262.994L1092.67 264.69L1081.13 307.082L1074.9 305.386Z" fill="#0AD195"/>
<path d="M1093.96 247.633C1099.12 249.038 1102.17 254.364 1100.76 259.528C1099.36 264.693 1094.03 267.741 1088.87 266.336C1083.71 264.931 1080.66 259.605 1082.06 254.441C1083.47 249.276 1088.79 246.229 1093.96 247.633Z" fill="#0AD195"/>
<path d="M1116.37 300.6C1121.54 302.005 1124.59 307.33 1123.18 312.495C1121.78 317.659 1116.45 320.707 1111.29 319.302C1106.12 317.897 1103.07 312.572 1104.48 307.407C1105.88 302.243 1111.21 299.195 1116.37 300.6Z" fill="#0AD195"/>
<path d="M1113.03 300.583L1116.87 286.452L1123.11 288.148L1119.26 302.279L1113.03 300.583Z" fill="#0AD195"/>
<path d="M1124.85 269.429C1130.02 270.834 1133.07 276.16 1131.66 281.324C1130.26 286.489 1124.93 289.536 1119.77 288.131C1114.6 286.727 1111.55 281.401 1112.96 276.236C1114.36 271.072 1119.69 268.024 1124.85 269.429Z" fill="#0AD195"/>
<path d="M1152.36 303.695C1157.52 305.099 1160.57 310.425 1159.16 315.59C1157.76 320.754 1152.43 323.802 1147.27 322.397C1142.1 320.992 1139.06 315.666 1140.46 310.502C1141.87 305.337 1147.19 302.29 1152.36 303.695Z" fill="#0AD195"/>
<path d="M1149.24 302.847L1149.24 302.843L1155.48 304.539L1155.47 304.542L1149.24 302.847Z" fill="#0AD195"/>
<path d="M1157.45 284.989C1162.61 286.394 1165.66 291.719 1164.25 296.884C1162.85 302.048 1157.52 305.096 1152.36 303.691C1147.19 302.286 1144.15 296.961 1145.55 291.796C1146.96 286.632 1152.28 283.584 1157.45 284.989Z" fill="#0AD195"/>
<path d="M1184.95 319.254C1190.11 320.659 1193.16 325.985 1191.76 331.149C1190.35 336.314 1185.03 339.362 1179.86 337.957C1174.7 336.552 1171.65 331.226 1173.05 326.062C1174.46 320.897 1179.79 317.849 1184.95 319.254Z" fill="#0AD195"/>
<path d="M1181.61 319.238L1185.45 305.107L1191.68 306.803L1187.84 320.933L1181.61 319.238Z" fill="#0AD195"/>
<path d="M1193.43 288.084C1198.59 289.489 1201.64 294.814 1200.24 299.979C1198.83 305.143 1193.51 308.191 1188.34 306.786C1183.18 305.381 1180.13 300.056 1181.53 294.891C1182.94 289.727 1188.26 286.679 1193.43 288.084Z" fill="#0AD195"/>
<path d="M1215.85 341.05C1221.01 342.455 1224.06 347.78 1222.65 352.945C1221.25 358.11 1215.92 361.157 1210.76 359.752C1205.59 358.347 1202.55 353.022 1203.95 347.857C1205.36 342.693 1210.68 339.645 1215.85 341.05Z" fill="#0AD195"/>
<path d="M1212.05 342.696L1223.58 300.303L1229.82 301.999L1218.28 344.391L1212.05 342.696Z" fill="#0AD195"/>
<path d="M1231.11 284.943C1236.27 286.348 1239.32 291.673 1237.92 296.838C1236.51 302.002 1231.19 305.05 1226.02 303.645C1220.86 302.24 1217.81 296.915 1219.21 291.75C1220.62 286.586 1225.94 283.538 1231.11 284.943Z" fill="#0AD195"/>
<path d="M1246.74 362.846C1251.91 364.25 1254.95 369.576 1253.55 374.741C1252.14 379.905 1246.82 382.953 1241.65 381.548C1236.49 380.143 1233.44 374.817 1234.85 369.653C1236.25 364.488 1241.58 361.441 1246.74 362.846Z" fill="#0AD195"/>
<path d="M1242.49 366.154L1261.71 295.5L1267.95 297.196L1248.73 367.849L1242.49 366.154Z" fill="#0AD195"/>
<path d="M1268.79 281.802C1273.95 283.207 1277 288.532 1275.6 293.697C1274.19 298.861 1268.87 301.909 1263.7 300.504C1258.54 299.099 1255.49 293.774 1256.89 288.609C1258.3 283.445 1263.62 280.397 1268.79 281.802Z" fill="#0AD195"/>
<path d="M1284.42 359.705C1289.59 361.109 1292.63 366.435 1291.23 371.6C1289.82 376.764 1284.5 379.812 1279.33 378.407C1274.17 377.002 1271.12 371.677 1272.53 366.512C1273.93 361.347 1279.26 358.3 1284.42 359.705Z" fill="#0AD195"/>
<path d="M1280.63 361.35L1292.16 318.958L1298.39 320.654L1286.86 363.046L1280.63 361.35Z" fill="#0AD195"/>
<path d="M1299.68 303.597C1304.85 305.002 1307.9 310.328 1306.49 315.492C1305.09 320.657 1299.76 323.705 1294.6 322.3C1289.43 320.895 1286.38 315.569 1287.79 310.405C1289.19 305.24 1294.52 302.192 1299.68 303.597Z" fill="#0AD195"/>
<path d="M1322.1 356.564C1327.27 357.969 1330.31 363.294 1328.91 368.459C1327.5 373.623 1322.18 376.671 1317.01 375.266C1311.85 373.861 1308.8 368.536 1310.21 363.371C1311.61 358.206 1316.94 355.159 1322.1 356.564Z" fill="#0AD195"/>
<path d="M1318.76 356.547L1322.6 342.416L1328.84 344.112L1324.99 358.243L1318.76 356.547Z" fill="#0AD195"/>
<path d="M1330.58 325.393C1335.74 326.798 1338.79 332.123 1337.39 337.288C1335.98 342.452 1330.66 345.5 1325.49 344.095C1320.33 342.69 1317.28 337.365 1318.69 332.2C1320.09 327.036 1325.42 323.988 1330.58 325.393Z" fill="#0AD195"/>
<path d="M1358.08 359.658C1363.25 361.063 1366.3 366.389 1364.89 371.553C1363.49 376.718 1358.16 379.766 1353 378.361C1347.83 376.956 1344.78 371.63 1346.19 366.466C1347.59 361.301 1352.92 358.253 1358.08 359.658Z" fill="#0AD195"/>
<path d="M1354.97 358.81L1354.97 358.807L1361.2 360.503L1361.2 360.506L1354.97 358.81Z" fill="#0AD195"/>
<path d="M1363.17 340.953C1368.34 342.358 1371.38 347.683 1369.98 352.848C1368.57 358.012 1363.25 361.06 1358.08 359.655C1352.92 358.25 1349.87 352.925 1351.28 347.76C1352.68 342.596 1358.01 339.548 1363.17 340.953Z" fill="#0AD195"/>
<path d="M1390.68 375.218C1395.84 376.623 1398.89 381.949 1397.48 387.113C1396.08 392.278 1390.75 395.326 1385.59 393.921C1380.42 392.516 1377.38 387.19 1378.78 382.026C1380.19 376.861 1385.51 373.813 1390.68 375.218Z" fill="#0AD195"/>
<path d="M1387.33 375.201L1391.18 361.071L1397.41 362.767L1393.57 376.897L1387.33 375.201Z" fill="#0AD195"/>
<path d="M1399.16 344.047C1404.32 345.452 1407.37 350.778 1405.96 355.943C1404.56 361.107 1399.23 364.155 1394.07 362.75C1388.9 361.345 1385.86 356.019 1387.26 350.855C1388.67 345.69 1393.99 342.643 1399.16 344.047Z" fill="#0AD195"/>
<path d="M1421.57 397.014C1426.74 398.419 1429.78 403.744 1428.38 408.909C1426.98 414.073 1421.65 417.121 1416.49 415.716C1411.32 414.311 1408.27 408.986 1409.68 403.821C1411.08 398.657 1416.41 395.609 1421.57 397.014Z" fill="#0AD195"/>
<path d="M1417.78 398.659L1429.31 356.267L1435.54 357.963L1424.01 400.355L1417.78 398.659Z" fill="#0AD195"/>
<path d="M1436.84 340.907C1442 342.311 1445.05 347.637 1443.64 352.802C1442.24 357.966 1436.91 361.014 1431.75 359.609C1426.58 358.204 1423.54 352.879 1424.94 347.714C1426.35 342.549 1431.67 339.502 1436.84 340.907Z" fill="#0AD195"/>
<path d="M1452.47 418.809C1457.63 420.214 1460.68 425.54 1459.28 430.704C1457.87 435.869 1452.55 438.917 1447.38 437.512C1442.22 436.107 1439.17 430.781 1440.57 425.617C1441.98 420.452 1447.3 417.404 1452.47 418.809Z" fill="#0AD195"/>
<path d="M1448.22 422.117L1467.44 351.464L1473.67 353.16L1454.46 423.813L1448.22 422.117Z" fill="#0AD195"/>
<path d="M1474.52 337.766C1479.68 339.17 1482.73 344.496 1481.32 349.661C1479.92 354.825 1474.59 357.873 1469.43 356.468C1464.26 355.063 1461.22 349.738 1462.62 344.573C1464.02 339.408 1469.35 336.361 1474.52 337.766Z" fill="#0AD195"/>
</svg>
