<svg width="60" height="60" viewBox="0 0 60 60" fill="none" xmlns="http://www.w3.org/2000/svg">
<path opacity="0.888" fill-rule="evenodd" clip-rule="evenodd" d="M38.877 0.732578C46.4219 0.0682476 52.3105 2.82209 56.543 8.9943C60.2801 15.9333 59.87 22.6129 55.3125 29.0334C51.4091 33.5478 46.4579 35.745 40.459 35.6252C38.3194 36.1245 36.8253 37.3844 35.9766 39.4045C35.6498 41.6887 35.2982 43.9739 34.9219 46.2599C32.7216 53.0892 28.1221 57.2788 21.1231 58.8283C13.0384 59.8392 6.91537 56.8803 2.75393 49.9513C0.999419 46.4601 0.354882 42.7687 0.820334 38.8771C2.1526 24.9041 8.68584 14.1522 20.4199 6.62125C26.1341 3.22217 32.2864 1.25929 38.877 0.732578ZM38.877 2.13883C45.3197 1.48183 50.5638 3.64984 54.6094 8.64273C58.9076 15.4298 58.6733 22.051 53.9063 28.506C50.0985 32.5894 45.3816 34.5524 39.7559 34.3947C36.6678 35.3734 34.8221 37.4535 34.2188 40.6349C34.236 46.9003 31.6872 51.7928 26.5723 55.3127C20.0844 58.8212 13.8735 58.4111 7.93947 54.0822C3.33119 49.9861 1.42683 44.8591 2.22658 38.7013C3.91197 23.511 11.5585 12.5247 25.166 5.74234C29.5555 3.76639 34.1258 2.56519 38.877 2.13883Z" fill="#094A54"/>
</svg>
