<svg width="19" height="19" viewBox="0 0 19 19" fill="none" xmlns="http://www.w3.org/2000/svg">
<path d="M14.7875 4.18278C14.0998 3.48836 13.2808 2.93776 12.3781 2.56306C11.4755 2.18835 10.5073 1.99705 9.53001 2.00028C5.43501 2.00028 2.09751 5.33778 2.09751 9.43279C2.09751 10.7453 2.44251 12.0203 3.08751 13.1453L2.03751 17.0003L5.97501 15.9653C7.06251 16.5578 8.28501 16.8728 9.53001 16.8728C13.625 16.8728 16.9625 13.5353 16.9625 9.44028C16.9625 7.45279 16.19 5.58528 14.7875 4.18278ZM9.53001 15.6128C8.42001 15.6128 7.33251 15.3128 6.38001 14.7503L6.15501 14.6153L3.81501 15.2303L4.43751 12.9503L4.28751 12.7178C3.67067 11.7331 3.3432 10.5947 3.34251 9.43279C3.34251 6.02778 6.11751 3.25278 9.52251 3.25278C11.1725 3.25278 12.725 3.89778 13.8875 5.06778C14.4632 5.64068 14.9194 6.32219 15.2297 7.07278C15.54 7.82337 15.6982 8.6281 15.695 9.44028C15.71 12.8453 12.935 15.6128 9.53001 15.6128ZM12.92 10.9928C12.7325 10.9028 11.8175 10.4528 11.6525 10.3853C11.48 10.3253 11.36 10.2953 11.2325 10.4753C11.105 10.6628 10.7525 11.0828 10.6475 11.2028C10.5425 11.3303 10.43 11.3453 10.2425 11.2478C10.055 11.1578 9.45501 10.9553 8.75001 10.3253C8.19501 9.83029 7.82751 9.22278 7.71501 9.03528C7.61001 8.84778 7.70001 8.75028 7.79751 8.65278C7.88001 8.57028 7.98501 8.43528 8.07501 8.33028C8.16501 8.22528 8.20251 8.14278 8.26251 8.02278C8.32251 7.89528 8.29251 7.79028 8.24751 7.70028C8.20251 7.61028 7.82751 6.69528 7.67751 6.32028C7.52751 5.96028 7.37001 6.00528 7.25751 5.99778H6.89751C6.77001 5.99778 6.57501 6.04278 6.40251 6.23028C6.23751 6.41778 5.75751 6.86778 5.75751 7.78278C5.75751 8.69778 6.42501 9.58279 6.51501 9.70279C6.60501 9.83029 7.82751 11.7053 9.68751 12.5078C10.13 12.7028 10.475 12.8153 10.745 12.8978C11.1875 13.0403 11.5925 13.0178 11.915 12.9728C12.275 12.9203 13.0175 12.5228 13.1675 12.0878C13.325 11.6528 13.325 11.2853 13.2725 11.2028C13.22 11.1203 13.1075 11.0828 12.92 10.9928Z" fill="white"/>
</svg>
